<?xml version="1.0" encoding="UTF-8" standalone="no"?>
<svg version="1.1" xmlns="http://www.w3.org/2000/svg" xmlns:xlink="http://www.w3.org/1999/xlink" width="170" height="120">
	<g id="bsl-a" transform="matrix(1,0,0,1,0,120)">
		<path fill="black" stroke="black" stroke-width="0.1" d="M 167.901,-9.14933 C 167.901,-8.83333 167.783,-8.57067 167.547,-8.36 C 166.955,-7.94 166.416,-7.992 165.943,-8.51733 C 159.265,-15.564 155.519,-19.8227 154.691,-21.2947 C 154.085,-22.3467 151.943,-24.608 148.263,-28.0773 C 144.569,-31.548 142.308,-33.4413 141.467,-33.756 C 140.284,-34.072 137.365,-35.912 132.725,-39.2773 C 128.913,-42.116 126.403,-44.0627 125.22,-45.1133 C 117.713,-51.7387 112.692,-55.3933 110.129,-56.076 C 107.565,-56.76 103.425,-58.8893 97.72,-62.4653 L 97.1813,-62.78 C 91.4627,-66.4613 87.8347,-69.5107 86.284,-71.9293 C 85.3373,-73.296 82.8267,-74.7693 78.7787,-76.3467 L 75.9253,-77.608 C 75.6893,-77.608 75.452,-77.66 75.216,-77.7653 L 71.8107,-79.1853 C 71.456,-79.1853 71.1013,-79.3427 70.7467,-79.6587 L 64.1347,-82.34 L 58.2453,-85.18 C 58.1267,-85.18 58.0093,-85.232 57.8907,-85.3373 C 57.2867,-85.7573 56.8133,-86.0213 56.4573,-86.1267 L 56.2733,-85.968 C 56.156,-85.3373 56.1027,-84.496 56.1027,-83.444 C 56.1027,-81.5653 56.8133,-80.1453 58.2453,-79.1987 L 62.5307,-76.3587 C 66.3427,-73.7307 70.6813,-70.852 75.5707,-67.6973 C 76.3987,-67.276 78.7253,-65.12 82.5373,-61.216 C 85.508,-58.0613 87.296,-56.2733 87.888,-55.8533 C 89.5573,-54.5907 91.7653,-52.264 94.5,-48.9 C 94.6173,-48.6893 94.684,-48.4787 94.684,-48.268 L 94.592,-48.268 C 94.592,-47.7427 94.6173,-47.4267 94.684,-47.3227 C 94.684,-45.324 95.0387,-43.852 95.748,-42.9053 C 96.1027,-42.38 96.2867,-41.696 96.2867,-40.8547 C 96.2867,-39.6973 95.8147,-37.7 94.8547,-34.86 C 94.2627,-33.1773 94,-32.1267 94.052,-31.7053 C 94.1187,-31.2853 93.908,-30.812 93.4347,-30.2867 C 92.712,-29.1293 91.0813,-27.8933 88.5187,-26.5787 C 85.9547,-25.2653 83.6027,-24.5027 81.46,-24.292 C 77.884,-23.6613 76.1093,-24.344 76.1093,-26.3427 C 76.0573,-26.3427 76.0573,-26.3947 76.1093,-26.5 L 75.216,-28.0773 C 73.6653,-27.552 72.652,-27.0267 72.1787,-26.5 C 71.6933,-25.9747 71.3387,-25.4493 71.1013,-24.9227 L 79.856,-17.5093 C 85.2067,-16.4573 89.86,-15.932 93.7893,-15.932 C 95.0907,-15.932 96.2867,-15.984 97.352,-16.0893 C 99.8627,-16.5107 102.86,-15.7213 106.383,-13.724 C 109.892,-11.7253 112.481,-10.6733 114.139,-10.568 C 118.792,-10.568 124.628,-10.2 131.647,-9.464 C 133.672,-8.728 136.051,-7.78133 138.785,-6.62533 C 139.508,-6.30933 139.679,-5.836 139.324,-5.20533 C 138.969,-4.57467 138.431,-4.41733 137.72,-4.732 C 136.405,-5.36267 134.092,-6.25733 130.753,-7.41333 C 129.439,-7.83467 126.771,-8.14933 122.721,-8.36 C 119.856,-8.36 117.004,-8.41333 114.139,-8.51733 C 111.996,-8.62267 109.143,-9.72667 105.568,-11.8307 C 102.36,-13.6187 99.744,-14.3547 97.72,-14.0387 C 96.6427,-13.828 95.328,-13.724 93.7893,-13.724 C 89.3867,-13.724 84.444,-14.3013 78.9627,-15.4587 C 78.844,-15.564 78.66,-15.6693 78.4227,-15.7747 L 68.788,-23.976 C 68.5387,-24.292 68.4853,-24.66 68.604,-25.08 C 68.84,-25.8173 69.3533,-26.684 70.116,-27.684 C 70.8907,-28.6827 72.2973,-29.4973 74.3213,-30.128 C 73.836,-31.916 73.48,-33.2307 73.244,-34.072 C 70.628,-31.548 69.024,-30.0227 68.42,-29.4973 C 66.632,-27.5 64.5547,-26.3427 62.176,-26.0267 C 60.7427,-26.132 58.956,-25.9213 56.8133,-25.396 C 55.512,-24.24 54.8547,-20.9267 54.8547,-15.4587 C 54.8547,-8.51733 54.368,-3.83867 53.4213,-1.42 C 53.1853,-0.789333 52.6453,-0.578667 51.8173,-0.789333 C 51.0947,-0.998667 50.8587,-1.42 51.0947,-2.05067 L 51.0947,-2.05067 C 51.936,-4.46933 52.356,-8.93867 52.356,-15.4587 C 52.356,-21.452 53.2373,-25.2907 55.0253,-26.9733 C 55.8667,-27.7093 56.9973,-28.0773 58.416,-28.0773 C 59.4947,-28.0773 60.6253,-28.0773 61.8213,-28.0773 C 63.596,-28.3933 65.212,-29.2867 66.632,-30.7587 C 67.3547,-31.6 69.5507,-33.756 73.244,-37.2267 L 73.428,-37.2267 C 74.1373,-38.488 75.268,-39.9613 76.82,-41.644 C 77.2933,-42.064 78.068,-42.5893 79.1467,-43.2213 C 79.264,-43.7467 82.708,-46.428 89.4907,-51.2653 C 88.1893,-52.632 87.152,-53.6053 86.376,-54.184 C 85.6,-54.7627 83.72,-56.628 80.7493,-59.784 C 78.844,-61.676 76.7013,-63.7267 74.3213,-65.9347 C 73.48,-66.356 69.0773,-69.3 61.0987,-74.7693 L 56.8133,-77.608 C 56.4573,-77.8187 56.156,-78.0293 55.9187,-78.2387 L 53.2373,-66.5667 C 53.0013,-65.8307 52.528,-65.5667 51.8173,-65.7773 C 50.976,-65.8827 50.6213,-66.2507 50.74,-66.8813 L 53.776,-79.816 C 53.4213,-83.2867 52.1067,-86.4947 49.8453,-89.4387 C 48.544,-91.2267 47.348,-92.068 46.284,-91.9627 C 45.5613,-91.9627 44.8507,-91.9093 44.1413,-91.8053 C 44.0093,-91.7 43.9573,-91.4893 43.9573,-91.1733 C 45.6267,-90.8587 46.5733,-90.28 46.8093,-89.4387 C 47.0467,-88.5973 47.164,-86.4413 47.164,-82.9707 C 47.164,-82.656 46.928,-82.3933 46.4547,-82.1827 C 46.6907,-82.288 45.8627,-82.3933 43.9573,-82.4987 L 43.4187,-81.8667 C 43.3,-81.236 43.2467,-80.552 43.2467,-79.816 C 43.1947,-79.6067 43.1547,-79.2907 43.1547,-78.8707 C 43.1547,-78.4493 43.1947,-78.1867 43.2467,-78.0813 C 43.2467,-77.1347 42.7347,-75.6893 41.7227,-73.744 C 40.7107,-71.7973 40.1453,-70.404 40.0267,-69.564 L 40.0267,-68.932 C 39.7907,-67.3547 39.6067,-66.356 39.488,-65.9347 C 39.2507,-65.1987 38.8307,-64.568 38.2387,-64.0427 C 37.292,-63.2013 35.5573,-61.0453 33.06,-57.5747 C 30.3253,-53.684 28.9587,-51.16 28.9587,-50.004 C 28.9587,-46.744 28.5907,-43.3253 27.88,-39.7507 L 19.8493,-11.988 C 19.7307,-11.3573 19.244,-11.1467 18.416,-11.3573 C 17.8253,-11.4627 17.5227,-11.7773 17.5227,-12.304 C 17.4693,-12.4093 17.4693,-12.5147 17.5227,-12.6187 L 25.5533,-40.0653 C 26.2773,-44.7987 26.632,-48.0587 26.632,-49.8453 C 26.632,-51.6333 28.1173,-54.6307 31.1013,-58.8373 C 33.5987,-62.3067 35.3867,-64.516 36.4507,-65.4627 C 37.0427,-65.988 37.464,-67.1973 37.7,-69.0907 L 37.7,-69.7213 C 37.8187,-70.8773 38.476,-72.508 39.672,-74.6107 C 40.5,-76.3987 40.92,-77.5027 40.92,-77.924 L 40.92,-78.2387 C 40.8027,-78.7653 40.736,-79.2907 40.736,-79.816 C 40.736,-80.7627 40.92,-81.6573 41.276,-82.4987 L 41.276,-82.8133 L 41.8147,-83.444 L 41.092,-90.5427 C 41.092,-90.8587 41.276,-91.1213 41.6307,-91.332 C 41.6307,-92.1733 41.932,-92.804 42.524,-93.224 C 42.7613,-93.54 43.9573,-93.8027 46.1,-94.0133 C 48.124,-94.1187 50.0293,-92.9613 51.8173,-90.5427 C 52.6453,-89.3867 53.4213,-88.124 54.1307,-86.7573 C 54.368,-87.388 54.788,-87.808 55.38,-88.0187 C 55.9853,-88.2293 57.352,-87.808 59.4947,-86.7573 C 63.8973,-93.5267 66.632,-97.6013 67.7107,-98.9813 L 69.668,-101.676 C 69.7867,-101.9 69.9707,-102.005 70.208,-102.005 C 71.9947,-102.952 75.032,-104.595 79.3173,-106.921 C 81.5773,-108.196 85.1533,-110.733 90.0307,-114.545 L 90.2147,-114.703 C 91.4107,-115.335 92.5933,-115.44 93.7893,-115.019 C 95.696,-114.388 96.6427,-112.811 96.6427,-110.287 C 96.6427,-108.079 95.1573,-105.384 92.1733,-102.228 C 91.3453,-101.283 86.876,-97.2333 78.7787,-90.0827 C 77.9493,-89.2413 76.1627,-86.1787 73.428,-80.92 L 75.5707,-79.9747 C 77.8453,-83.444 79.2773,-85.4947 79.8827,-86.1267 C 80.2373,-86.336 80.8947,-87.072 81.8547,-88.3347 C 83.524,-90.1227 84.6013,-91.2267 85.0747,-91.6467 C 85.3107,-91.752 86.2707,-92.2773 87.94,-93.224 C 90.4507,-94.696 93.264,-96.432 96.3667,-98.4293 C 96.8387,-98.8507 98.5747,-99.8493 101.572,-101.427 C 103.241,-102.268 105.147,-103.267 107.303,-104.424 C 107.657,-105.265 108.709,-105.739 110.457,-105.844 C 112.324,-105.844 113.441,-105.423 113.796,-104.581 L 113.967,-104.424 C 115.032,-101.9 114.861,-99.376 113.428,-96.852 C 112.481,-94.96 110.628,-93.0667 107.895,-91.1733 C 105.633,-89.7013 103.372,-88.2293 101.112,-86.7573 L 100.388,-86.1267 C 98.128,-84.444 95.748,-82.3933 93.2507,-79.9747 C 92.7773,-79.1333 91.1613,-76.9773 88.4267,-73.5067 C 92.8307,-76.5307 95.2493,-78.3573 95.656,-79.0013 C 96.0773,-79.6453 98.548,-81 103.071,-83.0373 C 106.645,-84.7587 108.723,-85.8627 109.327,-86.3493 C 109.919,-86.836 110.747,-86.9667 111.824,-86.7573 C 114.559,-86.4413 115.925,-84.8373 115.925,-81.9453 C 115.925,-80.0267 114.743,-78.1467 112.364,-76.3333 C 110.457,-74.8347 108.249,-73.7173 105.752,-72.968 C 102.887,-70.6147 100.507,-68.748 98.6013,-67.3547 C 101.94,-68.932 103.793,-69.984 104.148,-70.5093 C 105.804,-72.7187 107.54,-73.8227 109.327,-73.8227 C 110.155,-73.8227 111.023,-73.48 111.916,-72.7973 C 112.811,-72.1133 113.139,-71.1413 112.889,-69.8787 L 112.719,-68.7747 C 112.364,-66.776 109.919,-63.9893 105.397,-60.4147 C 107.657,-59.2573 109.497,-58.4693 110.931,-58.048 C 113.783,-57.312 119.081,-53.5267 126.823,-46.6907 C 128.137,-45.5347 130.701,-43.536 134.513,-40.6973 C 138.799,-37.6467 141.348,-35.9653 142.189,-35.6493 C 143.491,-35.228 146.055,-33.204 149.867,-29.576 C 153.679,-25.948 155.965,-23.4773 156.741,-22.1627 C 157.516,-20.848 161.171,-16.72 167.731,-9.78 C 167.848,-9.67467 167.901,-9.464 167.901,-9.14933 Z M 112.364,-101.112 C 112.364,-101.848 112.127,-102.689 111.64,-103.635 C 110.812,-103.845 110.129,-103.74 109.589,-103.32 C 109.051,-102.899 106.764,-101.637 102.715,-99.5333 C 99.7307,-97.7467 95.2093,-95.064 89.136,-91.4893 C 88.4267,-91.068 87.5333,-90.5427 86.468,-89.912 C 86.1,-89.7013 85.2987,-88.8333 84.0493,-87.3093 C 82.8,-85.784 81.9987,-84.9173 81.644,-84.7067 C 81.0387,-84.18 79.7373,-82.34 77.7133,-79.1853 L 79.856,-78.2387 C 82.3533,-77.188 84.5613,-75.9787 86.468,-74.6107 C 89.084,-78.068 90.6347,-80.224 91.108,-81.0653 C 91.5813,-81.9067 94.144,-84.1147 98.7853,-87.6773 L 99.4947,-88.308 C 101.637,-89.6747 103.78,-91.0947 105.923,-92.58 C 108.669,-94.368 110.457,-96.0507 111.285,-97.628 C 112.008,-98.8893 112.364,-100.06 112.364,-101.112 Z M 94.316,-110.26 C 94.316,-111.837 93.8427,-112.784 92.896,-113.1 C 92.528,-113.205 92.0547,-113.152 91.4627,-112.941 C 86.704,-109.156 83.1293,-106.605 80.7493,-105.292 C 78.3707,-103.977 75.3347,-102.373 71.64,-100.48 L 69.668,-97.7987 C 68.7227,-96.5373 66.04,-92.5933 61.6373,-85.968 L 65.212,-84.2333 L 71.2853,-81.7093 C 74.3747,-87.5987 76.28,-90.8587 77.004,-91.4893 C 85.1013,-98.64 89.5573,-102.636 90.3853,-103.477 C 93.0147,-106.317 94.316,-108.577 94.316,-110.26 Z M 112.719,-83.9173 C 112.245,-84.6533 111.588,-84.812 110.76,-84.3907 C 110.155,-83.8653 107.96,-82.7347 104.148,-81 C 100.336,-79.264 98.2453,-78.2387 97.8907,-77.924 C 97.3,-76.872 94.5,-74.7693 89.4907,-71.6133 C 90.8053,-70.4573 92.5413,-69.0373 94.684,-67.3547 L 94.684,-67.3547 C 97.772,-69.7733 101.164,-72.2973 104.857,-74.9267 C 105.568,-75.032 106.883,-75.5573 108.788,-76.504 C 111.877,-78.292 113.428,-80.0267 113.428,-81.7093 C 113.428,-82.4453 113.192,-83.1813 112.719,-83.9173 Z M 110.576,-70.352 C 110.695,-70.8773 110.339,-71.3507 109.497,-71.772 C 108.669,-72.192 107.592,-71.404 106.291,-69.4053 C 105.568,-68.4587 102.887,-66.9347 98.2453,-64.8307 L 98.6013,-64.516 L 99.14,-64.2 C 99.9813,-63.6747 101.348,-62.8333 103.255,-61.676 C 107.657,-64.7253 110.037,-67.1973 110.392,-69.0907 Z M 91.6467,-48.7413 L 90.924,-49.688 C 89.7413,-48.7413 88.5453,-47.848 87.3613,-47.0067 C 88.7813,-47.6373 90.2147,-48.216 91.6467,-48.7413 Z M 44.6667,-84.548 C 44.6667,-86.8627 44.6147,-88.2813 44.496,-88.808 C 44.2587,-88.9133 43.9573,-89.0173 43.6027,-89.1227 L 44.1413,-84.7067 C 44.2467,-84.7067 44.4307,-84.6533 44.6667,-84.548 Z M 93.96,-41.012 C 93.96,-41.328 93.908,-41.5907 93.7893,-41.8013 C 92.8307,-42.9573 92.3573,-44.588 92.3573,-46.6907 C 84.496,-43.7467 79.908,-41.5907 78.6067,-40.224 C 76.3467,-37.9107 75.216,-36.3333 75.216,-35.492 L 75.216,-35.3333 C 75.5707,-34.5973 76.1093,-32.7573 76.82,-29.8133 L 78.4227,-27.1307 C 78.4227,-27.0267 78.4227,-26.8947 78.4227,-26.7373 C 78.4227,-26.5787 78.4227,-26.448 78.4227,-26.3427 L 78.4227,-26.3427 L 78.4227,-26.3427 C 78.896,-26.132 79.7907,-26.132 81.1053,-26.3427 C 83.0107,-26.5533 85.1533,-27.3147 87.5333,-28.6293 C 89.912,-29.944 91.2787,-30.9173 91.6467,-31.548 C 91.6467,-31.548 91.5813,-31.6 91.4627,-31.7053 C 91.4627,-32.232 91.7,-33.1253 92.1733,-34.3867 C 90.148,-34.3867 87.7173,-33.9147 84.8507,-32.968 C 84.1413,-32.7573 83.6027,-32.968 83.248,-33.5987 C 83.0107,-34.2293 83.248,-34.7027 83.9573,-35.0187 C 87.6507,-36.0693 90.6347,-36.5427 92.896,-36.4373 C 93.6053,-38.5413 93.96,-40.0653 93.96,-41.012 Z "/>
	</g>
</svg>