<?xml version="1.0" encoding="UTF-8" standalone="no"?>
<svg version="1.1" xmlns="http://www.w3.org/2000/svg" xmlns:xlink="http://www.w3.org/1999/xlink" width="190" height="105">
	<g id="bsl-b" transform="matrix(1,0,0,1,-170,100)">
		<path fill="black" stroke="black" stroke-width="0.1" d="M 356.849,-14.512 C 357.336,-13.8813 357.217,-13.3547 356.495,-12.9347 C 355.785,-12.6187 355.193,-12.7773 354.72,-13.408 C 350.659,-19.192 345.965,-29.8133 340.603,-45.272 C 340.247,-46.2173 337.381,-50.608 332.032,-58.4427 C 326.668,-66.2773 323.513,-70.5627 322.567,-71.2987 C 318.873,-73.5067 315.364,-75.1893 312.025,-76.3467 C 310.001,-77.0827 306.845,-79.028 302.56,-82.1827 C 298.985,-84.812 296.843,-86.5987 296.133,-87.5453 C 295.777,-87.756 295.173,-87.9667 294.345,-88.176 C 293.517,-88.3867 292.977,-88.44 292.741,-88.3347 C 291.781,-87.704 284.341,-85.18 270.408,-80.7627 L 266.123,-71.1413 C 268.869,-74.0853 270.527,-76.596 271.131,-78.6987 C 271.249,-79.12 271.485,-79.3827 271.841,-79.488 L 290.599,-86.1 C 290.953,-86.3107 291.308,-86.3107 291.664,-86.1 C 300.233,-81.5907 306.425,-77.66 310.237,-74.3093 C 311.197,-73.48 312.8,-72.7973 315.061,-72.2707 C 316.968,-71.7453 318.045,-71.272 318.283,-70.852 C 321.371,-67.6053 323.224,-65.672 323.816,-65.0413 C 323.935,-64.8307 323.987,-64.6213 323.987,-64.4107 C 323.987,-63.964 323.816,-63.6347 323.461,-63.412 C 322.739,-62.8853 322.12,-62.9387 321.581,-63.5693 C 321.043,-64.2 319.228,-66.1453 316.14,-69.4053 L 316.14,-69.564 C 314.825,-69.8787 313.484,-70.2467 312.117,-70.668 C 310.749,-71.088 309.528,-71.772 308.449,-72.7187 C 305.124,-75.6627 299.288,-79.3427 290.953,-83.76 L 273.444,-77.608 C 272.616,-75.4 271.012,-72.928 268.633,-70.1947 C 269.343,-69.3533 269.764,-68.0387 269.883,-66.2507 C 270,-65.8307 269.883,-65.4627 269.515,-65.1467 L 264.873,-61.992 C 267.372,-61.1507 269.107,-61.1507 270.053,-61.992 C 271.604,-63.3587 273.931,-66.304 277.02,-70.8253 C 277.256,-71.036 277.559,-71.1933 277.913,-71.2987 C 279.465,-71.7187 281.305,-71.9293 283.448,-71.9293 C 283.935,-71.9293 284.617,-71.8507 285.512,-71.6933 C 286.392,-71.5347 287.023,-71.404 287.379,-71.2987 L 287.563,-71.456 C 288.036,-72.192 288.575,-72.508 289.165,-72.4027 C 289.876,-72.4027 290.48,-71.772 290.953,-70.5093 C 291.427,-68.932 292.019,-67.9067 292.741,-67.4333 C 293.451,-66.96 294.529,-65.9347 295.949,-64.3573 C 296.908,-63.2013 297.565,-62.5173 297.92,-62.3067 C 298.985,-62.8333 300.3,-63.096 301.851,-63.096 C 302.679,-63.096 303.1,-62.728 303.1,-61.992 C 303.1,-61.256 302.679,-60.888 301.851,-60.888 C 301.009,-60.888 300.233,-60.7293 299.524,-60.4147 C 299.432,-58.416 299.432,-56.8387 299.524,-55.6827 L 300.957,-56.7867 C 301.667,-57.2067 302.259,-57.1013 302.744,-56.4707 C 303.336,-55.9453 303.271,-55.4187 302.56,-54.8933 L 294.884,-49.688 C 294.897,-49.5827 294.911,-49.4773 294.911,-49.372 L 294.884,-49.2147 C 294.884,-48.4787 294.411,-48.1627 293.451,-48.268 L 280.951,-49.8453 C 280.477,-49.8453 280.123,-50.056 279.885,-50.4773 C 279.044,-51.844 277.559,-54.1053 275.416,-57.26 C 274.456,-58.416 273.089,-59.3107 271.301,-59.9413 C 271.065,-59.836 270.895,-59.7307 270.776,-59.6253 C 271.604,-58.9947 272.551,-56.9973 273.628,-53.632 C 273.865,-53.1053 273.681,-52.6853 273.089,-52.3693 L 271.301,-51.108 C 272.261,-48.7947 272.853,-46.4813 273.089,-44.1667 L 275.416,-42.6027 L 287.917,-32.192 C 296.133,-28.4067 305.176,-25.8827 315.061,-24.62 C 316.376,-24.4107 317.98,-23.516 319.885,-21.9387 C 321.792,-20.3613 323.159,-18.732 324,-17.0493 C 324.828,-14.8413 326.905,-9.33333 330.244,-0.5 C 330.363,-0.394667 330.428,-0.289333 330.428,-0.184 C 330.428,0.446667 330.125,0.814667 329.535,0.92 C 328.693,1.236 328.167,1.02533 327.931,0.289333 C 326.261,-4.128 324.119,-9.596 321.489,-16.1027 C 320.897,-17.5747 319.82,-18.968 318.283,-20.2827 C 316.731,-21.5973 315.535,-22.3067 314.707,-22.412 C 304.112,-23.6747 294.765,-26.2507 286.668,-30.1413 C 286.549,-30.2467 286.432,-30.2987 286.313,-30.2987 L 273.628,-40.868 L 270.947,-42.5893 C 270.711,-42.8133 270.592,-43.076 270.592,-43.3787 C 270.356,-45.7973 269.699,-48.1627 268.633,-50.4773 C 268.265,-50.792 268.147,-51.108 268.265,-51.4227 L 268.265,-51.5813 C 267.319,-53.3693 266.241,-54.9467 265.057,-56.3133 L 258.445,-50.004 C 255.831,-45.1667 253.385,-41.9067 251.124,-40.224 C 249.455,-39.3827 246.957,-37.9627 243.619,-35.9653 C 241.476,-34.5973 239.163,-32.7573 236.665,-30.444 C 231.183,-28.972 224.571,-26.7107 216.829,-23.6613 C 216.473,-23.3453 216.119,-23.1347 215.764,-23.0307 L 203.789,-1.42 C 203.435,-0.684 202.843,-0.525333 202.015,-0.946667 C 201.292,-1.26133 201.12,-1.73467 201.476,-2.36667 L 212.544,-22.5573 C 211.952,-22.6613 211.413,-22.872 210.94,-23.188 C 207.009,-22.136 204.801,-21.268 204.328,-20.5853 C 203.855,-19.9013 203.263,-19.7707 202.54,-20.1907 C 201.831,-20.612 201.712,-21.1373 202.185,-21.768 C 203.145,-23.0307 206.063,-24.292 210.94,-25.5533 C 211.532,-25.764 212.017,-25.6587 212.373,-25.2387 C 212.728,-24.8173 213.267,-24.66 213.976,-24.7653 C 214.213,-24.976 214.516,-25.08 214.871,-25.08 C 218.077,-26.9733 224.808,-29.34 235.048,-32.1787 C 237.427,-34.492 239.753,-36.3333 242.015,-37.7 C 243.684,-38.6467 246.181,-40.1187 249.52,-42.116 C 251.308,-43.3787 253.385,-46.1653 255.764,-50.4773 L 255.239,-50.9507 C 254.871,-51.16 254.752,-51.4227 254.871,-51.7387 L 254.871,-51.896 C 254.871,-52.7373 255.357,-54.0787 256.304,-55.9187 C 257.249,-57.7587 259.879,-58.8893 264.164,-59.3107 C 263.572,-60.2573 262.495,-60.52 260.944,-60.0987 C 260.707,-60.0987 260.471,-60.0987 260.233,-60.0987 C 259.76,-60.204 259.287,-60.3093 258.801,-60.4147 C 258.445,-60.0987 258.025,-59.9933 257.552,-60.0987 L 257.381,-60.0987 C 257.013,-59.888 256.659,-59.784 256.304,-59.784 C 253.805,-59.9933 250.467,-57.7853 246.3,-53.1587 C 244.157,-50.74 242.369,-49.5307 240.949,-49.5307 C 238.676,-49.5307 235.587,-50.3187 231.656,-51.896 C 231.301,-52.1067 231.065,-52.3693 230.947,-52.6853 C 230.828,-53.4213 230.46,-55.2613 229.869,-58.2067 C 229.895,-58.3107 229.895,-58.4693 229.869,-58.6787 L 231.84,-67.828 C 231.959,-68.2493 232.196,-68.512 232.551,-68.6173 C 237.545,-70.9307 240.464,-72.6653 241.305,-73.8227 C 241.779,-74.5587 242.369,-74.9267 243.092,-74.9267 C 243.803,-75.032 245.235,-74.296 247.377,-72.7187 C 250.112,-70.6147 251.597,-69.5107 251.835,-69.4053 C 253.859,-68.3547 255.055,-66.724 255.409,-64.516 C 255.528,-63.9893 256.119,-63.3587 257.197,-62.6227 C 257.079,-63.464 257.013,-64.2533 257.013,-64.9893 C 257.013,-67.1973 257.197,-68.5387 257.552,-69.0107 C 257.907,-69.484 258.393,-69.7733 258.985,-69.8787 C 258.393,-72.508 257.973,-74.032 257.736,-74.4533 C 257.736,-74.5587 257.433,-74.8733 256.843,-75.4 C 256.251,-75.9253 255.593,-76.7147 254.871,-77.7653 C 254.516,-78.1867 252.32,-79.764 248.272,-82.4987 C 245.643,-84.2853 244.184,-85.364 243.895,-85.732 C 243.592,-86.1 242.436,-86.284 240.411,-86.284 C 239.452,-86.1787 235.468,-84.548 228.436,-81.3933 L 227.727,-80.92 C 225.701,-80.08 223.98,-79.5533 222.547,-79.3427 C 219.457,-78.8173 217.131,-77.7653 215.58,-76.188 C 214.988,-75.5573 214.397,-75.5053 213.792,-76.0307 C 213.083,-76.4507 213.017,-76.9773 213.621,-77.608 C 215.528,-79.7107 218.38,-81.0253 222.192,-81.552 C 223.269,-81.7613 224.689,-82.2347 226.477,-82.9707 L 227.371,-83.444 C 234.877,-86.8093 239.215,-88.492 240.411,-88.492 C 243.381,-88.492 245.288,-88.0453 246.129,-87.152 C 246.365,-86.9413 247.615,-86.0467 249.876,-84.456 C 254.633,-81.184 257.144,-79.172 257.381,-78.436 C 257.5,-78.3307 257.973,-77.8573 258.801,-77.004 C 259.643,-76.1627 260.141,-75.5307 260.325,-75.1107 C 260.496,-74.6893 260.891,-73.152 261.483,-70.5093 C 263.152,-73.664 263.98,-75.452 263.98,-75.8733 C 263.98,-76.2933 263.572,-77.188 262.731,-78.5547 L 262.021,-79.6587 C 261.061,-81.0253 255.055,-84.9173 243.987,-91.332 C 243.027,-91.436 241.779,-91.2267 240.227,-90.7 C 239.399,-90.3853 237.072,-89.228 233.26,-87.2307 C 228.147,-84.6013 225.084,-83.2347 224.072,-83.1293 C 223.06,-83.024 220.969,-82.3667 217.815,-81.1573 C 214.66,-79.948 212.78,-79.1333 212.189,-78.712 C 211.243,-78.0813 210.283,-76.872 209.336,-75.084 C 208.021,-70.7733 205.997,-65.3573 203.263,-58.8373 C 200.648,-54.8413 197.243,-49.5307 193.076,-42.9053 C 191.775,-41.1173 189.421,-37.0427 186.031,-30.68 C 182.625,-24.3187 180.877,-20.7693 180.759,-20.0333 C 180.641,-19.7173 180.523,-19.5067 180.404,-19.4027 C 179.917,-18.9813 179.444,-18.876 178.971,-19.0867 C 178.38,-19.2973 178.077,-19.612 178.077,-20.0333 C 178.077,-20.664 179.865,-24.3707 183.44,-31.1533 C 187.003,-37.9493 189.448,-42.288 190.763,-44.18 C 192.419,-46.5987 195.823,-51.8573 200.936,-59.9547 C 204.157,-69.1027 206.181,-74.4667 207.009,-76.044 C 208.088,-78.2653 209.271,-79.7907 210.585,-80.632 C 212.728,-81.9987 216.172,-83.5227 220.943,-85.2053 C 226.412,-86.9933 230.053,-88.3613 231.84,-89.3067 C 235.889,-91.3053 238.387,-92.5147 239.333,-92.9347 C 241.712,-93.6707 243.5,-93.9347 244.696,-93.724 C 244.933,-93.6187 245.117,-93.5667 245.235,-93.5667 L 246.655,-92.5933 C 246.773,-92.5933 246.892,-92.5933 247.023,-92.5933 C 259.879,-87.336 266.661,-84.18 267.372,-83.1293 C 267.74,-82.708 267.976,-82.288 268.095,-81.8667 L 268.265,-82.1827 C 268.384,-82.4987 268.633,-82.708 268.988,-82.8133 C 282.909,-87.2307 290.296,-89.7013 291.124,-90.2267 C 291.965,-90.7533 293.215,-90.8587 294.884,-90.5427 C 296.435,-90.2267 297.5,-89.7013 298.091,-88.9653 C 298.696,-88.2293 300.773,-86.5467 304.348,-83.9173 C 308.279,-80.868 311.131,-79.028 312.919,-78.3973 C 316.495,-77.24 320.188,-75.5053 323.987,-73.192 C 324.947,-72.6653 328.285,-68.2493 333.991,-59.9413 C 339.708,-51.6333 342.745,-46.9533 343.1,-45.9027 C 343.823,-43.7987 345.729,-39.0667 348.817,-31.7053 C 352.512,-22.7667 355.193,-17.036 356.849,-14.512 Z M 297.027,-54.1053 C 296.789,-54.6307 296.724,-56.6813 296.843,-60.2573 C 296.251,-60.4667 295.541,-61.0453 294.7,-61.992 C 295.423,-61.0453 295.949,-59.9413 296.317,-58.6787 C 296.329,-58.5747 296.343,-58.4693 296.343,-58.364 C 296.343,-58.2587 296.329,-58.2067 296.317,-58.2067 C 295.949,-56.208 295.66,-54.4733 295.423,-53 Z M 266.477,-78.712 C 266.477,-79.5533 266.071,-80.6053 265.229,-81.8667 C 264.756,-82.288 262.731,-83.2867 259.156,-84.864 C 262.021,-82.8667 263.691,-81.4987 264.164,-80.7627 L 264.873,-79.6587 C 265.229,-79.2387 265.649,-78.5547 266.123,-77.608 C 266.241,-77.7133 266.333,-77.8453 266.399,-78.0027 C 266.451,-78.16 266.477,-78.3973 266.477,-78.712 Z M 293.807,-58.364 C 293.215,-59.836 292.505,-60.9933 291.664,-61.8347 C 291.308,-62.2547 290.244,-64.7253 288.456,-69.248 C 287.969,-69.0373 287.141,-69.0373 285.959,-69.248 C 284.999,-69.4587 284.171,-69.564 283.448,-69.564 C 281.792,-69.564 280.293,-69.4587 278.992,-69.248 C 276.731,-65.988 274.759,-63.464 273.089,-61.676 C 274.996,-60.94 276.52,-59.836 277.651,-58.364 C 278.781,-56.892 280.24,-54.788 282.028,-52.0547 L 292.912,-50.6347 C 292.793,-50.9507 292.741,-51.2653 292.741,-51.5813 C 292.741,-52.8427 293.096,-55.104 293.807,-58.364 Z M 254.871,-77.608 L 254.871,-77.924 L 254.871,-77.7653 Z M 267.2,-66.5667 C 267.083,-67.1973 266.964,-67.776 266.845,-68.3013 C 265.649,-67.144 264.519,-66.04 263.455,-64.9893 L 263.809,-64.2 Z M 261.483,-62.6227 L 260.049,-67.828 C 259.932,-67.828 259.879,-67.828 259.879,-67.828 C 259.76,-67.408 259.695,-66.4613 259.695,-64.9893 C 259.721,-64.2533 259.721,-63.464 259.695,-62.6227 C 259.932,-62.5173 260.168,-62.4653 260.417,-62.4653 C 260.772,-62.4653 261.128,-62.5173 261.483,-62.6227 Z M 270.947,-53.7893 C 270.356,-55.156 269.58,-56.628 268.633,-58.2067 C 268.265,-58.3107 267.857,-58.3107 267.372,-58.2067 C 267.372,-57.996 267.319,-57.8387 267.2,-57.7333 C 268.384,-56.3653 269.396,-54.8933 270.237,-53.316 Z M 253.805,-61.8347 C 253.569,-62.1493 253.201,-63.2013 252.728,-64.9893 C 251.781,-63.9373 251.308,-63.096 251.308,-62.4653 C 251.308,-62.044 251.361,-61.5707 251.479,-61.0453 C 252.32,-61.3613 253.083,-61.624 253.805,-61.8347 Z M 261.667,-56.4707 C 259.76,-56.0507 258.512,-54.8413 257.907,-52.8427 Z M 251.124,-67.04 C 249.809,-67.8813 247.785,-69.3 245.051,-71.2987 C 244.341,-72.0347 243.803,-72.4547 243.448,-72.56 C 242.369,-71.088 239.333,-69.1947 234.339,-66.8813 L 232.367,-58.364 C 232.852,-56.26 233.208,-54.736 233.444,-53.7893 C 237.848,-52.1067 240.581,-51.528 241.66,-52.0547 C 241.896,-52.16 242.724,-53 244.157,-54.5787 C 246.3,-56.892 248.035,-58.5213 249.336,-59.468 C 248.981,-60.52 248.797,-61.5187 248.797,-62.4653 C 248.797,-63.7267 249.573,-65.252 251.124,-67.04 Z "/>
	</g>
</svg>