<?xml version="1.0" encoding="UTF-8" standalone="no"?>
<svg version="1.1" xmlns="http://www.w3.org/2000/svg" xmlns:xlink="http://www.w3.org/1999/xlink" width="130" height="105">
	<g id="bsl-c" transform="matrix(1,0,0,1,-350,110)">
		<path fill="black" stroke="black" stroke-width="0.1" d="M 474.263,-12.1453 C 474.619,-11.5147 474.435,-11.0413 473.724,-10.7267 C 472.883,-10.4107 472.292,-10.568 471.936,-11.2 C 471.345,-12.4613 468.9,-16.3787 464.615,-22.9507 C 460.329,-29.524 458.003,-33.0467 457.648,-33.52 C 457.293,-33.9933 456.005,-36.044 453.809,-39.672 C 451.601,-43.3 448.775,-47.6907 445.317,-52.8427 C 443.425,-55.3667 440.257,-63.7267 435.853,-77.924 C 429.425,-81.0787 425.285,-82.9453 423.444,-83.5227 C 421.604,-84.1013 416.807,-86.8627 409.064,-91.8053 L 406.212,-93.54 C 404.543,-94.592 403.109,-95.144 401.927,-95.196 C 400.731,-95.2493 398.469,-95.6427 395.131,-96.3787 C 389.425,-97.7467 385.903,-98.1667 384.601,-97.6413 C 382.695,-96.9053 377.043,-94.592 367.631,-90.7 C 368.472,-88.5973 369.537,-87.704 370.852,-88.0187 C 372.035,-88.3347 374.216,-88.5187 377.372,-88.5707 C 380.527,-88.624 382.393,-88.8333 382.997,-89.2013 C 383.589,-89.5707 384.299,-89.7547 385.14,-89.7547 C 386.56,-89.7547 389.36,-89.1093 393.527,-87.8347 C 396.629,-86.7707 398.416,-86.2307 398.889,-86.2307 C 399.481,-86.4413 400.02,-86.4413 400.493,-86.2307 C 401.085,-85.916 401.571,-84.9827 401.927,-83.4187 C 402.281,-81.8533 402.755,-80.7493 403.345,-80.132 C 403.713,-80.0267 403.951,-79.816 404.069,-79.5013 L 404.24,-79.5013 C 407.697,-77.5027 409.419,-75.2947 409.419,-72.876 C 409.3,-69.4053 409.629,-67.4867 410.405,-67.1187 C 411.18,-66.7507 411.509,-66.2507 411.391,-65.62 C 411.272,-65.304 411.153,-65.0147 411.036,-64.752 C 410.917,-64.4893 410.471,-63.516 409.695,-61.8347 C 408.92,-60.152 408.591,-58.784 408.709,-57.7333 C 409.064,-57.9427 409.721,-58.1013 410.668,-58.2067 L 411.207,-58.364 L 411.207,-58.5213 C 411.207,-59.9933 412.048,-62.7933 413.704,-66.908 C 413.953,-67.644 414.48,-67.9067 415.321,-67.6973 C 416.031,-67.3813 416.268,-66.908 416.031,-66.2773 C 414.361,-61.8467 413.599,-59.2973 413.717,-58.6133 C 413.836,-57.9307 413.769,-57.4307 413.533,-57.1147 C 410.917,-56.2733 407.525,-54.8013 403.345,-52.6853 C 402.991,-52.264 401.44,-51.476 398.705,-50.3187 C 396.563,-49.4773 395.38,-48.952 395.131,-48.7413 C 394.657,-48.0053 392.935,-47.848 389.951,-48.268 C 388.768,-48.3733 387.453,-48.532 386.021,-48.7413 C 385.903,-48.8467 385.784,-48.9 385.665,-48.9 L 380.855,-51.108 C 379.185,-51.844 377.752,-52.212 376.556,-52.212 C 374.9,-52.212 372.573,-51.896 369.589,-51.2653 L 369.064,-51.108 C 367.985,-50.792 367.157,-50.3187 366.567,-49.688 L 372.1,-49.688 C 373.639,-49.688 374.532,-48.636 374.781,-46.5333 C 374.9,-45.5867 375.019,-44.956 375.137,-44.64 L 378.883,-43.536 C 380.552,-42.484 383.116,-41.1707 386.56,-39.6053 C 394.184,-39.1853 398.889,-37.976 400.677,-35.9773 C 401.387,-35.136 405.015,-32.876 411.561,-29.1947 C 412.757,-28.88 418.949,-27.144 430.136,-23.9893 C 430.385,-23.884 430.621,-23.7267 430.859,-23.516 L 440.139,-8.544 C 440.257,-8.43867 440.323,-8.28133 440.323,-8.07067 C 440.323,-7.54533 440.087,-7.17733 439.613,-6.96667 C 438.889,-6.652 438.299,-6.80933 437.825,-7.44 L 428.887,-22.0973 L 410.668,-27.144 C 409.957,-27.3547 407.881,-28.5373 404.424,-30.6933 C 400.967,-32.8493 399.035,-34.164 398.613,-34.6373 C 398.207,-35.0973 396.629,-35.6493 393.881,-36.28 C 391.147,-36.9107 388.649,-37.2787 386.389,-37.384 C 385.548,-37.384 382.695,-38.6987 377.805,-41.328 L 366.567,-44.7987 C 366.435,-44.7987 366.383,-44.7987 366.383,-44.7987 C 364.357,-45.744 363.345,-46.9533 363.345,-48.4267 C 363.345,-50.8453 365.015,-52.4227 368.341,-53.1587 L 369.064,-53.316 C 372.153,-54.1573 374.651,-54.5787 376.556,-54.5787 C 378.936,-54.5787 380.789,-54.1053 382.104,-53.1587 L 386.744,-50.9507 C 390.069,-50.424 392.277,-50.2133 393.356,-50.3187 C 393.711,-50.6347 394.841,-51.2133 396.747,-52.0547 C 395.432,-53.9333 392.699,-57.0227 388.532,-61.3213 C 388.295,-61.532 388.176,-61.7947 388.176,-62.1107 L 388.532,-75.7813 C 388.532,-76.2013 388.768,-76.5173 389.241,-76.728 C 391.029,-77.6733 392.396,-78.2653 393.356,-78.528 C 394.303,-78.7907 396.747,-79.1853 400.677,-79.7107 C 400.323,-80.132 399.836,-81.552 399.244,-83.9573 C 398.299,-83.852 396.089,-84.3773 392.633,-85.5347 C 387.992,-87.0987 385.311,-87.7293 384.601,-87.4147 C 383.641,-86.7307 381.617,-86.3493 378.528,-86.244 C 374.716,-86.152 372.389,-86.008 371.561,-85.8107 C 369.892,-85.4947 368.459,-85.8373 367.276,-86.836 C 366.08,-87.8213 365.304,-89.2147 364.949,-91.0027 C 364.713,-91.516 364.949,-91.936 365.672,-92.252 C 375.544,-96.4453 381.564,-98.9027 383.707,-99.6387 C 385.495,-100.375 389.544,-100.007 395.853,-98.5347 C 398.943,-97.7987 400.915,-97.4307 401.743,-97.4307 C 403.529,-97.4307 405.555,-96.6947 407.815,-95.2227 L 410.497,-93.4867 C 414.191,-91.1733 418.765,-88.5573 424.247,-85.6133 C 426.389,-84.8773 430.792,-82.8787 437.471,-79.6187 C 437.825,-79.5147 438.061,-79.304 438.18,-78.988 C 442.465,-64.8053 445.555,-56.4973 447.46,-54.0787 C 448.657,-52.5013 451.509,-48.032 456.044,-40.684 C 457.109,-38.896 458.24,-37.0027 459.436,-35.0053 C 460.145,-34.2693 462.643,-30.5627 466.928,-23.884 C 471.213,-17.22 473.659,-13.3027 474.263,-12.1453 Z M 398.889,-86.284 Z M 408.171,-64.6733 C 406.513,-64.7787 404.963,-64.7787 403.529,-64.6733 L 406.212,-59.3107 C 406.448,-60.888 407.105,-62.676 408.171,-64.6733 Z M 407.46,-66.8813 C 406.987,-68.2493 406.751,-69.984 406.751,-72.0867 L 406.751,-72.876 C 406.383,-74.5587 404.963,-76.2413 402.452,-77.924 C 397.812,-77.188 395.104,-76.7147 394.328,-76.504 C 393.553,-76.2933 392.461,-75.8733 391.029,-75.2413 L 390.675,-62.4653 C 395.077,-57.9427 397.877,-54.788 399.06,-53 C 400.257,-53.5267 400.993,-53.9733 401.295,-54.3413 C 401.597,-54.7093 402.82,-55.3667 404.963,-56.3133 L 401.571,-63.096 C 400.02,-61.8347 398.416,-61.308 396.747,-61.5187 C 395.905,-61.624 395.551,-62.044 395.669,-62.78 C 395.669,-63.516 396.143,-63.832 397.101,-63.7267 C 398.048,-63.6213 399.008,-63.9893 399.955,-64.8307 C 397.575,-65.4627 395.972,-66.8813 395.131,-69.0907 C 394.893,-69.7213 395.196,-70.1413 396.024,-70.352 C 396.865,-70.668 397.391,-70.4573 397.641,-69.7213 C 398.351,-67.7227 399.901,-66.776 402.281,-66.8813 C 403.951,-66.9867 405.672,-66.9867 407.46,-66.8813 Z M 382.275,-53 L 382.104,-53.1587 L 381.92,-53.1587 C 382.037,-53.0533 382.156,-53 382.275,-53 Z M 372.455,-45.4293 L 372.271,-46.2173 C 372.153,-46.8493 371.981,-47.2693 371.732,-47.48 L 366.567,-47.48 C 366.803,-47.2693 367.092,-47.0587 367.46,-46.8493 Z "/>
	</g>
</svg>