<?xml version="1.0" encoding="UTF-8" standalone="no"?>
<svg version="1.1" xmlns="http://www.w3.org/2000/svg" xmlns:xlink="http://www.w3.org/1999/xlink" width="155" height="110">
	<g id="bsl-d" transform="matrix(1,0,0,1,-470,110)">
		<path fill="black" stroke="black" stroke-width="0.1" d="M 618.847,-26.1853 C 618.847,-25.4493 618.492,-25.08 617.769,-25.08 C 617.059,-25.08 616.704,-25.4493 616.704,-26.1853 C 616.704,-27.6573 614.259,-33.5987 609.383,-44.0093 C 607.24,-48.3213 606.161,-50.6867 606.161,-51.108 C 606.161,-53.7373 604.729,-59.6253 601.877,-68.7747 C 601.759,-69.0907 600.68,-70.0107 598.656,-71.5347 C 596.645,-73.06 595.501,-74.0853 595.265,-74.6107 C 595.028,-75.1373 593.897,-76.556 591.873,-78.8707 C 588.903,-82.34 587.285,-84.496 587.049,-85.3373 C 586.339,-87.02 584.788,-89.6493 582.409,-93.224 C 581.817,-94.0653 580.687,-94.9853 579.017,-95.9853 C 577.348,-96.984 571.696,-98.324 562.048,-100.007 C 561.337,-100.112 559.484,-100.271 556.513,-100.48 L 555.436,-100.165 C 555.317,-100.06 555.199,-100.007 555.08,-100.007 L 548.652,-99.692 C 548.416,-99.2707 548.297,-98.9027 548.297,-98.588 C 548.297,-97.3253 549.008,-96.248 550.44,-95.3533 C 551.873,-94.46 553.359,-93.96 554.909,-93.8547 C 557.644,-93.7507 560.444,-93.4867 563.296,-93.0667 C 565.439,-91.5947 568.423,-89.964 572.235,-88.176 C 573.3,-87.8613 574.732,-84.3387 576.52,-77.608 C 577.467,-74.348 578.032,-72.56 578.216,-72.2453 C 578.387,-71.9293 578.689,-71.6667 579.109,-71.456 C 579.517,-71.2453 579.609,-70.8253 579.372,-70.1947 L 579.372,-70.036 C 579.609,-69.5107 580.148,-69.0373 580.976,-68.6173 C 581.581,-68.8267 581.988,-68.6693 582.225,-68.144 C 582.593,-67.6173 582.461,-67.1973 581.871,-66.8813 C 580.805,-66.356 580.384,-65.1467 580.621,-63.2533 C 580.74,-62.8333 580.621,-62.5173 580.267,-62.3067 C 578.715,-61.3613 576.572,-59.9933 573.839,-58.2067 C 571.696,-56.524 567.884,-55.3667 562.403,-54.736 C 557.644,-54.1053 553.713,-55.2093 550.611,-58.048 C 548.836,-59.6253 547.523,-60.572 546.695,-60.888 C 544.301,-61.9387 542.041,-62.3067 539.899,-61.992 C 537.873,-61.5707 536.507,-61.1507 535.797,-60.7293 L 535.073,-59.152 C 535.048,-58.9427 535.035,-58.784 535.035,-58.6787 L 535.073,-58.5213 L 541.331,-56.628 C 541.685,-56.524 541.923,-56.3133 542.041,-55.9973 L 542.225,-55.3667 L 545.077,-54.42 C 546.392,-52.528 548.6,-50.1613 551.689,-47.3227 C 552.399,-46.9013 553.477,-46.428 554.909,-45.9027 C 555.028,-45.9027 555.147,-45.9027 555.264,-45.9027 C 555.62,-45.9027 555.856,-45.7973 555.975,-45.5867 C 557.644,-44.956 559.432,-44.3253 561.337,-43.6933 C 561.692,-43.5893 561.929,-43.4307 562.048,-43.2213 C 562.876,-41.748 563.769,-40.3813 564.729,-39.12 C 566.753,-36.28 568.712,-34.2827 570.617,-33.112 C 573.233,-31.324 577.769,-28.5373 584.197,-24.752 L 584.736,-24.5947 C 586.641,-23.4373 588.153,-21.992 589.284,-20.256 C 590.415,-18.5213 591.992,-15.9707 594.016,-12.5933 C 594.857,-11.2253 595.685,-8.492 596.513,-4.39067 L 596.513,-4.23333 C 596.513,-3.70667 596.224,-3.392 595.62,-3.28667 C 594.909,-3.18133 594.2,-4.33733 593.477,-6.756 C 592.649,-9.80667 592.176,-11.436 592.057,-11.6467 C 591.097,-13.3427 589.612,-15.8667 587.588,-19.2307 C 586.524,-20.704 585.143,-21.9133 583.473,-22.8587 L 582.948,-23.1747 C 576.52,-26.96 571.867,-29.8 569.015,-31.692 C 566.161,-33.5853 563.244,-37.016 560.26,-41.9587 C 558.721,-42.38 557.289,-42.8533 555.975,-43.3787 L 555.436,-40.04 C 555.199,-38.1333 554.844,-35.8987 554.371,-33.3627 C 554.252,-32.6133 553.004,-31.496 550.611,-30.0107 C 549.665,-29.3787 548.232,-28.472 546.325,-27.3147 C 545.261,-26.6707 543.711,-25.672 541.685,-24.292 C 540.503,-23.5427 538.768,-21.9 536.507,-19.3493 C 535.797,-18.508 534.837,-17.496 533.655,-16.3387 C 532.931,-15.8 530.855,-14.788 527.397,-13.316 C 526.805,-12.9867 526.175,-12.672 525.531,-12.356 C 524.873,-12.0413 523.177,-11.4493 520.431,-10.608 C 517.46,-7.95333 515.251,-5.62667 513.832,-3.60133 C 513.476,-3.076 512.991,-2.97067 512.399,-3.28667 C 512.044,-3.496 511.86,-3.76 511.86,-4.07467 C 511.86,-4.60133 512.991,-6.06 515.251,-8.42533 C 517.512,-10.8053 518.945,-12.0933 519.536,-12.304 C 522.284,-13.1587 523.796,-13.684 524.097,-13.8947 C 524.4,-14.104 525.201,-14.472 526.503,-14.9987 C 529.724,-16.484 531.629,-17.4307 532.221,-17.8507 C 533.891,-19.744 536.572,-22.3853 540.267,-25.764 C 542.159,-26.816 544.552,-28.248 547.404,-30.036 C 547.64,-30.352 548.297,-30.8387 549.363,-31.4693 C 551.151,-32.5213 552.109,-33.204 552.228,-33.52 C 552.464,-35.1107 552.82,-37.2667 553.293,-40.0133 L 553.832,-43.9707 C 552.399,-44.6013 551.268,-45.1267 550.44,-45.548 C 548.652,-46.5067 546.444,-48.82 543.828,-52.5147 L 540.976,-53.4733 C 540.739,-53.5787 540.555,-53.7893 540.437,-54.1053 L 540.083,-54.736 L 533.655,-56.8 C 533.181,-56.9053 532.931,-57.168 532.931,-57.588 C 532.931,-57.6933 532.879,-57.8773 532.76,-58.14 C 532.643,-58.4027 532.576,-58.64 532.576,-58.8507 C 532.576,-58.9547 532.643,-59.1133 532.76,-59.324 L 532.931,-59.6387 C 533.063,-60.5987 533.417,-61.3347 534.009,-61.86 C 535.073,-64.1867 536.572,-67.2893 538.479,-71.2067 C 540.016,-76.4773 540.976,-79.4347 541.331,-80.0667 C 541.685,-80.6973 542.409,-83.3387 543.473,-87.98 C 543.828,-92.1987 544.012,-94.5787 544.012,-95.104 C 544.012,-96.6813 543.895,-97.904 543.657,-98.7453 L 542.764,-93.8547 C 542.645,-93.3293 542.343,-93.0667 541.869,-93.0667 L 537.4,-92.5933 L 537.216,-92.436 C 535.915,-89.2813 535.113,-87.3613 534.811,-86.6787 C 534.508,-85.9947 534.128,-85.0747 533.655,-83.9173 C 531.393,-80.132 530.144,-78.0027 529.895,-77.5293 C 529.659,-77.056 529.369,-76.188 529.001,-74.9267 C 528.528,-73.3493 528.239,-72.3507 528.107,-71.9293 L 527.397,-70.668 C 525.964,-67.9333 524.124,-64.6733 521.863,-60.888 C 520.904,-59.52 519.892,-58.1533 518.827,-56.7867 C 518.353,-56.26 517.815,-56.208 517.223,-56.628 C 516.868,-56.8387 516.684,-57.1013 516.684,-57.4173 C 516.803,-57.7333 516.92,-57.9693 517.039,-58.1267 C 517.157,-58.2853 517.631,-58.8893 518.472,-59.9413 C 516.803,-60.152 515.737,-60.0467 515.251,-59.6253 C 514.305,-58.784 512.333,-56.4187 509.363,-52.528 C 504.236,-42.3267 501.449,-36.7533 500.963,-35.8067 C 498.701,-31.916 495.784,-27.6573 492.221,-23.0307 C 491.972,-22.504 491.025,-21.4 489.356,-19.7173 C 484.597,-14.88 482.152,-11.936 482.033,-10.884 C 481.916,-10.2533 481.495,-9.99067 480.785,-10.096 C 480.075,-10.2 479.773,-10.568 479.891,-11.2 C 480.009,-12.5667 482.573,-15.8267 487.568,-20.98 C 488.409,-21.8213 489.356,-22.872 490.433,-24.1347 C 493.877,-28.656 496.677,-32.8627 498.82,-36.74 C 501.685,-42.3133 504.537,-47.8867 507.404,-53.4613 L 507.575,-53.6187 C 510.191,-57.8253 512.399,-60.4013 514.187,-61.348 C 515.488,-62.084 517.341,-62.1893 519.72,-61.6627 L 519.904,-61.8213 C 520.615,-62.872 522.403,-66.08 525.255,-71.4427 L 525.964,-72.7053 C 526.215,-73.02 526.503,-73.9147 526.859,-75.3867 C 527.108,-76.0173 527.397,-76.8587 527.752,-77.9107 C 528.12,-78.6467 529.421,-80.8947 531.683,-84.68 C 532.051,-86.0467 532.405,-87.0467 532.76,-87.6773 C 533.233,-88.9387 534.061,-90.78 535.257,-93.1987 L 535.257,-93.356 L 535.441,-93.5133 C 535.441,-93.9347 535.613,-94.2493 535.968,-94.46 L 536.152,-94.776 L 537.94,-101.873 C 538.057,-102.4 538.412,-102.663 539.004,-102.663 C 541.752,-102.663 543.657,-102.189 544.723,-101.243 C 545.8,-100.296 546.325,-98.2453 546.325,-95.0907 C 546.325,-92.3693 546.155,-89.8987 545.8,-87.6907 C 545.196,-83.8 544.42,-81.012 543.473,-79.3307 C 542.764,-77.1213 541.752,-74.2427 540.437,-70.668 C 540.437,-70.4573 539.307,-68.0387 537.045,-63.412 C 537.756,-63.516 538.597,-63.6747 539.543,-63.8853 C 542.159,-64.3053 544.84,-63.9373 547.588,-62.78 C 548.652,-62.2547 550.137,-61.1507 552.044,-59.468 C 554.541,-57.3653 557.644,-56.4187 561.337,-56.628 C 560.983,-57.1547 560.496,-57.7587 559.905,-58.456 C 559.313,-59.14 558.42,-61.9787 557.223,-66.948 C 557.079,-67.1573 557.079,-67.368 557.223,-67.5787 C 561.508,-74.2427 564.191,-77.8187 565.268,-78.292 C 566.332,-78.7773 569.132,-79.3307 573.655,-79.9613 C 572.589,-83.8787 571.815,-86.0467 571.341,-86.468 C 570.027,-86.9933 567.108,-88.6373 562.587,-91.3973 C 560.089,-91.8173 557.46,-92.0813 554.725,-92.1853 C 551.151,-92.2907 548.468,-93.8293 546.695,-96.7867 C 546.325,-97.4173 546.155,-98.1147 546.155,-98.8507 C 546.155,-100.756 546.812,-101.768 548.113,-101.873 L 554.725,-102.347 L 555.975,-102.663 C 556.093,-102.663 556.211,-102.663 556.329,-102.663 C 559.549,-102.557 561.575,-102.452 562.403,-102.347 C 567.529,-101.4 573.484,-99.9147 580.267,-97.9173 C 582.172,-96.7467 583.473,-95.6427 584.197,-94.592 C 585.984,-91.528 589.139,-86.7307 593.661,-80.184 L 594.016,-79.856 C 594.371,-79.856 594.673,-79.8027 594.909,-79.6987 L 601.167,-76.8587 C 601.521,-76.648 601.693,-76.4387 601.693,-76.2147 L 603.664,-70.5227 C 603.625,-70.4173 603.625,-70.312 603.664,-70.208 C 603.783,-69.892 603.901,-69.6293 604.02,-69.4187 C 606.635,-61.072 608.12,-55.064 608.488,-51.3707 C 608.607,-50.9373 609.553,-48.7813 611.341,-44.8773 C 616.349,-34.1107 618.847,-27.88 618.847,-26.1853 Z M 600.444,-72.7187 L 599.735,-75.084 L 596.697,-76.504 C 596.935,-76.0827 597.119,-75.7413 597.236,-75.4787 C 597.355,-75.216 598.301,-74.4013 600.089,-73.0333 Z M 578.295,-72.0867 L 578.295,-72.0867 L 578.124,-72.0867 Z M 541.515,-99.376 C 540.792,-99.7973 540.2,-100.112 539.727,-100.323 L 538.479,-94.8013 L 540.792,-94.96 Z M 579.372,-67.1973 C 579.017,-67.408 578.663,-67.6173 578.295,-67.828 C 576.875,-64.7787 575.679,-63.044 574.732,-62.6227 C 574.693,-62.2027 574.693,-61.7813 574.732,-61.3613 C 575.797,-61.992 577.045,-62.728 578.479,-63.5693 L 578.479,-63.8853 C 578.479,-65.252 578.781,-66.356 579.372,-67.1973 Z M 576.875,-70.036 C 576.756,-70.4573 576.572,-70.7733 576.336,-70.9827 C 576.1,-71.1933 575.443,-73.244 574.377,-77.1347 L 574.193,-77.924 C 569.908,-77.292 567.345,-76.82 566.517,-76.504 C 565.557,-75.8733 563.244,-72.6653 559.549,-66.8813 C 560.615,-62.4653 561.456,-59.888 562.048,-59.152 C 562.639,-58.416 563.177,-57.68 563.651,-56.944 C 567.7,-57.5747 570.565,-58.4693 572.235,-59.6253 C 572.589,-60.4667 572.643,-61.5187 572.405,-62.78 C 568.003,-63.516 565.912,-64.9893 566.161,-67.1973 C 566.161,-67.828 566.517,-68.0907 567.227,-67.9853 C 567.936,-67.9853 568.304,-67.6707 568.304,-67.04 L 568.304,-66.8813 C 568.304,-65.9347 569.843,-65.1987 572.944,-64.6733 C 573.063,-64.6733 573.128,-64.7253 573.128,-64.8307 C 573.484,-64.8307 573.773,-64.7787 574.009,-64.6733 C 574.613,-65.4093 575.56,-67.1973 576.875,-70.036 Z "/>
	</g>
</svg>