<?xml version="1.0" encoding="UTF-8" standalone="no"?>
<svg version="1.1" xmlns="http://www.w3.org/2000/svg" xmlns:xlink="http://www.w3.org/1999/xlink" width="190" height="140">
	<g id="bsl-e" transform="matrix(1,0,0,1,0,-30)">
		<path fill="black" stroke="black" stroke-width="0.1" d="M 183.807,147.329 C 183.807,147.644 183.636,147.908 183.281,148.117 C 182.676,148.644 182.137,148.591 181.664,147.96 C 179.64,145.752 176.551,141.335 172.384,134.709 C 172.239,134.5 172.239,134.237 172.384,133.921 L 172.2,134.079 C 172.317,133.132 171.779,129.663 170.596,123.668 C 169.4,118.095 168.505,114.361 167.915,112.468 C 167.677,111.523 166.995,110.024 165.864,107.973 C 164.733,105.923 163.892,104.713 163.367,104.345 C 162.827,103.977 162.261,103.109 161.657,101.743 L 161.132,100.48 C 160.645,99.4293 160.001,99.008 159.16,99.2187 C 158.213,99.8493 156.78,99.9013 154.875,99.376 C 153.441,98.956 152.613,98.3773 152.377,97.6413 C 151.785,96.1693 150.589,95.1693 148.801,94.644 C 147.737,94.328 146.252,94.3813 144.345,94.8013 C 143.859,94.8013 143.504,94.696 143.268,94.4867 C 142.557,93.96 141.309,93.172 139.521,92.12 L 137.733,91.332 C 136.3,90.7 135.236,90.3853 134.513,90.3853 L 133.803,90.3853 C 134.749,92.068 135.236,92.9093 135.236,92.9093 C 135.236,93.4347 134.987,93.7507 134.513,93.8547 C 133.685,94.1707 133.12,94.0387 132.817,93.4613 C 132.515,92.8827 132.016,92.0147 131.305,90.8587 C 130.701,90.7533 129.689,89.964 128.269,88.492 C 127.309,86.704 125.588,85.2053 123.089,83.996 C 120.579,82.7867 119.041,81.3413 118.436,79.6587 C 118.319,79.5533 117.727,79.028 116.661,78.0813 L 114.151,75.7147 C 113.796,75.4 112.127,74.4013 109.156,72.7187 C 108.447,72.2973 107.132,71.404 105.225,70.036 C 104.148,69.7213 102.728,68.88 100.94,67.5133 C 100.585,66.8813 99.0347,65.5667 96.3,63.5693 C 96.1827,63.5693 95.8147,63.464 95.2227,63.2533 C 94.3947,63.044 93.7893,63.2013 93.4347,63.7267 L 93.264,64.0427 C 92.304,65.7253 91.8307,66.8813 91.8307,67.5133 C 91.8307,68.4587 93.1453,69.8267 95.7613,71.6133 C 96.5893,72.2453 97.6013,73.192 98.7973,74.4533 C 99.2707,75.1893 100.915,76.82 103.701,79.3427 C 106.501,81.8667 108.38,83.3387 109.34,83.76 C 112.075,85.0213 114.217,87.704 115.768,91.8053 L 115.939,92.2773 C 116.057,92.5933 117.017,94.224 118.804,97.168 C 119.515,98.324 120.105,99.9013 120.579,101.9 L 121.841,106.789 C 122.077,107.841 122.432,108.999 122.905,110.26 C 123.616,110.471 123.984,110.891 123.984,111.523 C 123.984,112.468 123.445,113.888 122.367,115.781 C 121.303,117.989 120.291,118.884 119.331,118.463 C 118.976,118.252 118.804,117.937 118.804,117.516 C 118.804,117.305 119.185,116.465 119.961,114.992 C 120.737,113.52 121.184,112.521 121.303,111.996 C 120.711,111.575 120.053,109.945 119.331,107.105 L 119.331,106.948 C 116.596,109.892 114.875,111.523 114.151,111.837 L 113.625,112.153 C 112.903,112.573 112.548,112.837 112.548,112.941 L 112.548,113.1 C 112.665,114.047 112.903,115.308 113.257,116.885 L 113.257,116.885 C 114.335,121.407 115.649,126.192 117.188,131.24 L 118.265,132.187 C 131.595,142.281 139.048,147.46 140.585,147.724 C 142.137,147.987 144.096,149.721 146.488,152.929 C 148.867,156.136 150.116,158.371 150.235,159.633 L 150.235,159.791 C 150.235,160.421 149.88,160.789 149.156,160.895 C 148.328,161 147.855,160.737 147.737,160.107 C 147.5,158.949 146.369,157.004 144.345,154.269 C 142.321,151.536 140.823,150.063 139.876,149.853 C 138.088,149.537 130.345,144.175 116.661,133.764 L 115.413,132.817 C 114.453,132.081 112.968,126.928 110.944,117.359 C 110.352,114.519 110.051,113.047 110.051,112.941 C 110.051,111.891 110.825,110.996 112.364,110.26 L 112.903,109.945 C 113.507,109.629 115.4,107.684 118.62,104.108 L 118.265,102.373 C 118.029,101.532 117.491,100.165 116.661,98.272 C 114.875,95.5373 113.863,93.7507 113.612,92.9093 L 113.441,92.5933 C 112.127,88.9133 110.405,86.5987 108.263,85.6533 C 106.948,85.1267 104.805,83.5227 101.835,80.8413 C 98.8507,78.16 97.128,76.3467 96.6547,75.4 C 95.2227,74.2427 93.3827,72.7707 91.1213,70.9827 C 90.044,70.036 89.504,68.932 89.504,67.6707 C 89.504,66.6187 90.044,65.0947 91.1213,63.096 L 91.292,62.78 C 92.252,61.2027 93.7893,60.6773 95.932,61.2027 L 97.1947,61.5187 C 97.668,61.624 98.68,62.3333 100.231,63.648 C 101.769,64.9627 102.728,65.8307 103.083,66.2507 C 104.029,66.776 105.344,67.5133 107.013,68.4587 C 107.841,69.1947 109.064,69.9053 110.668,70.588 C 112.285,71.272 114.033,72.4547 115.939,74.1373 L 118.449,76.504 C 119.16,77.1347 119.896,77.8973 120.671,78.7907 C 121.447,79.6853 122.735,80.816 124.509,82.1827 C 127.375,83.5493 129.4,85.3373 130.583,87.5453 C 130.832,88.072 131.121,88.3867 131.476,88.492 C 132.317,88.2813 133.329,88.176 134.513,88.176 C 135.709,88.176 137.195,88.5973 138.983,89.4387 L 140.415,90.0693 C 141.835,90.7 143.149,91.4893 144.345,92.436 C 146.607,92.2253 148.328,92.2773 149.524,92.5933 C 152.14,93.3293 153.863,94.7493 154.704,96.852 C 155.413,97.588 156.425,97.7987 157.74,97.4827 C 158.449,97.0627 159.279,96.9573 160.237,97.168 C 161.671,97.4827 162.683,98.272 163.275,99.5333 L 163.984,100.953 C 164.103,101.375 164.457,101.848 165.061,102.373 C 165.653,102.899 166.639,104.371 168.007,106.789 C 169.373,109.208 170.175,110.944 170.412,111.996 C 173.277,123.563 174.697,130.872 174.697,133.921 C 178.864,140.336 181.783,144.595 183.452,146.699 C 183.688,146.804 183.807,147.013 183.807,147.329 Z M 89.3333,67.6707 C 89.3333,69.3533 88.6107,70.6413 87.1907,71.5347 C 85.7587,72.4293 83.8,73.7173 81.2893,75.4 C 81.2893,75.5053 81.236,75.5573 81.1173,75.5573 L 76.832,77.1347 C 72.9027,80.2893 70.2213,82.288 68.788,83.1293 C 66.8813,84.6013 64.0293,86.704 60.2173,89.4387 C 60.336,90.9107 60.4013,92.436 60.4013,94.0133 C 60.4013,94.96 60.1653,95.9053 59.6787,96.852 L 59.508,97.3253 C 60.0987,101.112 60.4533,103.951 60.572,105.844 C 60.9267,110.365 60.6907,115.519 59.8627,121.303 C 59.3893,122.248 58.9027,123.773 58.4293,125.876 C 58.312,126.508 58.2587,127.98 58.2587,130.293 C 58.3773,133.659 58.2587,135.815 57.904,136.76 C 57.2987,138.233 53.1973,144.595 45.5733,155.847 C 45.2187,156.479 44.68,156.636 43.9707,156.32 C 43.2467,155.9 43.1293,155.373 43.6147,154.743 C 51.108,143.701 55.104,137.497 55.5773,136.129 C 55.8133,135.393 55.88,133.448 55.748,130.293 C 55.748,127.98 55.8667,126.349 56.116,125.403 C 56.3533,124.457 56.76,122.984 57.3653,120.987 C 58.1933,115.308 58.496,110.26 58.2587,105.844 C 58.14,105.108 57.956,104.003 57.72,102.531 L 57.6933,102.531 L 57.72,102.689 C 57.6013,103.531 57.128,104.371 56.2867,105.212 C 56.1693,105.633 56.116,106.159 56.116,106.789 C 56.0893,107.105 56.0893,107.421 56.116,107.736 C 56.2347,109.104 56.2867,113.993 56.2867,122.407 C 56.2867,123.143 55.88,123.511 55.0387,123.511 C 54.2107,123.511 53.7893,123.143 53.7893,122.407 C 53.7893,114.099 53.724,109.261 53.6053,107.895 C 53.4867,106.527 53.6053,105.371 53.9733,104.424 C 54.328,104.108 54.8013,103.372 55.3933,102.216 C 55.8667,99.7973 56.4053,97.904 56.9973,96.5373 L 57.536,95.9053 C 58.0093,95.064 58.0747,93.3293 57.72,90.7 L 57.72,89.912 C 57.4827,89.7013 57.3653,89.4387 57.3653,89.1227 C 57.3653,88.9133 57.4173,88.7547 57.536,88.6493 C 57.2987,87.808 56.8253,87.256 56.116,86.9933 C 55.3933,86.7307 54.6827,86.4947 53.9733,86.284 C 53.6053,86.0733 53.0133,86.1787 52.1853,86.5987 C 51.344,87.02 50.9373,87.2307 50.9373,87.2307 C 50.6867,88.492 50.3987,89.912 50.0427,91.4893 L 44.1413,100.639 C 42.9573,104.424 42.3533,106.685 42.3533,107.421 C 42.3533,108.577 41.7093,109.524 40.3947,110.26 C 38.1333,113.52 36.9373,115.781 36.8187,117.043 C 36.7013,117.779 36.228,118.095 35.4,117.989 C 34.676,117.989 34.3213,117.621 34.3213,116.885 L 34.3213,116.885 C 34.3213,115.308 35.6893,112.627 38.4227,108.84 C 38.5547,108.736 38.8173,108.577 39.2373,108.368 C 39.6453,108.157 39.856,107.841 39.856,107.421 C 39.856,106.58 40.3947,104.319 41.46,100.639 L 38.7907,100.639 C 37.0027,100.639 35.9907,99.9013 35.7547,98.4293 C 35.636,97.6933 35.9907,97.2733 36.8187,97.168 C 37.424,97.0627 37.832,97.2467 38.068,97.72 C 38.304,98.1933 38.5547,98.4293 38.7907,98.4293 L 42.7213,98.4293 L 47.716,90.5427 C 47.9533,88.86 48.1373,87.8613 48.256,87.5453 C 48.6107,86.0733 49.1493,85.3373 49.8587,85.3373 C 51.1733,84.3907 52.4227,83.9173 53.6053,83.9173 C 53.6053,83.9173 54.4467,84.1547 56.116,84.628 C 57.772,85.1013 58.9027,85.968 59.508,87.2307 C 61.1773,85.7573 63.7933,83.76 67.368,81.236 C 68.6693,80.5 71.2853,78.5547 75.216,75.4 C 75.3347,75.2947 75.4653,75.2413 75.584,75.2413 L 80.04,73.664 C 82.4187,71.9827 84.2733,70.72 85.5747,69.8787 C 86.416,69.3533 86.836,68.6173 86.836,67.6707 C 86.836,67.144 86.704,66.356 86.468,65.304 C 86.2307,64.7787 85.4027,64.3053 83.9707,63.8853 L 77.3587,67.6707 C 77.1213,67.776 76.8853,67.828 76.648,67.828 C 75.7027,67.828 74.7693,68.144 73.8747,68.7747 C 72.9813,69.4053 70.3653,70.6413 66.028,72.4813 C 61.676,74.3213 59.0347,75.3467 58.0747,75.5573 C 56.0507,76.0827 54.2107,77.0827 52.5413,78.5547 C 51.344,79.6067 43.7333,83.812 29.6813,91.1733 C 29.1947,96.7467 28.9587,100.743 28.9587,103.161 C 28.9587,103.477 29.024,103.951 29.1427,104.581 C 29.1293,105.108 29.1293,105.528 29.1427,105.844 C 29.1427,106.685 28.9587,108.525 28.604,111.364 C 27.6573,116.833 27.184,123.195 27.184,130.451 C 27.184,130.661 27.236,131.397 27.3547,132.66 L 27.3547,133.132 C 27.4733,137.444 24.7387,142.755 19.1387,149.064 C 18.6667,149.591 18.1267,149.643 17.536,149.223 C 17.18,149.012 16.996,148.749 16.996,148.433 C 16.996,148.117 17.0627,147.908 17.18,147.803 C 22.412,141.597 24.976,136.76 24.8573,133.291 L 24.8573,132.817 C 24.7387,131.449 24.6733,130.661 24.6733,130.451 C 24.6733,123.511 25.1467,117.043 26.1067,111.049 C 26.5787,108.104 26.816,106.369 26.816,105.844 C 26.816,105.528 26.764,105.055 26.6453,104.424 C 26.632,103.899 26.632,103.477 26.6453,103.161 C 26.6453,100.428 26.8813,96.2213 27.3547,90.5427 C 27.3547,90.1227 27.5387,89.8067 27.8933,89.596 C 30.036,88.5453 32.232,87.388 34.5053,86.1267 C 34.7427,84.548 36.044,80.132 38.4227,72.876 L 39.1453,70.668 C 40.092,67.5133 41.1707,65.0413 42.3533,63.2533 C 42.84,62.412 44.68,60.572 47.9,57.7333 C 48.492,55.9453 49.504,54.1573 50.924,52.3693 C 52.356,50.5813 53.5533,49.268 54.4987,48.4267 L 56.8253,43.2213 C 57.1813,42.5893 57.72,42.38 58.4293,42.5893 C 58.548,42.6947 58.6133,42.748 58.6133,42.748 C 61.584,42.2213 63.4373,43.168 64.148,45.5867 L 64.3187,46.0733 C 64.568,46.9147 64.8573,48.2293 65.212,50.0173 C 65.212,50.2267 65.2787,50.3853 65.396,50.4893 C 65.752,52.068 65.936,53.592 65.936,55.0773 C 65.936,55.8133 65.8693,56.444 65.752,56.9707 C 67.4213,57.7067 68.1307,58.8107 67.8947,60.2827 C 66.948,64.3973 65.6333,67.0787 63.964,68.3533 C 63.4907,68.6693 63.0693,69.7213 62.7147,71.5093 C 68.196,69.2867 71.3507,67.868 72.1787,67.224 C 73.612,66.2773 74.9787,65.7507 76.2933,65.6467 L 82.5507,61.992 C 82.9053,61.8867 83.2347,61.7813 83.524,61.676 C 83.8253,61.5707 84.1547,61.5707 84.5093,61.676 C 87.0067,62.3067 88.44,63.28 88.7947,64.5947 C 89.1493,65.9093 89.3333,66.9347 89.3333,67.6707 Z M 157.74,97.4827 Z M 174.697,134.237 Z M 65.396,59.784 C 65.5147,59.5733 65.396,59.3627 65.0413,59.152 C 62.544,64.4107 60.4533,67.7227 58.784,69.0907 C 58.6667,69.3 58.6133,69.8267 58.6133,70.668 C 58.6133,71.404 58.6667,72.192 58.784,73.0333 L 60.0467,72.56 C 60.02,72.4547 60.02,72.3507 60.0467,72.2453 C 60.52,69.3 61.3213,67.408 62.452,66.5667 C 63.5827,65.7253 64.568,63.464 65.396,59.784 Z M 63.6093,55.2093 C 60.0333,61.0973 57.6013,64.568 56.2867,65.62 C 56.1693,65.8307 55.932,66.776 55.5773,68.4587 C 55.104,70.7733 54.3813,72.9813 53.4347,75.084 C 54.4987,74.5587 55.512,74.1373 56.4707,73.8227 C 55.9973,70.352 56.2347,68.2493 57.1813,67.5133 C 57.6547,67.1973 58.64,65.7507 60.1253,63.1747 C 61.6107,60.5987 62.6627,58.6267 63.2533,57.26 C 63.372,56.7333 63.4907,56.0507 63.6093,55.2093 Z M 62.0053,53 C 62.7147,51.528 62.6627,49.4253 61.8213,46.6907 L 61.6507,46.06 C 61.4133,45.008 60.572,44.64 59.152,44.956 C 59.0347,44.956 58.9027,44.956 58.784,44.956 L 56.6413,49.5307 C 56.524,49.636 56.3533,49.7933 56.116,50.004 C 55.8667,50.2133 54.8547,51.3707 53.08,53.4733 C 51.7653,55.156 50.7533,56.892 50.0427,58.6787 C 48.492,60.0467 46.6387,61.9387 44.496,64.3573 C 43.4307,65.9347 42.4187,68.196 41.46,71.1413 L 40.7493,73.5067 C 39.9213,76.136 38.7907,79.816 37.3587,84.548 C 43.668,81.184 47.7827,78.9227 49.6747,77.7653 C 50.9893,74.9267 51.9493,72.6653 52.5413,70.9827 C 52.7773,69.0907 53.4867,66.8293 54.6827,64.2 C 56.5893,62.412 59.0213,58.6787 62.0053,53 Z "/>
	</g>
</svg>