<?xml version="1.0" encoding="UTF-8" standalone="no"?>
<svg version="1.1" xmlns="http://www.w3.org/2000/svg" xmlns:xlink="http://www.w3.org/1999/xlink" width="190" height="120">
	<g id="bsl-f" transform="matrix(1,0,0,1,-170,-40)">
		<path fill="black" stroke="black" stroke-width="0.1" d="M 350.145,136.76 C 350.145,137.497 349.724,137.865 348.896,137.865 C 348.187,137.969 347.765,137.655 347.648,136.919 C 347.529,134.815 345.203,128.4 340.681,117.675 C 337.947,110.839 334.489,105.633 330.323,102.057 C 330.085,101.952 329.901,101.664 329.784,101.191 C 329.665,100.717 329.192,99.5867 328.364,97.7987 C 327.759,96.9573 326.695,96.2213 325.144,95.5907 C 323.592,93.2773 321.279,90.648 318.176,87.704 L 317.821,87.5453 C 315.679,87.02 314.312,86.8627 313.707,87.072 C 313.235,87.2827 312.761,87.44 312.288,87.5453 C 315.14,91.8573 317.047,94.96 318.005,96.852 C 318.36,97.588 318.124,98.0613 317.283,98.272 C 316.573,98.588 316.033,98.4293 315.679,97.7987 C 313.891,94.0133 311.801,90.7 309.423,87.8613 C 308.357,86.3893 307.043,85.3893 305.492,84.864 C 304.545,84.548 303.231,84.7067 301.575,85.3373 L 298.709,86.7573 L 297.644,88.808 C 301.561,93.224 303.769,96.2733 304.243,97.956 C 305.084,100.585 306.385,102.636 308.173,104.108 C 308.409,104.319 308.528,104.581 308.528,104.897 C 308.528,105.633 308.121,106.001 307.28,106.001 C 306.924,106.001 306.623,105.896 306.385,105.685 C 304.361,103.899 302.876,101.48 301.929,98.4293 C 301.325,96.432 299.064,93.4867 295.133,89.596 L 293.713,88.3347 C 291.808,85.8107 288.469,81.972 283.711,76.82 C 281.687,74.9267 279.807,72.7187 278.084,70.1947 C 276.349,67.6707 274.009,65.8307 271.025,64.6733 L 269.777,64.2 C 268.463,63.6747 267.397,63.8053 266.556,64.5947 C 265.728,65.3827 265.308,65.8307 265.308,65.9347 L 265.492,66.8813 C 265.609,67.3027 265.847,68.0387 266.201,69.0907 C 267.043,69.5107 267.332,69.984 267.095,70.5093 C 268.883,72.2973 270.079,73.928 270.671,75.4 C 270.907,76.0307 274.009,80.132 279.951,87.704 C 282.107,89.912 283.592,91.6467 284.42,92.9093 C 285.012,93.6453 285.38,94.4333 285.499,95.2747 C 285.499,95.4853 286.156,96.2733 287.457,97.6413 C 288.299,98.4827 289.665,100.217 291.571,102.847 L 292.82,104.581 C 293.884,105.844 294.424,106.58 294.424,106.789 L 294.371,106.789 C 294.371,106.895 294.384,106.948 294.424,106.948 C 294.541,107.579 294.66,108.157 294.779,108.683 C 294.897,109.208 295.383,109.681 296.211,110.103 C 296.567,110.313 296.751,110.628 296.751,111.049 C 296.751,112.416 296.145,112.732 294.963,111.996 C 293.529,111.259 292.517,109.629 291.927,107.105 C 291.689,106.789 291.321,106.317 290.848,105.685 L 289.6,104.108 C 288.416,102.531 286.747,100.533 284.604,98.1147 C 283.763,97.3787 283.237,96.5373 282.988,95.5907 C 282.869,95.064 282.699,94.5387 282.461,94.0133 C 281.62,92.9613 280.135,91.332 277.992,89.1227 L 277.821,89.1227 C 272.34,82.8133 269.185,78.4493 268.344,76.0307 C 267.279,74.8733 265.912,73.0867 264.243,70.668 C 263.165,70.2467 261.627,70.8253 259.603,72.4027 C 259.957,74.6107 260.312,75.8733 260.667,76.188 C 262.1,77.556 263.651,80.868 265.308,86.1267 C 265.425,86.4413 266.083,87.5453 267.279,89.4387 C 269.54,92.9093 270.907,95.4333 271.38,97.0107 C 271.617,97.536 271.801,97.852 271.92,97.956 L 271.564,97.956 C 271.92,98.0613 272.156,98.1667 272.275,98.272 C 275.14,101.532 278.111,105.055 281.213,108.84 C 282.751,113.888 284.249,117.043 285.669,118.305 C 288.771,121.039 293.529,125.088 299.957,130.451 C 302.705,132.344 305.373,134.237 308.003,136.129 C 311.209,138.548 313.471,140.652 314.785,142.439 C 315.732,143.701 318.176,146.225 322.107,150.011 C 323.421,151.272 324.907,152.851 326.576,154.743 C 326.931,155.373 326.747,155.847 326.037,156.163 C 325.328,156.373 324.788,156.163 324.433,155.532 C 324.197,155.216 322.817,153.849 320.319,151.431 C 316.271,147.644 313.707,144.989 312.643,143.464 C 311.564,141.94 309.423,139.968 306.215,137.549 C 303.599,135.761 300.969,133.921 298.353,132.028 C 295.252,129.295 290.493,125.245 284.065,119.883 C 282.277,118.411 280.556,114.992 278.887,109.629 C 277.94,108.368 275.14,105.055 270.487,99.692 C 270.249,99.5867 270.013,99.376 269.777,99.0613 C 268.107,100.323 267.095,101.191 266.74,101.664 C 266.385,102.136 265.793,103.161 264.952,104.74 C 262.809,108.525 261.351,110.655 260.575,111.128 C 259.8,111.601 257.328,113.415 253.175,116.569 L 246.563,121.303 C 239.175,126.981 235.1,129.925 234.324,130.136 C 233.549,130.345 232.419,130.977 230.933,132.028 C 229.448,133.08 228.58,133.843 228.344,134.316 C 228.107,134.789 226.911,136.603 224.768,139.757 C 221.916,143.859 218.932,148.381 215.843,153.323 C 215.607,153.955 215.12,154.217 214.409,154.112 C 213.581,154.007 213.213,153.587 213.345,152.851 C 213.464,152.113 216.552,147.381 222.625,138.653 C 224.768,135.499 225.899,133.764 226.017,133.448 C 227.449,131.029 229.895,129.241 233.339,128.085 C 234.061,127.875 237.927,125.088 244.959,119.724 C 246.852,118.357 247.929,117.595 248.167,117.437 C 248.403,117.28 249.533,116.412 251.557,114.835 C 255.843,111.68 258.315,109.919 258.972,109.551 C 259.629,109.183 260.904,107.263 262.809,103.793 C 263.651,102.111 264.177,101.112 264.413,100.796 C 265.136,99.8493 266.569,98.5347 268.712,96.852 L 268.528,96.064 C 268.291,95.4333 267.161,93.592 265.136,90.5427 L 264.059,88.6493 C 262.152,91.068 260.667,92.5413 259.603,93.0667 C 259.235,93.2773 259.181,93.7507 259.419,94.4867 C 259.655,95.748 259.353,96.5373 258.524,96.852 C 257.46,97.168 256.921,96.8 256.921,95.748 C 256.921,95.5373 256.973,95.38 257.092,95.2747 L 256.921,94.96 C 256.803,94.328 256.737,93.908 256.737,93.6973 C 256.737,92.5413 257.249,91.7253 258.261,91.252 C 259.273,90.78 260.785,89.1227 262.809,86.284 C 261.023,81.552 259.721,78.712 258.88,77.7653 C 258.524,77.3453 258.169,76.556 257.815,75.4 C 256.145,77.0827 254.712,78.4493 253.529,79.5013 L 251.019,81.3933 C 249.717,82.2347 248.232,83.4973 246.563,85.18 C 246.089,85.8107 245.485,85.916 244.775,85.4947 C 244.42,85.2853 244.236,84.9693 244.236,84.548 C 244.236,83.9173 245.957,82.288 249.415,79.6587 L 252.452,77.292 C 251.86,77.292 251.505,77.0293 251.387,76.504 C 250.9,75.2413 250.427,73.8227 249.955,72.2453 L 248.167,70.352 C 246.26,69.5107 245.012,69.0907 244.42,69.0907 C 243.579,69.4053 242.041,70.7733 239.767,73.192 C 238.584,74.4533 237.453,75.768 236.375,77.1347 C 235.784,77.8707 235.219,78.6853 234.68,79.58 C 234.153,80.4733 233.523,80.7107 232.813,80.2893 C 232.089,79.9747 231.919,79.5013 232.275,78.8693 C 232.629,78.2387 233.339,77.2667 234.416,75.952 C 235.481,74.6373 236.612,73.296 237.808,71.9293 C 237.689,71.824 237.624,71.64 237.624,71.3773 C 237.624,71.1147 237.032,70.5093 235.836,69.564 C 233.457,68.512 231.499,68.2493 229.948,68.7747 C 229.356,68.9853 227.871,70.352 225.479,72.876 C 224.649,73.7173 224.111,74.2427 223.875,74.4533 C 222.928,75.4 221.679,77.5027 220.128,80.7627 C 220.009,81.3933 219.524,82.4987 218.695,84.076 C 215.843,87.2307 213.397,90.3853 211.373,93.54 C 210.059,95.748 208.481,99.14 206.641,103.715 C 204.801,108.288 203.841,111.207 203.789,112.468 C 203.723,113.731 202.475,116.412 200.029,120.513 C 197.597,124.615 195.771,127.191 194.587,128.243 C 194.115,128.873 193.575,128.927 192.984,128.4 C 192.26,127.875 192.208,127.349 192.8,126.823 C 193.759,125.876 195.389,123.457 197.716,119.567 C 200.029,115.676 201.252,113.257 201.371,112.311 C 201.488,110.839 202.475,107.763 204.315,103.083 C 206.168,98.404 207.799,94.8547 209.231,92.436 C 211.255,89.176 213.753,85.916 216.736,82.656 C 216.973,82.0253 217.328,81.0787 217.801,79.816 C 219.471,76.3467 220.956,74.0853 222.271,73.0333 C 222.389,72.8227 222.809,72.2973 223.52,71.456 C 226.135,68.6173 227.989,67.04 229.053,66.724 C 230.723,66.1987 232.721,66.2773 235.035,66.96 C 237.361,67.6573 238.939,68.6827 239.767,70.0627 C 241.436,68.3667 242.751,67.3547 243.697,67.04 C 244.301,66.9347 245.367,67.092 246.917,67.5133 C 248.468,67.9333 249.481,68.3533 249.955,68.7747 L 251.912,70.8253 C 252.031,71.036 252.149,71.2987 252.281,71.6133 C 252.872,72.4547 253.411,73.928 253.884,76.0307 C 254.476,75.4 255.369,74.4533 256.565,73.192 L 256.565,73.192 C 256.565,71.9293 258.104,70.4573 261.207,68.7747 C 261.916,68.4587 262.639,68.3013 263.349,68.3013 L 262.993,66.408 C 262.876,66.0933 262.809,65.8307 262.809,65.62 C 262.809,64.3573 263.52,63.464 264.952,62.9387 C 266.859,61.5707 268.831,61.3613 270.855,62.3067 C 270.973,62.3067 271.091,62.3067 271.209,62.3067 L 282.988,51.1467 C 284.301,50.004 285.669,49.4253 287.101,49.4253 C 288.535,49.4253 290.072,50.4107 291.741,52.396 L 291.927,52.712 C 292.872,53.7627 292.701,55.1173 291.387,56.7867 L 291.203,57.26 L 291.387,57.26 L 291.387,57.26 C 294.608,58.5213 296.093,60.0467 295.856,61.8347 C 295.371,62.8853 294.779,64.3053 294.068,66.0933 C 293.477,66.9347 292.636,68.144 291.571,69.7213 C 290.729,71.824 289.481,73.56 287.812,74.9267 L 286.392,76.188 C 289.008,78.712 291.085,81.0787 292.636,83.2867 C 293.464,84.548 294.424,85.7053 295.501,86.7573 L 295.856,87.072 L 296.751,85.4947 C 296.868,85.18 297.04,84.9693 297.276,84.864 L 300.496,83.444 C 302.757,82.4987 304.716,82.288 306.385,82.8133 C 308.055,83.444 309.54,84.444 310.855,85.8107 C 311.447,85.4947 312.051,85.232 312.643,85.0213 C 313.825,84.6013 315.797,84.7587 318.532,85.4947 L 318.887,85.4947 C 320.083,85.8107 322.645,88.5453 326.576,93.6973 C 328.364,94.5387 329.731,95.696 330.677,97.168 C 331.387,98.22 331.873,99.4293 332.111,100.796 C 336.396,104.267 340.024,109.629 343.008,116.885 C 345.387,122.144 347.765,128.768 350.145,136.76 Z M 290.323,54.2627 C 290.204,54.1573 290.072,54.052 289.955,53.9467 L 289.784,53.7893 C 289.311,53.1587 288.416,52.4227 287.101,51.5813 C 286.511,51.3707 285.735,51.7387 284.775,52.6853 L 273.523,63.2533 C 275.784,64.3053 277.689,65.8307 279.241,67.828 L 282.632,64.516 C 283.237,63.8853 284.131,62.8853 285.315,61.5187 C 286.628,59.6253 287.339,58.5747 287.457,58.364 L 289.428,55.6827 C 289.901,54.9467 290.204,54.4733 290.323,54.2627 Z M 293.359,61.5187 C 293.477,60.7827 292.465,60.0467 290.323,59.3107 C 290.072,59.3107 289.784,59.416 289.428,59.6253 L 287.285,62.6227 C 287.036,63.148 286.392,63.9893 285.315,65.1467 L 284.775,65.7773 C 284.657,65.8827 284.604,65.9347 284.604,65.9347 L 280.673,69.7213 C 282.093,71.6133 283.473,73.244 284.775,74.6107 L 286.037,73.5067 C 287.457,72.2453 288.587,70.72 289.428,68.932 C 289.547,68.512 290.02,67.828 290.848,66.8813 C 291.097,66.5667 291.413,66.0667 291.835,65.3827 C 292.255,64.7 292.755,63.412 293.359,61.5187 Z "/>
	</g>
</svg>