<?xml version="1.0" encoding="UTF-8" standalone="no"?>
<svg version="1.1" xmlns="http://www.w3.org/2000/svg" xmlns:xlink="http://www.w3.org/1999/xlink" width="160" height="120">
	<g id="bsl-g" transform="matrix(1,0,0,1,-350,-40)">
		<path fill="black" stroke="black" stroke-width="0.1" d="M 503.431,86.1133 C 503.785,86.7573 503.667,87.2307 503.075,87.5453 C 502.365,87.8613 501.827,87.704 501.472,87.072 C 500.748,86.0213 498.199,84.496 493.781,82.4987 C 486.88,79.3427 482.529,76.2413 480.741,73.192 C 479.085,70.4573 477.351,68.564 475.576,67.5133 C 472.947,66.04 471.159,64.8307 470.213,63.8853 C 467.833,61.4667 462.233,57.7853 453.427,52.8427 C 453.308,52.8427 452.349,52.8427 450.561,52.8427 C 447.472,52.7373 445.264,52.6853 443.963,52.6853 L 442.884,52.6853 C 429.069,52.6853 421.208,53.1587 419.315,54.1053 C 417.883,54.3147 415.911,54.8933 413.413,55.84 C 412.348,56.4707 411.691,58.1533 411.455,60.888 L 411.271,61.5187 L 411.271,61.992 C 411.033,63.148 410.916,63.9893 410.916,64.516 L 410.916,64.6733 L 416.095,65.62 C 418.237,64.3573 419.96,63.3067 421.273,62.4653 C 421.392,62.2547 421.576,62.1493 421.813,62.1493 C 422.404,61.7293 422.785,61.44 422.969,61.2813 C 423.153,61.124 423.772,60.4667 424.849,59.3107 L 425.02,59.152 C 424.665,58.9427 423.535,58.784 421.629,58.6787 C 420.445,58.5747 419.841,58.2067 419.841,57.5747 C 419.841,56.944 420.209,56.628 420.919,56.628 C 421.511,56.628 422.641,56.6813 424.311,56.7867 C 425.02,56.892 425.743,57.1013 426.453,57.4173 C 427.4,56.3653 428.175,55.84 428.78,55.84 L 437.889,55.84 C 439.427,55.84 442.949,55.472 448.419,54.736 C 449.377,54.5253 449.851,54.788 449.851,55.524 L 449.851,55.6827 C 449.969,56.3133 449.667,56.6813 448.957,56.7867 C 443.239,57.5227 439.545,57.8907 437.889,57.8907 L 429.135,57.8907 C 429.016,58.1013 428.832,58.2853 428.596,58.4427 C 428.359,58.6 427.768,59.232 426.808,60.336 C 425.861,61.44 425.204,62.1493 424.849,62.4653 C 426.873,63.2013 428.004,64.2 428.241,65.4627 C 428.359,66.408 427.82,67.408 426.637,68.4587 C 426.151,68.9853 425.177,69.748 423.692,70.7467 C 422.195,71.7453 421.156,72.0867 420.564,71.772 L 417.172,70.0893 C 417.055,69.984 416.633,69.932 415.911,69.932 C 416.16,71.0613 416.752,71.7973 417.699,72.1 C 420.801,73.244 422.877,73.56 423.956,73.0333 L 424.495,72.7187 C 426.387,71.8773 429.489,69.7733 433.775,66.408 C 434.367,65.988 434.971,65.988 435.563,66.408 C 435.917,66.724 436.036,67.092 435.917,67.5133 C 436.391,67.7227 437.048,67.9333 437.889,68.144 C 439.664,68.4587 441.044,68.5907 441.991,68.5387 C 442.949,68.4853 443.476,68.8267 443.595,69.564 C 444.08,69.8787 444.199,70.668 443.963,71.9293 C 445.5,72.3507 446.341,73.0333 446.46,73.98 C 446.579,74.1907 446.867,74.716 447.353,75.5573 C 447.827,76.3987 448.064,77.0293 448.064,77.4507 C 448.181,78.6067 448.812,79.7107 449.943,80.7627 C 451.073,81.8147 452.296,82.8667 453.597,83.9173 C 455.504,85.3893 456.989,86.1267 458.067,86.1267 C 458.54,86.1267 459.789,86.3893 461.813,86.9147 C 463.245,87.2307 464.495,87.2307 465.572,86.9147 C 467.465,86.284 469.319,85.7053 471.107,85.18 C 471.935,84.9693 472.473,85.18 472.711,85.8107 C 472.947,86.4413 472.684,86.888 471.908,87.152 C 471.133,87.4147 469.319,87.9667 466.467,88.808 C 464.797,89.4387 462.536,89.3333 459.671,88.492 C 458.843,88.2813 458.304,88.176 458.067,88.176 C 457.107,88.176 455.385,87.44 452.888,85.968 C 450.391,84.496 448.72,83.2867 447.892,82.34 C 446.579,80.9733 445.868,79.3427 445.737,77.4507 C 445.737,77.3453 445.5,76.924 445.027,76.188 C 444.553,75.452 444.252,74.8213 444.133,74.296 C 444.015,74.1907 443.844,74.0853 443.607,73.98 C 443.357,74.716 442.949,75.3467 442.345,75.8733 C 443.187,76.924 443.779,77.924 444.133,78.8693 C 444.369,79.816 444.317,80.7627 443.963,81.7093 C 443.357,83.1813 443.068,84.0227 443.068,84.2333 C 442.832,85.18 441.517,86.0213 439.137,86.7573 C 439.967,87.4933 440.387,89.596 440.387,93.0667 C 440.387,94.224 439.848,95.012 438.783,95.4333 C 437.705,95.8533 436.64,96.0107 435.563,95.9053 C 434.735,95.8013 433.42,95.748 431.632,95.748 L 421.984,95.5907 C 421.156,95.4853 420.735,95.1173 420.735,94.4867 C 420.735,93.7507 421.156,93.3827 421.984,93.3827 L 430.568,93.8547 C 430.396,93.1453 430.396,92.5013 430.568,91.9093 C 430.804,91.2133 431.277,90.9107 431.987,91.016 C 432.711,91.1213 432.999,91.436 432.881,91.9627 L 432.815,92.2773 C 432.815,92.804 432.815,93.1187 432.815,93.224 C 432.815,93.3293 432.841,93.4347 432.881,93.54 L 433.065,93.6973 C 434.248,93.6973 435.208,93.7507 435.917,93.8547 C 437.351,93.96 438.06,93.6973 438.06,93.0667 C 438.02,90.7533 438.02,89.7013 438.06,89.912 C 437.941,88.86 437.351,88.072 436.272,87.5453 C 435.799,87.6507 435.509,87.756 435.392,87.8613 C 434.077,88.5973 427.939,88.3347 416.988,87.072 C 416.752,87.1773 416.516,87.2307 416.279,87.2307 C 416.029,87.2307 415.621,87.8613 415.017,89.1227 L 414.845,89.912 C 414.255,92.5413 414.845,94.3027 416.633,95.196 C 418.421,96.0893 420.261,97.2733 422.168,98.7453 C 423.483,98.4293 424.901,98.1667 426.453,97.956 L 428.057,97.7987 C 429.608,97.588 430.856,97.7987 431.816,98.4293 L 443.068,100.48 C 446.631,100.691 451.1,101.427 456.463,102.689 C 456.936,102.899 457.528,103.215 458.251,103.635 C 460.985,104.476 462.772,104.529 463.601,103.793 C 464.56,102.952 465.323,102.531 465.928,102.531 C 467.715,99.9013 468.845,98.2987 469.319,97.72 C 469.792,97.1413 470.331,97.0627 470.923,97.4827 C 471.645,97.7987 471.764,98.272 471.277,98.9027 C 470.923,99.4293 469.792,101.007 467.887,103.635 C 476.469,109.629 481.399,113.468 482.713,115.151 C 483.187,115.781 485.395,117.516 489.325,120.356 C 495.28,124.877 498.251,127.612 498.251,128.559 C 498.251,128.979 498.015,129.295 497.541,129.504 C 496.819,129.82 496.279,129.609 495.924,128.873 C 495.569,128.137 492.835,125.824 487.709,121.933 C 485.684,120.461 483.371,118.568 480.741,116.255 C 479.559,114.783 474.616,110.944 465.928,104.74 C 465.572,105.055 465.087,105.423 464.495,105.844 L 469.135,107.421 C 469.74,107.527 470.029,107.841 470.029,108.368 C 469.911,108.788 469.621,109.945 469.135,111.837 C 469.016,112.259 468.845,112.627 468.609,112.941 C 469.673,113.363 470.147,114.783 470.029,117.201 L 470.029,117.516 C 469.911,118.988 469.503,120.356 468.78,121.617 C 468.543,122.353 467.768,122.984 466.467,123.511 L 466.099,123.825 L 466.283,123.984 C 466.401,124.299 466.585,124.877 466.821,125.719 C 466.94,126.455 466.873,127.821 466.637,129.82 C 466.637,130.031 464.849,131.397 461.287,133.921 C 461.235,134.027 461.235,134.132 461.287,134.237 C 461.287,137.392 460.275,139.495 458.251,140.547 C 458.132,140.652 457.948,140.704 457.712,140.704 C 457.239,141.229 455.74,141.861 453.243,142.597 C 450.745,143.333 449.076,143.753 448.248,143.859 C 447.524,143.964 445.921,143.701 443.423,143.071 C 440.203,144.121 436.929,144.911 433.604,145.436 C 429.673,146.067 426.571,146.225 424.311,145.909 C 421.695,145.279 419.013,144.673 416.279,144.096 C 413.532,143.517 411.691,143.071 410.745,142.755 L 390.383,157.215 C 389.779,157.74 389.253,157.74 388.767,157.215 C 388.293,156.583 388.359,156.057 388.951,155.637 L 408.589,141.48 C 407.169,139.797 406.276,138.443 405.92,137.392 C 405.684,136.76 405.92,136.34 406.631,136.129 C 407.34,135.919 407.827,136.129 408.063,136.76 C 408.419,137.707 409.193,138.864 410.377,140.231 C 410.745,140.652 412.888,141.229 416.804,141.965 C 419.315,142.597 421.865,143.176 424.495,143.701 C 426.637,144.016 429.489,143.912 433.065,143.385 C 435.325,142.965 437.587,142.439 439.848,141.808 C 439.02,141.388 438.244,141.125 437.521,141.02 C 436.339,140.915 434.313,140.231 431.461,138.969 C 431.093,138.864 430.856,138.601 430.739,138.18 C 430.62,136.708 430.764,135.499 431.185,134.552 C 431.605,133.605 432.592,132.817 434.129,132.187 C 435.681,131.555 436.929,131.345 437.889,131.555 C 438.125,131.555 438.415,131.555 438.783,131.555 C 437.824,131.029 436.391,130.451 434.497,129.82 C 432.592,129.189 431.461,128.716 431.093,128.4 C 430.384,127.769 430.331,126.403 430.923,124.299 C 429.016,125.351 426.099,126.297 422.168,127.139 C 421.457,127.244 420.972,126.981 420.735,126.349 C 420.616,125.719 420.919,125.299 421.629,125.088 C 427.111,124.036 430.147,122.984 430.739,121.933 C 431.329,120.881 432.46,119.461 434.129,117.675 C 434.129,116.937 435.141,115.939 437.167,114.677 L 438.783,113.731 C 440.439,112.784 442.293,112.732 444.317,113.573 C 446.579,113.573 448.248,113.363 449.312,112.941 C 449.549,112.941 449.733,112.941 449.851,112.941 C 450.679,112.941 451.941,113.205 453.597,113.731 C 454.676,114.361 455.924,114.835 457.357,115.151 C 457.831,115.045 458.251,115.151 458.605,115.465 C 459.671,115.676 460.683,115.728 461.643,115.624 C 464.021,115.413 465.744,113.993 466.821,111.364 C 466.585,111.469 466.099,111.68 465.388,111.996 L 463.785,112.784 C 462.116,113.625 460.445,113.52 458.776,112.468 C 455.569,111.101 453.952,109.681 453.952,108.209 C 453.952,106.948 454.847,105.949 456.633,105.212 C 456.161,105.003 455.621,104.713 455.031,104.345 C 454.439,103.977 452.467,103.583 449.141,103.161 C 444.843,102.741 442.648,102.479 442.529,102.373 L 431.093,100.323 C 430.856,100.323 430.555,100.165 430.2,99.8493 C 429.844,99.744 429.253,99.744 428.425,99.8493 L 426.808,100.007 C 425.625,100.217 424.495,100.428 423.416,100.639 C 423.061,101.48 422.471,101.584 421.629,100.953 C 420.077,101.375 418.659,101.848 417.344,102.373 C 415.437,103.109 412.637,105.028 408.944,108.131 C 405.263,111.233 402.936,112.995 401.991,113.415 C 397.705,115.519 391.868,118.725 384.481,123.037 C 383.535,123.773 380.971,125.613 376.804,128.559 C 371.677,132.028 366.328,135.919 360.728,140.231 C 360.373,140.756 359.835,140.861 359.124,140.547 C 358.769,140.336 358.585,140.02 358.585,139.6 C 358.585,138.969 364.185,134.709 375.372,126.823 C 379.42,123.984 381.984,122.196 383.048,121.46 C 386.151,119.133 392.04,115.873 400.741,111.667 C 408.707,105.147 413.887,101.413 416.279,100.467 C 417.344,100.047 418.421,99.6787 419.487,99.3627 C 417.699,98.5213 415.556,97.1547 413.059,95.2613 C 412.112,94.1053 411.928,92.16 412.519,89.4253 L 412.704,88.6373 C 412.94,87.796 413.295,87.06 413.768,86.428 C 412.231,85.9027 411.1,84.904 410.377,83.4307 L 410.205,83.2733 C 409.851,82.6427 409.667,81.1173 409.667,78.6987 C 409.667,78.1733 409.785,77.7533 410.021,77.4373 C 408.589,76.4907 407.643,75.0187 407.169,73.02 C 407.051,72.4947 406.985,71.9693 406.985,71.4427 C 406.985,69.0107 407.643,67.276 408.957,66.224 C 408.707,65.6987 408.589,65.068 408.589,64.332 C 408.589,63.7013 408.707,62.8067 408.957,61.6507 L 408.879,61.3347 L 408.957,60.704 C 409.193,59.232 409.431,58.1267 409.667,57.3907 C 410.14,55.9187 410.863,54.8667 411.809,54.236 C 412.756,53.6053 413.925,53.1587 415.293,52.896 C 416.66,52.632 417.645,52.396 418.237,52.1853 C 420.499,51.1347 428.713,50.608 442.884,50.608 L 443.963,50.608 C 444.672,50.608 446.88,50.608 450.561,50.608 L 453.781,50.608 C 454.019,50.7133 454.255,50.7653 454.491,50.7653 C 463.429,55.7347 469.253,59.5867 472,62.3333 C 472.828,63.188 474.551,64.3973 477.18,65.988 C 479.085,67.144 480.9,69.1293 482.621,71.9293 C 484.344,74.7293 488.432,77.608 494.86,80.5653 C 499.619,82.7867 502.484,84.64 503.431,86.1133 Z M 413.952,127.139 C 413.716,127.769 413.243,127.98 412.519,127.769 C 408.707,126.612 405.197,125.193 401.991,123.511 C 401.385,123.195 401.267,122.721 401.635,122.091 C 401.991,121.46 402.529,121.355 403.239,121.775 C 406.092,123.248 409.431,124.615 413.243,125.876 C 413.952,126.087 414.189,126.508 413.952,127.139 Z M 411.993,134.237 C 411.507,134.868 410.968,135.025 410.377,134.709 C 409.431,134.184 407.945,133.343 405.908,132.187 C 404.607,131.345 403.777,130.451 403.409,129.504 C 403.173,128.873 403.409,128.453 404.133,128.243 C 404.961,128.032 405.527,128.191 405.828,128.716 C 406.117,129.241 406.656,129.82 407.432,130.451 C 408.208,131.081 409.548,131.871 411.455,132.817 C 412.164,133.237 412.348,133.711 411.993,134.237 Z M 449.667,80.7627 L 449.667,80.7627 L 449.496,80.7627 Z M 425.743,65.7253 C 425.743,65.3827 425.415,65.068 424.757,64.792 C 424.1,64.516 423.416,64.3187 422.707,64.2 C 421.156,64.9893 419.131,66.2773 416.633,68.0773 C 417.344,68.0773 417.935,68.1827 418.421,68.42 L 421.089,69.932 C 423.115,68.696 424.311,67.8547 424.665,67.408 C 425.388,66.0533 425.743,65.488 425.743,65.7253 Z M 441.636,71.1933 C 441.583,70.9827 441.583,70.8253 441.636,70.72 C 438.783,70.72 436.339,70.1813 434.313,69.0907 C 431.935,71.088 429.069,72.928 425.743,74.6107 L 425.02,74.9267 C 424.547,75.1373 423.837,75.2413 422.877,75.2413 C 421.221,75.2413 419.223,74.848 416.896,74.0587 C 414.583,73.2707 413.413,71.6133 413.413,69.0907 C 413.413,68.564 413.649,67.9853 414.136,67.3547 L 411.809,66.8813 C 411.691,67.092 411.481,67.276 411.179,67.4333 C 410.889,67.592 410.495,67.9333 410.021,68.4587 C 409.548,69.5107 409.312,70.5093 409.312,71.456 C 409.312,73.7693 410.14,75.2947 411.809,76.0307 C 412.047,76.0307 412.283,76.0827 412.519,76.188 C 414.425,76.504 418.185,76.82 423.772,77.1347 C 429.371,77.4507 432.711,77.556 433.775,77.4507 L 434.853,77.292 C 435.325,76.872 435.628,76.3467 435.747,75.7147 C 435.865,75.084 435.917,74.4267 435.917,73.744 C 435.917,73.06 436.339,72.7187 437.167,72.7187 C 437.889,72.7187 438.244,73.0867 438.244,73.8227 C 438.125,74.7693 438.008,75.7147 437.889,76.6613 C 438.363,76.556 438.953,76.136 439.677,75.4133 C 439.677,75.4133 439.967,75.1493 440.557,74.624 C 440.676,74.5187 440.86,74.3747 441.096,74.164 C 441.452,73.428 441.636,72.4427 441.636,71.1933 Z M 466.099,108.683 L 458.776,106.159 C 458.659,106.685 458.304,106.948 457.712,106.948 L 457.883,106.948 C 457.647,107.053 457.173,107.473 456.463,108.209 C 456.463,108.209 457.647,109.051 460.025,110.733 C 460.985,111.259 461.879,111.312 462.707,110.891 L 464.311,110.26 C 464.679,110.049 465.271,109.524 466.099,108.683 Z M 441.991,79.9747 C 441.991,79.448 441.569,78.66 440.741,77.608 C 440.032,78.344 437.889,78.9747 434.313,79.5013 L 434.129,79.5013 C 432.947,79.7107 429.555,79.632 423.956,79.264 C 418.356,78.896 414.425,78.5547 412.164,78.2387 C 412.125,78.344 412.125,78.5013 412.164,78.712 C 412.164,80.816 412.231,82.0253 412.348,82.34 L 412.519,82.656 C 412.756,83.1813 413.716,83.8653 415.385,84.7067 C 417.291,85.0213 420.708,85.364 425.651,85.732 C 430.593,86.1 433.42,86.2307 434.129,86.1267 C 434.484,85.916 435.208,85.6533 436.272,85.3373 C 436.155,85.0213 435.983,84.864 435.747,84.864 C 435.379,84.7587 435.089,84.812 434.853,85.0213 C 434.853,84.9173 434.971,84.548 435.208,83.9173 C 435.273,82.8667 435.273,82.1827 435.208,81.8667 C 434.853,81.236 435.024,80.7627 435.747,80.448 C 436.456,80.132 436.995,80.316 437.351,81 C 437.705,81.6827 437.771,82.7613 437.521,84.2333 C 437.403,84.548 437.284,84.812 437.167,85.0213 C 439.191,84.496 440.387,84.076 440.741,83.76 C 440.741,83.444 440.952,82.84 441.372,81.9453 C 441.78,81.052 441.991,80.3947 441.991,79.9747 Z M 454.136,116.412 C 453.427,116.096 452.821,115.781 452.349,115.465 C 451.876,115.151 451.1,114.992 450.035,114.992 C 449.667,115.097 449.26,115.203 448.773,115.308 C 451.035,116.044 452.651,116.412 453.597,116.412 Z M 467.531,117.043 C 467.649,115.887 467.597,115.151 467.36,114.835 C 465.928,116.517 464.075,117.516 461.813,117.832 C 460.631,117.937 459.316,117.832 457.883,117.516 C 456.7,118.147 455.267,118.463 453.597,118.463 C 450.627,118.463 447.288,117.569 443.595,115.781 L 443.423,115.781 C 442.949,115.781 442.648,115.624 442.529,115.308 C 441.569,114.992 440.808,115.045 440.203,115.465 L 438.244,116.728 C 438.008,116.937 437.468,117.464 436.64,118.305 C 437.113,119.883 437.652,120.776 438.244,120.987 C 438.481,121.092 439.729,121.512 441.991,122.248 C 445.921,123.511 448.419,124.352 449.496,124.772 C 451.284,125.613 452.704,125.876 453.781,125.561 C 454.255,125.351 455.451,125.035 457.357,124.615 C 460.683,123.879 462.655,123.3 463.245,122.88 C 464.324,122.353 465.455,121.671 466.637,120.829 C 467.229,119.777 467.531,118.673 467.531,117.516 Z M 464.495,126.665 C 464.495,126.035 464.376,125.456 464.14,124.931 C 463.061,125.351 460.985,125.929 457.883,126.665 C 457.055,126.876 455.977,127.139 454.676,127.453 C 452.888,128.085 450.797,127.821 448.419,126.665 C 447.472,126.244 445.092,125.456 441.28,124.299 C 439.967,123.879 438.296,123.195 436.272,122.248 C 434.853,122.353 434.077,122.669 433.959,123.195 C 433.236,124.983 432.881,126.192 432.881,126.823 C 432.841,126.823 432.841,126.876 432.881,126.981 C 433.117,127.085 433.893,127.349 435.208,127.769 C 437.468,128.611 439.137,129.347 440.203,129.977 C 441.753,130.713 443.779,131.424 446.276,132.107 C 448.773,132.791 450.272,133.028 450.745,132.817 C 451.573,132.501 453.308,132.501 455.924,132.817 C 457.475,133.028 458.369,133.132 458.605,133.132 C 459.316,132.501 461.221,131.187 464.311,129.189 C 464.443,128.137 464.495,127.296 464.495,126.665 Z M 435.024,120.356 L 434.853,120.197 L 434.668,120.356 Z M 458.96,135.183 C 458.369,135.183 457.291,135.079 455.74,134.868 C 453.479,134.657 452.177,134.605 451.823,134.709 C 450.272,135.236 447.407,134.815 443.239,133.448 C 440.268,133.659 438.455,133.711 437.797,133.605 C 437.14,133.5 436.312,133.632 435.3,134 C 434.288,134.368 433.656,134.815 433.42,135.341 C 433.183,135.867 433.065,136.551 433.065,137.392 L 433.065,137.392 C 435.444,138.337 437.113,138.864 438.06,138.969 C 439.02,139.075 440.151,139.495 441.452,140.231 C 445.027,141.388 447.169,141.913 447.892,141.808 C 451.573,141.388 454.32,140.547 456.108,139.284 C 456.817,138.759 457.436,138.285 457.975,137.865 C 458.513,137.444 458.843,136.551 458.96,135.183 Z "/>
	</g>
</svg>