<?xml version="1.0" encoding="UTF-8" standalone="no"?>
<svg version="1.1" xmlns="http://www.w3.org/2000/svg" xmlns:xlink="http://www.w3.org/1999/xlink" width="155" height="130">
	<g id="bsl-h" transform="matrix(1,0,0,1,-500,-40)">
		<path fill="black" stroke="black" stroke-width="0.1" d="M 642.769,148.433 C 642.283,148.959 641.757,149.064 641.153,148.749 C 639.247,147.697 636.815,145.068 633.831,140.861 C 633.357,140.231 631.517,138.391 628.297,135.341 C 626.036,133.132 624.577,130.819 623.92,128.4 C 623.263,125.981 619.305,120.251 612.049,111.207 C 610.025,108.683 608.829,107.159 608.475,106.632 C 607.515,105.16 604.123,101.9 598.287,96.852 L 598.116,96.5373 L 596.867,95.4333 C 595.789,94.276 594.423,93.0147 592.753,91.6467 C 590.255,90.3853 588.533,88.9133 587.573,87.2307 C 586.745,86.1787 585.313,85.232 583.288,84.3907 C 582.224,83.8653 581.212,83.6547 580.252,83.76 L 580.081,83.9173 C 579.476,84.548 579.187,85.2853 579.187,86.1267 C 579.135,86.4413 579.135,86.7573 579.187,87.072 L 581.501,89.2813 C 582.697,90.4373 584.012,91.6467 585.431,92.9093 C 585.668,93.1187 587.167,94.644 589.9,97.4827 C 594.54,102.321 597.104,104.897 597.577,105.212 L 597.407,105.212 C 598.116,105.423 598.352,105.844 598.116,106.475 C 597.997,107 597.577,107.211 596.867,107.105 C 596.263,107 593.357,104.213 588.113,98.7453 C 586.916,97.3787 585.549,95.9587 584.012,94.4867 C 583.644,94.1707 582.276,92.9093 579.897,90.7 C 576.203,87.2307 574.127,85.3373 573.653,85.0213 L 572.759,84.3907 C 572.155,83.9707 570.972,83.2867 569.184,82.34 C 568.343,82.0253 567.515,81.8667 566.687,81.8667 C 565.845,81.972 565.253,82.0773 564.899,82.1827 C 564.544,82.288 564.176,82.5507 563.821,82.9707 L 563.281,83.76 C 563.164,83.9707 563.229,84.6533 563.465,85.8107 C 565.135,87.1773 566.687,88.2813 568.105,89.1227 C 569.893,90.3853 571.984,92.3307 574.363,94.96 C 576.269,97.0627 578.175,99.1653 580.081,101.269 C 580.436,101.689 581.329,102.793 582.749,104.581 L 584.367,106.475 C 585.904,108.368 587.035,109.629 587.757,110.26 C 587.995,110.471 588.113,110.733 588.113,111.049 C 588.113,111.259 587.995,111.469 587.757,111.68 C 587.284,112.205 586.745,112.205 586.141,111.68 C 585.313,110.944 584.064,109.577 582.395,107.579 L 580.975,105.844 C 580.371,105.003 579.476,103.951 578.293,102.689 C 575.547,99.744 573.759,97.7987 572.931,96.852 C 570.905,94.224 568.829,92.2253 566.687,90.8587 C 563.821,88.86 561.704,87.152 560.337,85.732 C 558.971,84.312 557.577,83.2347 556.144,82.4987 C 555.552,82.1827 554.777,82.288 553.817,82.8133 L 553.463,82.9707 C 552.635,83.6027 552.213,84.18 552.213,84.7067 C 552.213,85.548 552.635,86.5987 553.463,87.8613 C 554.659,89.4387 555.316,90.332 555.435,90.5427 C 556.853,91.4893 558.641,93.1453 560.784,95.512 C 562.927,97.8773 564.569,99.4813 565.7,100.323 C 566.831,101.164 568.461,102.952 570.617,105.685 L 571.327,106.475 C 571.681,106.895 572.575,107.841 574.008,109.313 C 575.915,111.101 577.044,112.311 577.4,112.941 C 579.543,114.835 582.343,117.411 585.787,120.671 C 586.272,121.197 586.207,121.671 585.615,122.091 C 585.024,122.512 584.484,122.459 584.012,121.933 C 581.383,119.093 579.595,117.464 578.648,117.043 C 577.333,116.412 576.269,115.308 575.428,113.731 C 573.889,112.259 571.865,110.208 569.355,107.579 L 568.829,106.789 C 567.751,105.528 566.265,103.899 564.36,101.9 C 561.507,99.692 559.417,97.6413 558.116,95.748 C 557.156,94.4867 555.487,93.0667 553.108,91.4893 C 552.029,91.068 551.201,91.068 550.609,91.4893 C 549.532,92.2253 549.007,92.6987 549.007,92.9093 L 549.177,93.54 C 549.296,94.4867 549.835,95.8533 550.781,97.6413 C 552.805,99.8493 555.251,103.057 558.116,107.263 C 558.944,108.525 560.429,110.471 562.572,113.1 C 565.188,116.149 566.949,117.911 567.843,118.384 C 568.737,118.857 570.367,120.565 572.759,123.511 L 573.115,123.984 C 573.824,125.14 575.073,126.771 576.86,128.873 C 577.333,129.4 578.109,130.188 579.187,131.24 L 580.607,132.817 C 581.093,133.343 581.028,133.816 580.436,134.237 C 579.831,134.657 579.305,134.605 578.819,134.079 L 577.4,132.501 C 576.44,131.555 575.02,129.925 573.115,127.612 C 572.877,127.612 572.391,127.507 571.681,127.296 L 570.788,127.139 C 568.763,126.612 567.58,126.14 567.212,125.719 C 565.556,124.036 563.465,122.827 560.968,122.091 C 557.393,121.144 554.777,120.724 553.108,120.829 C 552.752,120.829 552.28,121.144 551.675,121.775 C 553.936,122.512 555.316,123.089 555.789,123.511 C 556.853,124.352 557.459,125.416 557.577,126.679 C 557.577,127.099 557.511,127.467 557.393,127.783 C 558.471,128.519 559.417,129.255 560.245,129.991 C 560.732,130.727 561.56,131.831 562.756,133.316 L 563.281,133.948 C 563.649,134.263 564.176,134.631 564.899,135.052 C 565.608,135.472 567.58,136.367 570.788,137.733 C 570.905,137.839 571.024,137.944 571.143,138.049 L 573.653,140.731 C 574.955,141.572 576.795,143.057 579.187,145.16 C 585.011,146.632 588.533,147.684 589.716,148.315 C 594.369,151.063 597.459,152.429 599.009,152.429 C 599.72,152.429 600.075,152.745 600.075,153.376 C 600.075,154.007 599.72,154.323 599.009,154.323 C 596.985,154.323 593.476,152.903 588.468,150.051 C 585.011,149.209 581.383,148.052 577.571,146.567 C 576.269,145.62 574.363,144.096 571.865,141.992 L 569.539,139.455 C 566.568,138.088 564.715,137.273 564.005,137.011 C 563.281,136.748 562.52,136.143 561.679,135.183 C 561.323,134.868 561.139,134.709 561.139,134.709 C 560.784,134.395 560.495,133.973 560.245,133.448 C 558.944,133.869 557.775,134.447 556.761,135.183 C 555.749,135.919 553.936,137.76 551.32,140.704 L 549.716,142.439 C 547.692,145.068 544.589,148.276 540.423,152.061 C 539.713,152.377 539.173,152.272 538.819,151.745 C 538.464,151.22 538.583,150.773 539.173,150.405 C 539.779,150.037 542.684,146.961 547.928,141.177 L 549.532,139.443 C 550.847,137.969 552.752,136.077 555.251,133.764 C 556.447,132.923 557.695,132.239 558.996,131.713 L 558.641,131.397 C 557.695,130.451 556.617,129.663 555.435,129.031 C 555.316,128.927 555.184,128.847 555.067,128.795 C 554.948,128.743 554.54,128.505 553.817,128.085 C 553.108,127.664 551.32,126.665 548.468,125.088 C 548.112,124.877 547.928,124.615 547.928,124.299 C 547.928,124.089 547.995,123.931 548.112,123.825 C 547.995,123.089 548.56,122.091 549.808,120.829 C 551.057,119.567 552.096,118.884 552.924,118.779 C 554.829,118.673 557.748,119.147 561.679,120.197 C 564.899,121.144 567.331,122.564 569,124.457 C 569.119,124.563 569.96,124.825 571.497,125.245 L 571.327,125.088 L 570.972,124.615 C 569.893,123.248 568.408,121.723 566.503,120.04 C 565.556,119.515 563.649,117.569 560.784,114.204 C 558.76,111.891 557.209,109.945 556.144,108.368 C 553.409,104.161 551.017,101.007 548.993,98.9027 C 547.928,97.7467 547.219,96.064 546.851,93.8547 L 546.851,93.3827 C 546.613,92.2253 547.455,91.068 549.361,89.912 C 549.953,89.3853 550.781,89.176 551.859,89.2813 C 550.781,87.704 550.124,86.4413 549.887,85.4947 C 549.651,83.9173 550.373,82.5507 552.029,81.3933 L 552.568,81.236 C 554.239,80.184 555.841,80.0267 557.393,80.7627 C 558.471,81.2893 559.653,82.1827 560.968,83.444 C 561.087,83.1293 561.257,82.8133 561.495,82.4987 L 562.033,81.8667 C 562.269,81.552 562.875,81.0787 563.821,80.448 C 564.176,80.3427 564.899,80.184 565.964,79.9747 C 567.869,78.6067 568.973,77.74 569.276,77.372 C 569.565,77.004 570.997,75.7147 573.561,73.5067 C 576.111,71.2987 577.689,70.036 578.293,69.7213 C 578.529,69.5107 579.148,68.7747 580.16,67.5133 C 581.172,66.2507 581.895,65.488 582.303,65.2253 C 582.723,64.9627 584.064,63.516 586.325,60.888 L 587.573,59.468 L 589.007,58.048 C 588.953,57.9427 588.953,57.8373 589.007,57.7333 C 589.361,56.576 588.704,55.472 587.035,54.42 L 586.68,54.1053 C 585.497,53.264 584.012,53.4733 582.224,54.736 L 581.145,55.524 C 579.359,56.6813 577.4,58.2067 575.257,60.0987 C 574.771,60.94 573.14,62.4387 570.34,64.5947 C 567.541,66.7507 565.543,68.0907 564.36,68.6173 C 559.233,73.0333 553.528,77.976 547.219,83.444 C 547.692,84.7067 547.928,85.6 547.928,86.1267 C 547.928,87.072 547.455,87.44 546.496,87.2307 C 545.785,87.1253 545.484,86.7573 545.601,86.1267 L 545.601,86.1267 C 545.601,85.7053 545.247,84.3387 544.537,82.0253 L 543.815,80.2893 C 543.104,78.0813 542.868,76.7667 543.104,76.3467 L 543.104,76.0307 C 543.341,75.5053 543.643,74.664 543.999,73.5067 C 543.999,73.0867 543.761,71.3507 543.288,68.3013 L 542.933,66.724 C 542.801,65.7773 541.737,64.936 539.713,64.2 C 539.949,67.46 540.133,69.248 540.252,69.564 C 540.607,70.8253 540.187,71.6667 539.003,72.0867 C 538.753,72.192 537.991,72.2973 536.676,72.4027 C 536.44,74.6107 536.203,76.2413 535.967,77.292 C 535.848,77.924 535.361,79.2387 534.533,81.236 C 533.456,83.76 532.864,85.3893 532.745,86.1267 C 532.391,88.6493 532.207,92.856 532.207,98.7453 C 532.168,99.0613 532.141,99.5867 532.141,100.323 C 532.141,101.059 532.141,101.689 532.141,102.216 C 532.141,102.741 532.141,103.74 532.141,105.212 C 532.141,106.685 532.168,107.736 532.207,108.368 C 532.207,111.312 532.325,112.995 532.575,113.415 C 533.521,115.728 534.179,117.148 534.533,117.675 C 535.244,118.62 536.676,119.829 538.819,121.303 C 539.056,121.407 539.173,121.617 539.173,121.933 C 539.173,122.353 539.003,122.669 538.635,122.88 C 538.161,123.089 537.741,123.037 537.387,122.721 C 534.06,120.513 531.971,118.62 531.143,117.043 C 527.685,119.777 525.424,121.723 524.36,122.88 C 523.873,123.405 522.691,124.563 520.784,126.349 C 519.351,127.821 517.8,129.4 516.144,131.081 L 516.315,130.924 C 515.96,131.555 515.487,131.765 514.881,131.555 C 514.172,131.345 513.936,130.924 514.172,130.293 C 514.291,129.977 515.96,128.243 519.167,125.088 C 520.127,124.141 521.257,122.959 522.572,121.539 C 523.873,120.119 526.371,118.043 530.064,115.308 C 530.301,115.203 530.485,115.097 530.603,114.992 L 530.603,114.992 C 530.485,114.572 530.34,113.888 530.156,112.941 C 529.972,111.996 529.893,110.523 529.893,108.525 C 529.841,107.789 529.841,106.685 529.893,105.212 C 530.012,103.74 530.064,102.689 530.064,102.057 C 530.064,101.637 530.012,101.059 529.893,100.323 C 529.841,99.5867 529.841,99.008 529.893,98.588 C 529.893,92.6987 530.131,88.44 530.603,85.8107 C 530.721,84.864 531.313,83.076 532.391,80.448 C 533.219,78.66 533.692,77.5027 533.824,76.9773 C 533.943,75.9253 534.179,74.1373 534.533,71.6133 C 534.533,71.2987 534.652,71.088 534.888,70.9827 L 534.888,70.8253 C 534.416,67.776 534.179,65.252 534.179,63.2533 C 534.179,62.6227 534.533,62.3067 535.244,62.3067 C 535.361,62.3067 535.48,62.3067 535.599,62.3067 C 535.729,62.2027 535.848,62.1493 535.967,62.1493 C 537.872,61.9387 539.411,61.992 540.607,62.3067 C 543.341,63.2533 544.892,64.6733 545.247,66.5667 L 545.431,67.9853 C 545.904,70.8253 546.141,72.56 546.141,73.192 C 546.141,73.928 545.839,75.084 545.247,76.6613 L 545.247,76.82 C 545.247,77.1347 545.484,78.0813 545.969,79.6587 L 546.496,81.236 C 556.38,72.192 562.033,67.3547 563.465,66.724 C 564.425,66.304 566.24,65.068 568.908,63.0173 C 571.589,60.9667 573.115,59.6253 573.469,58.9947 C 573.824,58.364 575.915,56.6813 579.713,53.9467 L 580.791,53.1587 C 582.224,52.212 583.709,51.7387 585.26,51.7387 C 586.325,51.7387 587.284,52.0013 588.113,52.528 L 588.468,52.8427 C 589.191,53.3693 590.084,54.3147 591.149,55.6827 C 592.227,54.6307 593.883,53.7893 596.144,53.1587 C 597.223,52.8427 598.655,53 600.443,53.632 C 600.561,53.7373 600.679,53.8413 600.797,53.9467 C 601.863,54.8933 602.52,55.892 602.756,56.944 L 605.621,53.9467 L 602.217,51.4227 C 601.863,51.2133 601.692,50.9507 601.692,50.6347 C 601.692,50.004 602.099,49.688 602.94,49.688 L 614.363,50.3187 C 614.968,50.424 615.323,50.6867 615.441,51.108 L 617.584,59.6253 C 617.703,60.0467 617.519,60.3613 617.045,60.572 C 616.689,60.888 616.269,60.888 615.796,60.572 L 612.049,58.5213 L 605.621,65.4627 C 607.16,65.8827 607.936,67.1973 607.936,69.4053 C 607.896,69.616 607.896,69.8267 607.936,70.036 C 607.58,71.088 606.687,72.6133 605.253,74.6107 C 606.449,74.8213 607.344,75.3733 607.936,76.2667 C 608.527,77.1613 608.711,78.0813 608.475,79.028 C 608.237,79.6587 607.515,81.0253 606.332,83.1293 L 605.977,83.76 L 605.793,84.076 C 605.201,85.232 604.36,86.5467 603.295,88.0187 L 601.863,90.0693 C 600.193,92.3827 599.128,93.7507 598.655,94.1707 L 599.72,95.1173 L 599.904,95.2747 C 605.859,100.533 609.368,104.003 610.433,105.685 C 610.683,106.107 611.813,107.579 613.837,110.103 C 621.331,119.356 625.444,125.351 626.155,128.085 C 626.745,130.188 628.179,132.291 630.44,134.395 C 633.424,137.339 635.145,139.127 635.619,139.757 C 638.484,143.648 640.745,146.067 642.401,147.013 C 643.007,147.329 643.124,147.803 642.769,148.433 Z M 614.731,57.5747 L 613.299,52.3693 L 606.332,51.896 L 607.936,53 C 608.172,53.2107 608.291,53.4733 608.291,53.7893 C 608.291,54.1053 608.237,54.3147 608.12,54.42 L 582.04,82.0253 C 582.763,82.1293 583.472,82.34 584.183,82.656 C 584.537,82.7613 585.076,83.024 585.787,83.444 L 602.047,66.0933 C 602.165,65.7773 602.401,65.5667 602.756,65.4627 L 610.972,56.4707 C 611.445,56.0507 611.984,55.9973 612.588,56.3133 Z M 605.793,69.4053 C 605.793,68.564 605.621,67.9333 605.253,67.5133 C 605.017,67.408 604.544,67.3547 603.835,67.3547 L 587.573,84.7067 C 588.297,85.3373 589.309,86.284 590.611,87.5453 C 590.728,87.44 590.847,87.388 590.965,87.388 L 590.795,87.388 C 591.977,86.7573 593.765,84.864 596.144,81.7093 C 598.536,78.5547 600.193,76.504 601.152,75.5573 L 601.324,75.4 C 601.928,74.8733 602.467,74.4533 602.94,74.1373 C 604.847,72.3507 605.793,70.7733 605.793,69.4053 Z M 600.613,57.7333 C 600.613,57.1013 600.193,56.3653 599.365,55.524 C 598.168,55.104 597.288,54.9467 596.683,55.0507 C 595.013,55.472 593.765,56.1027 592.937,56.944 C 592.819,57.1547 591.925,58.1013 590.255,59.784 L 589.361,60.7293 L 588.113,62.1493 C 586.68,63.6213 584.603,65.8307 581.869,68.7747 C 580.791,70.1413 580.016,70.9827 579.543,71.2987 C 576.559,72.9813 573.772,75.452 571.143,78.712 C 570.788,78.9227 570.131,79.448 569.184,80.2893 C 570.499,80.6053 572.155,81.4467 574.179,82.8133 L 574.901,83.2867 C 575.257,83.4973 575.915,84.076 576.86,85.0213 L 577.044,84.548 C 577.163,84.0227 577.636,83.3387 578.464,82.4987 L 578.832,82.34 C 578.951,82.2347 579.029,82.1293 579.095,82.0253 C 579.148,81.92 579.24,81.8667 579.359,81.8667 L 600.075,59.784 C 599.956,59.6787 600.023,59.3893 600.259,58.916 C 600.495,58.4427 600.613,58.048 600.613,57.7333 Z M 606.332,78.5547 C 606.568,77.5027 606.148,76.872 605.083,76.6613 C 604.609,76.4507 604.189,76.3987 603.835,76.504 C 603.479,76.6093 603.229,76.6613 603.111,76.6613 L 602.94,76.82 C 600.324,79.9747 598.655,82.0253 597.932,82.9707 C 596.749,84.548 594.896,86.5467 592.397,88.9653 C 593.476,89.7013 595.08,90.964 597.223,92.7507 C 597.459,92.436 598.352,91.1733 599.904,88.9653 L 601.324,86.9147 C 602.283,85.548 603.059,84.3387 603.651,83.2867 L 603.835,82.8133 L 604.36,82.1827 C 604.847,81.236 605.504,80.0267 606.332,78.5547 Z M 538.109,69.984 C 537.991,69.576 537.807,67.592 537.571,64.0427 C 537.215,64.0427 536.86,64.0427 536.492,64.0427 C 536.624,65.6067 536.795,67.7493 537.031,70.4573 C 537.387,70.352 537.663,70.2467 537.833,70.1413 C 538.017,70.036 538.109,69.984 538.109,69.984 Z M 555.251,126.349 C 555.013,125.824 554.711,125.403 554.356,125.088 C 554.001,124.772 552.752,124.247 550.609,123.511 L 550.425,123.825 C 552.687,125.088 554.239,125.929 555.067,126.349 Z "/>
	</g>
</svg>