<?xml version="1.0" encoding="UTF-8" standalone="no"?>
<svg version="1.1" xmlns="http://www.w3.org/2000/svg" xmlns:xlink="http://www.w3.org/1999/xlink" width="190" height="140">
	<g id="bsl-i" transform="matrix(1, 0, 0, 1, -10, -195)">
		<path fill="black" stroke="black" stroke-width="0.1" d="M 193.639,254.592 L 192.377,253.488 C 189.169,250.859 183.925,247.073 176.669,242.131 C 172.857,239.817 169.939,238.083 167.915,236.925 L 166.849,236.295 C 164.576,235.137 161.539,234.769 157.74,235.191 C 156.307,235.4 154.52,235.216 152.377,234.639 C 150.235,234.06 148.828,233.535 148.184,233.061 C 147.527,232.588 144.937,231.615 140.415,230.143 C 139.219,229.827 137.668,229.353 135.761,228.723 C 134.46,228.303 132.844,227.619 130.951,226.672 C 129.517,225.2 127.139,224.253 123.8,223.833 C 122.367,223.623 121,223.255 119.699,222.729 L 117.556,221.94 C 115.281,221.204 111.891,219.732 107.368,217.524 C 107.013,217.313 106.659,217.26 106.304,217.365 L 105.581,217.681 L 99.1533,214.684 C 98.916,214.579 98.6133,214.527 98.2587,214.527 C 96.116,214.947 94.8147,215.999 94.328,217.681 C 93.9733,217.576 93.5533,217.524 93.08,217.524 C 92.8427,217.524 92.6067,217.628 92.3707,217.839 L 86.836,221.309 C 86.3493,221.099 85.876,221.099 85.4027,221.309 L 85.048,221.467 C 85.1667,221.256 85.5867,220.311 86.2973,218.628 L 87.5453,216.104 C 88.7427,213.264 87.5453,211.056 83.9707,209.479 C 82.7867,208.953 81.7747,208.848 80.9333,209.163 C 80.1053,209.479 79.632,210.004 79.5013,210.74 L 79.5013,210.74 C 78.436,213.264 76.7147,215.577 74.3213,217.681 C 72.784,219.048 70.9307,222.045 68.788,226.672 C 68.0787,228.04 67.6573,229.353 67.5387,230.616 L 65.752,231.563 C 63.8453,232.719 62.7147,233.719 62.36,234.56 C 61.768,235.821 61.2293,236.663 60.756,237.083 C 60.2827,237.504 59.324,238.713 57.8907,240.711 C 56.8253,242.184 55.748,244.076 54.6827,246.389 L 53.9733,240.08 C 53.2507,237.451 52.304,233.495 51.108,228.236 C 50.9893,227.5 51.108,226.344 51.4627,224.767 C 51.6867,223.504 51.6867,222.663 51.4627,222.243 C 51.4627,222.032 51.528,221.296 51.6467,220.035 C 51.7653,216.143 51.5813,213.291 51.108,211.503 C 50.0427,207.507 48.492,205.036 46.468,204.089 C 45.7573,203.773 44.9827,203.616 44.1413,203.616 C 42.7213,203.616 41.288,204.195 39.856,205.364 C 39.5013,205.588 39.3173,205.851 39.3173,206.167 L 39.3173,206.167 L 39.856,213.107 C 37.7133,217.628 36.648,223.833 36.648,231.72 C 36.648,235.296 37.292,239.555 38.6067,244.497 C 38.9613,245.653 39.1453,246.337 39.1453,246.548 C 37.3587,249.072 36.412,252.227 36.2933,256.012 C 35.5707,255.065 34.7427,253.068 33.7827,250.017 L 33.612,248.913 C 33.3627,247.547 32.5333,245.653 31.1013,243.235 C 29.1947,240.396 27.42,238.819 25.7507,238.503 C 23.7267,238.188 21.8213,238.345 20.0333,238.976 C 19.9147,238.976 19.796,239.029 19.6787,239.133 L 18.968,239.765 C 17.6533,240.08 16.996,240.607 16.996,241.343 C 16.996,241.552 17.088,241.789 17.26,242.052 C 17.444,242.315 18.548,244.076 20.572,247.336 L 20.2173,248.283 C 20.1907,248.388 20.1907,248.493 20.2173,248.599 C 20.2173,248.913 20.3613,249.519 20.664,250.412 C 20.9533,251.307 21.1107,252.016 21.1107,252.541 C 21.1107,252.963 21.0187,253.515 20.8347,254.199 C 20.664,254.881 20.572,255.433 20.572,255.855 C 20.572,257.537 20.98,258.747 21.8213,259.483 C 21.9387,259.692 21.992,260.008 21.992,260.429 C 21.992,261.165 21.9387,261.953 21.8213,262.795 C 21.4653,265.529 21.2813,267.948 21.2813,270.051 C 21.2813,272.259 21.4267,273.705 21.7293,274.389 C 22.0307,275.072 22.36,275.94 22.7147,276.992 L 23.0693,278.096 C 23.188,278.201 23.372,278.673 23.608,279.515 C 24.5547,283.196 25.5147,285.561 26.4613,286.613 C 27.052,287.244 27.3547,287.717 27.3547,288.033 C 27.3413,288.139 27.328,288.191 27.328,288.191 L 27.3547,288.821 C 27.3547,289.453 28.012,291.609 29.3267,295.289 C 30.864,299.391 32.0613,301.809 32.8893,302.545 C 32.7707,302.651 32.416,304.123 31.824,306.963 C 31.22,309.801 30.9307,311.327 30.9307,311.536 C 30.9307,312.168 31.2853,312.536 31.9947,312.641 C 32.836,312.851 33.3093,312.588 33.428,311.852 C 33.664,311.432 34.256,308.749 35.216,303.807 C 35.5707,303.597 35.7547,303.229 35.7547,302.703 C 35.7547,302.177 35.452,301.625 34.86,301.047 C 34.256,300.468 33.3093,298.444 31.9947,294.973 C 30.812,291.819 30.0893,289.768 29.852,288.821 L 29.852,288.664 C 29.9707,288.453 30.036,288.244 30.036,288.033 C 30.036,287.297 29.5627,286.351 28.604,285.193 C 27.8933,284.457 27.052,282.355 26.1067,278.884 C 25.7507,277.937 25.5667,277.36 25.5667,277.149 L 25.212,276.36 C 24.2653,273.416 23.78,271.365 23.78,270.208 C 23.78,267.58 23.964,265.213 24.3187,263.111 C 24.4373,262.164 24.5027,261.323 24.5027,260.587 C 24.5027,259.22 24.2653,258.325 23.78,257.905 C 23.3067,257.484 23.0693,256.801 23.0693,255.855 C 23.0693,255.433 23.188,254.881 23.424,254.199 C 23.6613,253.515 23.78,252.963 23.78,252.541 C 23.78,251.385 23.4907,250.017 22.8853,248.44 L 22.8853,248.125 C 24.5547,248.231 25.396,247.073 25.396,244.655 C 25.396,244.549 25.3307,244.392 25.212,244.181 C 24.384,242.604 23.5427,241.448 22.7147,240.711 C 23.5427,240.607 24.384,240.607 25.212,240.711 C 26.172,240.921 27.3547,242.131 28.788,244.339 C 30.2067,246.548 30.9827,248.177 31.1013,249.229 L 31.2853,250.176 C 31.404,251.227 31.8773,252.804 32.7187,254.908 C 34.624,257.957 35.9907,260.587 36.8187,262.795 C 37.1747,263.531 37.7133,263.847 38.4227,263.741 C 39.264,263.531 39.5533,262.952 39.3173,262.007 C 38.1333,255.907 38.844,251.123 41.46,247.652 C 41.828,247.231 41.7093,245.969 41.104,243.867 C 39.5667,237.977 38.9613,232.981 39.3173,228.881 C 40.1587,220.784 41.1707,215.788 42.3533,213.896 L 42.3533,213.896 C 42.472,213.685 42.5373,213.475 42.5373,213.264 L 42.5373,213.264 L 41.9987,206.64 C 43.1947,205.903 44.2587,205.745 45.2187,206.167 C 47.0067,207.008 48.256,209.373 48.9653,213.264 C 49.084,214.211 49.1493,215.315 49.1493,216.577 C 49.1493,217.208 49.084,218.101 48.9653,219.259 C 48.952,220.311 48.9387,221.152 48.9387,221.783 C 48.9387,221.993 48.952,222.256 48.9653,222.571 C 49.084,222.887 49.1493,223.097 49.1493,223.203 C 49.1493,223.307 49.084,223.728 48.9653,224.464 C 48.728,225.725 48.6107,226.672 48.6107,227.304 C 48.6107,228.04 49.0307,230.143 49.8587,233.613 C 50.332,235.505 50.8707,237.715 51.4627,240.239 L 52.356,248.599 C 52.356,248.913 52.4747,249.176 52.712,249.387 L 52.712,250.649 C 52.712,251.28 53.08,251.648 53.7893,251.753 C 54.4987,251.859 54.972,251.595 55.2227,250.964 C 56.0507,249.176 57.6547,246.127 60.0333,241.816 C 61.1107,240.764 62.4253,238.976 63.964,236.452 C 64.0813,236.032 65.16,235.032 67.184,233.455 L 69.3267,232.193 C 69.4453,232.193 69.564,232.141 69.6813,232.036 C 75.7547,228.671 79.212,226.856 80.04,226.593 C 80.8813,226.331 81.8933,225.779 83.076,224.937 L 86.1133,223.517 C 86.5867,223.939 87.1253,223.991 87.7173,223.675 L 93.4347,219.889 C 94.276,219.995 94.868,220.205 95.2227,220.52 C 95.8147,221.361 96.116,222.203 96.116,223.044 C 96.116,224.096 95.5253,225.2 94.328,226.357 C 91.5947,229.196 89.8067,230.773 88.9787,231.089 L 88.9787,231.089 L 88.7947,231.089 L 88.7947,231.089 C 88.2027,231.3 87.244,231.931 85.9427,232.981 C 85.2187,233.613 84.7453,233.981 84.5093,234.087 C 83.8,233.876 83.1427,233.928 82.5373,234.244 C 81.9467,234.56 81.4987,235.085 81.2093,235.821 C 80.908,236.557 79.632,237.924 77.3587,239.923 C 77.24,240.028 77.1213,240.185 77.004,240.396 C 74.624,242.393 73.0733,243.445 72.364,243.551 C 72.008,243.551 71.6533,243.551 71.2853,243.551 C 69.984,243.34 69.3267,243.708 69.3267,244.655 C 69.3133,244.76 69.3133,244.971 69.3267,245.285 C 69.4453,245.496 69.5107,245.601 69.5107,245.601 C 69.5107,246.232 69.064,247.52 68.1707,249.465 C 67.276,251.411 66.5933,252.541 66.1067,252.857 L 66.1067,252.857 C 65.396,253.173 65.212,253.645 65.58,254.277 C 65.936,255.013 66.4747,255.223 67.184,254.908 C 68.1307,254.592 69.1427,253.357 70.2213,251.201 C 71.2853,249.045 71.8907,247.284 72.008,245.916 C 72.1267,245.916 72.3107,245.916 72.548,245.916 C 73.376,245.916 74.8613,245.128 77.004,243.551 C 77.004,245.233 76.176,247.495 74.5053,250.333 L 74.3347,250.649 C 74.0853,251.175 73.4933,252.489 72.548,254.592 C 72.3107,255.328 72.548,255.801 73.2573,256.012 C 74.0853,256.328 74.6907,256.117 75.0453,255.381 C 75.8733,253.383 76.412,252.173 76.648,251.753 L 76.832,251.437 C 77.5427,250.176 78.3707,248.283 79.3307,245.759 C 79.5667,244.497 79.632,243.077 79.5013,241.5 C 80.816,240.343 82.3013,238.608 83.9707,236.295 C 84.812,236.505 86.2307,235.821 88.256,234.244 C 88.3733,235.4 88.3213,236.295 88.0853,236.925 C 86.652,241.027 85.4027,244.076 84.3253,246.075 C 83.7333,247.125 82.7213,250.176 81.2893,255.223 C 79.8693,260.271 79.1467,263.479 79.1467,264.845 C 79.1467,266.633 78.252,272.785 76.4773,283.301 L 76.4773,284.089 C 75.992,286.508 74.7693,289.927 72.8107,294.343 C 70.8387,298.76 69.4453,301.388 68.6173,302.229 C 67.776,303.071 67.184,305.648 66.8293,309.959 C 66.7107,311.957 66.6453,313.113 66.6453,313.429 L 66.8293,313.113 C 66.4747,313.745 66.5267,314.271 67,314.691 C 67.6053,315.112 68.1307,315.112 68.6173,314.691 C 68.972,314.376 69.2613,312.904 69.5107,310.275 C 69.8653,309.433 70.0373,308.276 70.0373,306.804 L 70.0373,306.173 C 70.0373,304.912 70.2213,304.071 70.576,303.649 C 71.6533,302.597 73.192,299.759 75.216,295.132 C 77.24,290.504 78.4893,286.929 78.9747,284.405 L 78.9747,283.775 C 80.8813,273.048 81.828,266.739 81.828,264.845 C 81.828,263.689 82.5107,260.639 83.8787,255.696 C 85.2453,250.755 86.1133,247.915 86.468,247.179 C 87.7827,244.971 89.1493,241.816 90.5827,237.715 C 90.8187,236.979 90.9373,236.137 90.9373,235.191 C 90.9373,234.455 90.872,233.665 90.7533,232.824 C 92.4227,231.668 94.276,229.985 96.3,227.776 C 97.0107,227.145 97.5493,226.515 97.904,225.884 C 99.3373,227.04 100.585,227.724 101.651,227.935 C 102.728,228.776 104.213,229.775 106.12,230.932 C 109.091,232.404 114.217,234.664 121.473,237.715 C 123.024,238.345 124.996,239.817 127.375,242.131 C 124.273,246.232 122.617,248.599 122.367,249.229 C 121.42,251.123 121.96,254.487 123.984,259.324 C 123.616,259.745 123.208,260.271 122.735,260.901 C 121.539,262.795 121.303,264.845 122.012,267.053 C 122.131,267.369 122.367,268.368 122.735,270.051 C 123.563,274.468 124.247,276.833 124.785,277.149 C 125.324,277.464 126.416,277.78 128.085,278.096 L 128.624,278.096 C 129.452,278.305 131.897,279.043 135.945,280.304 C 140.704,281.671 143.925,282.828 145.595,283.775 C 151.667,286.824 155.597,288.244 157.372,288.033 C 157.74,288.033 159.225,288.085 161.841,288.191 C 167.323,288.507 170.531,288.507 171.489,288.191 C 172.555,287.876 173.921,287.717 175.591,287.717 C 176.432,287.717 176.84,287.297 176.84,286.456 C 176.84,285.72 176.432,285.352 175.591,285.352 C 173.685,285.352 172.016,285.561 170.596,285.983 C 170.004,286.193 167.139,286.193 162.025,285.983 C 159.16,285.772 157.491,285.72 157.017,285.825 L 157.017,285.825 C 155.716,285.931 152.377,284.563 147.013,281.724 C 145.108,280.777 141.716,279.568 136.84,278.096 C 132.672,276.833 130.109,276.097 129.163,275.887 L 128.44,275.729 C 127.967,275.729 127.375,275.624 126.652,275.415 C 126.416,274.783 125.968,272.943 125.324,269.893 C 124.667,266.844 124.339,265.267 124.339,265.161 C 124.339,263.793 124.628,262.689 125.232,261.848 C 127.02,264.793 129.333,266.528 132.2,267.053 C 131.831,267.369 131.595,267.58 131.476,267.685 L 131.476,267.685 C 130.767,268 130.583,268.527 130.937,269.263 C 131.424,269.893 132.016,270.051 132.725,269.736 C 133.08,269.525 134.157,268.527 135.945,266.739 C 136.656,266.003 137.668,265.056 138.983,263.899 C 139.811,263.163 140.731,262.007 141.743,260.429 C 142.755,258.852 143.268,257.747 143.268,257.116 C 143.268,253.331 142.189,250.071 140.047,247.336 C 140.033,247.231 140.033,247.073 140.047,246.863 C 139.928,246.443 139.573,246.18 138.983,246.075 C 137.313,244.392 135.88,243.551 134.697,243.551 C 133.619,242.92 132.252,242.288 130.583,241.657 C 127.493,238.608 124.812,236.609 122.551,235.664 C 118.62,234.191 113.625,231.983 107.552,229.039 C 105.528,227.145 103.74,226.041 102.189,225.725 C 101.361,225.621 100.217,224.832 98.7973,223.36 C 98.7853,223.255 98.7853,223.149 98.7973,223.044 C 98.7973,221.888 98.2587,220.573 97.1947,219.101 C 96.9573,218.891 96.8267,218.68 96.8267,218.469 C 96.8267,217.839 97.3653,217.313 98.4427,216.892 L 104.871,219.889 C 105.108,219.995 105.409,219.995 105.765,219.889 L 106.659,219.732 C 110.707,221.729 113.98,223.203 116.477,224.148 L 118.62,224.937 C 120.172,225.463 121.776,225.831 123.445,226.041 C 126.061,226.357 127.915,227.04 128.979,228.092 C 129.216,228.408 131.187,229.301 134.881,230.773 C 135.472,230.984 137.011,231.509 139.521,232.351 C 141.664,232.981 143.977,233.771 146.488,234.717 C 147.435,235.453 149.156,236.137 151.667,236.768 C 154.165,237.399 156.307,237.661 158.095,237.556 C 161.421,237.136 163.865,237.399 165.417,238.345 L 166.481,238.976 C 167.56,239.501 170.477,241.184 175.236,244.024 C 179.048,246.232 184.161,249.913 190.603,255.065 L 191.852,256.169 C 192.561,256.696 193.153,256.696 193.639,256.169 C 194.217,255.539 194.217,255.013 193.639,254.592 Z M 22.7147,245.916 Z M 22.5307,245.916 C 21.584,244.235 20.808,242.92 20.2173,241.973 C 20.808,241.973 21.6373,242.972 22.7147,244.971 C 22.7147,245.391 22.6493,245.707 22.5307,245.916 Z M 78.7907,224.451 C 78.0813,224.648 75.3347,226.12 70.576,228.855 C 72.008,224.543 73.888,221.375 76.2013,219.324 C 78.528,217.273 80.46,214.632 82.012,211.372 C 82.4853,211.267 83.26,211.581 84.3253,212.319 C 85.4027,213.055 85.64,214 85.048,215.144 L 83.9707,217.825 C 83.26,219.299 82.4187,221.085 81.4733,223.189 C 80.3947,223.82 79.5013,224.228 78.7907,224.451 Z M 140.415,257.747 C 139.928,256.905 139.219,256.012 138.272,255.065 C 138.272,254.645 138.745,253.593 139.692,251.911 C 140.415,253.593 140.769,255.276 140.769,256.959 C 140.652,257.169 140.533,257.432 140.415,257.747 Z M 134.157,246.075 C 134.513,246.389 134.933,246.495 135.407,246.389 C 136.248,246.916 137.011,247.547 137.733,248.283 C 137.72,248.599 137.72,248.967 137.733,249.387 C 137.733,250.017 137.431,250.885 136.84,251.989 C 136.248,253.093 135.893,253.909 135.761,254.435 C 134.343,254.435 133.448,253.856 133.093,252.7 C 132.844,251.964 132.317,251.753 131.476,252.068 C 130.648,252.279 130.345,252.7 130.583,253.331 C 131.424,255.855 133.329,256.959 136.3,256.643 C 137.141,257.695 138.036,258.852 138.983,260.113 C 137.904,261.271 136.3,262.952 134.157,265.161 C 132.371,264.74 131.305,264.425 130.951,264.215 C 130.228,263.899 129.4,263.163 128.44,262.007 C 125.943,259.272 124.693,255.487 124.693,250.649 C 124.68,250.439 124.68,250.228 124.693,250.017 C 125.048,249.492 126.6,247.389 129.333,243.708 C 131.831,244.655 133.448,245.444 134.157,246.075 Z M 63.964,303.649 C 62.0573,303.439 60.0333,302.44 57.8907,300.652 C 57.4173,300.127 56.8787,300.075 56.2867,300.495 C 55.34,301.02 53.7893,301.861 51.6467,303.019 C 50.9373,303.335 49.504,302.861 47.3613,301.599 C 47.1253,301.388 46.8227,301.336 46.468,301.441 L 39.5013,302.545 C 38.6733,302.651 38.3707,303.071 38.6067,303.807 C 38.7253,304.544 39.1987,304.859 40.04,304.753 L 46.468,303.649 C 49.2013,305.227 51.344,305.7 52.896,305.069 C 53.8427,304.648 55.156,303.912 56.8253,302.861 C 59.2053,304.753 61.532,305.753 63.7933,305.857 C 64.6213,305.963 65.0947,305.648 65.212,304.912 C 65.212,304.175 64.8053,303.755 63.964,303.649 Z "/>
	</g>
</svg>