<?xml version="1.0" encoding="UTF-8" standalone="no"?>
<svg version="1.1" xmlns="http://www.w3.org/2000/svg" xmlns:xlink="http://www.w3.org/1999/xlink" width="170" height="120">
	<g id="bsl-j" transform="matrix(1,0,0,1,-200,-200)">
		<path fill="black" stroke="black" stroke-width="0.1" d="M 360.332,278.884 C 360.451,279.62 360.096,280.041 359.268,280.147 C 355.929,280.356 351.381,280.172 345.611,279.595 C 339.827,279.016 336.225,278.253 334.805,277.307 C 334.083,276.887 333.253,276.728 332.295,276.833 C 331.111,277.044 329.915,277.201 328.732,277.307 C 325.985,277.412 323.553,277.044 321.411,276.203 C 320.451,275.887 319.977,275.729 319.977,275.729 C 319.017,274.888 317.177,273.784 314.444,272.417 C 312.892,272.101 310.632,270.261 307.648,266.896 C 306.82,265.949 305.873,265.003 304.795,264.057 C 304.085,263.847 303.363,263.216 302.652,262.164 C 301.943,261.112 301.64,260.165 301.759,259.324 C 301.877,256.591 302.468,254.751 303.547,253.804 C 304.02,253.383 304.795,253.12 305.873,253.015 C 304.204,249.649 303.664,246.18 304.256,242.604 C 304.611,240.711 305.86,239.133 308.003,237.872 C 308.844,237.347 309.908,237.031 311.223,236.925 C 306.109,232.404 303.007,229.353 301.929,227.776 L 301.575,227.304 C 301.22,226.672 300.155,225.884 298.367,224.937 C 293.964,223.78 290.861,222.151 289.073,220.047 C 288.955,219.837 288.6,219.679 288.009,219.575 L 286.931,219.416 L 284.433,218.785 C 282.409,218.155 279.964,217.524 277.112,216.892 C 275.916,216.683 274.903,215.841 274.075,214.368 C 269.672,229.196 265.676,242.131 262.113,253.173 L 262.113,253.173 C 262.823,253.804 263.296,254.013 263.533,253.804 C 263.901,253.488 264.467,252.436 265.228,250.649 C 266.004,248.861 266.991,247.284 268.173,245.916 C 268.777,245.391 269.488,244.549 270.329,243.393 L 272.827,238.188 C 273.536,235.873 274.312,234.56 275.14,234.244 C 275.389,234.033 276.336,232.613 278.005,229.985 L 279.071,228.565 C 279.439,227.935 279.82,226.699 280.24,224.859 C 280.648,223.019 281.817,221.888 283.724,221.467 C 286.221,220.941 287.891,221.361 288.719,222.729 L 288.903,223.044 C 289.495,223.78 289.796,225.253 289.796,227.461 C 289.796,231.457 288.903,234.507 287.115,236.609 L 286.037,238.029 C 283.067,247.179 281.043,252.436 279.964,253.804 C 279.491,254.54 279.017,255.065 278.544,255.381 C 278.176,256.853 277.821,258.168 277.467,259.324 C 278.427,258.588 279.912,257.327 281.936,255.539 C 281.817,255.433 281.752,255.328 281.752,255.223 C 281.765,255.119 281.765,255.013 281.752,254.908 C 281.871,254.487 282.291,254.119 283,253.804 C 285.025,253.173 286.787,251.989 288.272,250.255 C 289.757,248.52 290.927,247.179 291.755,246.232 L 295.147,243.235 C 295.265,243.129 295.383,243.077 295.501,243.077 C 297.052,242.447 298.485,243.183 299.787,245.285 C 300.392,246.232 300.68,247.179 300.68,248.125 C 300.68,249.703 299.735,251.859 297.828,254.592 L 295.147,258.063 C 294.673,258.693 294.016,259.508 293.188,260.508 C 292.347,261.507 289.14,264.845 283.54,270.524 L 273.72,288.033 C 273.129,289.085 270.855,291.897 266.937,296.472 C 263.007,301.047 260.68,303.623 259.971,304.201 C 259.248,304.78 258.591,306.489 257.999,309.328 C 257.644,311.432 256.987,312.377 256.04,312.168 C 255.317,311.957 254.963,311.589 254.963,311.063 C 254.963,311.168 255.147,310.407 255.501,308.776 C 255.856,307.147 256.159,305.963 256.395,305.227 C 256.751,303.965 257.315,303.071 258.091,302.545 C 258.867,302.02 261.153,299.548 264.965,295.132 C 268.777,290.715 270.973,288.033 271.577,287.087 C 271.696,286.667 273.72,282.88 277.651,275.729 L 281.213,269.263 C 281.331,269.263 281.397,269.209 281.397,269.104 C 284.249,266.265 287.469,263.005 291.045,259.324 C 291.4,258.904 292.057,258.063 293.004,256.801 L 295.685,253.331 C 297.355,251.017 298.183,249.281 298.183,248.125 C 298.183,246.863 297.644,245.916 296.58,245.285 L 293.713,247.809 C 291.939,249.703 290.809,250.964 290.323,251.595 C 288.903,253.173 286.997,254.54 284.604,255.696 C 284.487,256.328 283.96,257.011 283,257.747 C 281.449,259.009 279.255,260.955 276.389,263.584 C 276.271,263.689 276.1,263.793 275.863,263.899 C 274.075,264.425 273.181,264.004 273.181,262.637 C 273.181,262.216 273.444,261.639 273.983,260.901 C 274.523,260.165 275.259,257.905 276.217,254.119 C 276.336,253.699 276.691,253.436 277.283,253.331 C 277.415,253.12 277.585,252.857 277.821,252.541 C 278.663,251.385 280.451,246.653 283.184,238.345 C 283.197,238.24 283.197,238.135 283.184,238.029 C 283.184,237.399 283.54,236.82 284.249,236.295 L 284.972,235.348 C 286.392,233.665 287.115,231.036 287.115,227.461 C 287.115,225.673 286.997,224.569 286.76,224.148 L 286.576,223.833 C 286.34,223.623 286.221,223.517 286.221,223.517 C 285.867,223.412 285.235,223.465 284.341,223.675 C 283.448,223.885 282.948,224.464 282.829,225.411 C 282.344,227.304 281.817,228.776 281.227,229.827 L 280.332,231.089 C 278.308,234.244 276.993,235.927 276.401,236.137 C 276.284,236.347 275.916,237.241 275.324,238.819 L 275.324,238.976 L 272.643,244.181 C 271.459,245.444 269.789,247.863 267.647,251.437 C 267.175,252.595 266.333,253.961 265.149,255.539 C 263.953,256.38 262.705,256.38 261.391,255.539 C 257.223,268.053 254.252,276.203 252.465,279.988 C 249.481,286.193 245.261,289.4 239.78,289.611 C 235.849,289.716 232.695,288.98 230.316,287.403 L 229.776,286.929 C 226.569,284.721 224.965,281.724 224.965,277.937 L 224.965,277.623 C 225.084,275.309 225.32,273.1 225.675,270.997 L 222.1,270.208 C 221.508,270.104 221.153,269.788 221.035,269.263 L 221.035,269.104 C 221.035,268.684 221.272,268.368 221.745,268.157 L 232.103,262.48 C 232.459,262.269 232.813,262.216 233.181,262.321 C 233.536,262.427 233.772,262.637 233.891,262.952 L 239.425,272.575 C 239.661,272.996 239.609,273.389 239.255,273.757 C 238.887,274.125 238.413,274.257 237.821,274.152 L 233.352,272.891 C 232.76,275.624 232.576,277.517 232.813,278.569 C 233.3,280.461 234.364,281.724 236.033,282.355 C 237.348,282.985 238.833,282.933 240.503,282.197 C 241.331,281.776 242.225,281.145 243.171,280.304 C 247.101,276.833 255.383,252.489 268.003,207.271 C 267.647,207.901 267.292,208.585 266.924,209.321 C 265.86,212.687 265.032,215.105 264.427,216.577 C 264.191,217.103 263.835,218.155 263.361,219.732 C 262.757,221.835 262.349,223.097 262.113,223.517 C 261.508,224.569 259.787,228.828 256.935,236.295 C 256.211,238.188 254.489,242.604 251.741,249.545 C 251.624,249.86 251.387,250.071 251.032,250.176 L 250.139,250.491 C 249.192,250.701 248.653,250.385 248.535,249.545 C 248.311,248.283 248.311,247.284 248.535,246.548 C 248.653,246.232 248.771,244.444 248.889,241.184 C 249.125,238.24 249.244,236.452 249.244,235.821 C 249.967,231.089 250.02,227.619 249.428,225.411 C 249.073,224.464 249.363,222.676 250.323,220.047 C 251.519,216.051 251.755,212.949 251.032,210.74 C 250.796,210.109 250.02,209.584 248.719,209.163 L 247.996,209.005 C 247.64,208.9 247.339,208.9 247.101,209.005 C 247.101,209.216 246.983,209.636 246.747,210.268 C 245.432,212.476 243.54,218.837 241.028,229.353 C 239.123,237.451 238.176,241.868 238.176,242.604 C 238.176,243.656 237.467,245.707 236.033,248.756 L 235.495,249.86 C 235.021,251.648 234.193,253.751 232.997,256.169 C 232.405,256.696 231.039,257.747 228.883,259.324 C 228.528,259.535 228.173,259.64 227.817,259.64 C 227.463,259.535 227.161,259.377 226.924,259.167 C 225.136,256.853 222.993,253.909 220.496,250.333 L 220.141,249.545 C 219.181,247.547 217.393,244.812 214.779,241.343 C 212.872,239.66 210.967,239.133 209.06,239.765 C 211.439,240.711 212.937,242.499 213.529,245.128 C 213.765,246.285 213.529,247.389 212.82,248.44 C 212.569,248.861 212.163,249.019 211.557,248.913 C 212.517,251.123 213.108,253.12 213.345,254.908 C 213.345,255.855 213.227,256.801 212.991,257.747 C 212.753,258.693 212.636,259.377 212.636,259.797 L 212.661,261.217 C 212.661,262.059 212.648,262.795 212.636,263.425 C 212.753,263.847 212.991,264.635 213.345,265.792 C 214.068,268.105 214.305,269.525 214.068,270.051 C 214.541,271.103 215.133,272.364 215.856,273.836 C 217.276,276.887 218.892,281.356 220.667,287.244 C 220.917,289.137 222.403,291.031 225.136,292.923 C 225.491,293.239 226.148,293.791 227.108,294.58 C 228.055,295.368 229.015,296.131 229.96,296.867 C 231.275,297.919 231.748,298.707 231.393,299.233 C 231.039,299.864 230.5,300.021 229.776,299.705 C 228.948,299.285 227.516,298.181 225.491,296.393 L 225.136,296.236 C 224.781,297.813 224.427,299.023 224.072,299.864 C 224.189,300.928 223.769,302.664 222.823,305.083 C 222.219,305.819 221.153,307.607 219.603,310.459 L 218.879,311.563 C 218.524,312.088 218.288,312.456 218.169,312.667 C 217.696,313.297 217.105,313.403 216.381,312.983 C 215.672,312.561 215.553,312.036 216.027,311.405 C 216.145,311.3 216.565,310.616 217.276,309.355 C 218.945,306.515 220.076,304.675 220.667,303.833 C 220.667,302.781 221.035,301.152 221.745,298.944 C 222.1,298.103 222.52,296.577 222.993,294.356 C 220.023,292.043 218.407,289.729 218.169,287.416 C 218.051,286.364 217.039,283.629 215.133,279.213 C 214.187,276.795 213.595,275.217 213.345,274.481 C 213.345,274.376 212.937,273.535 212.096,271.957 C 211.623,270.905 211.439,270.116 211.557,269.591 L 211.557,269.433 C 211.557,269.117 211.295,268.065 210.756,266.279 C 210.229,264.491 209.953,263.124 209.953,262.177 C 209.953,262.177 210.02,261.756 210.137,260.915 L 210.137,259.811 C 210.137,259.391 210.229,258.812 210.401,258.063 C 210.585,257.327 210.677,256.748 210.677,256.328 C 210.677,253.488 209.901,250.649 208.351,247.809 L 205.129,242.604 C 204.656,241.973 204.42,241.343 204.42,240.711 C 204.42,239.449 205.196,238.556 206.747,238.029 C 208.284,237.504 209.665,237.241 210.848,237.241 C 212.753,237.241 214.687,238.083 216.657,239.765 C 218.616,241.448 220.615,244.444 222.639,248.756 L 222.823,249.387 C 223.296,250.333 225.084,252.804 228.173,256.801 C 229.001,256.275 229.96,255.539 231.025,254.592 C 231.275,254.487 231.564,253.751 231.919,252.384 C 232.156,251.648 232.576,250.491 233.181,248.913 L 233.707,247.809 C 235.021,245.076 235.679,243.313 235.679,242.525 C 235.679,241.736 236.625,237.188 238.531,228.881 C 240.673,219.311 242.645,212.844 244.42,209.479 C 244.42,208.427 244.815,207.639 245.589,207.112 C 246.365,206.587 247.404,206.481 248.719,206.797 L 249.428,206.955 C 250.743,207.376 251.663,207.744 252.201,208.059 C 252.728,208.375 253.175,209.059 253.529,210.109 C 254.371,212.739 254.068,216.261 252.649,220.679 C 251.925,222.887 251.636,224.253 251.755,224.78 C 251.992,225.305 252.109,227.04 252.109,229.985 C 252.109,231.036 251.925,234.823 251.571,241.343 L 251.387,243.867 L 254.608,235.664 C 257.46,227.987 259.195,223.623 259.787,222.571 C 259.905,222.256 260.325,221.099 261.035,219.101 C 261.272,218.26 261.6,217.208 262.021,215.947 C 262.441,214.684 263.296,212.213 264.611,208.532 C 265.793,205.167 267.463,203.484 269.605,203.484 C 270.92,203.484 272.169,203.905 273.365,204.747 C 273.957,205.061 274.128,205.483 273.891,206.008 L 275.14,206.324 L 282.645,208.375 C 283,207.953 283.487,207.744 284.079,207.744 C 293.477,209.321 298.959,210.372 300.509,210.899 C 301.22,211.004 302.351,211.161 303.901,211.372 C 304.848,211.581 306.044,212.371 307.476,213.737 C 309.619,214.473 311.525,215.315 313.195,216.261 C 313.904,217.208 315.088,218.207 316.757,219.259 C 317.112,219.259 317.415,219.259 317.651,219.259 C 318.373,219.048 319.465,219.416 320.964,220.363 C 322.449,221.309 324.144,222.361 326.051,223.517 C 326.405,223.517 326.827,223.571 327.299,223.675 C 334.924,224.096 339.537,224.464 341.141,224.78 C 342.744,225.095 344.204,225.989 345.519,227.461 C 353.616,230.721 358.072,232.824 358.913,233.771 C 359.149,233.981 359.268,234.191 359.268,234.401 C 359.268,234.823 359.084,235.137 358.729,235.348 C 358.137,235.769 357.507,235.664 356.863,235.032 C 356.205,234.401 353.944,233.351 350.067,231.877 C 346.201,230.405 344.059,229.433 343.639,228.96 C 343.217,228.487 342.18,227.829 340.511,226.988 C 339.445,226.777 336.409,226.515 331.4,226.199 C 331.532,226.62 331.4,226.935 331.045,227.145 C 330.455,227.672 329.863,227.672 329.257,227.145 C 328.429,226.409 327.536,226.041 326.589,226.041 C 326.34,226.041 326.169,225.936 326.051,225.725 L 325.696,225.725 C 324.263,224.884 322.304,223.728 319.793,222.256 C 318.965,221.835 318.427,221.572 318.189,221.467 C 317.599,221.572 316.875,221.572 316.047,221.467 C 315.088,221.256 314.325,220.784 313.72,220.047 C 312.775,219.101 312.117,218.469 311.761,218.155 C 310.211,217.313 308.371,216.524 306.228,215.788 C 305.873,215.683 305.36,215.263 304.703,214.527 C 304.045,213.791 303.336,213.448 302.56,213.501 C 301.785,213.553 300.812,213.396 299.616,213.028 C 298.42,212.66 293.661,211.74 285.327,210.268 C 285.209,210.583 285.025,210.793 284.788,210.899 C 283.605,211.424 281.633,212.16 278.9,213.107 C 278.059,213.317 277.112,213.212 276.033,212.791 C 276.52,213.948 277.045,214.579 277.651,214.684 C 278.243,214.789 280.74,215.42 285.143,216.577 L 287.469,217.208 L 288.364,217.208 C 288.955,217.313 289.915,217.787 291.216,218.628 C 292.649,220.416 295.265,221.783 299.077,222.729 C 300.983,223.255 302.587,224.412 303.901,226.199 L 304.085,226.515 C 304.677,227.461 306.872,229.723 310.684,233.297 C 315.205,237.399 318.361,239.817 320.148,240.553 C 320.516,240.659 320.753,240.921 320.872,241.343 C 321.344,243.445 321.884,245.339 322.475,247.021 C 323.185,247.231 323.487,247.652 323.369,248.283 C 323.383,248.388 323.383,248.545 323.369,248.756 C 323.369,248.861 323.421,248.967 323.553,249.072 C 324.5,249.703 324.801,250.807 324.433,252.384 C 323.724,254.908 322.291,256.38 320.148,256.801 C 318.373,257.116 315.627,256.748 311.933,255.696 L 311.407,255.539 C 308.423,254.592 306.399,254.592 305.333,255.539 C 304.848,255.96 304.493,257.273 304.256,259.483 C 304.611,260.955 305.124,261.796 305.781,262.007 C 306.425,262.216 307.713,263.373 309.619,265.476 C 310.92,266.948 312.708,268.527 314.969,270.208 C 316.639,270.629 318.427,271.576 320.332,273.048 C 320.688,273.364 320.897,273.548 320.964,273.6 C 321.016,273.652 321.528,273.836 322.475,274.152 C 324.263,274.888 326.34,275.204 328.732,275.099 C 329.679,274.993 330.756,274.836 331.94,274.625 C 333.609,274.309 335.095,274.625 336.409,275.572 C 337.355,276.203 340.549,276.808 345.965,277.385 C 351.381,277.964 355.692,278.096 358.913,277.78 C 359.741,277.78 360.215,278.148 360.332,278.884 Z M 280.503,210.109 L 275.679,208.848 L 275.508,209.636 C 276.573,210.583 277.532,211.004 278.36,210.899 C 278.952,210.793 279.675,210.531 280.503,210.109 Z M 321.936,250.807 C 321.817,250.701 321.7,250.596 321.581,250.491 C 320.872,250.912 320.031,251.227 319.084,251.437 C 319.557,252.7 319.741,253.751 319.623,254.592 C 320.451,254.383 321.108,253.699 321.581,252.541 C 322.055,251.7 322.173,251.123 321.936,250.807 Z M 320.332,248.44 C 319.741,246.968 319.084,244.917 318.361,242.288 C 317.177,241.657 315.627,240.607 313.72,239.133 C 312.775,239.029 311.341,239.239 309.435,239.765 C 307.884,240.607 306.991,241.657 306.753,242.92 C 306.636,243.971 306.793,245.732 307.2,248.204 C 307.621,250.675 308.133,252.227 308.725,252.857 C 310.276,252.963 311.46,253.12 312.301,253.331 L 312.827,253.488 C 314.615,254.013 316.047,254.383 317.112,254.592 C 317.139,254.487 317.139,254.383 317.112,254.277 C 317.112,253.645 316.875,252.7 316.403,251.437 C 314.26,251.123 312.117,250.228 309.975,248.756 C 309.264,248.231 309.147,247.704 309.619,247.179 C 310.211,246.548 310.868,246.495 311.577,247.021 C 313.484,248.283 315.337,249.019 317.112,249.229 C 317.244,249.229 317.415,249.229 317.651,249.229 C 318.847,249.229 319.741,248.967 320.332,248.44 Z M 273.181,208.217 L 270.5,207.744 C 257.763,253.488 249.244,278.253 244.959,282.039 C 243.895,282.985 242.764,283.721 241.568,284.248 C 239.188,285.299 236.98,285.404 234.956,284.563 C 232.459,283.512 230.907,281.671 230.316,279.043 C 230.092,277.885 230.092,276.203 230.316,273.995 C 230.671,271.155 231.445,269.945 232.643,270.367 L 232.813,270.367 L 235.679,271.155 L 232.287,265.003 L 225.675,268.631 L 227.633,269.104 C 228.239,269.209 228.528,269.577 228.528,270.208 C 228.528,270.945 228.383,272.18 228.081,273.916 C 227.792,275.651 227.633,276.939 227.633,277.78 L 227.633,277.937 C 227.633,280.988 228.831,283.353 231.209,285.036 L 232.103,285.667 C 233.891,286.929 236.388,287.508 239.609,287.403 C 244.012,287.192 247.523,284.405 250.139,279.043 C 253.832,271.365 261.508,247.757 273.181,208.217 Z M 211.032,245.601 C 210.559,243.393 209.363,242.079 207.456,241.657 L 210.677,247.021 C 211.032,246.495 211.151,246.021 211.032,245.601 Z "/>
	</g>
</svg>