<?xml version="1.0" encoding="UTF-8" standalone="no"?>
<svg version="1.1" xmlns="http://www.w3.org/2000/svg" xmlns:xlink="http://www.w3.org/1999/xlink" width="140" height="120">
	<g id="bsl-k" transform="matrix(1, 0, 0, 1, -370, -200)">
		<path fill="black" stroke="black" stroke-width="0.1" d="M 497.883,238.819 C 495.385,236.82 492.047,234.98 487.88,233.297 C 484.304,231.825 481.807,230.248 480.373,228.565 L 479.848,228.092 C 479.007,227.145 476.325,226.252 471.803,225.411 C 467.755,224.569 464.836,224.148 463.061,224.148 C 461.984,224.148 459.657,223.833 456.095,223.203 L 447.696,221.625 C 441.504,220.468 433.591,219.943 423.943,220.047 L 422.864,220.047 C 420.721,220.047 419.355,220.52 418.763,221.467 L 418.224,221.94 C 417.988,222.361 417.16,223.044 415.727,223.991 L 414.477,224.78 L 412.336,226.041 C 411.139,226.883 409.536,227.935 407.511,229.196 L 397.337,236.295 C 397.087,236.505 396.561,236.925 395.72,237.556 C 396.075,236.189 396.561,233.192 397.153,228.565 C 397.744,224.253 398.047,221.599 398.047,220.6 C 398.047,219.6 398.165,218.26 398.401,216.577 L 398.388,215 C 398.388,214.789 398.401,214.579 398.401,214.368 C 398.401,212.581 397.903,211.372 396.889,210.74 C 395.877,210.109 394.773,209.531 393.577,209.005 C 392.276,208.059 390.896,208.059 389.476,209.005 C 389.24,209.111 389.108,209.321 389.108,209.636 L 388.044,215.473 L 387.86,215.473 C 387.149,215.577 386.795,215.947 386.795,216.577 C 386.781,216.577 386.781,216.629 386.781,216.735 L 386.795,216.892 C 386.676,216.997 386.557,217.103 386.44,217.208 C 382.864,228.355 381.076,234.769 381.076,236.452 C 381.076,237.715 380.959,238.765 380.721,239.607 C 380.708,239.712 380.708,239.817 380.708,239.923 L 380.721,239.923 C 381.432,251.069 381.787,256.959 381.787,257.589 C 381.787,258.011 381.549,258.799 381.076,259.956 L 378.395,263.425 C 377.921,264.477 377.147,265.792 376.081,267.369 C 375.004,268.105 374.464,269.736 374.464,272.259 L 374.464,273.205 C 374.464,273.732 374.648,275.204 375.004,277.623 C 376.2,288.139 376.489,294.396 375.897,296.393 C 375.305,299.233 374.583,303.229 373.755,308.381 C 373.636,309.012 373.939,309.381 374.648,309.485 C 375.359,309.591 375.779,309.328 375.897,308.697 C 376.252,306.173 376.975,302.229 378.04,296.867 C 378.632,294.553 378.343,288.085 377.147,277.464 C 376.791,275.045 376.607,273.627 376.607,273.205 L 376.607,272.259 C 376.607,270.577 376.844,269.42 377.331,268.789 C 378.276,267.843 378.908,266.975 379.197,266.187 C 379.499,265.397 379.763,264.845 379.999,264.529 L 380.892,263.584 C 380.775,265.056 380.656,265.949 380.537,266.265 L 380.537,266.265 C 380.183,266.791 380.301,267.264 380.905,267.685 C 381.497,268 382.036,267.816 382.509,267.133 C 382.983,266.449 383.219,264.267 383.219,260.587 C 383.692,259.22 383.943,258.22 383.943,257.589 C 383.943,256.959 383.575,251.069 382.864,239.923 C 383.101,238.976 383.219,237.793 383.219,236.373 C 383.219,234.953 385.007,228.776 388.583,217.839 L 388.937,217.524 L 390.541,217.524 C 390.896,217.524 391.199,217.313 391.435,216.892 L 394.471,211.529 C 395.785,212.16 396.377,213.264 396.259,214.841 L 396.075,216.419 C 395.957,218.101 395.904,219.521 395.904,220.679 C 395.904,221.835 395.576,224.753 394.919,229.433 C 394.261,234.112 393.761,236.715 393.407,237.241 L 393.577,237.241 C 393.459,237.872 393.157,238.713 392.684,239.765 C 392.447,239.975 392.328,240.239 392.328,240.553 C 392.328,240.764 392.328,240.921 392.328,241.027 C 393.052,242.288 393.407,243.419 393.407,244.419 C 393.407,245.417 394.051,246.968 395.365,249.072 C 395.839,251.385 396.429,254.329 397.153,257.905 C 397.035,257.905 396.969,257.957 396.969,258.063 C 397.087,257.852 397.219,258.115 397.337,258.852 L 397.692,261.217 C 397.692,261.323 397.744,261.375 397.863,261.375 C 400.847,268.421 403.409,272.469 405.552,273.521 C 406.263,273.732 407.327,274.205 408.76,274.941 C 411.98,276.624 414.005,277.464 414.833,277.464 C 416.029,277.464 417.449,276.992 419.119,276.045 C 419.355,275.835 419.473,275.624 419.473,275.415 C 419.828,273.941 420.367,271.787 421.089,268.947 L 424.481,269.577 L 426.795,274.625 C 426.795,274.836 426.743,275.256 426.624,275.887 C 426.505,276.519 426.44,277.044 426.44,277.464 L 426.44,277.623 L 424.297,293.383 C 417.277,302.309 412.875,307.672 411.087,309.46 C 410.849,309.669 410.732,309.88 410.732,310.091 C 410.732,310.407 410.849,310.669 411.087,310.879 C 411.679,311.3 412.217,311.247 412.691,310.721 C 414.715,308.828 419.236,303.373 426.269,294.329 C 426.388,294.224 426.44,294.067 426.44,293.856 L 427.873,283.459 C 429.305,284.3 430.555,284.825 431.619,285.036 C 432.092,285.141 432.513,285.036 432.868,284.721 L 436.627,279.2 L 437.337,279.043 C 437.573,278.937 437.757,278.779 437.876,278.569 C 438.823,276.781 439.599,275.677 440.189,275.256 L 441.084,274.625 C 441.201,274.52 441.385,274.309 441.623,273.995 C 443.173,274.836 444.54,275.204 445.737,275.099 C 446.683,274.993 447.459,274.573 448.051,273.836 L 448.405,273.205 C 449.72,271.628 450.377,270.313 450.377,269.263 C 450.377,268.316 450.075,267.317 449.483,266.265 C 451.152,266.371 452.165,266.003 452.52,265.161 C 452.756,264.635 453.111,263.479 453.584,261.691 C 453.703,261.48 453.703,261.271 453.584,261.06 C 458.001,260.849 461.156,260.165 463.061,259.009 C 464.6,257.852 467.229,256.853 470.909,256.012 C 473.893,257.589 475.681,258.588 476.272,259.009 C 478.297,260.587 481.571,262.848 486.092,265.792 C 486.696,266.108 487.223,266.003 487.709,265.476 C 488.064,264.845 487.88,264.372 487.169,264.057 C 485.145,262.48 481.925,260.271 477.521,257.432 C 476.693,256.905 474.721,255.801 471.632,254.119 C 471.396,254.013 471.093,254.013 470.739,254.119 C 466.808,254.96 463.772,256.064 461.629,257.432 C 460.669,258.063 457.396,258.641 451.809,259.167 C 451.441,259.061 451.087,259.088 450.732,259.245 C 450.377,259.404 449.839,259.745 449.128,260.271 L 448.235,260.901 C 447.275,261.639 446.631,262.689 446.263,264.057 L 446.092,264.688 C 445.973,265.003 445.316,266.265 444.12,268.473 C 443.292,268.999 442.28,270.051 441.084,271.628 C 440.492,271.733 440.189,272.049 440.189,272.575 C 440.189,272.575 439.953,272.785 439.48,273.205 L 438.769,273.836 C 438.047,274.363 437.153,275.519 436.088,277.307 L 435.549,277.464 C 435.313,277.569 435.076,277.728 434.84,277.937 L 432.513,281.408 L 432.513,281.408 L 431.448,282.985 C 429.305,282.249 428.228,281.565 428.228,280.935 C 428.228,280.724 428.293,280.356 428.412,279.831 C 428.529,279.305 428.583,278.884 428.583,278.569 C 428.583,278.359 428.583,278.096 428.583,277.78 L 428.767,276.203 C 428.885,275.677 429.24,274.677 429.832,273.205 L 430.371,271.944 C 430.371,271.839 430.436,271.733 430.555,271.628 C 431.264,271.628 431.567,271.26 431.448,270.524 C 431.685,270.419 431.973,270.34 432.343,270.288 C 432.697,270.235 432.868,269.945 432.868,269.42 L 432.868,269.263 C 432.868,269.157 432.868,268.999 432.868,268.789 C 432.868,267.001 433.644,265.267 435.195,263.584 C 435.431,263.479 435.549,263.268 435.549,262.952 L 435.549,260.429 C 435.549,260.113 435.852,259.508 436.443,258.615 C 437.035,257.721 437.337,257.064 437.337,256.643 C 437.337,256.223 437.1,255.303 436.627,253.883 C 436.141,252.463 435.904,251.569 435.904,251.201 C 435.904,250.833 435.497,249.913 434.656,248.44 C 434.773,248.02 434.681,247.652 434.392,247.336 C 434.091,247.021 433.761,246.548 433.407,245.916 C 431.501,244.655 428.529,242.709 424.481,240.08 L 424.297,238.503 C 424.179,237.872 423.759,237.609 423.048,237.715 C 422.339,237.82 421.971,238.135 421.971,238.66 C 421.971,238.66 422.036,238.713 422.155,238.819 L 422.339,239.923 L 417.16,241.184 C 415.608,241.289 414.293,241.816 413.229,242.761 C 412.624,243.393 411.021,243.919 408.405,244.339 C 407.695,243.708 406.144,243.183 403.765,242.761 C 402.924,242.657 402.516,242.972 402.516,243.708 C 402.516,244.235 402.805,244.549 403.397,244.655 C 405.184,244.971 406.315,245.285 406.801,245.601 C 407.275,248.231 408.287,250.964 409.837,253.804 C 408.879,253.804 407.577,253.856 405.908,253.961 C 405.184,254.067 404.895,254.435 405.013,255.065 C 405.013,255.696 405.435,256.012 406.263,256.012 C 408.996,255.696 410.613,255.592 411.087,255.696 C 412.151,255.696 413.465,256.696 415.017,258.693 C 415.727,259.745 416.265,261.533 416.62,264.057 L 415.188,266.265 L 410.009,263.111 C 409.772,263.005 409.536,262.952 409.299,262.952 L 408.051,262.952 C 406.499,262.427 405.421,261.717 404.829,260.823 C 404.239,259.929 403.16,257.852 401.623,254.592 C 401.609,254.592 401.609,254.54 401.623,254.435 C 399.953,252.332 398.52,250.333 397.324,248.44 C 396.613,246.548 395.785,243.971 394.827,240.711 C 395.785,239.975 397.087,238.976 398.756,237.715 L 408.944,230.773 C 409.653,230.248 411.205,229.196 413.584,227.619 L 416.976,225.568 C 417.685,225.148 418.697,224.359 420.012,223.203 L 420.551,222.413 C 420.669,222.308 420.813,222.203 420.997,222.097 C 421.169,221.993 421.8,221.94 422.864,221.94 L 424.127,221.94 C 433.525,221.94 441.268,222.465 447.34,223.517 L 455.727,225.095 C 459.421,225.831 461.865,226.199 463.049,226.199 C 464.836,226.199 467.703,226.593 471.632,227.383 C 475.563,228.171 477.759,228.828 478.231,229.353 L 478.599,229.669 C 479.428,230.721 480.256,231.509 481.097,232.036 C 482.399,232.981 484.369,233.981 486.985,235.032 C 490.68,236.505 493.835,238.24 496.451,240.239 C 497.055,240.659 497.581,240.659 498.067,240.239 C 498.54,239.712 498.475,239.239 497.883,238.819 Z M 381.076,260.429 C 381.076,260.429 381.076,260.429 381.076,260.429 L 381.076,260.429 C 381.076,260.429 381.076,260.429 381.076,260.429 Z M 381.076,260.192 C 381.076,260.14 381.076,260.14 381.076,260.192 C 381.076,260.245 381.076,260.245 381.076,260.192 Z M 390.371,214.527 L 391.08,210.425 C 391.553,210.215 392.027,210.268 392.513,210.583 Z M 449.667,262.48 L 450.548,261.691 C 450.667,261.585 450.851,261.48 451.087,261.375 L 451.441,261.533 C 450.968,262.795 450.667,263.741 450.548,264.372 C 450.075,264.372 449.365,264.32 448.405,264.215 C 448.655,263.479 449.063,262.9 449.667,262.48 Z M 445.908,269.577 C 446.499,268.527 446.985,267.58 447.34,266.739 C 447.813,267.369 448.116,268 448.235,268.631 C 448.352,269.472 447.813,270.629 446.617,272.101 L 446.263,272.732 C 446.025,272.943 445.737,273.1 445.369,273.205 C 444.777,273.205 444.001,272.996 443.055,272.575 C 443.884,271.628 444.843,270.629 445.908,269.577 Z M 428.228,271.313 L 428.044,272.101 L 427.333,270.524 L 428.412,270.997 C 428.412,271.103 428.345,271.208 428.228,271.313 Z M 423.232,241.657 C 423.943,242.079 424.981,242.657 426.348,243.393 C 427.728,244.129 429.476,245.391 431.619,247.179 C 431.856,247.495 432.04,247.757 432.159,247.967 C 430.844,248.913 429.949,249.571 429.476,249.939 C 429.003,250.307 428.228,250.412 427.163,250.255 C 426.085,250.097 425.493,250.281 425.375,250.807 C 425.139,251.437 425.375,251.859 426.085,252.068 C 428.228,252.595 429.779,252.384 430.725,251.437 C 431.212,251.123 431.973,250.596 433.052,249.86 C 433.407,250.701 433.591,251.227 433.591,251.437 L 433.591,251.437 C 433.591,251.859 433.853,252.779 434.392,254.199 C 434.932,255.617 435.195,256.432 435.195,256.643 C 435.076,256.853 434.84,257.221 434.485,257.747 C 433.644,258.904 433.236,259.797 433.236,260.429 L 433.236,261.691 C 430.016,259.272 426.321,256.38 422.155,253.015 C 421.208,252.173 421.143,248.493 421.971,241.973 Z M 411.796,253.804 C 411.915,253.593 411.915,253.331 411.796,253.015 C 410.481,249.86 409.601,247.547 409.115,246.075 C 411.98,245.548 413.821,244.944 414.649,244.26 C 415.491,243.577 416.384,243.183 417.331,243.077 C 417.449,243.077 417.567,243.077 417.699,243.077 L 419.657,242.604 C 418.947,249.229 419.236,253.12 420.551,254.277 C 421.865,255.433 425.731,258.483 432.159,263.425 C 432.276,263.531 432.395,263.584 432.513,263.584 C 431.329,265.267 430.725,267.001 430.725,268.789 C 430.371,268.895 430.016,269.104 429.66,269.42 L 425.731,267.843 C 425.731,267.843 425.664,267.843 425.547,267.843 L 425.547,267.843 L 421.261,267.053 C 420.788,264.635 419.893,263.111 418.579,262.48 C 418.105,260.271 417.515,258.641 416.804,257.589 C 415.135,255.487 413.465,254.224 411.796,253.804 Z M 407.511,264.845 C 407.629,264.845 407.748,264.845 407.867,264.845 L 408.944,264.845 L 414.123,268 C 414.477,267.895 414.899,267.895 415.372,268 C 415.964,268.316 416.436,268.211 416.804,267.685 L 418.224,265.319 C 418.816,266.371 419.119,267.107 419.119,267.527 L 419.119,267.527 C 418.881,268.368 418.343,270.735 417.515,274.625 C 416.319,275.256 415.424,275.572 414.833,275.572 C 414.36,275.572 412.691,274.836 409.837,273.364 L 409.115,272.891 L 409.653,270.208 C 409.772,269.577 409.469,269.209 408.76,269.104 C 408.051,268.999 407.629,269.263 407.511,269.893 L 407.156,271.944 C 405.132,270.997 402.687,267.264 399.835,260.744 C 399.835,260.533 399.769,260.113 399.651,259.483 L 401.439,259.797 C 401.556,259.797 401.675,259.797 401.793,259.797 C 402.267,260.744 402.687,261.428 403.041,261.848 C 403.883,263.111 405.368,264.109 407.511,264.845 Z M 399.651,255.381 C 400.005,256.117 400.373,256.853 400.728,257.589 L 399.112,257.432 L 398.585,253.804 C 398.94,254.435 399.296,254.96 399.651,255.381 Z "/>
	</g>
</svg>