<?xml version="1.0" encoding="UTF-8" standalone="no"?>
<svg version="1.1" xmlns="http://www.w3.org/2000/svg" xmlns:xlink="http://www.w3.org/1999/xlink" width="160" height="150">
	<g id="bsl-l" transform="matrix(1, 0, 0, 1, -505, -170)">
		<path fill="black" stroke="black" stroke-width="0.1" d="M 656.191,303.965 L 655.113,302.703 C 654.285,301.861 653.339,300.811 652.261,299.548 C 652.143,298.707 651.012,295.552 648.869,290.084 C 646.608,284.089 645.176,280.777 644.584,280.147 C 644.348,279.936 643.691,279.095 642.612,277.623 C 640.707,274.993 638.209,272.101 635.12,268.947 C 634.16,268.736 633.621,268.421 633.503,268 C 632.911,266.317 631.189,264.004 628.324,261.06 C 627.613,260.324 626.785,259.903 625.827,259.797 C 624.88,259.797 623.92,259.797 622.973,259.797 C 621.304,259.588 619.819,259.588 618.504,259.797 C 617.676,258.956 616.545,258.063 615.113,257.116 C 612.011,255.328 610.105,254.435 609.395,254.435 C 608.567,254.435 607.489,254.829 606.188,255.617 C 604.873,256.407 604.045,257.169 603.677,257.905 C 602.731,257.273 601.363,256.696 599.576,256.169 L 598.497,255.696 C 597.669,255.487 596.776,255.539 595.829,255.855 L 595.107,256.169 C 593.437,256.905 592.188,257.695 591.36,258.536 C 591.241,258.641 591.176,258.693 591.176,258.693 C 589.993,260.901 589.809,262.689 590.637,264.057 C 591.005,264.688 591.715,266.265 592.78,268.789 C 589.927,267.317 588.297,266.292 587.876,265.713 C 587.456,265.135 586.891,264.529 586.181,263.899 C 586.536,263.689 586.799,263.241 586.983,262.559 C 587.153,261.875 587.245,261.007 587.245,259.956 C 587.245,259.429 587.245,258.852 587.245,258.22 C 588.679,256.643 589.875,255.433 590.821,254.592 C 591.768,253.751 592.661,252.279 593.503,250.176 L 593.673,249.545 C 594.279,248.177 595.408,246.548 597.077,244.655 C 600.64,240.764 602.967,237.241 604.032,234.087 C 604.281,233.351 604.571,232.561 604.925,231.72 C 605.293,231.404 605.464,230.984 605.464,230.459 C 605.464,229.407 604.991,228.408 604.032,227.461 C 603.085,226.515 602.008,226.041 600.824,226.041 C 601.061,225.621 601.297,225.2 601.535,224.78 C 602.376,223.307 603.321,221.52 604.4,219.416 C 604.387,219.101 604.387,218.785 604.4,218.469 C 604.4,217.208 604.124,216.131 603.585,215.236 C 603.059,214.343 602.376,213.791 601.535,213.58 C 600.824,213.475 599.693,213.475 598.143,213.58 C 598.852,212.528 599.339,211.74 599.576,211.213 C 600.521,209.531 600.193,207.769 598.589,205.929 C 596.985,204.089 594.633,203.432 591.531,203.957 C 590.703,204.063 589.453,205.009 587.784,206.797 C 585.997,204.707 584.629,203.564 583.671,203.353 C 581.055,202.512 578.912,202.828 577.243,204.3 C 576.532,204.931 574.627,206.719 571.537,209.663 C 570.223,210.609 569.145,211.437 568.317,212.173 C 562.717,217.116 559.536,220.271 558.76,221.637 C 557.985,223.005 555.579,225.897 551.531,230.3 C 549.507,231.036 548.047,231.693 547.153,232.272 C 546.26,232.851 544.564,234.455 542.067,237.083 C 542.421,233.508 542.592,232.141 542.592,232.981 C 542.592,232.036 542.473,230.827 542.237,229.353 L 542.237,226.672 C 542.237,226.252 542.237,225.725 542.237,225.095 C 542.237,223.203 542,221.415 541.527,219.732 C 540.449,215.525 537.833,213.528 533.667,213.737 C 533.429,213.843 533.245,213.948 533.128,214.053 C 532.655,213.948 532.233,213.948 531.879,214.053 C 531.051,214.159 530.42,214.289 530.012,214.448 C 529.592,214.605 529.381,214.947 529.381,215.473 C 529.381,215.473 529.381,215.525 529.381,215.631 L 530.815,222.413 L 528.488,228.408 C 528.369,229.669 527.896,231.457 527.055,233.771 C 526.463,235.137 525.451,237.083 524.031,239.607 C 523.308,240.553 522.953,241.5 522.953,242.447 C 522.953,243.077 523.137,243.813 523.492,244.655 C 523.611,244.971 523.9,246.259 524.387,248.52 C 524.86,250.78 525.215,252.121 525.451,252.541 C 525.451,252.647 525.399,253.225 525.28,254.277 C 524.793,262.584 525.28,267.948 526.7,270.367 C 526.7,270.472 526.884,270.735 527.239,271.155 C 524.623,276.413 522.717,279.988 521.52,281.881 C 520.929,282.828 519.26,284.984 516.525,288.349 C 513.423,292.029 511.82,294.185 511.701,294.816 C 511.464,295.552 511.767,295.973 512.595,296.077 C 513.305,296.288 513.779,296.025 514.028,295.289 L 514.028,295.447 C 514.147,295.027 515.632,293.028 518.484,289.453 C 519.917,287.771 521.639,285.561 523.663,282.828 C 524.741,281.04 526.529,277.728 529.027,272.891 L 529.027,272.891 C 529.144,272.996 529.617,273.364 530.459,273.995 C 532.839,276.308 534.627,277.36 535.809,277.149 C 536.413,276.939 536.651,276.519 536.532,275.887 C 536.413,275.256 535.993,274.993 535.271,275.099 L 535.271,275.099 C 534.915,275.099 533.851,274.257 532.063,272.575 C 531.221,271.733 530.604,271.208 530.183,270.997 C 529.763,270.787 529.328,270.313 528.843,269.577 C 528.015,265.792 527.593,262.059 527.593,258.379 C 527.593,257.747 527.593,256.853 527.593,255.696 C 527.712,254.435 527.777,253.488 527.777,252.857 C 527.777,252.436 527.712,252.095 527.593,251.832 C 527.475,251.569 527.187,250.333 526.7,248.125 C 525.753,244.129 525.28,242.236 525.28,242.447 C 525.28,242.447 526.043,240.869 527.593,237.715 C 528.185,236.557 529.027,234.823 530.091,232.509 C 530.459,231.457 530.775,230.3 531.077,229.039 C 531.379,227.776 531.997,225.936 532.957,223.517 L 535.993,222.887 C 536.585,222.781 536.887,222.465 536.887,221.94 L 536.887,221.783 C 536.769,219.364 536.283,217.471 535.455,216.104 C 537.36,216.629 538.609,217.971 539.2,220.127 C 539.805,222.281 539.976,224.412 539.74,226.515 L 539.74,226.672 L 539.74,229.512 C 539.74,229.512 539.805,229.564 539.924,229.669 C 540.397,231.772 540.515,233.087 540.279,233.613 C 539.924,234.349 539.621,236.505 539.384,240.08 C 539.384,240.607 539.621,240.975 540.095,241.184 C 540.699,241.289 541.172,241.184 541.527,240.869 C 545.103,236.979 547.337,234.744 548.231,234.165 C 549.112,233.587 550.637,232.929 552.78,232.193 C 553.016,232.088 553.2,231.983 553.319,231.877 C 557.485,227.145 559.956,224.096 560.732,222.729 C 561.508,221.361 564.571,218.312 569.92,213.58 C 570.644,212.949 571.656,212.16 572.957,211.213 C 573.075,211.213 573.141,211.213 573.141,211.213 C 574.692,209.636 576.651,207.796 579.029,205.693 C 579.989,204.852 581.239,204.693 582.789,205.22 C 583.736,206.061 584.932,207.112 586.352,208.375 C 585.168,209.741 583.972,211.267 582.789,212.949 C 579.569,215.893 577.611,217.839 576.887,218.785 C 576.532,219.207 576.112,219.575 575.639,219.889 L 574.573,220.836 C 572.313,223.675 569.803,226.831 567.068,230.3 C 566.359,231.036 565.28,232.088 563.86,233.455 C 563.019,232.929 561.587,232.509 559.563,232.193 C 558.735,232.088 558.261,232.456 558.143,233.297 C 558.143,233.823 558.497,234.139 559.207,234.244 C 560.759,234.455 561.823,234.769 562.428,235.191 C 562.547,235.611 562.783,235.873 563.137,235.979 C 563.848,236.4 565.109,235.664 566.884,233.771 L 568.856,231.563 L 569.027,231.404 C 573.193,225.725 575.585,222.676 576.177,222.256 L 577.071,221.625 C 577.427,221.415 577.965,220.888 578.675,220.047 C 579.385,219.207 581.356,217.26 584.564,214.211 C 584.564,214.211 584.564,214.211 584.564,214.211 C 588.376,209.059 590.887,206.324 592.069,206.008 C 594.095,205.588 595.619,205.983 596.631,207.192 C 597.643,208.401 597.907,209.427 597.433,210.268 C 597.077,211.004 596.237,212.319 594.936,214.211 C 594.817,214.316 594.685,214.473 594.567,214.684 C 593.029,216.997 591.952,218.469 591.36,219.101 L 589.388,221.309 C 588.087,222.571 586.469,224.307 584.564,226.515 C 581.593,231.036 579.385,233.665 577.965,234.401 C 576.296,235.453 573.851,237.82 570.644,241.5 C 569.803,240.659 569.211,240.239 568.856,240.239 C 568.015,240.239 567.607,240.553 567.607,241.184 C 567.607,240.975 568.672,242.447 570.815,245.601 C 571.288,246.127 571.892,246.232 572.603,245.916 C 573.193,245.496 573.325,245.023 572.957,244.497 C 572.72,244.287 572.365,243.867 571.892,243.235 C 573.561,241.343 575.993,238.976 579.213,236.137 C 580.884,235.191 583.315,232.351 586.536,227.619 C 587.009,226.988 588.56,225.305 591.176,222.571 L 593.148,220.363 C 593.739,219.732 594.869,218.26 596.539,215.947 C 598.8,215.525 600.285,215.42 600.995,215.631 C 601.127,215.736 601.297,215.893 601.535,216.104 C 601.889,216.84 602.073,217.628 602.073,218.469 C 602.073,218.575 602.073,218.68 602.073,218.785 C 601.481,219.943 600.64,221.545 599.576,223.596 C 598.497,225.647 597.669,227.04 597.077,227.776 L 596.539,228.723 C 595.935,229.564 594.869,230.827 593.319,232.509 C 592.253,233.56 590.4,235.559 587.784,238.503 L 587.075,239.133 C 586.115,240.711 584.696,242.657 582.789,244.971 C 582.185,245.496 580.884,246.6 578.859,248.283 L 576.716,247.179 C 576.112,246.863 575.585,247.021 575.1,247.652 C 574.744,248.177 574.929,248.651 575.639,249.072 L 577.965,250.176 L 579.385,253.015 C 579.753,253.645 580.279,253.804 581.001,253.488 C 581.712,253.277 581.896,252.857 581.54,252.227 L 580.279,249.703 C 582.421,248.125 583.801,247.021 584.393,246.377 C 585.34,245.009 586.839,243.064 588.863,240.54 L 589.572,239.752 C 590.873,238.28 592.727,236.333 595.107,233.915 C 596.065,233.061 597.196,231.693 598.497,229.801 L 599.036,229.012 C 599.155,228.907 599.339,228.697 599.576,228.381 C 599.931,228.381 600.233,228.276 600.469,228.065 L 600.469,228.065 C 600.707,227.96 601.061,227.96 601.535,228.065 C 603.085,228.801 603.559,229.604 602.967,230.445 C 602.731,230.865 602.309,231.825 601.719,233.297 C 601.127,235.099 600.64,236.203 600.285,236.623 C 599.22,238.108 597.551,240.331 595.291,243.288 C 593.384,245.299 592.136,247.1 591.531,248.677 L 591.36,249.321 C 591.005,250.268 590.229,251.595 589.033,253.277 C 588.087,254.132 586.772,255.395 585.103,257.089 C 584.867,257.3 584.748,257.563 584.748,257.879 C 584.984,260.311 584.932,261.796 584.564,262.321 C 583.144,261.165 581.712,260.165 580.279,259.324 C 579.451,258.799 577.492,257.327 574.389,254.908 C 573.561,254.172 572.431,253.277 570.999,252.227 C 568.619,250.439 566.437,248.467 564.479,246.311 C 562.507,244.155 560.101,243.183 557.248,243.393 C 554.265,243.813 552.595,245.496 552.24,248.44 C 552.359,248.651 552.424,248.808 552.424,248.913 C 553.489,250.807 554.737,252.279 556.171,253.331 C 557.485,255.644 558.787,257.484 560.101,258.852 C 560.22,258.956 560.995,260.113 562.428,262.321 C 563.492,263.899 564.452,264.793 565.28,265.003 L 565.28,265.003 C 565.872,266.16 566.713,267.527 567.777,269.104 C 570.171,271.733 572.313,273.627 574.205,274.783 C 571.589,278.148 569.631,280.304 568.317,281.251 C 567.003,282.197 563.137,284.457 556.709,288.033 C 553.016,293.501 548.257,299.864 542.421,307.12 C 542.303,307.331 542.237,307.593 542.237,307.908 C 542.237,308.224 542.303,308.487 542.421,308.697 C 543.012,309.117 543.617,309.117 544.209,308.697 C 545.76,307.225 550.453,300.863 558.313,289.611 C 564.505,286.245 568.317,284.011 569.749,282.907 C 571.169,281.803 573.193,279.568 575.823,276.203 C 576.887,277.36 577.847,278.201 578.675,278.727 C 580.581,279.988 582.132,282.211 583.315,285.365 C 583.92,286.943 585.051,288.467 586.707,289.939 L 587.245,290.425 C 595.107,297.472 600.101,301.428 602.244,302.269 C 603.677,302.9 606.713,305.424 611.353,309.853 C 613.141,311.641 614.219,312.641 614.573,312.851 C 615.165,313.272 615.704,313.219 616.177,312.693 C 616.664,312.168 616.691,311.747 616.269,311.432 C 615.849,311.116 614.811,310.169 613.141,308.592 C 608.264,303.847 604.991,301.112 603.321,300.376 C 601.297,299.64 596.473,295.855 588.863,289.005 L 588.324,288.533 C 586.891,287.271 585.944,286.009 585.457,284.747 C 584.156,281.067 582.369,278.477 580.108,277.004 C 579.267,276.059 578.017,274.849 576.348,273.376 C 574.692,272.851 572.484,271.063 569.749,268 C 568.672,264.951 567.423,263.268 565.991,262.952 L 565.991,262.952 C 565.635,262.952 564.925,262.191 563.848,260.665 C 562.783,259.14 561.113,256.748 558.852,253.488 C 560.404,253.277 561.416,252.857 561.889,252.227 C 562.363,251.595 562.244,251.123 561.533,250.807 C 560.929,250.385 560.456,250.385 560.101,250.807 C 559.747,251.227 558.852,251.491 557.42,251.595 C 556.473,250.755 555.579,249.649 554.737,248.283 C 555.343,246.6 556.289,245.707 557.604,245.601 C 559.509,245.285 561.232,246.021 562.783,247.809 C 564.807,250.017 567.068,252.016 569.565,253.804 C 571.589,255.592 574.744,258.011 579.029,261.06 C 582.251,262.952 584.512,264.793 585.825,266.58 C 586.655,267.948 589.388,269.683 594.041,271.787 L 594.567,273.364 C 594.804,273.995 595.291,274.205 596,273.995 C 596.473,273.784 596.709,273.468 596.709,273.048 C 596.709,272.943 596.709,272.837 596.709,272.732 C 594.804,267.369 593.503,264.161 592.78,263.111 C 592.661,262.9 592.609,262.584 592.609,262.164 C 592.609,261.428 592.872,260.692 593.411,259.956 C 593.949,259.22 594.869,258.588 596.184,258.063 L 596.709,257.747 C 597.077,257.641 597.315,257.589 597.433,257.589 C 597.433,257.589 597.485,257.589 597.604,257.589 L 598.852,258.063 C 601.719,259.009 603.413,259.903 603.953,260.744 C 604.479,261.585 605.937,263.373 608.317,266.108 C 608.803,266.633 609.343,266.685 609.933,266.265 C 610.525,265.844 610.591,265.371 610.105,264.845 C 608.08,262.427 606.779,260.797 606.188,259.956 L 606.004,258.536 C 607.436,257.169 608.567,256.485 609.395,256.485 C 609.632,256.485 611.064,257.273 613.68,258.852 C 615.941,260.219 617.308,261.323 617.795,262.164 L 617.611,262.007 C 617.729,262.637 618.149,262.952 618.859,262.952 C 619.583,262.848 619.937,262.532 619.937,262.007 C 619.924,261.901 619.924,261.796 619.937,261.691 C 621.001,261.796 622.619,261.848 624.761,261.848 C 625.589,261.848 626.181,262.007 626.536,262.321 C 628.928,264.951 630.532,267.107 631.36,268.789 L 631.36,268.789 C 631.715,269.736 632.675,270.472 634.225,270.997 C 634.936,271.313 637.079,273.941 640.653,278.884 C 641.481,279.936 642.139,280.777 642.612,281.408 C 643.085,282.039 644.4,285.089 646.543,290.557 C 648.685,296.025 649.855,299.128 650.027,299.864 C 650.211,300.6 651.301,302.02 653.339,304.123 L 654.404,305.227 C 654.995,305.753 655.6,305.805 656.191,305.384 C 656.783,304.859 656.783,304.385 656.191,303.965 Z M 532.957,221.309 L 531.879,216.104 C 531.997,216.104 532.181,216.104 532.417,216.104 C 533.364,215.893 534.087,217.524 534.56,220.993 Z "/>
	</g>
</svg>