<?xml version="1.0" encoding="UTF-8" standalone="no"?>
<svg version="1.1" xmlns="http://www.w3.org/2000/svg" xmlns:xlink="http://www.w3.org/1999/xlink" width="140" height="120">
	<g id="bsl-m" transform="matrix(1, 0, 0, 1, -10, -355)">
		<path fill="black" stroke="black" stroke-width="0.1" d="M 141.967,443.565 C 141.967,443.88 141.729,444.143 141.256,444.353 C 140.901,444.564 140.481,444.564 140.008,444.353 C 137.983,442.881 135.84,439.148 133.58,433.155 C 132.62,430.525 130.241,428.107 126.429,425.897 C 125.483,424.741 123.905,423.216 121.696,421.324 C 119.501,419.431 117.503,417.432 115.716,415.329 L 110.892,412.175 L 110.892,412.017 C 109.589,411.071 107.736,409.808 105.357,408.231 C 104.411,407.389 102.979,406.496 101.072,405.549 C 100.244,405.444 99.048,405.707 97.496,406.339 C 96.668,406.653 96.248,407.18 96.248,407.916 C 96.248,408.021 96.3133,408.125 96.432,408.231 C 96.3787,408.441 96.3533,408.573 96.3533,408.625 C 96.3533,408.679 96.3787,408.757 96.432,408.863 C 96.7867,409.283 97.024,409.599 97.1413,409.808 C 98.456,411.596 99.876,412.805 101.427,413.436 C 101.9,413.647 102.137,413.963 102.137,414.383 C 102.137,415.329 101.611,415.645 100.533,415.329 C 98.5093,414.488 96.7867,413.043 95.3533,410.992 C 93.9213,408.941 92.2907,407.364 90.4373,406.26 C 88.5973,405.155 86.6653,404.183 84.6413,403.341 C 83.3267,402.711 82.196,401.448 81.2493,399.556 C 79.9347,398.924 78.2653,398.031 76.2413,396.873 C 75.6493,396.453 74.6373,395.717 73.204,394.665 C 72.732,394.245 71.5347,394.035 69.6427,394.035 L 69.2747,394.035 C 68.6827,394.035 67.6707,394.665 66.2373,395.928 C 66.12,396.032 66.0667,396.243 66.0667,396.559 C 66.0667,396.769 66.12,397.057 66.2373,397.425 C 66.356,397.793 66.4213,398.083 66.4213,398.293 C 66.3693,398.293 66.3693,398.347 66.4213,398.451 C 67.0133,398.767 68.6307,399.976 71.2467,402.079 C 73.5067,403.867 74.8213,404.865 75.176,405.076 C 76.004,405.603 78.9227,408.125 83.9307,412.648 L 84.8253,413.436 C 85.0613,413.647 85.416,414.015 85.8893,414.541 C 87.204,416.013 88.0973,416.801 88.5707,416.907 C 89.044,417.012 89.872,417.591 91.0693,418.641 L 93.2107,420.535 C 95.1173,422.217 96.248,423.375 96.6027,424.005 C 96.7213,424.636 96.484,425.057 95.8933,425.267 C 95.1827,425.477 94.644,425.293 94.2893,424.715 C 93.9213,424.136 93.04,423.216 91.608,421.955 L 89.4653,420.061 C 88.992,419.747 88.4533,419.325 87.848,418.8 C 87.1387,418.695 85.8893,417.696 84.1013,415.803 C 83.628,415.277 83.3267,414.961 83.208,414.856 L 82.3147,414.068 C 79.9347,411.859 77.1347,409.44 73.928,406.812 C 73.4413,406.496 72.0747,405.444 69.8133,403.656 C 68.4987,402.605 67.0133,401.448 65.344,400.187 L 65.344,400.187 C 64.3973,399.976 63.5693,399.292 62.8467,398.136 L 62.676,397.82 C 61.952,396.769 60.8227,396.137 59.284,395.928 C 59.284,395.928 58.2067,396.559 56.064,397.82 C 56.3,397.609 56.1293,397.873 55.524,398.609 C 55.524,399.029 55.88,399.608 56.6027,400.344 C 58.0227,402.027 58.9813,403.288 59.4547,404.129 C 60.5333,404.865 61.5707,405.707 62.584,406.653 C 63.596,407.6 65.1733,408.967 67.316,410.755 C 68.748,411.912 70.0493,413.173 71.2467,414.541 C 72.0747,415.172 73.06,416.065 74.1907,417.223 C 75.3213,418.379 77.3187,420.22 80.172,422.743 L 80.7107,423.059 C 84.2853,426.213 86.0733,428.317 86.0733,429.368 C 86.0733,429.895 85.824,430.209 85.3507,430.315 C 84.6413,430.525 84.168,430.263 83.9173,429.527 C 83.6813,428.789 82.0773,427.16 79.1067,424.636 L 78.568,424.163 C 75.584,421.533 73.56,419.641 72.4947,418.484 C 71.7853,417.959 70.8253,417.039 69.6427,415.724 C 68.4467,414.409 67.1973,413.227 65.8827,412.175 C 64.5813,411.439 62.7933,410.072 60.5333,408.073 C 59.928,407.443 59.284,406.812 58.5613,406.18 C 58.324,406.285 58.088,406.285 57.8507,406.18 C 56.892,405.971 56.1813,405.865 55.708,405.865 C 55.472,405.971 55.236,406.128 54.9853,406.339 C 54.1573,407.075 53.7373,407.6 53.7373,407.916 C 53.7373,409.177 54.1573,410.124 54.9853,410.755 C 55.8267,411.385 57.128,412.859 58.916,415.172 C 59.4027,415.908 59.9933,416.644 60.704,417.38 C 61.1773,417.696 61.8347,418.695 62.676,420.377 C 63.504,422.06 64.0947,423.111 64.4507,423.532 C 67.9067,426.175 71.18,429.803 74.2827,434.429 C 74.8747,435.481 76.78,437.373 80,440.108 C 80.4733,440.633 83.064,442.316 87.7693,445.156 C 92.4627,447.995 95.42,449.599 96.6027,449.967 C 97.7987,450.335 101.689,452.359 108.301,456.04 C 114.913,459.733 118.66,461.836 119.553,462.363 C 120.448,462.888 121.855,463.835 123.747,465.201 C 126.257,467.725 128.572,469.46 130.713,470.407 C 131.069,470.617 131.253,470.933 131.253,471.353 C 131.253,472.405 130.713,472.72 129.649,472.3 C 127.271,471.143 124.759,469.197 122.144,466.464 C 121.079,465.937 119.645,465.096 117.859,463.927 C 117.148,463.401 113.547,461.351 107.053,457.775 C 100.56,454.199 96.7467,452.201 95.6173,451.78 C 94.4867,451.36 91.4893,449.704 86.6,446.799 C 81.7227,443.907 78.988,442.145 78.384,441.515 C 78.0293,441.199 77.3187,440.568 76.2413,439.621 C 74.0987,441.515 72.1,442.776 70.26,443.407 C 68.42,444.039 64.6347,445.773 58.916,448.612 C 54.6307,456.289 52.1333,460.601 51.424,461.547 C 50.9507,462.073 50.4107,462.125 49.8067,461.705 C 49.2147,461.284 49.1627,460.811 49.636,460.285 C 51.896,455.973 54.512,451.557 57.496,447.035 C 63.4507,444.091 67.4333,442.251 69.4587,441.515 C 71.128,440.988 72.916,439.832 74.8213,438.044 C 73.98,437.308 73.152,436.467 72.3107,435.52 L 71.7853,434.573 C 70.944,433.417 69.932,432.049 68.748,430.472 C 68.2627,430.157 67.316,429.263 65.8827,427.791 C 64.4627,426.319 63.4507,425.345 62.8467,424.873 C 62.2547,424.4 61.4267,423.111 60.3493,421.008 C 60.112,420.377 59.7573,419.693 59.284,418.957 L 59.284,418.957 C 58.916,418.747 58.1533,417.853 56.9573,416.276 C 56.248,415.224 55.1693,413.963 53.7373,412.491 C 51.8307,411.123 51.068,409.388 51.424,407.285 C 51.5413,406.653 52.1987,405.891 53.3813,404.997 C 54.5787,404.104 55.6427,403.709 56.6027,403.815 C 54.46,400.869 53.3813,399.135 53.3813,398.609 C 53.3813,397.557 53.8027,396.716 54.6307,396.085 C 56.4187,394.403 58.088,393.667 59.6387,393.877 C 61.0587,394.087 62.492,394.823 63.924,396.085 C 64.0427,395.455 64.2787,394.928 64.6347,394.508 C 66.54,392.931 68.0907,392.089 69.2747,391.984 L 69.6427,391.984 C 72.2587,391.984 73.9533,392.325 74.7293,393.009 C 75.5053,393.693 76.4253,394.455 77.4893,395.296 C 80.9467,396.769 82.8533,397.925 83.208,398.767 C 83.812,400.133 84.6413,401.08 85.7053,401.607 C 88.3347,402.868 90.3587,403.867 91.7787,404.603 C 92.2653,404.919 93.0933,405.603 94.2893,406.653 C 94.5253,405.812 95.1827,405.181 96.248,404.761 L 96.6027,403.656 C 96.7213,403.552 96.8387,403.393 96.9573,403.184 C 97.0893,402.973 97.5627,402.132 98.3907,400.66 L 99.1,399.083 C 99.468,398.347 99.9413,397.4 100.533,396.243 C 102.676,392.352 103.753,390.091 103.753,389.46 C 103.753,389.144 103.688,388.829 103.569,388.513 C 103.451,387.672 103.031,387.093 102.321,386.779 C 102.203,386.779 101.611,386.831 100.533,386.936 C 99.9413,387.672 99.468,388.303 99.1,388.829 C 97.3253,391.143 96.1947,393.036 95.7093,394.508 C 94.9987,397.032 93.5667,398.977 91.424,400.344 C 90.24,400.975 89.636,400.66 89.636,399.397 C 89.636,399.083 89.7547,398.819 89.9907,398.609 C 91.7787,397.557 92.948,396.085 93.4747,394.192 C 94.0133,392.3 95.236,390.144 97.1413,387.725 C 97.852,386.779 98.864,385.516 100.179,383.939 C 100.533,382.993 100.861,382.309 101.164,381.888 C 101.453,381.468 102.019,380.048 102.86,377.629 L 103.399,376.052 C 103.517,375.737 103.569,375.421 103.569,375.105 C 103.569,374.369 103.267,373.476 102.676,372.424 C 102.321,372.108 101.308,371.951 99.6387,371.951 L 98.7453,372.897 C 97.7987,374.475 96.248,376.788 94.1053,379.837 L 93.396,380.784 C 92.7907,381.415 92.1467,382.204 91.424,383.151 C 91.424,383.887 88.808,387.725 83.5627,394.665 C 83.0893,395.191 82.5507,395.244 81.9587,394.823 C 81.604,394.719 81.42,394.455 81.42,394.035 C 81.42,393.719 82.5507,392.089 84.812,389.144 C 87.3227,385.78 88.6893,383.808 88.9267,383.229 C 89.1627,382.651 90.056,381.415 91.608,379.523 L 92.3173,378.733 C 93.2773,377.156 94.8147,374.791 96.9573,371.636 L 98.036,370.373 C 99.3507,368.796 99.9947,367.376 99.9947,366.115 C 99.9947,365.379 99.4027,364.695 98.2067,364.064 L 97.68,363.748 C 96.3667,363.012 95.236,362.907 94.2893,363.433 C 93.8027,363.748 92.3827,364.748 89.9907,366.431 C 89.636,367.797 89.2813,368.901 88.9267,369.743 C 87.256,374.055 85.4693,376.788 83.5627,377.945 C 83.208,378.156 83.0373,378.365 83.0373,378.576 L 82.8533,379.049 C 82.7347,379.469 81.7227,381.1 79.816,383.939 C 77.556,387.093 75.8867,388.935 74.8213,389.46 C 74.2173,389.776 73.744,389.617 73.388,388.987 C 73.0333,388.356 73.1787,387.909 73.836,387.647 C 74.4933,387.383 75.7147,385.884 77.4893,383.151 C 79.2773,380.732 80.356,379.101 80.7107,378.26 L 80.7107,378.103 C 80.9467,377.367 81.4853,376.788 82.3147,376.368 L 82.3147,376.368 C 83.8653,375.211 85.3507,372.792 86.784,369.112 C 87.1387,368.271 87.4933,367.219 87.848,365.957 C 87.256,364.589 86.6387,363.696 85.9813,363.275 C 85.324,362.855 84.2853,362.801 82.8533,363.117 C 81.6573,363.853 80.9213,364.353 80.6187,364.616 C 80.3293,364.879 78.804,366.377 76.0707,369.112 C 75.8333,369.532 75.4653,370.111 74.992,370.847 L 69.6427,375.421 C 68.564,377.104 67.132,378.892 65.344,380.784 C 64.6347,380.995 64.0947,381.311 63.74,381.731 L 62.32,383.308 C 61.4787,384.255 60.5853,385.253 59.6387,386.305 C 59.4027,386.516 58.864,386.989 58.0227,387.725 C 57.1947,388.461 56.6027,388.987 56.2347,389.303 C 54.2227,392.036 51.9493,394.823 49.452,397.663 L 47.4933,398.609 C 47.3747,398.609 47.3093,398.661 47.3093,398.767 L 45.3507,399.24 C 45.2973,399.345 45.272,399.424 45.272,399.476 C 45.272,399.529 45.2973,399.556 45.3507,399.556 C 45.3507,400.081 45.048,400.449 44.456,400.66 C 43.7333,400.765 43.3267,400.501 43.208,399.871 C 42.6027,398.819 41.84,397.347 40.8813,395.455 C 40.7627,394.823 40.5267,393.719 40.1707,392.141 C 39.8027,387.62 38.7387,384.307 36.9507,382.204 L 36.0573,381.257 C 35.3467,380.416 34.5187,380.048 33.5587,380.153 C 34.756,382.993 35.1107,385.044 34.6373,386.305 C 34.5187,387.041 33.6773,387.515 32.1267,387.725 C 32.2453,388.567 32.3107,389.355 32.3107,390.091 C 32.3107,390.617 32.2453,391.459 32.1267,392.615 C 32.008,393.772 31.956,394.665 31.956,395.296 L 31.956,400.344 C 31.956,400.66 31.8893,401.185 31.772,401.921 C 31.6533,402.657 31.6013,403.236 31.6013,403.656 C 31.6013,404.288 31.772,405.339 32.1267,406.812 C 32.4813,408.284 32.6653,409.388 32.6653,410.124 C 32.6133,410.44 32.6133,410.703 32.6653,410.913 C 32.4293,411.753 32.3107,415.592 32.3107,422.428 C 32.3107,424.952 32.8493,427.003 33.9147,428.58 C 34.2693,428.895 34.4533,429.263 34.4533,429.684 C 34.4533,430.42 33.98,430.945 33.02,431.261 C 24.332,442.933 19.8093,449.401 19.4547,450.663 L 19.4547,450.505 C 19.336,451.241 18.916,451.557 18.2053,451.452 C 17.4827,451.452 17.128,451.136 17.128,450.505 C 17.128,449.769 19.5067,446.089 24.2653,439.464 C 26.408,436.413 28.8013,433.207 31.416,429.841 C 31.5347,429.631 31.7187,429.527 31.956,429.527 C 30.6413,427.423 29.984,425.057 29.984,422.428 C 29.984,421.06 30.076,419.011 30.26,416.276 C 30.4307,413.541 30.5227,411.491 30.5227,410.124 C 30.5227,409.704 30.312,408.679 29.892,407.048 C 29.484,405.419 29.2747,404.288 29.2747,403.656 C 29.2747,403.236 29.3267,402.657 29.4587,401.921 C 29.576,401.185 29.6293,400.66 29.6293,400.344 L 29.6293,395.296 C 29.6293,394.665 29.6947,393.772 29.8133,392.615 C 29.9307,391.459 29.984,390.617 29.984,390.091 C 29.984,389.565 29.8653,388.829 29.6293,387.883 C 29.392,386.936 29.2747,386.253 29.2747,385.832 L 29.2747,384.885 L 28.196,380.311 C 28.1573,380.311 28.1573,380.259 28.196,380.153 C 28.0773,380.048 27.96,379.943 27.8413,379.837 C 27.8413,379.101 28.196,378.733 28.9187,378.733 L 31.772,378.419 C 34.1507,377.577 36.1747,378.103 37.844,379.996 L 38.7387,380.943 C 39.8027,382.204 40.5787,383.361 41.0653,384.412 C 41.7747,386.095 42.248,388.619 42.4853,391.984 C 42.6027,392.825 42.8787,393.719 43.2867,394.665 C 43.7067,395.612 44.1547,396.505 44.628,397.347 L 46.4147,396.873 L 48.2027,395.928 C 51.7787,391.3 53.9213,388.672 54.6307,388.04 C 54.868,387.725 55.472,387.147 56.4187,386.305 C 56.892,385.884 58.2587,384.465 60.5333,382.047 L 61.952,380.469 C 62.4387,379.943 63.1493,379.469 64.0947,379.049 C 66.12,376.209 67.46,374.501 68.1173,373.923 C 68.7747,373.344 70.4707,371.845 73.204,369.427 L 74.0987,368.165 C 74.2173,368.06 74.2827,368.008 74.2827,368.008 C 77.1347,365.168 78.7787,363.564 79.1853,363.196 C 79.6067,362.828 80.4733,362.224 81.7747,361.383 C 81.7747,361.383 81.8413,361.329 81.9587,361.224 C 84.1013,360.593 85.824,360.699 87.1387,361.54 C 87.9667,362.171 88.7427,363.065 89.4653,364.221 C 91.3707,362.855 92.5013,362.013 92.856,361.697 C 94.5253,360.647 96.5507,360.752 98.9293,362.013 L 99.284,362.329 C 101.308,363.38 102.321,364.589 102.321,365.957 C 102.321,366.799 101.848,368.165 100.888,370.059 C 102.795,370.163 104.043,370.636 104.648,371.477 C 105.831,373.371 106.185,375.105 105.712,376.683 L 105.003,378.26 C 104.648,379.523 104.043,380.995 103.215,382.677 C 102.979,383.097 102.623,383.781 102.137,384.728 L 102.137,384.728 C 104.765,384.939 106.067,386.516 106.067,389.46 C 106.067,390.301 105.896,391.064 105.528,391.747 C 105.173,392.431 104.161,394.245 102.505,397.189 C 102.255,397.609 101.848,398.451 101.243,399.713 L 100.533,401.448 C 100.179,402.289 99.7573,403.025 99.284,403.656 C 100.112,403.552 100.888,403.552 101.611,403.656 C 102.439,403.761 103.267,404.129 104.108,404.761 C 105.409,405.707 106.185,406.285 106.423,406.496 C 108.209,407.757 110.181,409.125 112.324,410.597 C 113.52,411.228 115.176,412.385 117.319,414.068 C 118.279,415.013 120.303,416.855 123.392,419.588 C 124.707,421.06 126.14,422.585 127.677,424.163 C 131.963,426.687 134.644,429.473 135.723,432.523 C 137.865,438.096 139.771,441.515 141.44,442.776 C 141.795,442.881 141.967,443.144 141.967,443.565 Z M 32.4813,385.175 C 32.4813,384.031 32.1267,382.453 31.416,380.469 L 30.5227,380.469 L 31.416,384.557 C 31.5347,384.649 31.6013,384.755 31.6013,384.859 L 31.5213,385.648 L 31.6013,385.805 C 31.956,385.7 32.2453,385.596 32.4813,385.491 C 32.4413,385.491 32.4413,385.385 32.4813,385.175 Z "/>
	</g>
</svg>