<?xml version="1.0" encoding="UTF-8" standalone="no"?>
<svg version="1.1" xmlns="http://www.w3.org/2000/svg" xmlns:xlink="http://www.w3.org/1999/xlink" width="190" height="140">
	<g id="bsl-n" transform="matrix(1, 0, 0, 1, -150, -355)">
		<path fill="black" stroke="black" stroke-width="0.1" d="M 280.753,448.771 C 280.753,449.191 280.517,449.507 280.031,449.717 C 279.557,449.927 279.137,449.875 278.781,449.559 C 276.876,447.981 275.036,444.091 273.248,437.887 C 272.539,435.152 270.329,432.523 266.636,429.999 C 265.689,428.737 264.204,427.081 262.18,425.031 C 260.156,422.98 258.301,420.903 256.645,418.8 C 256.645,418.8 255.095,417.537 251.992,415.013 C 250.809,413.963 249.075,412.543 246.813,410.755 C 245.867,409.913 244.5,408.967 242.712,407.916 C 241.871,407.705 240.688,407.863 239.136,408.389 C 238.072,408.704 237.533,409.335 237.533,410.281 C 237.547,410.387 237.547,410.544 237.533,410.755 C 238.007,411.176 238.308,411.544 238.427,411.859 C 239.492,413.752 240.805,415.067 242.357,415.803 C 242.831,416.013 243.067,416.328 243.067,416.749 C 243.067,417.801 242.476,418.064 241.279,417.537 C 239.255,416.696 237.585,415.119 236.284,412.805 C 235.929,411.964 235.207,411.228 234.141,410.597 C 232.708,409.756 231.88,409.231 231.631,409.02 C 230.921,408.284 229.725,408.389 228.068,409.335 L 226.991,409.967 C 225.808,410.597 225.321,411.753 225.557,413.436 C 225.557,413.963 225.689,414.409 225.925,414.777 C 226.163,415.145 226.517,415.697 226.991,416.433 C 228.068,417.169 229.133,418.064 230.211,419.115 C 230.329,419.22 230.737,419.641 231.46,420.377 L 233.419,422.428 C 235.324,424.216 236.337,425.477 236.455,426.213 C 236.692,426.844 236.455,427.265 235.745,427.476 C 235.023,427.685 234.523,427.476 234.22,426.844 C 233.931,426.213 233.129,425.161 231.815,423.689 L 229.856,421.797 C 229.725,421.797 229.672,421.744 229.672,421.639 L 229.488,421.481 C 229.369,421.376 229.015,421.087 228.424,420.613 C 227.819,420.14 226.807,419.22 225.387,417.853 C 224.664,417.223 224.139,416.592 223.783,415.96 L 223.06,415.172 C 220.799,412.753 218.184,410.124 215.2,407.285 C 214.727,406.969 213.412,405.812 211.269,403.815 C 209.968,402.657 208.535,401.396 206.984,400.028 L 206.984,400.028 C 206.037,399.713 205.261,398.977 204.671,397.82 L 204.487,397.347 C 203.895,396.296 202.817,395.612 201.279,395.296 C 201.279,395.296 200.148,395.823 197.888,396.873 C 197.637,397.189 197.467,397.505 197.348,397.82 C 197.348,398.241 197.821,399.135 198.768,400.501 C 199.728,401.869 200.385,402.92 200.74,403.656 C 201.687,404.497 202.647,405.419 203.592,406.417 C 204.552,407.416 206.091,408.863 208.233,410.755 C 209.547,412.017 210.744,413.436 211.808,415.013 C 212.163,415.435 212.676,415.935 213.333,416.512 C 213.991,417.091 214.437,417.537 214.673,417.853 C 215.501,419.115 217.289,421.06 220.024,423.689 L 220.563,424.163 C 223.901,427.528 225.557,429.789 225.557,430.945 C 225.557,431.472 225.268,431.787 224.664,431.892 C 223.955,431.997 223.507,431.656 223.336,430.867 C 223.152,430.079 221.64,428.317 218.775,425.583 L 218.236,425.109 C 215.501,422.269 213.661,420.22 212.701,418.957 C 212.111,418.327 211.243,417.328 210.112,415.96 C 208.981,414.593 207.76,413.332 206.459,412.175 C 205.261,411.333 203.659,409.861 201.633,407.757 C 201.029,407.021 200.385,406.339 199.663,405.707 C 199.425,405.707 198.952,405.603 198.243,405.392 C 197.52,405.181 197.047,405.076 196.809,405.076 C 196.573,405.181 196.271,405.365 195.916,405.628 C 195.561,405.891 195.232,406.207 194.929,406.575 C 194.641,406.943 194.483,407.232 194.483,407.443 C 194.483,408.599 194.904,409.493 195.732,410.124 C 196.573,410.755 197.756,412.28 199.307,414.699 C 199.663,415.435 200.201,416.223 200.911,417.064 C 201.279,417.485 201.805,418.484 202.528,420.061 C 203.237,421.955 203.776,423.111 204.132,423.532 C 207.471,426.476 210.441,430.367 213.057,435.204 C 213.661,436.361 215.436,438.412 218.42,441.356 C 218.893,441.883 221.391,443.749 225.925,446.956 C 230.448,450.164 233.273,452.004 234.404,452.477 C 235.535,452.951 239.373,455.291 245.92,459.496 C 252.111,463.493 255.66,465.807 256.553,466.437 C 257.448,467.068 258.788,468.12 260.576,469.592 C 262.837,472.327 265.032,474.219 267.175,475.271 C 267.529,475.481 267.713,475.796 267.713,476.217 C 267.713,477.373 267.123,477.689 265.927,477.164 C 263.547,475.901 261.168,473.745 258.788,470.696 C 257.829,470.065 256.461,469.119 254.673,467.857 C 254.083,467.331 250.625,465.044 244.316,460.995 C 238.007,456.947 234.287,454.685 233.156,454.212 C 232.025,453.739 229.133,451.847 224.493,448.533 C 219.853,445.221 217.224,443.249 216.632,442.619 C 216.396,442.303 215.739,441.62 214.673,440.568 C 212.4,442.356 210.296,443.512 208.325,444.039 C 206.367,444.564 202.409,446.036 196.455,448.455 C 191.447,456.027 188.62,460.153 187.963,460.837 C 187.305,461.521 186.688,461.652 186.096,461.232 C 185.492,460.811 185.439,460.337 185.912,459.812 C 188.647,455.605 191.749,451.295 195.205,446.877 C 201.397,444.248 205.564,442.671 207.707,442.145 C 209.376,441.724 211.283,440.673 213.425,438.991 C 212.701,438.149 211.927,437.203 211.099,436.151 L 210.559,435.204 C 209.849,433.943 208.956,432.523 207.877,430.945 C 207.523,430.631 206.655,429.657 205.288,428.028 C 203.921,426.397 202.975,425.32 202.436,424.793 C 201.897,424.268 201.16,422.901 200.201,420.692 C 199.728,419.431 199.425,418.747 199.307,418.641 L 199.307,418.641 C 198.952,418.327 198.243,417.38 197.164,415.803 C 195.732,413.489 194.785,412.123 194.312,411.701 C 192.407,410.229 191.749,408.441 192.34,406.339 C 192.577,405.603 193.327,404.84 194.575,404.051 C 195.824,403.263 196.928,402.973 197.888,403.184 C 195.981,400.028 195.021,398.241 195.021,397.82 C 195.021,396.664 195.561,395.823 196.625,395.296 C 198.532,393.613 200.267,392.931 201.805,393.245 C 204.065,393.772 205.617,394.823 206.459,396.4 L 206.813,396.873 C 208.364,398.347 210.349,400.16 212.793,402.316 C 215.239,404.472 218.656,407.705 223.06,412.017 C 223.179,410.44 224.139,409.177 225.925,408.231 L 226.82,407.6 C 229.317,406.128 231.46,406.128 233.248,407.6 C 233.839,407.811 234.549,408.231 235.391,408.863 C 235.864,407.811 236.692,407.075 237.888,406.653 L 238.427,405.549 C 238.427,405.444 238.519,405.313 238.689,405.155 C 238.873,404.997 239.439,404.183 240.385,402.711 L 241.279,401.133 C 241.635,400.397 242.173,399.503 242.883,398.451 C 245.512,394.56 246.813,392.247 246.813,391.511 C 246.84,391.195 246.84,390.932 246.813,390.721 C 246.576,389.881 246.156,389.303 245.564,388.987 C 245.447,388.987 244.855,388.935 243.777,388.829 C 243.067,389.565 242.528,390.196 242.173,390.721 C 240.149,392.931 238.835,394.771 238.243,396.243 C 237.296,398.767 235.627,400.607 233.248,401.764 C 232.169,402.395 231.631,402.132 231.631,400.975 C 231.631,400.555 231.815,400.239 232.169,400.028 C 234.076,399.083 235.391,397.609 236.1,395.612 C 236.692,393.929 238.059,391.879 240.215,389.46 C 241.043,388.513 242.173,387.304 243.605,385.832 C 244.079,384.885 244.552,384.149 245.025,383.624 C 245.275,383.413 245.92,382.099 246.997,379.68 L 247.707,378.103 C 247.825,377.787 247.891,377.419 247.891,376.999 C 247.891,376.263 247.589,375.421 246.997,374.475 C 246.76,374.055 245.801,373.791 244.132,373.687 L 243.237,374.632 C 242.173,376.209 240.385,378.471 237.888,381.415 L 236.993,382.204 C 236.403,382.835 235.68,383.624 234.851,384.571 C 234.733,385.307 231.749,388.987 225.913,395.612 C 225.44,396.137 224.913,396.191 224.309,395.769 C 223.955,395.56 223.783,395.296 223.783,394.981 C 223.783,394.771 223.836,394.56 223.955,394.349 C 229.08,388.672 231.933,385.307 232.524,384.255 C 232.643,383.729 233.603,382.572 235.391,380.784 L 236.1,380.153 C 237.177,378.576 238.952,376.263 241.463,373.213 L 242.712,372.108 C 242.948,371.688 243.659,370.531 244.855,368.639 C 244.973,368.323 245.025,368.008 245.025,367.692 C 245.025,367.061 244.433,366.377 243.237,365.641 L 242.883,365.325 C 241.581,364.484 240.385,364.275 239.32,364.695 C 238.835,365.011 237.349,365.957 234.851,367.535 C 234.379,368.796 233.905,369.9 233.419,370.847 C 231.395,375.053 229.369,377.683 227.345,378.733 C 226.991,378.944 226.753,379.155 226.636,379.365 L 226.636,379.68 C 226.399,380.205 225.203,381.836 223.06,384.571 C 220.563,387.62 218.723,389.355 217.527,389.776 C 216.935,389.985 216.448,389.776 216.093,389.144 C 215.857,388.619 216.067,388.224 216.724,387.961 C 217.381,387.699 218.775,386.253 220.917,383.624 C 222.824,381.311 224.02,379.733 224.493,378.892 L 224.493,378.733 C 224.729,377.997 225.321,377.419 226.281,376.999 L 226.281,376.999 C 227.951,376.052 229.607,373.739 231.276,370.059 C 231.749,369.217 232.236,368.165 232.708,366.903 C 232.236,365.431 231.671,364.459 231.013,363.985 C 230.356,363.512 229.317,363.433 227.884,363.748 C 226.688,364.38 225.925,364.827 225.557,365.089 C 225.203,365.352 223.533,366.799 220.563,369.427 L 219.485,370.689 C 219.367,370.795 219.313,370.899 219.313,371.004 C 217.763,372.161 215.857,373.528 213.596,375.105 C 212.281,376.788 210.677,378.524 208.772,380.311 C 207.944,380.521 207.352,380.837 206.984,381.257 L 205.38,382.835 C 204.433,383.571 203.421,384.465 202.344,385.516 C 202.225,385.727 201.805,386.095 201.095,386.621 L 200.74,386.936 C 200.267,387.252 199.609,387.777 198.768,388.513 C 196.507,391.037 194.009,393.667 191.276,396.4 L 189.133,397.189 C 189.015,397.295 188.883,397.347 188.779,397.347 L 186.807,397.82 C 186.82,397.82 186.832,397.847 186.832,397.899 C 186.832,397.952 186.82,397.979 186.807,397.979 C 186.807,398.609 186.504,398.977 185.912,399.083 C 185.084,399.083 184.664,398.767 184.664,398.136 C 184.072,397.084 183.415,395.56 182.705,393.561 C 182.455,392.3 182.337,391.195 182.337,390.249 C 182.337,385.621 181.509,382.204 179.84,379.996 L 178.945,378.892 C 178.355,378.051 177.579,377.629 176.632,377.629 C 177.46,380.575 177.644,382.677 177.157,383.939 C 176.921,384.675 176.028,385.096 174.489,385.201 C 174.503,385.727 174.503,386.253 174.489,386.779 C 174.489,387.515 174.359,388.567 174.121,389.933 C 173.885,391.3 173.713,392.247 173.596,392.772 L 173.241,397.82 C 172.991,398.661 172.755,399.924 172.517,401.607 C 172.517,402.237 172.636,403.209 172.872,404.524 C 173.109,405.839 173.228,406.812 173.228,407.443 C 173.228,409.02 172.991,411.255 172.517,414.147 C 172.044,417.039 171.743,419.168 171.624,420.535 C 171.624,423.269 172.044,425.267 172.872,426.529 C 173.109,426.949 173.228,427.317 173.228,427.633 C 173.228,428.369 172.755,428.895 171.808,429.211 C 161.923,440.463 156.744,446.72 156.271,447.981 L 156.271,447.824 C 156.152,448.56 155.732,448.876 155.021,448.771 C 154.299,448.665 153.944,448.349 153.944,447.824 L 153.944,447.667 C 154.063,446.929 156.796,443.355 162.16,436.94 C 164.657,434.1 167.339,431.051 170.191,427.791 C 170.309,427.58 170.493,427.423 170.729,427.317 C 169.784,425.635 169.297,423.375 169.297,420.535 C 169.547,414.12 170.073,409.967 170.915,408.073 C 170.927,407.863 170.927,407.653 170.915,407.443 C 170.915,407.021 170.796,406.101 170.559,404.681 C 170.309,403.263 170.191,402.237 170.191,401.607 C 170.441,400.66 170.677,399.345 170.915,397.663 L 171.269,392.615 C 171.387,392.089 171.571,391.169 171.808,389.855 C 172.044,388.54 172.163,387.515 172.163,386.779 L 172.163,386.621 C 172.163,385.78 172.044,384.728 171.808,383.465 C 171.821,383.361 171.835,383.256 171.835,383.151 L 171.835,383.151 L 171.808,382.204 L 171.085,377.472 C 171.111,377.472 171.111,377.419 171.111,377.315 L 171.085,377.315 C 170.967,377.209 170.915,377.051 170.915,376.841 C 170.915,376.209 171.269,375.895 171.979,375.895 L 175.015,375.737 C 177.513,375.105 179.484,375.789 180.917,377.787 L 181.811,378.904 C 183.717,381.428 184.664,385.215 184.664,390.275 L 184.664,390.275 C 184.664,391.116 184.848,392.024 185.203,393.023 C 185.557,394.021 185.912,394.928 186.268,395.769 L 188.239,395.296 C 188.949,395.087 189.54,394.876 190.027,394.665 C 194.076,390.261 196.455,387.751 197.164,387.12 C 197.52,386.7 198.177,386.121 199.136,385.385 C 199.728,385.069 201.279,383.755 203.776,381.441 L 205.209,379.877 C 205.801,379.352 206.576,378.931 207.523,378.616 C 209.784,375.881 211.269,374.251 211.992,373.725 C 212.701,373.2 214.608,371.78 217.711,369.467 L 218.591,368.217 C 218.723,368.112 218.775,368.06 218.775,368.06 C 221.877,365.431 223.652,363.932 224.139,363.564 C 224.612,363.196 225.505,362.644 226.807,361.908 C 226.939,361.908 227.056,361.856 227.175,361.751 C 229.436,361.224 231.157,361.488 232.353,362.525 C 233.181,363.052 233.892,363.985 234.496,365.325 C 236.521,363.959 237.704,363.171 238.059,362.96 C 239.847,362.013 241.936,362.276 244.316,363.748 L 244.671,363.907 C 246.459,365.168 247.352,366.431 247.352,367.692 C 247.352,368.533 246.76,369.9 245.564,371.793 C 247.471,372.108 248.667,372.687 249.14,373.528 C 250.204,375.527 250.455,377.315 249.849,378.892 L 249.14,380.311 C 248.667,381.468 247.891,382.993 246.813,384.885 C 246.459,385.307 246.037,385.937 245.564,386.779 L 245.564,386.936 C 247.944,387.147 249.14,388.672 249.14,391.511 C 249.14,392.563 247.707,395.191 244.855,399.397 C 244.619,399.819 244.132,400.66 243.421,401.921 L 242.528,403.656 C 242.055,404.497 241.581,405.235 241.095,405.865 C 242.647,405.655 243.961,405.944 245.025,406.732 C 246.104,407.521 247.116,408.284 248.063,409.02 C 249.849,410.492 251.703,412.017 253.609,413.595 C 254.792,414.331 256.396,415.645 258.42,417.537 C 259.261,418.589 261.101,420.588 263.968,423.532 C 265.269,425.109 266.636,426.739 268.069,428.421 C 272.117,431.261 274.615,434.205 275.575,437.255 C 277.244,443.144 278.848,446.72 280.399,447.981 C 280.635,448.192 280.753,448.455 280.753,448.771 Z M 175.199,382.361 C 175.199,381.205 174.897,379.68 174.305,377.787 L 173.412,377.787 L 174.121,382.047 C 174.148,382.047 174.148,382.099 174.148,382.204 L 174.148,382.204 L 174.148,383.151 L 174.121,383.151 C 174.489,383.151 174.752,383.072 174.923,382.913 C 175.107,382.756 175.199,382.572 175.199,382.361 Z "/>
	</g>
</svg>