<?xml version="1.0" encoding="UTF-8" standalone="no"?>
<svg version="1.1" xmlns="http://www.w3.org/2000/svg" xmlns:xlink="http://www.w3.org/1999/xlink" width="150" height="120">
	<g id="bsl-o" transform="matrix(1, 0, 0, 1, -290, -355)">
		<path fill="black" stroke="black" stroke-width="0.1" d="M 435.103,466.911 C 435.103,468.277 434.459,468.593 433.144,467.857 C 431.948,467.121 430.043,465.543 427.427,463.124 L 425.993,461.863 C 425.875,461.757 424.153,460.601 420.828,458.392 C 419.868,457.656 418.737,456.763 417.423,455.711 C 415.517,455.605 412.612,455.291 408.681,454.764 C 407.131,454.344 405.159,453.555 402.78,452.399 C 400.045,451.031 398.139,450.137 397.075,449.717 C 395.405,449.401 393.263,448.612 390.633,447.351 C 388.977,445.037 386.953,442.303 384.56,439.148 L 379.749,432.996 C 379.631,432.785 379.565,432.576 379.565,432.365 L 379.565,432.208 C 379.803,428.632 380.393,426.056 381.353,424.479 L 383.667,420.377 C 383.548,420.167 383.496,419.956 383.496,419.747 C 383.496,416.801 385.284,414.383 388.845,412.491 C 390.871,411.544 392.421,410.86 393.499,410.44 C 393.013,407.285 392.605,405.497 392.251,405.076 C 391.409,404.445 389.621,402.473 386.887,399.161 C 384.153,395.848 382.536,393.772 382.063,392.931 C 381.945,392.615 381.892,392.3 381.892,391.984 C 381.892,391.879 381.945,391.721 382.063,391.511 C 381.589,391.3 380.999,390.985 380.275,390.564 C 377.068,389.197 375.044,387.567 374.203,385.675 C 372.901,384.517 371.521,383.465 370.101,382.52 C 369.141,381.784 368.365,380.889 367.775,379.837 C 366.828,378.26 366.289,377.367 366.171,377.156 C 365.579,379.575 364.475,381.6 362.871,383.229 C 361.255,384.859 358.495,386.621 354.564,388.513 C 349.792,392.404 346.94,394.771 345.993,395.612 C 345.625,395.928 344.797,397.4 343.483,400.028 C 340.748,405.181 338.724,408.073 337.409,408.704 L 337.239,408.863 L 338.487,419.747 C 338.487,419.851 338.421,419.956 338.303,420.061 L 337.777,422.269 C 340.039,429.316 341.169,434.889 341.169,438.991 C 341.169,445.195 339.671,450.505 336.7,454.923 C 336.345,455.343 335.688,456.657 334.741,458.865 C 333.427,461.915 332.467,463.861 331.876,464.703 C 330.088,467.121 329.193,468.699 329.193,469.435 L 329.193,469.435 C 329.444,470.079 329.193,470.512 328.484,470.723 C 327.407,471.037 326.88,470.617 326.88,469.46 C 326.88,468.199 327.892,466.253 329.917,463.624 C 330.508,462.888 331.403,461.048 332.599,458.103 C 333.545,455.895 334.203,454.463 334.557,453.831 C 337.409,449.729 338.843,444.788 338.843,439.004 C 338.843,435.217 337.62,429.749 335.161,422.585 C 335.123,422.375 335.109,422.257 335.109,422.204 C 335.109,422.152 335.123,422.06 335.161,421.955 L 335.989,419.588 L 335.161,408.863 C 335.161,408.441 335.161,408.125 335.161,407.916 L 335.161,407.916 C 335.161,407.495 335.491,407.127 336.16,406.812 C 336.831,406.496 338.435,403.92 340.972,399.083 C 342.417,396.243 343.456,394.613 344.061,394.192 C 345.139,393.245 348.109,390.775 352.947,386.779 C 352.947,386.779 353.012,386.725 353.131,386.621 C 354.945,385.78 357.548,384.255 360.939,382.047 C 362.385,380.469 363.424,378.26 364.028,375.421 L 364.199,374.317 C 364.199,373.791 363.555,373.003 362.24,371.951 L 358.665,375.105 C 358.665,375.105 358.612,375.105 358.495,375.105 C 357.18,376.052 355.392,377.156 353.131,378.419 C 351.58,379.049 350.515,379.575 349.911,379.996 C 348.609,380.943 346.348,381.888 343.128,382.835 C 341.103,384.939 339.671,386.357 338.843,387.093 C 338.015,387.831 336.752,389.04 335.096,390.721 C 334.255,391.563 332.112,394.087 328.655,398.293 C 328.549,398.609 328.3,398.767 327.945,398.767 C 327.117,398.872 326.644,398.556 326.525,397.82 C 326.368,396.769 326.368,394.087 326.525,389.776 C 326.644,384.939 326.999,382.152 327.591,381.415 C 327.708,380.469 328.484,379.101 329.917,377.315 C 330.627,376.683 332.835,373.687 336.516,368.323 C 337.001,366.956 337.528,364.8 338.132,361.856 L 338.132,361.697 C 338.132,361.383 337.777,361.224 337.055,361.224 C 336.581,361.12 336.043,361.12 335.451,361.224 L 330.981,366.272 C 330.627,366.588 330.205,366.693 329.733,366.588 L 329.377,366.431 C 326.276,369.48 324.015,371.531 322.595,372.581 C 321.872,373.213 321.28,374.212 320.807,375.579 C 320.216,377.472 319.848,378.576 319.729,378.892 C 319.256,379.837 318.008,382.677 315.983,387.409 L 314.905,389.776 C 314.787,390.091 314.497,390.301 314.011,390.407 C 316.036,399.66 316.759,404.919 316.167,406.18 C 315.917,406.812 315.444,406.969 314.735,406.653 C 314.024,406.444 313.775,406.023 314.011,405.392 L 314.011,405.392 C 314.261,404.129 313.367,398.753 311.343,389.276 C 310.383,389.381 309.371,389.276 308.307,388.96 C 306.755,388.54 306.164,387.961 306.519,387.225 C 306.755,386.595 307.228,386.384 307.952,386.595 C 309.371,387.028 310.449,387.252 311.159,387.252 C 311.277,386.936 311.396,386.253 311.513,385.201 C 311.751,381.52 312.197,379.207 312.855,378.26 C 313.512,377.315 313.84,373.687 313.84,367.376 C 313.84,366.745 313.539,366.061 312.947,365.325 C 312.355,364.589 311.869,364.221 311.513,364.221 C 310.804,364.221 309.911,364.275 308.845,364.38 L 306.703,370.216 L 303.837,376.052 C 302.772,378.471 301.879,381.679 301.156,385.675 L 300.445,389.947 C 301.273,392.049 301.695,393.469 301.695,394.205 C 301.695,399.884 302.049,403.512 302.759,405.089 C 303.009,405.72 303.127,406.561 303.127,407.613 C 303.127,409.821 302.588,412.345 301.511,415.185 C 301.484,415.395 301.484,415.711 301.511,416.131 C 301.511,417.183 301.721,418.865 302.141,421.179 C 302.563,423.492 302.759,425.28 302.759,426.543 C 302.733,426.963 302.733,427.279 302.759,427.488 C 302.404,428.645 302.233,431.589 302.233,436.321 C 302.233,439.372 302.404,441.58 302.759,442.947 L 303.483,445.313 C 303.6,445.641 303.653,445.905 303.653,446.101 C 303.653,446.325 303.6,446.536 303.483,446.733 C 303.127,448.639 302.943,450.584 302.943,452.583 C 302.943,454.896 303.207,456.605 303.745,457.709 C 304.284,458.813 304.547,459.576 304.547,459.996 C 304.547,461.468 303.784,461.889 302.233,461.259 C 300.328,466.411 299.171,469.356 298.749,470.092 C 298.329,470.828 297.764,471.037 297.055,470.723 C 296.331,470.407 296.16,469.933 296.516,469.303 C 297.107,468.461 298.421,465.149 300.445,459.365 C 300.683,458.84 301.103,458.576 301.695,458.576 C 300.984,457.209 300.629,455.159 300.629,452.424 C 300.629,450.321 300.8,448.165 301.156,445.944 C 301.037,445.524 300.775,444.656 300.353,443.341 C 299.933,442.027 299.736,439.687 299.736,436.321 C 299.736,431.38 299.972,428.224 300.445,426.857 C 300.683,426.016 300.248,423.019 299.144,417.867 C 298.908,416.395 298.973,415.289 299.328,414.553 C 300.905,410.348 301.273,407.456 300.445,405.879 C 299.604,404.091 299.197,400.2 299.197,394.205 C 299.197,393.785 298.987,393.023 298.565,391.919 C 298.145,390.813 298.001,390.157 298.119,389.947 L 298.841,385.201 C 299.907,380.469 300.853,377.156 301.695,375.264 L 304.915,368.48 L 306.873,363.117 C 306.992,362.697 307.295,362.487 307.768,362.487 C 309.2,362.171 310.449,362.013 311.513,362.013 C 312.709,362.013 313.815,362.617 314.827,363.827 C 315.839,365.036 316.337,366.22 316.337,367.376 C 316.337,374.001 315.865,377.997 314.919,379.365 C 314.551,379.996 314.196,381.993 313.84,385.359 L 313.656,386.779 L 313.656,386.595 C 314.735,384.189 316.049,381.271 317.587,377.827 C 317.824,377.524 318.244,376.315 318.836,374.239 C 319.204,372.884 320.005,371.728 321.255,370.795 C 322.503,369.848 324.737,367.771 327.945,364.537 C 328.3,364.116 328.787,364.012 329.377,364.221 L 329.733,364.38 L 334.019,359.7 C 334.136,359.489 334.32,359.384 334.557,359.384 C 336.817,358.859 338.487,359.016 339.552,359.857 C 340.275,360.488 340.564,361.277 340.445,362.224 C 340.209,363.999 339.671,366.259 338.843,368.993 C 338.605,369.519 337.383,371.255 335.188,374.185 C 332.98,377.131 331.704,378.708 331.336,378.917 C 330.981,379.128 330.653,379.68 330.364,380.575 C 330.061,381.468 329.799,382.112 329.561,382.532 C 328.957,383.9 328.72,387.948 328.839,394.665 L 333.124,389.46 C 334.084,388.724 335.385,387.515 337.055,385.832 C 337.896,384.991 339.381,383.465 341.524,381.257 C 343.193,380.732 345.455,379.785 348.307,378.419 C 350.095,377.683 352.184,376.631 354.564,375.264 C 355.392,374.632 356.233,374.055 357.061,373.528 L 361.347,369.743 C 361.82,369.321 362.359,369.269 362.951,369.585 C 364.264,370.531 365.277,371.531 365.987,372.581 C 366.223,372.267 366.525,372.004 366.88,371.793 C 366.763,370.741 367.301,369.9 368.484,369.269 C 369.207,368.849 369.917,368.639 370.64,368.639 C 370.876,368.744 371.113,368.849 371.349,368.953 L 376.175,372.581 L 377.593,372.897 C 378.908,373.317 380.761,374.58 383.141,376.683 C 384.324,377.629 385.217,378.208 385.809,378.419 C 387.005,378.839 387.781,379.155 388.136,379.365 C 389.451,380.101 390.581,381.1 391.528,382.361 C 395.34,385.201 397.876,387.383 399.125,388.908 C 400.373,390.433 403.319,393.719 407.959,398.767 C 407.959,398.661 408.077,398.609 408.313,398.609 C 409.273,398.399 410.337,398.609 411.535,399.24 C 412.244,400.081 413.375,400.975 414.925,401.921 L 415.28,402.079 C 416.713,402.605 418.08,402.816 419.395,402.711 C 421.183,402.395 423.023,402.92 424.929,404.288 L 425.468,404.603 C 426.532,405.339 427.611,406.285 428.675,407.443 L 432.251,409.808 C 432.487,410.019 432.605,410.281 432.605,410.597 C 432.605,411.123 432.435,411.439 432.08,411.544 C 431.593,411.753 431.185,411.753 430.817,411.544 L 427.256,409.02 C 427.137,409.02 427.072,408.967 427.072,408.863 C 426.48,408.336 425.468,407.443 424.035,406.18 L 423.496,405.865 C 422.195,405.024 420.828,404.656 419.395,404.761 C 417.371,404.761 415.701,404.551 414.387,404.129 L 414.032,403.972 C 413.321,403.341 412.073,402.343 410.285,400.975 C 409.457,400.555 408.919,400.449 408.681,400.66 C 408.563,400.975 408.261,401.133 407.788,401.133 C 407.433,401.237 407.131,401.133 406.893,400.817 C 401.768,395.455 398.56,391.931 397.245,390.249 C 396.063,388.881 393.617,386.725 389.924,383.781 C 389.805,383.781 389.753,383.729 389.753,383.624 C 388.439,382.677 387.071,381.679 385.639,380.627 C 384.443,380.311 383.023,379.444 381.353,378.024 C 379.684,376.604 378.199,375.579 376.884,374.948 C 376.647,375.368 376.227,375.841 375.635,376.368 C 375.044,376.893 374.032,376.999 372.599,376.683 C 372.48,376.683 372.361,376.631 372.244,376.525 C 371.284,376 370.035,375.105 368.497,373.844 L 368.129,373.528 C 367.656,373.949 367.42,374.369 367.42,374.791 C 367.42,374.58 368.129,375.789 369.563,378.419 C 369.917,378.944 370.719,379.759 371.968,380.863 C 373.229,381.968 374.623,383.151 376.175,384.412 C 376.292,384.517 376.345,384.675 376.345,384.885 C 377.068,385.727 378.724,386.989 381.353,388.672 C 383.615,389.723 384.744,390.617 384.744,391.353 C 384.744,391.563 384.627,391.827 384.389,392.141 C 387.243,396.664 390.397,400.501 393.855,403.656 C 394.564,404.288 395.221,406.496 395.812,410.281 C 396.063,410.492 396.181,410.703 396.181,410.913 C 396.181,411.123 396.115,411.281 395.997,411.385 L 395.997,411.544 C 396.115,411.964 396.444,413.279 396.983,415.487 C 397.508,417.696 397.784,418.905 397.784,419.115 C 397.745,419.115 397.745,419.168 397.784,419.273 C 396.233,425.477 395.34,429.105 395.103,430.157 C 394.629,431.629 392,432.155 387.243,431.735 C 386.413,431.629 385.993,431.208 385.993,430.472 C 386.112,429.841 386.651,429.527 387.597,429.527 C 387.716,429.527 387.9,429.579 388.136,429.684 C 388.491,429.684 388.964,429.684 389.569,429.684 L 385.993,427.633 C 385.757,427.423 385.217,426.108 384.389,423.689 L 383.496,425.425 C 383.023,426.267 382.536,428.475 382.063,432.049 L 386.532,438.044 C 388.201,440.463 390.108,443.092 392.251,445.931 C 392.369,445.931 394.209,446.561 397.784,447.824 C 400.4,449.191 404.212,450.821 409.208,452.713 C 412.073,452.819 415.28,453.24 418.856,453.976 C 419.448,454.501 420.577,455.396 422.247,456.657 L 427.611,460.285 L 429.031,461.705 C 430.344,462.861 432.199,464.333 434.577,466.121 C 434.932,466.332 435.103,466.595 435.103,466.911 Z M 332.415,404.445 C 332.651,405.287 332.769,407.337 332.769,410.597 C 332.769,414.068 332.532,416.092 332.06,416.671 C 331.587,417.248 331.468,418.221 331.704,419.588 C 332.532,425.267 332.177,428.789 330.627,430.157 C 330.272,430.999 330.088,432.996 330.088,436.151 C 330.088,436.467 330.205,437.203 330.443,438.36 C 331.403,445.511 331.455,449.453 330.627,450.189 C 330.035,450.611 329.496,450.611 329.023,450.189 C 328.432,449.769 328.365,449.296 328.839,448.771 L 328.839,448.928 C 329.193,448.192 328.904,444.775 327.945,438.675 C 327.827,437.203 327.775,436.361 327.775,436.151 C 327.775,431.84 328.221,429.341 329.115,428.659 C 330.009,427.975 330.088,425.057 329.377,419.904 C 329.023,418.011 329.141,416.617 329.733,415.724 C 330.324,414.829 330.508,411.912 330.272,406.969 C 329.799,407.916 328.248,409.177 325.632,410.755 C 325.276,411.071 324.856,411.123 324.383,410.913 L 322.056,409.808 C 320.86,411.281 319.967,412.543 319.375,413.595 C 319.02,415.381 318.192,417.959 316.877,421.324 L 315.444,424.005 C 314.261,426.108 312.895,428.475 311.343,431.104 C 310.869,431.735 310.331,431.84 309.727,431.419 C 309.016,431.104 308.897,430.631 309.371,429.999 C 309.608,429.579 310.923,427.265 313.301,423.059 L 314.735,420.377 C 315.089,418.589 315.917,416.013 317.232,412.648 C 317.941,411.281 319.085,409.756 320.623,408.073 L 321.347,401.764 C 321.464,401.553 321.636,401.343 321.872,401.133 C 322.121,400.292 322.595,399.713 323.305,399.397 C 324.251,398.977 325.868,399.135 328.129,399.871 C 330.389,400.607 331.823,402.132 332.415,404.445 Z M 374.571,374.159 L 370.101,370.847 C 369.747,370.952 369.444,371.215 369.207,371.636 C 369.325,371.74 369.509,371.845 369.747,371.951 L 370.101,372.424 C 370.811,372.949 371.889,373.687 373.308,374.632 C 373.676,374.737 373.965,374.791 374.203,374.791 C 374.32,374.58 374.439,374.369 374.571,374.159 Z M 395.457,419.115 C 394.867,418.169 394.327,415.96 393.855,412.491 C 392.895,412.911 391.645,413.541 390.108,414.383 C 387.36,415.855 385.993,417.643 385.993,419.747 C 385.993,420.483 386.585,422.585 387.781,426.056 L 392.776,429.053 C 393.263,427.58 394.156,424.268 395.457,419.115 Z M 329.733,403.972 C 329.023,402.816 328.248,402.132 327.407,401.921 C 325.749,401.291 324.737,401.08 324.383,401.291 C 324.383,401.291 324.251,401.448 324.015,401.764 C 325.092,402.5 326.999,403.236 329.733,403.972 Z M 328.3,405.865 C 327.235,405.549 325.632,404.919 323.489,403.972 L 323.121,407.916 L 324.908,408.704 C 326.815,407.443 327.892,406.601 328.129,406.18 Z "/>
	</g>
</svg>