<?xml version="1.0" encoding="UTF-8" standalone="no"?>
<svg version="1.1" xmlns="http://www.w3.org/2000/svg" xmlns:xlink="http://www.w3.org/1999/xlink" width="140" height="120">
	<g id="bsl-p" transform="matrix(1, 0, 0, 1, -440, -355)">
		<path fill="black" stroke="black" stroke-width="0.1" d="M 570.511,441.672 C 570.393,442.303 569.907,442.565 569.079,442.461 C 568.368,442.356 568.067,441.988 568.184,441.356 C 568.303,440.305 567.448,435.861 565.595,428.028 C 563.755,420.193 562.321,415.172 561.309,412.963 C 560.297,410.755 557.944,406.233 554.251,399.397 C 550.571,392.877 548.361,389.249 547.652,388.513 C 546.456,387.357 545.864,385.884 545.864,384.097 C 544.668,380.521 543.131,376.683 541.224,372.581 C 539.909,371.425 537.82,370.847 534.967,370.847 C 534.021,370.847 531.996,370.059 528.895,368.48 C 527.948,368.06 526.515,367.429 524.609,366.588 L 522.651,365.957 C 520.021,365.116 516.748,363.959 512.817,362.487 C 511.872,362.381 510.387,362.171 508.361,361.856 C 506.929,361.645 504.957,362.171 502.46,363.433 C 498.648,365.536 495.204,367.271 492.101,368.639 C 491.273,369.059 489.907,370.163 488,371.951 L 485.673,376.368 C 485.673,376.473 485.621,376.525 485.489,376.525 C 485.739,376.736 485.857,376.947 485.857,377.156 C 485.857,377.472 485.739,377.735 485.489,377.945 L 481.204,382.361 C 482.045,382.677 482.992,383.203 484.069,383.939 C 484.661,383.729 485.253,383.624 485.857,383.624 C 486.331,383.624 486.869,383.676 487.461,383.781 C 491.628,380.732 493.955,378.812 494.428,378.024 C 494.901,377.235 495.677,376.209 496.741,374.948 C 496.991,374.737 497.28,374.58 497.636,374.475 L 502.999,373.844 C 506.219,373.423 508.835,373.003 510.859,372.581 C 511.805,372.267 512.279,372.581 512.279,373.528 C 512.279,373.844 512.581,374.133 513.173,374.396 C 513.777,374.659 514.935,375.632 516.656,377.315 C 518.391,378.996 519.429,379.891 519.785,379.996 C 521.572,379.996 522.467,380.732 522.467,382.204 C 522.467,382.835 522.229,383.545 521.756,384.333 C 521.271,385.123 520.376,387.515 519.075,391.511 C 520.257,391.405 521.756,390.721 523.544,389.46 C 524.136,388.408 524.307,386.621 524.069,384.097 C 523.833,382.099 524.069,381.047 524.793,380.943 C 525.621,380.837 526.095,381.1 526.212,381.731 C 527.053,386.043 526.699,389.197 525.148,391.195 C 524.307,392.141 523.295,392.72 522.112,392.931 C 519.364,393.245 517.103,394.771 515.328,397.505 C 514.96,398.031 514.435,398.136 513.712,397.82 C 513.001,397.505 512.817,397.032 513.173,396.4 C 513.423,396.191 513.896,395.612 514.605,394.665 C 511.148,395.401 509.164,395.901 508.624,396.164 C 508.085,396.427 507.52,396.505 506.929,396.4 C 506.337,396.191 505.799,395.717 505.325,394.981 L 497.636,391.353 C 497.517,391.353 497.399,391.3 497.28,391.195 C 496.216,390.353 494.363,389.197 491.747,387.725 L 491.036,387.252 C 488.644,386.2 486.923,385.675 485.844,385.675 C 484.897,385.675 483.833,386.095 482.637,386.936 L 482.821,387.093 L 488.525,392.141 C 488.776,392.352 488.893,392.615 488.893,392.931 L 488.893,393.404 C 491.155,395.612 492.404,397.321 492.64,398.531 C 492.877,399.74 493.416,400.66 494.244,401.291 C 496.387,402.552 498.056,403.393 499.252,403.815 C 500.908,404.34 502.46,405.339 503.892,406.812 C 504.957,407.757 506.205,408.809 507.639,409.967 C 508.231,410.387 511.188,411.753 516.485,414.068 C 521.783,416.381 524.753,417.616 525.411,417.775 C 526.068,417.932 526.804,418.432 527.645,419.273 C 528.473,420.115 529.131,420.64 529.604,420.851 L 534.073,423.689 C 534.309,423.795 534.493,423.952 534.612,424.163 C 538.307,436.677 540.147,444.353 540.147,447.193 C 540.147,448.349 539.608,448.823 538.543,448.612 C 537.82,448.403 537.583,447.981 537.82,447.351 L 537.807,447.193 C 537.807,447.193 537.807,447.14 537.82,447.035 C 537.82,444.616 536.032,437.308 532.469,425.109 L 528.184,422.585 C 527.225,421.639 526.095,420.692 524.793,419.747 C 523.952,419.536 520.823,418.248 515.408,415.881 C 509.992,413.516 507.021,412.175 506.481,411.859 C 505.943,411.544 504.549,410.335 502.276,408.231 C 501.211,407.285 499.66,406.339 497.636,405.392 C 495.02,404.129 493.416,403.288 492.811,402.868 C 492.22,402.447 491.444,401.185 490.497,399.083 C 490.261,398.347 489.539,397.373 488.355,396.164 C 487.159,394.955 486.567,394.192 486.567,393.877 L 486.567,393.245 L 482.283,389.617 L 482.637,390.564 C 482.624,390.669 482.624,390.775 482.637,390.88 C 482.637,392.352 482.4,394.613 481.927,397.663 C 481.441,398.819 481.572,401.343 482.283,405.235 C 482.637,407.337 482.519,409.335 481.927,411.228 C 481.809,411.439 481.743,411.964 481.743,412.805 C 481.743,415.855 481.927,418.273 482.283,420.061 C 482.637,421.849 483.057,424.793 483.531,428.895 C 485.319,428.369 486.633,428.053 487.461,427.948 C 488.644,427.633 491.444,427.739 495.861,428.264 C 496.216,428.264 496.452,428.369 496.571,428.58 C 498.595,430.263 499.725,431.787 499.963,433.155 C 500.08,433.575 500.317,434.205 500.672,435.047 C 500.908,435.047 501.027,435.047 501.027,435.047 L 503.892,435.677 C 504.365,435.888 505.653,437.335 507.731,440.016 C 509.821,442.697 510.859,444.288 510.859,444.813 C 510.859,448.179 510.136,451.071 508.716,453.489 C 507.047,456.539 506.219,459.536 506.219,462.468 C 506.219,464.045 505.444,465.464 503.892,466.727 L 495.321,472.563 C 494.967,472.773 494.547,472.773 494.073,472.563 C 493.705,472.352 493.535,472.037 493.535,471.616 C 493.535,471.301 493.652,471.037 493.889,470.828 L 502.289,465.149 C 503.353,464.203 503.892,463.309 503.892,462.468 C 503.892,459.22 504.839,455.908 506.745,452.543 C 507.823,450.651 508.415,448.127 508.532,444.984 C 508.177,444.143 506.272,441.672 502.815,437.571 L 501.92,437.413 C 502.171,437.833 502.407,438.255 502.644,438.675 C 502.88,438.991 502.577,439.779 501.749,441.041 C 500.791,442.619 500.317,443.46 500.317,443.565 C 500.08,444.196 498.569,445.248 495.769,446.72 C 492.969,448.192 491.325,448.928 490.852,448.928 C 489.907,448.928 488.237,447.876 485.857,445.773 C 483.465,443.671 482.283,442.251 482.283,441.515 C 482.283,440.988 482.492,440.279 482.9,439.385 C 483.32,438.491 483.531,437.939 483.531,437.728 C 483.531,437.519 483.228,436.519 482.637,434.732 C 481.691,431.472 481.204,429.421 481.204,428.58 C 481.204,427.212 480.796,424.531 479.956,420.535 C 479.6,418.537 479.416,416.013 479.416,412.963 C 479.416,412.332 479.535,411.385 479.784,410.124 C 480.021,408.863 480.14,407.916 480.14,407.285 C 480.14,406.444 479.981,405.181 479.692,403.499 C 479.391,401.816 479.245,400.555 479.245,399.713 C 479.245,398.556 479.416,397.663 479.784,397.032 C 480.14,395.769 480.311,393.772 480.311,391.037 C 479.6,388.619 479.009,386.568 478.536,384.885 C 478.168,383.833 476.867,383.519 474.605,383.939 C 474.369,384.044 474.119,384.044 473.883,383.939 L 473.883,390.091 C 473.645,392.089 473.291,394.192 472.817,396.4 C 472.699,396.505 472.633,396.821 472.633,397.347 C 472.633,397.452 472.581,398.136 472.463,399.397 C 472.344,401.08 472.095,402.027 471.74,402.237 C 470.675,405.603 470.188,407.811 470.307,408.863 L 470.293,409.02 C 470.293,409.125 470.293,409.283 470.307,409.493 C 470.307,410.229 470.071,411.753 469.597,414.068 C 469.124,416.381 468.887,417.905 468.887,418.641 C 468.887,418.957 468.94,419.379 469.059,419.904 C 469.045,420.429 469.045,420.851 469.059,421.165 C 469.059,422.217 468.94,423.637 468.703,425.425 C 468.467,427.633 468.296,429.053 468.164,429.684 C 468.045,430.736 467.757,431.576 467.284,432.208 C 466.205,433.364 465.312,435.52 464.601,438.675 C 464.484,438.991 463.853,440.043 462.723,441.829 C 461.592,443.617 460.317,445.879 458.884,448.612 C 458.647,450.295 457.924,452.819 456.741,456.184 C 456.623,456.709 456.203,457.367 455.492,458.156 C 454.769,458.944 453.587,460.705 451.917,463.44 C 450.248,466.175 449.236,468.12 448.88,469.276 C 448.763,469.908 448.289,470.117 447.448,469.908 C 446.975,469.803 446.737,469.487 446.737,468.961 C 446.737,468.331 447.684,466.384 449.591,463.124 C 451.496,459.865 452.811,457.815 453.521,456.973 C 453.876,456.657 454.179,456.341 454.415,456.027 C 454.401,455.921 454.401,455.816 454.415,455.711 C 455.019,454.133 455.781,451.609 456.741,448.14 C 456.977,446.983 458.292,444.564 460.672,440.883 C 461.145,440.147 461.684,439.253 462.275,438.201 C 463.235,434.627 464.247,432.208 465.312,430.945 C 465.431,430.945 465.732,429.736 466.205,427.317 C 466.56,425.425 466.744,423.375 466.744,421.165 C 466.732,420.851 466.719,420.429 466.719,419.904 C 466.719,419.379 466.732,418.957 466.744,418.641 C 466.744,417.801 466.955,416.171 467.363,413.752 C 467.783,411.333 467.993,409.913 467.993,409.493 L 467.967,409.335 C 467.967,409.231 467.98,409.072 467.993,408.863 C 467.993,408.231 468.204,406.891 468.611,404.84 C 469.032,402.789 469.427,401.607 469.781,401.291 L 469.781,401.291 C 469.781,401.08 469.833,400.869 469.952,400.66 C 470.071,399.819 470.201,398.609 470.32,397.032 C 470.32,396.505 470.439,395.98 470.675,395.455 C 470.912,393.981 471.201,392.089 471.569,389.776 L 471.569,383.308 C 471.569,382.677 471.924,382.361 472.633,382.361 C 472.871,382.361 473.107,382.415 473.356,382.52 C 473.475,382.204 473.645,382.047 473.883,382.047 C 474.96,381.836 475.907,381.784 476.748,381.888 C 477.34,381.888 477.931,381.993 478.523,382.204 C 478.523,381.993 478.588,381.836 478.707,381.731 L 483.715,376.512 C 483.347,376.197 483.295,375.829 483.531,375.408 L 485.844,370.979 C 485.976,370.873 486.028,370.82 486.028,370.82 C 488.171,368.612 489.84,367.232 491.036,366.707 C 494.125,365.444 497.583,363.761 501.395,361.645 C 504.365,360.068 506.811,359.489 508.716,359.911 C 509.781,359.805 511.569,360.068 514.067,360.699 C 515.027,361.224 518.181,362.329 523.531,364.012 L 525.503,364.643 C 526.331,364.957 527.829,365.641 529.972,366.693 C 532.824,368.06 534.493,368.744 534.967,368.744 C 538.424,368.744 541.04,369.48 542.828,370.952 C 543.537,371.596 544.616,373.725 546.035,377.353 C 547.468,380.981 548.177,383.216 548.177,384.057 C 548.177,385.32 548.545,386.292 549.256,386.976 C 549.965,387.659 552.292,391.511 556.223,398.504 C 560.153,405.497 562.559,410.072 563.452,412.24 C 564.347,414.396 565.779,419.549 567.737,427.699 C 569.709,435.861 570.629,440.515 570.511,441.672 Z M 520.14,382.204 C 520.127,382.204 520.127,382.152 520.14,382.047 C 520.021,382.047 519.851,382.047 519.601,382.047 C 519.009,382.047 517.051,380.521 513.712,377.472 C 509.545,380.311 507.284,382.152 506.929,382.993 C 506.811,384.991 506.692,387.62 506.573,390.88 L 506.219,393.088 L 506.745,393.245 C 506.863,393.561 507.165,393.929 507.639,394.349 C 508.599,393.824 511.516,393.14 516.393,392.3 C 517.944,387.357 519.075,384.307 519.785,383.151 C 520.021,382.835 520.14,382.52 520.14,382.204 Z M 511.753,376.209 C 511.031,375.895 510.557,375.421 510.32,374.791 C 508.296,375.211 505.969,375.579 503.353,375.895 L 498.359,376.525 C 497.517,377.472 496.86,378.365 496.387,379.207 C 495.913,380.048 493.771,381.836 489.959,384.571 C 490.432,384.78 491.089,385.096 491.931,385.516 L 492.811,385.832 C 494.363,386.568 496.335,387.831 498.713,389.617 L 504.063,392.141 L 504.247,390.721 C 504.247,386.2 504.392,383.413 504.695,382.361 C 504.996,381.311 507.349,379.26 511.753,376.209 Z M 481.572,385.056 C 481.323,384.951 481.085,384.78 480.849,384.571 L 481.033,385.543 C 481.269,385.332 481.441,385.161 481.572,385.056 Z M 500.317,438.991 C 499.489,436.887 497.82,433.943 495.321,430.157 C 491.273,429.841 488.828,429.736 488,429.841 C 487.159,430.052 485.792,430.42 483.885,430.945 C 484.123,431.681 484.477,432.785 484.964,434.259 C 485.555,436.151 485.857,437.308 485.857,437.728 C 485.857,438.149 485.673,438.78 485.319,439.621 C 486.265,438.885 487.343,438.464 488.525,438.36 C 489.959,438.149 490.905,438.36 491.392,438.991 C 491.852,439.621 491.852,440.252 491.392,440.883 C 491.155,441.409 490.668,441.567 489.959,441.356 C 489.485,441.147 489.249,440.831 489.249,440.411 L 489.249,440.252 C 488.408,440.252 487.224,440.988 485.673,442.461 C 487.697,444.669 489.367,446.141 490.681,446.877 C 495.085,444.775 497.517,443.381 497.991,442.697 C 498.476,442.013 499.252,440.779 500.317,438.991 Z "/>
	</g>
</svg>