<?xml version="1.0" encoding="UTF-8" standalone="no"?>
<svg version="1.1" xmlns="http://www.w3.org/2000/svg" xmlns:xlink="http://www.w3.org/1999/xlink" width="150" height="120">
	<g id="bsl-q" transform="matrix(1, 0, 0, 1, -575, -355)">
		<path fill="black" stroke="black" stroke-width="0.1" d="M 721.195,465.991 L 721.023,462.507 C 721.023,460.193 720.011,456.46 717.987,451.307 C 717.395,449.835 717.093,448.941 717.093,448.625 C 717.093,448.311 716.975,447.416 716.739,445.944 L 716.555,444.367 C 716.317,442.684 715.187,441.356 713.163,440.411 C 711.729,439.779 709.943,439.569 707.8,439.779 C 706.853,438.307 705.723,436.677 704.408,434.889 C 704.053,434.364 703.041,433.837 701.372,433.312 C 699.584,432.785 697.861,432.944 696.192,433.785 L 695.483,434.1 C 695.009,433.469 694.325,432.601 693.432,431.497 C 692.539,430.393 691.671,429.421 690.843,428.58 C 690.001,427.739 688.752,426.949 687.083,426.213 C 686.136,425.793 684.349,425.74 681.733,426.056 C 679.708,426.371 678.46,426.687 677.973,427.003 C 677.5,427.317 677.211,428.421 677.08,430.315 L 677.08,430.157 C 676.724,429.421 676.317,428.264 675.831,426.687 C 675.595,425.845 674.819,424.268 673.517,421.955 C 672.795,420.377 671.783,418.116 670.481,415.172 C 670.836,414.961 671.375,414.277 672.084,413.121 C 672.44,412.385 672.979,411.596 673.688,410.755 C 674.056,410.544 674.464,410.019 674.951,409.177 C 675.896,409.072 677.803,407.757 680.655,405.235 L 681.009,404.761 C 681.377,404.445 681.549,404.077 681.549,403.656 C 681.549,402.5 681.168,401.659 680.392,401.133 C 679.616,400.607 678.46,399.871 676.909,398.924 C 676.199,398.504 675.055,398.399 673.517,398.609 C 673.636,398.399 673.753,398.188 673.872,397.979 C 673.872,397.979 673.925,397.979 674.056,397.979 C 674.529,397.768 674.767,397.452 674.767,397.032 C 674.767,396.821 674.7,396.664 674.583,396.559 L 671.9,390.721 C 671.887,390.721 671.887,390.669 671.9,390.564 C 671.545,390.144 671.256,389.671 671.007,389.144 C 674.109,389.985 676.488,390.039 678.157,389.303 C 679.104,388.881 680.116,388.093 681.193,386.936 C 681.667,386.936 682.023,386.725 682.272,386.305 C 682.391,385.884 682.299,385.543 681.996,385.28 C 681.693,385.017 681.076,384.36 680.116,383.308 C 680.957,382.98 681.943,382.375 683.073,381.481 C 684.204,380.587 684.585,379.299 684.231,377.616 C 683.993,376.88 683.52,376.407 682.797,376.197 C 681.733,375.881 679.524,374.461 676.199,371.937 L 674.043,370.189 C 672.019,368.717 670.955,367.928 670.836,367.824 C 670.008,367.403 668.745,367.087 667.089,366.877 C 666.012,366.772 665.301,366.667 664.947,366.561 C 662.081,365.509 657.743,364.037 651.907,362.145 C 648.923,361.619 646.991,361.751 646.097,362.539 C 645.203,363.328 644.348,364.143 643.507,364.984 C 642.443,365.089 639.813,367.087 635.647,370.979 C 632.084,374.239 629.995,376.079 629.403,376.499 C 626.537,378.287 623.567,380.285 620.464,382.493 C 619.991,383.453 619.452,384.452 618.86,385.504 C 618.847,385.608 618.847,385.713 618.86,385.819 L 617.967,390.236 C 617.02,395.704 615.587,399.437 613.681,401.435 C 610.947,404.169 608.62,407.745 606.715,412.161 C 606.004,413.949 603.677,418.629 599.748,426.213 C 598.801,427.685 598.025,428.58 597.435,428.895 C 593.385,431.313 588.207,435.309 581.896,440.883 C 581.779,441.093 581.712,441.304 581.712,441.515 C 581.712,441.829 581.779,442.092 581.896,442.303 C 582.488,442.829 583.08,442.829 583.684,442.303 C 589.863,436.835 594.871,432.944 598.683,430.631 C 599.865,429.999 600.944,428.843 601.891,427.16 C 603.796,423.375 606.123,418.641 608.857,412.963 C 610.645,408.757 612.788,405.392 615.285,402.868 C 617.545,400.66 619.215,396.559 620.293,390.564 L 621.187,386.305 C 621.541,385.464 621.963,384.517 622.436,383.465 C 628.036,379.996 632.965,376.315 637.251,372.424 C 638.92,370.952 640.825,369.269 642.968,367.376 C 643.455,367.061 644.164,367.008 645.111,367.219 C 645.716,367.219 646.189,367.219 646.544,367.219 L 646.544,367.219 C 647.859,367.324 653.865,369.059 664.579,372.424 C 666.367,372.949 667.444,373.581 667.799,374.317 C 668.391,375.368 670.06,377.051 672.795,379.365 C 673.636,380.205 675.779,382.309 679.223,385.675 C 678.395,386.516 677.684,387.093 677.08,387.409 C 676.015,387.831 674.583,387.831 672.795,387.409 C 670.769,386.884 669.64,386.621 669.403,386.621 C 668.812,385.78 668.456,385.201 668.339,384.885 C 667.852,383.413 667.049,382.177 665.92,381.179 C 664.789,380.18 663.329,379.365 661.543,378.733 L 651.552,371.636 C 651.303,371.425 651.013,371.372 650.659,371.477 C 645.295,372.424 641.601,373.528 639.577,374.791 C 637.197,376.263 634.937,378.051 632.795,380.153 C 632.084,380.784 630.585,381.573 628.325,382.52 C 627.615,382.624 627.312,382.993 627.431,383.624 C 627.549,384.36 627.969,384.675 628.68,384.571 C 630.704,384.36 632.676,383.308 634.581,381.415 C 636.488,379.523 638.631,377.84 641.009,376.368 C 642.561,375.421 645.768,374.475 650.659,373.528 L 660.293,380.469 C 660.412,380.575 660.531,380.627 660.648,380.627 C 661.371,380.943 662.501,381.573 664.053,382.52 C 664.999,383.361 665.656,384.281 666.012,385.28 C 666.367,386.279 667.615,388.356 669.757,391.511 C 670.599,393.299 671.375,394.928 672.084,396.4 C 671.967,396.716 671.783,397.032 671.545,397.347 C 670.717,397.557 669.876,397.715 669.048,397.82 C 665.472,395.928 663.329,394.297 662.62,392.931 C 662.265,392.089 661.911,391.037 661.543,389.776 C 661.543,389.355 661.371,389.092 661.016,388.987 L 659.4,388.356 C 658.572,388.04 657.349,387.593 655.745,387.015 C 654.141,386.437 652.38,385.516 650.475,384.255 C 650.119,384.044 649.699,383.992 649.225,384.097 C 648.871,384.203 648.595,384.596 648.424,385.28 C 648.24,385.964 648.068,386.384 647.884,386.541 C 647.7,386.7 646.78,387.173 645.111,387.961 C 643.455,388.751 642.613,389.46 642.613,390.091 C 642.613,390.721 642.351,391.169 641.812,391.432 C 641.272,391.695 641.009,393.088 641.009,395.612 C 640.996,396.243 640.984,397.216 640.984,398.531 C 640.984,399.844 640.984,400.817 640.984,401.448 C 640.984,402.079 640.996,402.5 641.009,402.711 C 640.892,402.92 640.825,403.079 640.825,403.184 C 640.825,404.025 642.613,405.655 646.189,408.073 C 646.307,408.073 646.899,408.125 647.976,408.231 C 643.336,408.863 640.3,408.863 638.867,408.231 C 638.157,407.916 637.619,408.021 637.264,408.547 C 636.895,409.177 637.145,409.677 637.973,410.045 C 638.801,410.413 640.655,410.597 643.507,410.597 C 646.609,410.597 648.923,410.335 650.475,409.808 C 650.829,412.332 651.249,414.172 651.723,415.329 C 653.037,418.273 654.103,420.64 654.944,422.428 L 655.299,423.532 C 653.865,424.057 652.564,424.584 651.368,425.109 C 648.148,426.476 646.005,428.001 644.94,429.684 C 644.467,430.42 643.035,431.892 640.655,434.1 C 633.504,437.992 629.127,440.095 627.523,440.411 C 625.919,440.725 624.157,441.147 622.252,441.672 C 622.015,441.672 621.844,441.724 621.713,441.829 C 619.688,443.617 618.032,445.195 616.717,446.561 C 614.22,448.771 610.527,452.188 605.649,456.815 C 605.413,457.025 605.281,457.236 605.281,457.445 C 605.281,457.761 605.413,458.024 605.649,458.235 C 606.241,458.656 606.78,458.656 607.253,458.235 C 607.727,457.815 609.093,456.552 611.355,454.449 C 615.285,450.979 617.664,448.823 618.505,447.981 C 619.701,446.72 621.24,445.248 623.145,443.565 C 624.933,443.144 626.537,442.776 627.969,442.461 C 628.811,442.251 631.269,441.172 635.384,439.227 C 639.485,437.281 641.785,436.045 642.259,435.52 C 644.875,433.207 646.517,431.497 647.175,430.393 C 647.819,429.289 649.58,428.159 652.433,427.003 C 653.511,426.476 654.76,426.003 656.192,425.583 C 657.139,427.791 657.94,429.421 658.597,430.472 C 659.255,431.524 660.477,433.943 662.265,437.728 C 662.252,437.939 662.239,438.255 662.239,438.675 L 662.265,438.675 C 661.424,438.78 660.78,439.411 660.293,440.568 L 660.123,441.041 C 659.163,443.565 658.992,445.668 659.584,447.351 C 660.78,451.031 661.489,455.237 661.727,459.969 C 661.727,460.496 661.963,461.311 662.436,462.415 C 662.923,463.519 663.12,464.36 663.067,464.939 C 663.001,465.517 663.277,465.912 663.869,466.121 L 663.685,465.964 C 664.053,466.384 664.46,467.121 664.947,468.172 C 665.184,468.803 665.656,469.013 666.367,468.803 C 666.957,468.699 667.26,468.383 667.26,467.857 C 667.26,466.595 666.603,465.491 665.301,464.544 C 665.301,463.597 664.999,462.652 664.408,461.705 C 664.289,460.443 664.053,458.708 663.685,456.5 C 663.329,454.291 662.672,451.084 661.727,446.877 C 661.608,446.247 661.543,445.668 661.543,445.143 C 661.543,444.407 661.844,443.249 662.436,441.672 L 662.436,441.356 C 662.685,443.671 662.883,445.352 663.067,446.404 C 663.251,447.456 663.567,448.508 664.053,449.559 L 664.579,450.663 C 664.947,451.189 665.236,452.608 665.472,454.923 L 665.84,457.288 C 665.84,457.919 666.248,458.235 667.089,458.235 C 667.799,458.129 668.155,457.709 668.155,456.973 L 667.799,454.764 C 667.681,453.503 667.379,451.872 666.905,449.875 L 666.196,448.612 C 665.959,448.192 665.683,447.272 665.393,445.852 C 665.092,444.432 664.828,441.62 664.579,437.413 C 664.579,437.308 664.527,437.203 664.408,437.097 C 662.62,433.207 661.371,430.683 660.648,429.527 C 659.939,428.369 658.808,425.897 657.257,422.112 L 657.087,421.639 C 656.245,419.851 655.18,417.485 653.865,414.541 C 653.392,413.489 652.919,411.176 652.433,407.6 C 652.077,405.181 652.617,403.709 654.049,403.184 C 656.073,402.343 657.915,402.605 659.584,403.972 C 660.293,404.603 660.715,405.235 660.832,405.865 C 661.187,407.021 661.608,407.757 662.081,408.073 C 662.791,408.809 664.171,410.281 666.196,412.491 L 667.26,414.068 C 667.615,414.699 668.155,415.803 668.864,417.38 C 669.587,419.379 670.415,421.219 671.375,422.901 C 671.967,423.848 672.741,425.32 673.688,427.317 C 673.688,428.264 674.227,429.684 675.305,431.576 C 677.08,433.469 677.973,435.1 677.973,436.467 C 677.973,437.413 678.512,438.149 679.591,438.675 L 680.116,438.991 C 680.365,439.096 680.957,439.779 681.904,441.041 L 682.259,441.515 C 682.627,442.04 683.152,442.145 683.876,441.829 C 683.993,441.724 684.112,441.567 684.231,441.356 C 684.112,441.461 684.047,441.515 684.047,441.515 C 684.047,442.565 684.585,442.933 685.663,442.619 C 686.136,442.408 686.439,442.145 686.557,441.829 C 686.793,441.199 686.255,439.989 684.94,438.201 C 684.467,437.676 683.928,437.571 683.336,437.887 C 683.1,438.096 682.916,438.307 682.797,438.517 C 682.207,437.887 681.785,437.465 681.549,437.255 L 680.839,436.94 C 680.721,436.835 680.603,436.729 680.484,436.624 C 680.235,435.993 679.827,434.941 679.223,433.469 C 679.353,433.259 679.407,433.049 679.407,432.839 C 679.275,431.997 679.275,431.051 679.407,429.999 C 679.524,428.843 679.761,428.264 680.116,428.264 C 680.484,428.264 681.128,428.212 682.088,428.107 C 684.231,427.791 685.545,427.739 686.019,427.948 C 688.043,428.895 689.317,429.711 689.856,430.393 C 690.396,431.077 691.249,432.26 692.447,433.943 C 692.919,434.573 693.511,435.257 694.233,435.993 C 694.589,436.413 695.061,436.519 695.653,436.309 L 697.087,435.677 C 698.873,435.257 700.071,435.152 700.661,435.363 C 701.727,435.677 702.331,435.941 702.449,436.151 C 703.751,437.833 704.829,439.359 705.657,440.725 C 705.907,441.147 706.38,441.515 707.089,441.829 C 709.113,441.515 710.757,441.672 712.005,442.303 C 713.255,442.933 713.991,443.671 714.24,444.511 L 714.412,446.247 C 714.529,447.403 714.951,449.296 715.66,451.925 C 716.265,453.292 716.62,454.187 716.739,454.607 C 717.329,456.289 717.987,458.919 718.696,462.493 L 718.881,465.964 C 718.881,469.119 718.815,470.801 718.696,471.012 L 718.881,471.012 C 718.644,471.761 718.881,472.195 719.591,472.3 C 720.432,472.511 720.905,472.247 721.023,471.511 C 721.141,471.196 721.195,469.356 721.195,465.991 Z M 669.941,373.371 C 669.232,372.108 667.681,371.163 665.301,370.531 C 660.057,368.744 653.747,366.956 646.36,365.168 C 646.728,364.852 647.109,364.511 647.529,364.143 C 647.951,363.775 649.225,363.748 651.368,364.064 C 659.111,366.903 663.448,368.401 664.408,368.56 C 665.355,368.717 666.853,368.953 668.864,369.269 C 669.113,369.375 670.297,370.216 672.44,371.793 L 674.767,373.687 C 677.973,376.105 680.365,377.577 681.904,378.103 C 681.891,378.208 681.891,378.313 681.904,378.419 C 681.904,379.26 681.733,379.837 681.377,380.153 C 680.537,380.784 679.761,381.257 679.051,381.573 C 678.815,381.573 678.631,381.679 678.512,381.888 C 676.015,379.575 673.163,376.736 669.941,373.371 Z M 653.156,401.291 C 651.249,402.027 650.237,403.815 650.119,406.653 C 649.396,406.444 648.516,406.285 647.437,406.18 C 645.176,404.708 643.809,403.644 643.336,403.012 C 643.311,402.697 643.311,402.197 643.311,401.515 C 643.311,400.831 643.311,399.832 643.311,398.504 C 643.311,397.189 643.311,396.216 643.311,395.585 C 643.311,394.205 643.311,393.364 643.336,393.048 C 644.283,392.417 644.821,391.576 644.94,390.525 C 645.295,390.209 645.795,389.893 646.452,389.579 C 647.109,389.249 648.148,388.724 649.58,387.988 C 649.817,387.777 650.053,387.357 650.291,386.725 C 651.841,387.672 653.156,388.329 654.22,388.697 C 655.299,389.079 656.665,389.525 658.335,390.052 L 659.4,390.525 C 659.768,391.787 660.123,392.839 660.477,393.693 C 661.424,395.48 663.869,397.425 667.799,399.543 C 668.036,399.648 668.22,399.7 668.339,399.7 C 667.379,400.016 666.603,400.279 666.012,400.489 C 665.065,400.909 663.751,401.921 662.081,403.499 C 661.844,403.079 661.543,402.711 661.187,402.395 C 658.689,400.501 656.008,400.133 653.156,401.291 Z M 663.685,406.653 C 663.567,406.548 663.396,406.18 663.159,405.549 C 664.933,403.867 666.221,402.841 666.997,402.473 C 667.773,402.105 669.232,401.659 671.375,401.133 L 672.084,400.975 C 673.991,400.449 675.173,400.344 675.66,400.66 C 676.252,400.975 677.329,401.659 678.867,402.711 C 679.104,403.025 679.223,403.288 679.223,403.499 C 679.223,403.499 679.169,403.552 679.051,403.656 C 676.672,405.865 675.187,407.075 674.583,407.285 L 674.583,407.127 C 673.636,407.337 672.979,407.863 672.624,408.704 C 672.505,408.915 672.321,409.099 672.084,409.256 C 671.848,409.415 670.901,410.703 669.232,413.121 C 669.219,413.121 669.219,413.068 669.232,412.963 L 668.155,411.544 C 666.853,409.651 665.355,408.021 663.685,406.653 Z "/>
	</g>
</svg>