<?xml version="1.0" encoding="UTF-8" standalone="no"?>
<svg version="1.1" xmlns="http://www.w3.org/2000/svg" xmlns:xlink="http://www.w3.org/1999/xlink" width="140" height="130">
	<g id="bsl-r" transform="matrix(1, 0, 0, 1, -10, -515)">
		<path fill="black" stroke="black" stroke-width="0.1" d="M 143.228,622.915 C 143.464,623.652 143.228,624.124 142.519,624.335 C 141.795,624.545 141.269,624.335 140.915,623.704 C 139.836,621.285 137.457,616.973 133.764,610.769 C 129.833,604.144 127.455,600.569 126.625,600.043 C 125.193,599.201 124.299,598.097 123.944,596.731 L 123.76,596.1 C 121.381,589.58 118.884,585.373 116.268,583.48 C 114.835,582.324 110.839,580.483 104.292,577.96 L 100.901,576.697 C 97.0893,575.961 91.976,574.541 85.548,572.439 L 85.0093,572.123 C 83.34,571.281 81.6707,570.861 80,570.861 C 78.5813,570.861 75.5973,571.965 71.0747,574.173 C 65.5933,576.803 62.6493,578.248 62.2413,578.512 C 61.8213,578.775 61.4267,579.327 61.072,580.168 C 60.3613,582.06 60.0067,583.796 60.0067,585.373 C 59.968,585.584 59.9413,585.793 59.9413,586.004 L 59.9413,586.161 C 59.9413,586.161 59.968,586.215 60.0067,586.32 C 59.1653,589.369 58.508,591.577 58.0347,592.944 C 59.8227,593.891 61.256,594.153 62.32,593.733 C 65.1867,592.681 67.4467,590.684 69.116,587.739 C 69.472,587.003 69.8267,585.847 70.1813,584.269 L 68.3933,582.219 C 68.2747,582.008 68.2227,581.797 68.2227,581.588 C 68.2227,581.272 68.3933,581.009 68.7613,580.799 C 69.3533,580.379 69.892,580.431 70.3653,580.956 L 71.9693,583.007 C 77.096,582.797 80.0667,582.481 80.8947,582.06 C 81.3813,581.851 81.8547,581.903 82.3267,582.219 C 87.9267,586.951 91.2,589.527 92.1467,589.948 C 93.1067,590.368 93.672,591.104 93.8427,592.156 C 94.0267,593.208 94.1707,593.733 94.2893,593.733 C 94.408,594.049 94.7093,594.627 95.1827,595.468 C 96.1427,597.256 96.852,598.36 97.3253,598.781 L 97.864,598.308 L 97.1547,591.683 C 97.036,591.052 97.392,590.684 98.22,590.579 C 98.9427,590.473 99.3507,590.789 99.4813,591.525 L 100.007,595.941 C 100.363,595.732 100.783,595.732 101.256,595.941 C 101.624,596.047 101.795,596.309 101.795,596.731 C 101.795,597.045 101.743,597.256 101.624,597.361 L 96.2613,603.513 C 94.828,605.932 93.408,607.667 91.976,608.719 C 89.8333,610.191 87.4533,611.137 84.8253,611.557 C 84.1147,611.768 83.6413,611.505 83.4053,610.769 C 83.2867,610.139 83.6413,609.771 84.4693,609.665 C 87.4533,609.035 89.7147,607.929 91.2533,606.352 C 90.6613,606.143 90.004,606.037 89.2947,606.037 C 87.388,606.037 85.8373,604.933 84.6533,602.724 C 84.4173,602.093 84.6533,601.62 85.364,601.305 C 86.0733,601.095 86.612,601.305 86.968,601.936 C 87.6907,603.303 88.4653,603.987 89.2947,603.987 C 90.608,603.987 91.792,604.197 92.8693,604.617 C 93.1067,604.092 93.58,603.356 94.2893,602.409 L 95.9067,600.516 C 95.1827,599.885 94.236,598.519 93.04,596.415 C 92.9227,596.1 92.6853,595.679 92.3307,595.153 C 91.016,594.627 90.1227,594.523 89.6493,594.837 C 88.9387,595.259 87.388,596.152 85.0093,597.519 L 83.76,598.308 C 82.564,599.044 81.0133,599.991 79.1067,601.147 C 78.8707,602.829 78.752,604.039 78.752,604.775 C 78.752,605.301 79.08,606.116 79.7373,607.22 C 80.3947,608.324 80.724,608.981 80.724,609.192 C 80.684,609.297 80.684,609.403 80.724,609.508 C 80.96,609.717 81.0787,609.98 81.0787,610.296 C 81.0787,610.927 80.724,611.243 80,611.243 C 78.108,611.243 76.912,611.453 76.4387,611.873 C 76.3987,612.084 76.3987,612.189 76.4387,612.189 C 76.4387,612.715 76.2547,613.556 75.9,614.713 C 75.544,615.869 75.36,616.764 75.36,617.395 C 75.36,618.341 75.6627,619.235 76.2547,620.076 C 78.16,622.495 80.54,623.704 83.4053,623.704 C 84.588,623.704 85.548,623.967 86.2573,624.492 C 86.968,625.019 87.8613,625.492 88.9387,625.912 C 89.5307,626.123 91.3707,627.121 94.4733,628.909 C 96.9707,630.381 98.7587,631.065 99.836,630.96 C 102.097,630.749 105.133,631.276 108.945,632.551 L 109.301,632.708 C 110.72,633.235 112.981,634.352 116.084,636.047 C 116.793,636.363 116.912,636.836 116.439,637.48 C 116.084,638.005 115.544,638.111 114.835,637.796 C 113.284,636.955 111.141,635.941 108.407,634.785 L 108.052,634.628 C 104.595,633.352 102.005,632.827 100.271,633.037 C 98.548,633.247 96.432,632.616 93.9347,631.131 C 90.596,629.12 88.6373,628.016 88.0453,627.805 C 86.7307,627.28 85.6667,626.701 84.8253,626.071 C 84.4693,625.86 83.996,625.755 83.4053,625.755 C 79.712,625.755 76.6747,624.229 74.296,621.18 C 72.8627,619.392 72.6787,616.868 73.7573,613.608 C 73.9933,612.872 74.112,612.399 74.112,612.189 C 73.6387,610.507 75.0053,609.56 78.2267,609.349 C 77.0293,607.247 76.4387,605.721 76.4387,604.775 C 76.4387,603.829 76.556,602.409 76.7933,600.516 C 76.912,600.201 77.096,599.937 77.332,599.728 L 83.76,595.784 C 84.9427,595.153 86.4413,594.312 88.216,593.26 C 89.0573,592.629 90.188,592.472 91.6213,592.787 C 91.5027,592.261 91.3187,591.945 91.0813,591.84 C 90.1227,591.42 86.968,589.001 81.6173,584.584 C 77.0827,590.053 74.296,593.129 73.2173,593.812 C 72.1533,594.496 66.9733,597.572 57.68,603.04 C 51.4893,611.663 47.9133,616.659 46.9667,618.025 C 46.4933,618.656 45.9547,618.761 45.364,618.341 C 44.996,618.131 44.824,617.868 44.824,617.552 C 44.824,617.236 44.8773,617.027 44.996,616.921 C 45.9547,615.659 49.5827,610.612 55.892,601.779 C 56.0107,601.673 56.1293,601.568 56.248,601.463 C 60.9013,598.728 66.08,595.627 71.7853,592.156 C 72.508,591.631 74.8213,589.107 78.752,584.584 C 77.096,584.795 74.94,584.952 72.324,585.057 C 72.0867,586.635 71.732,587.844 71.2587,588.685 C 70.4173,590.157 68.932,591.735 66.7893,593.417 C 64.6467,595.1 62.8067,595.941 61.256,595.941 C 59.3493,595.941 57.496,595.364 55.7213,594.207 C 55.4853,593.996 55.3533,593.733 55.3533,593.417 C 55.3533,593.103 55.42,592.892 55.5373,592.787 C 56.0107,592.156 56.7333,589.895 57.68,586.004 C 57.6413,585.793 57.6413,585.584 57.68,585.373 C 57.68,584.007 57.9827,582.271 58.5747,580.168 C 59.4027,577.644 60.3613,576.381 61.4267,576.381 C 71.548,571.335 77.74,568.811 80,568.811 C 82.0253,568.811 84.0493,569.336 86.0733,570.388 L 86.796,570.703 C 87.152,570.913 87.7427,571.124 88.584,571.335 L 88.584,571.176 C 88.584,571.072 88.6373,570.913 88.7547,570.703 C 90.0693,568.811 91.6213,566.444 93.408,563.605 C 94.592,561.923 96.1947,559.241 98.22,555.56 C 98.5747,554.719 99.0613,553.668 99.652,552.405 L 100.547,551.459 C 101.729,549.881 102.333,548.831 102.333,548.304 C 102.333,547.673 101.979,546.884 101.256,545.939 L 97.68,545.78 C 96.7347,547.148 95.604,548.541 94.2893,549.96 C 92.988,551.38 91.3707,553.352 89.4787,555.876 L 89.4787,556.033 L 81.972,564.236 C 81.736,564.552 81.3813,564.709 80.8947,564.709 C 80.54,564.288 79.948,563.605 79.1067,562.659 C 78.476,562.133 78.476,561.66 79.1067,561.239 C 79.712,560.713 80.2507,560.713 80.724,561.239 C 80.8413,561.344 81.0133,561.501 81.2627,561.712 L 87.5067,554.772 C 89.412,552.248 91.0427,550.249 92.4227,548.777 C 93.7893,547.305 95.012,545.78 96.0773,544.203 C 97.1547,543.256 98.456,541.889 100.007,540.101 C 100.48,539.365 100.731,538.629 100.731,537.893 C 100.731,537.052 100.428,536.211 99.836,535.369 L 97.1547,533.949 C 96.3133,533.845 95.6693,534.003 95.1827,534.423 C 94,535.475 92.5933,537.052 90.9893,539.155 C 89.3867,541.259 88.0973,542.573 87.152,543.099 C 85.7187,544.045 84.4173,545.307 83.2213,546.884 C 82.5107,548.041 79.8827,550.828 75.36,555.245 C 75.952,555.876 76.32,556.401 76.4387,556.823 C 76.556,557.559 76.2547,557.979 75.544,558.084 C 74.8213,558.295 74.348,558.057 74.112,557.375 C 73.8747,556.691 72.744,555.719 70.72,554.456 C 70.0107,554.14 69.8787,553.668 70.3653,553.036 C 70.8387,552.511 71.3773,552.405 71.9693,552.721 C 72.56,553.141 73.1653,553.509 73.7573,553.825 C 78.0413,549.513 80.54,546.884 81.2493,545.939 C 82.564,543.94 84.1147,542.415 85.9027,541.364 C 86.612,541.048 87.7427,539.865 89.2947,537.815 C 90.8453,535.764 92.2653,534.108 93.58,532.845 C 94.052,532.425 94.6573,532.163 95.3667,532.057 C 95.2493,531.847 95.1827,531.689 95.1827,531.584 C 95.1827,531.163 95.788,530.164 96.9707,528.587 C 97.812,527.429 98.2853,526.747 98.404,526.536 C 98.2853,526.011 97.628,525.221 96.432,524.171 C 95.604,523.855 94.776,523.801 93.9347,524.012 C 92.6333,524.748 90.5427,526.168 87.6907,528.271 C 87.4533,528.692 87.0333,529.271 86.4413,530.007 L 83.576,533.477 L 79.2907,538.683 C 77.976,539.313 76.32,540.364 74.296,541.837 C 74.0453,542.573 73.2173,543.52 71.7853,544.676 C 71.0747,545.097 70.0107,546.727 68.5773,549.567 C 68.2227,550.197 67.684,550.408 66.9733,550.197 L 60.7173,548.015 C 60.0067,547.805 59.7707,547.371 60.0067,546.74 C 60.3613,546.096 60.9013,545.885 61.6107,546.096 L 66.7893,547.831 C 68.5773,544.676 69.944,542.941 70.8907,542.625 C 71.2587,542.1 71.732,541.443 72.324,540.653 C 72.916,539.865 74.6507,538.735 77.5027,537.263 C 81.3147,532.74 83.8787,529.639 85.18,527.956 C 85.18,527.745 85.364,527.483 85.7187,527.167 L 85.548,527.167 L 85.7187,527.009 L 85.7187,527.009 L 85.9027,527.009 C 85.8627,527.009 85.8627,526.957 85.9027,526.852 C 85.6667,525.064 85.2987,524.065 84.8253,523.855 C 84.352,523.539 83.392,523.539 81.972,523.855 C 79.356,525.011 77.5027,526.011 76.4387,526.852 C 72.744,529.376 70.7467,531.189 70.444,532.293 C 70.1547,533.397 67.4467,535.369 62.32,538.209 C 58.508,541.679 55.84,544.465 54.2893,546.569 C 52.7373,548.988 49.7667,551.512 45.364,554.14 C 44.8773,554.456 44.404,554.404 43.9307,553.983 L 42.8533,553.036 C 42.4973,552.827 42.38,552.563 42.4973,552.248 C 42.7347,548.265 42.9707,545.807 43.2213,544.86 C 43.4573,544.124 42.7347,541.64 41.0653,537.433 L 40.8947,537.117 C 40.776,536.697 40.184,536.027 39.1067,535.133 C 38.028,534.239 37.2,533.74 36.6093,533.635 C 36.136,533.529 35.5973,533.635 35.0053,533.949 C 34.8733,534.16 34.7027,534.265 34.4667,534.265 L 35.7147,538.84 C 35.8333,539.26 35.6493,539.733 35.176,540.26 C 34.7027,540.785 34.4667,541.153 34.4667,541.364 C 34.4667,542.205 34.2827,542.941 33.928,543.572 L 33.0333,547.043 C 32.56,548.831 31.9693,551.617 31.2453,555.403 L 30.7067,563.289 L 32.6787,572.596 C 32.6787,573.227 32.468,574.173 32.048,575.436 C 31.64,576.697 31.4293,577.696 31.4293,578.432 C 31.3907,578.643 31.3907,578.853 31.4293,579.064 L 31.7853,580.799 C 31.7853,581.324 31.9027,582.113 32.14,583.165 C 33.572,584.952 35.7147,586.845 38.568,588.844 C 40,588.844 41.4853,589.264 43.0373,590.105 C 43.7467,590.421 43.8653,590.895 43.392,591.525 C 43.0373,592.051 42.4973,592.156 41.788,591.84 C 40.592,591.209 39.488,590.895 38.476,590.895 C 37.464,590.895 36.0693,590.053 34.2827,588.371 C 34.2427,588.58 34.2427,588.739 34.2827,588.844 C 34.2827,589.053 34.164,589.264 33.928,589.475 C 24.884,599.36 19.8227,604.985 18.7453,606.352 C 18.3893,606.879 17.8507,606.984 17.1413,606.668 C 16.7867,606.457 16.6027,606.143 16.6027,605.721 C 16.6027,605.511 16.668,605.353 16.7867,605.248 C 17.8507,603.881 22.8587,598.308 31.7853,588.528 C 31.7853,587.476 31.4827,586.609 30.8907,585.925 C 30.3,585.241 29.8133,583.637 29.4587,581.115 L 29.1027,579.379 C 29.064,579.064 29.064,578.748 29.1027,578.432 C 29.1027,576.96 29.524,575.015 30.352,572.596 L 28.3933,563.289 L 28.932,555.245 C 29.1693,553.036 29.76,550.144 30.7067,546.569 L 31.7853,542.941 C 32.14,541.784 32.6787,540.469 33.388,538.997 L 31.956,533.477 C 31.916,533.372 31.916,533.319 31.956,533.319 C 31.956,532.793 32.2573,532.425 32.8493,532.215 C 33.0987,532.215 33.336,532.268 33.572,532.372 C 34.756,531.531 36.004,531.268 37.3187,531.584 C 38.16,531.795 39.2507,532.477 40.6307,533.635 C 41.9987,534.791 42.8533,535.737 43.2213,536.473 L 43.2213,536.789 C 44.7587,540.785 45.5347,543.415 45.5347,544.676 C 45.4947,544.887 45.4947,545.097 45.5347,545.307 C 45.2973,546.043 45.0613,548.252 44.824,551.932 L 44.824,551.932 C 48.636,549.513 51.1347,547.357 52.3173,545.465 C 53.9867,543.152 56.7867,540.207 60.7173,536.632 C 60.8347,536.632 60.9013,536.632 60.9013,536.632 C 65.4227,534.108 67.868,532.439 68.2227,531.597 C 68.696,530.125 70.8907,528.021 74.8213,525.3 C 76.2547,524.355 78.2787,523.249 80.8947,521.988 L 81.2627,521.988 C 83.4053,521.463 84.9427,521.463 85.9027,521.988 C 86.8493,522.513 87.5067,523.605 87.8613,525.275 C 90.4907,523.184 92.3307,522.093 93.408,521.988 C 94.828,521.672 96.2613,521.777 97.6933,522.304 C 98.404,522.619 99.1133,523.355 99.836,524.499 C 100.547,525.656 100.783,526.497 100.547,527.023 C 100.428,527.443 99.8893,528.337 98.9427,529.704 C 98.4693,530.321 97.9827,531.057 97.5093,531.899 L 97.6933,531.899 C 97.9307,531.899 98.1013,531.952 98.22,532.057 L 101.256,533.792 C 101.375,533.897 101.492,534.003 101.624,534.108 C 102.571,535.264 103.044,536.527 103.044,537.893 C 103.044,539.471 101.795,541.416 99.2973,543.729 L 101.979,544.045 C 102.216,544.045 102.452,544.151 102.689,544.361 C 104.004,545.728 104.648,547.095 104.648,548.461 C 104.648,549.303 103.885,550.723 102.333,552.721 L 101.624,553.509 C 101.492,553.72 101.085,554.613 100.363,556.191 C 100.007,557.032 99.5347,558.084 98.9427,559.347 C 97.392,561.449 96.1947,563.132 95.3667,564.393 C 93.816,567.339 92.2653,569.809 90.7267,571.808 C 93.224,572.333 96.9707,573.332 101.979,574.804 L 105.187,576.067 C 108.525,577.328 112.745,579.273 117.871,581.903 C 120.132,583.585 122.867,588.107 126.087,595.468 L 126.257,596.257 C 126.376,596.677 127.007,597.309 128.137,598.151 C 129.268,598.992 131.924,602.988 136.091,610.139 C 139.771,616.343 142.163,620.601 143.228,622.915 Z M 54.828,600.043 C 54.828,600.673 54.46,600.989 53.7507,600.989 C 52.6853,600.989 49.9373,598.887 45.5347,594.68 C 44.904,594.259 44.904,593.785 45.5347,593.26 C 46.1253,592.84 46.6653,592.84 47.1387,593.26 C 50.832,596.731 53.0933,598.623 53.9347,598.939 L 53.7507,598.939 C 54.5907,598.939 54.9467,599.307 54.828,600.043 Z M 71.7853,544.519 L 71.7853,544.676 L 71.7853,544.676 Z "/>
	</g>
</svg>