<?xml version="1.0" encoding="UTF-8" standalone="no"?>
<svg version="1.1" xmlns="http://www.w3.org/2000/svg" xmlns:xlink="http://www.w3.org/1999/xlink" width="150" height="140">
	<g id="bsl-s" transform="matrix(1, 0, 0, 1, -145, -510)">
		<path fill="black" stroke="black" stroke-width="0.1" d="M 285.276,613.293 C 285.039,613.924 284.552,614.135 283.843,613.924 C 280.74,612.872 278.781,611.243 277.953,609.035 C 277.585,607.877 276.639,606.143 275.088,603.829 L 275.088,603.829 C 274.379,602.672 273.064,601.227 271.157,599.491 C 269.252,597.756 268.043,596.52 267.504,595.784 C 266.964,595.048 262.705,591.104 254.727,583.953 L 249.731,579.221 C 248.772,578.275 247.116,577.328 244.736,576.381 C 243.659,575.961 242.225,574.384 240.437,571.649 L 239.912,570.703 C 239.425,570.072 238.032,568.732 235.705,566.681 C 233.392,564.631 231.867,563.447 231.157,563.132 C 229.607,562.185 228.541,561.765 227.937,561.869 C 225.795,562.185 224.099,562.527 222.849,562.895 C 221.601,563.263 220.497,564.184 219.551,565.656 C 219.551,565.656 219.603,565.813 219.721,566.129 L 219.721,566.444 C 219.84,566.865 220.379,568.021 221.339,569.915 L 225.268,569.757 C 225.505,569.757 225.86,569.652 226.333,569.441 C 226.688,569.336 226.991,569.336 227.227,569.441 C 228.541,569.652 229.317,570.493 229.553,571.965 C 230.027,574.279 231.092,576.119 232.761,577.487 L 234.733,579.221 C 234.851,579.327 234.969,579.484 235.088,579.695 L 235.443,580.956 L 235.443,580.956 C 237.231,580.956 239.544,581.797 242.409,583.48 C 243.001,583.796 244.789,584.059 247.76,584.269 C 248.483,584.375 248.837,584.743 248.837,585.373 C 248.719,586.004 248.299,586.267 247.589,586.161 C 244.132,585.952 241.989,585.584 241.161,585.057 C 238.781,583.691 236.876,583.007 235.443,583.007 C 234.969,583.007 234.285,583.06 233.392,583.165 C 232.499,583.269 231.841,583.349 231.42,583.401 C 231.013,583.453 230.264,584.111 229.199,585.373 C 228.831,586.635 228.66,587.635 228.66,588.371 C 228.66,588.58 228.712,588.739 228.831,588.844 C 229.317,590.105 230.619,590.999 232.761,591.525 C 233.352,591.631 233.655,591.945 233.655,592.472 C 233.655,593.313 233.181,593.628 232.223,593.417 C 231.157,593.103 229.843,592.419 228.292,591.367 C 228.173,591.367 228.121,591.315 228.121,591.209 C 227.411,590.789 226.569,590.631 225.624,590.736 C 223.481,591.052 222.351,591.735 222.232,592.787 C 222.232,593.103 222.1,593.628 221.864,594.364 C 221.627,595.836 221.575,596.731 221.693,597.045 C 222.403,598.833 223.652,600.043 225.44,600.673 C 226.149,600.884 226.399,601.305 226.149,601.936 C 225.912,602.567 225.44,602.724 224.729,602.409 C 222.941,601.883 221.391,600.569 220.089,598.465 C 219.248,598.571 218.117,599.096 216.685,600.043 C 215.265,600.989 214.608,601.779 214.727,602.409 C 214.727,603.46 214.752,604.565 214.819,605.721 C 214.871,606.879 215.384,607.877 216.329,608.719 C 217.289,610.296 218.893,612.452 221.155,615.185 C 222.468,616.448 224.664,618.288 227.767,620.707 C 227.767,620.812 227.819,620.917 227.937,621.023 C 228.541,621.864 230.027,624.02 232.407,627.489 C 232.761,628.016 232.591,628.489 231.867,628.909 C 231.276,629.225 230.803,629.067 230.448,628.436 C 228.779,626.017 227.345,623.915 226.149,622.127 C 224.493,620.76 222.995,619.497 221.693,618.341 C 221.812,620.549 221.864,621.916 221.864,622.443 L 221.693,623.717 C 221.68,624.559 221.667,624.979 221.667,624.979 C 221.667,625.4 221.68,625.663 221.693,625.768 C 222.284,625.873 223.205,626.688 224.453,628.213 C 225.703,629.737 227.161,630.763 228.831,631.288 C 231.933,632.34 234.615,633.72 236.876,635.403 C 237.112,635.613 237.231,635.876 237.231,636.192 C 237.231,636.612 237.047,636.928 236.692,637.139 C 236.219,637.243 235.797,637.191 235.443,636.98 C 234.496,636.244 232.051,634.983 228.121,633.195 C 225.86,632.459 223.836,630.987 222.048,628.777 C 221.812,628.463 221.509,628.095 221.155,627.673 C 219.84,627.359 219.313,625.939 219.551,623.401 L 219.551,622.455 C 219.669,621.719 219.551,619.668 219.196,616.303 C 218.355,614.831 216.869,612.78 214.727,610.152 C 213.293,608.889 212.584,607.207 212.584,605.104 L 212.557,603.684 C 212.557,603.473 212.557,603.211 212.557,602.896 C 212.557,602.58 212.571,602.317 212.584,602.107 C 212.584,601.265 213.004,600.503 213.832,599.82 C 214.66,599.136 215.436,598.505 216.159,597.927 C 216.869,597.348 217.999,596.901 219.551,596.585 C 219.551,596.06 219.603,595.271 219.721,594.22 C 219.84,593.471 219.905,592.997 219.905,592.787 C 219.905,591.735 220.681,590.789 222.232,589.948 C 223.769,589.107 225.203,588.739 226.517,588.844 C 226.28,586.529 226.517,585.005 227.227,584.269 C 228.896,582.271 230.264,581.272 231.328,581.272 C 231.579,581.272 231.985,581.272 232.591,581.272 L 233.116,581.115 L 232.945,580.325 L 231.157,578.905 C 230.197,578.064 229.369,576.96 228.66,575.593 C 226.031,578.012 224.309,579.379 223.481,579.695 C 221.339,580.641 220.024,581.483 219.551,582.219 C 219.432,582.219 219.367,582.271 219.367,582.376 C 219.012,582.901 218.301,584.111 217.224,586.004 L 217.224,586.161 C 214.963,590.999 212.991,593.944 211.335,594.995 C 206.919,597.94 201.62,602.147 195.429,607.615 C 194.364,608.245 193.235,609.139 192.037,610.296 C 191.801,610.612 191.144,611.611 190.079,613.293 C 188.173,616.448 187.096,618.341 186.859,618.972 C 185.071,623.073 183.585,625.597 182.403,626.543 C 181.797,627.069 181.272,627.069 180.785,626.543 C 180.549,626.228 181.088,624.913 182.403,622.6 C 183.112,621.233 183.888,619.813 184.716,618.341 C 185.071,617.605 186.201,615.607 188.108,612.347 C 188.712,611.4 189.304,610.48 189.895,609.587 C 190.5,608.692 191.393,607.877 192.577,607.141 C 192.932,606.931 193.352,606.616 193.825,606.195 C 200.135,600.621 205.551,596.363 210.087,593.417 C 211.269,592.576 212.939,589.895 215.081,585.373 L 215.265,585.216 C 215.856,583.953 216.632,582.639 217.579,581.272 L 217.579,581.272 C 218.052,580.431 219.669,579.327 222.403,577.96 C 223.244,577.644 225.019,576.172 227.767,573.543 C 227.648,573.121 227.529,572.807 227.411,572.596 C 227.293,572.385 227.109,572.071 226.872,571.649 L 226.688,571.492 C 226.333,571.597 225.86,571.649 225.268,571.649 L 221.509,571.808 C 221.272,571.808 221.101,571.808 220.983,571.808 L 217.579,573.227 C 217.105,573.437 215.739,572.544 213.477,570.545 C 212.4,569.704 211.873,568.757 211.873,567.707 C 211.873,567.707 212.044,567.233 212.4,566.287 C 213.241,564.709 214.844,560.608 217.224,553.983 L 217.579,553.036 C 218.183,551.459 218.828,550.303 219.551,549.567 C 220.733,548.62 222.1,547.252 223.652,545.465 L 228.476,540.26 L 231.157,537.263 L 231.696,536.632 C 232.997,535.369 233.655,534.423 233.655,533.792 C 233.655,532.74 233.419,531.899 232.945,531.268 C 232.34,531.163 231.447,531.005 230.264,530.795 L 230.08,531.111 C 228.66,532.899 226.807,534.949 224.545,537.263 L 223.652,537.893 C 223.179,538.104 222.587,538.577 221.864,539.313 C 220.917,541.101 219.669,542.415 218.117,543.256 C 216.093,544.203 214.66,545.571 213.832,547.357 C 213.596,547.884 213.175,548.409 212.584,548.935 C 212.228,549.881 212.044,550.671 212.044,551.301 C 212.044,551.932 210.441,555.719 207.22,562.659 L 206.865,563.289 L 206.865,563.447 C 207.103,563.447 207.379,563.447 207.667,563.447 C 207.969,563.447 208.232,563.657 208.469,564.079 C 208.692,564.393 208.692,564.761 208.469,565.183 C 208.115,565.708 206.865,565.577 204.723,564.788 C 202.58,564 201.213,562.921 200.608,561.555 C 200.372,561.028 200.556,560.66 201.148,560.451 C 201.871,560.135 202.436,560.267 202.843,560.844 C 203.264,561.423 203.947,562.028 204.907,562.659 L 204.907,562.501 L 205.077,561.869 C 206.629,558.609 208.18,555.035 209.717,551.144 C 209.836,550.197 210.139,549.145 210.612,547.989 C 210.967,547.779 211.269,547.384 211.505,546.805 C 211.743,546.227 212.517,545.307 213.832,544.045 C 215.133,542.784 216.212,541.943 217.04,541.521 C 218.355,540.891 219.313,539.892 219.905,538.524 C 220.024,538.104 220.325,537.761 220.799,537.499 C 221.272,537.236 221.693,536.947 222.048,536.632 L 222.757,535.843 C 223.717,535.001 225.557,533.056 228.292,530.007 C 229.015,529.165 229.369,528.481 229.369,527.956 C 229.369,527.535 229.041,527.088 228.384,526.615 C 227.727,526.141 227.345,525.695 227.227,525.275 C 226.517,524.853 225.44,524.696 224.007,524.801 C 223.179,524.907 222.232,525.589 221.155,526.852 C 219.012,529.376 216.895,531.427 214.819,533.004 C 212.728,534.581 210.323,536.527 207.575,538.84 C 207.457,538.945 207.128,539.34 206.603,540.023 C 206.064,540.707 205.407,541.679 204.631,542.941 C 203.855,544.203 202.699,545.939 201.148,548.147 C 200.792,548.672 199.899,550.46 198.465,553.509 C 197.283,555.928 196.507,557.191 196.152,557.296 L 195.968,557.453 C 195.849,557.559 195.797,557.664 195.797,557.768 C 194.601,558.609 191.92,557.664 187.752,554.929 C 187.161,554.509 187.043,554.036 187.397,553.509 C 187.871,552.984 188.409,552.931 189.001,553.352 C 191.749,555.245 193.589,556.191 194.548,556.191 C 195.732,550.408 196.441,546.675 196.691,544.992 C 196.809,544.465 196.863,544.097 196.863,543.888 L 196.691,543.256 C 196.691,542.836 196.928,542.047 197.401,540.891 C 197.637,540.26 198.176,539.471 199.005,538.524 L 200.792,534.581 C 201.148,533.845 202.277,532.531 204.184,530.637 L 206.156,528.587 C 207.22,526.904 208.115,525.643 208.824,524.801 C 209.073,524.591 209.192,524.275 209.192,523.855 C 209.192,522.172 208.416,521.068 206.865,520.541 C 205.669,520.121 204.604,520.173 203.645,520.7 C 201.871,521.961 200.556,523.171 199.715,524.328 L 199.36,524.801 L 198.833,525.589 C 198.597,525.695 197.94,526.431 196.863,527.799 L 196.152,528.744 C 194.72,530.217 192.879,532.583 190.619,535.843 C 190.013,536.895 189.239,538.629 188.292,541.048 C 187.819,542.836 187.227,545.571 186.504,549.251 C 186.267,551.669 185.728,553.036 184.9,553.352 C 184.072,553.668 182.876,554.456 181.325,555.719 C 180.615,556.98 178.407,560.24 174.713,565.497 C 174.357,565.919 173.951,566.076 173.464,565.971 C 172.991,565.865 172.688,565.603 172.571,565.183 C 171.86,558.347 171.085,554.088 170.256,552.405 C 168.705,549.671 167.509,548.304 166.681,548.304 C 165.735,548.304 164.473,548.515 162.935,548.935 C 162.816,549.04 162.632,549.04 162.396,548.935 L 163.829,554.772 C 163.803,554.772 163.803,554.824 163.829,554.929 C 163.829,555.035 163.763,555.192 163.645,555.403 L 162.935,556.507 C 162.921,557.348 162.921,558.084 162.935,558.715 C 162.935,559.136 163.013,559.715 163.197,560.451 C 163.381,561.187 163.461,561.765 163.461,562.185 C 163.461,563.027 163.289,563.711 162.935,564.236 C 161.029,566.655 160.069,569.073 160.069,571.492 C 160.069,572.228 160.464,574.147 161.239,577.249 C 162.001,580.352 162.58,582.219 162.935,582.849 C 163.289,583.48 163.461,584.821 163.461,586.872 C 163.461,588.923 163.553,590.132 163.737,590.5 C 163.908,590.868 164.117,591.84 164.355,593.417 C 164.355,594.153 164.473,594.995 164.723,595.941 C 165.196,596.152 165.432,596.468 165.432,596.888 C 165.432,597.624 162.751,600.937 157.388,606.825 C 154.891,609.665 153.352,610.875 152.748,610.453 C 152.511,610.348 152.392,610.085 152.392,609.665 C 152.392,609.455 153.471,608.14 155.613,605.721 C 159.899,600.989 162.331,598.097 162.935,597.045 C 162.58,596.52 162.277,595.364 162.041,593.576 C 162.041,593.155 161.857,592.104 161.503,590.421 C 161.265,589.053 161.147,587.949 161.147,587.108 C 161.147,585.111 161.081,584.007 160.963,583.796 C 160.489,583.06 159.872,581.061 159.096,577.801 C 158.321,574.541 157.927,572.439 157.927,571.492 C 157.927,568.757 158.939,565.971 160.963,563.132 C 161.2,562.921 161.319,562.605 161.319,562.185 C 161.319,561.869 161.2,561.317 160.963,560.529 C 160.727,559.74 160.608,559.083 160.608,558.557 C 160.608,556.98 160.727,556.033 160.963,555.719 L 161.503,554.772 L 160.069,548.62 C 160.056,548.515 160.056,548.409 160.069,548.304 C 160.069,547.779 160.372,547.463 160.963,547.357 C 161.2,547.357 161.436,547.411 161.687,547.516 C 161.804,547.305 162.041,547.2 162.396,547.2 C 164.065,546.675 165.485,546.412 166.681,546.412 C 168.351,546.412 170.191,548.093 172.215,551.459 C 173.056,552.931 173.819,556.455 174.541,562.028 C 177.276,558.137 178.88,555.719 179.367,554.772 C 179.721,554.245 181.207,553.247 183.823,551.775 C 183.94,551.564 184.151,550.604 184.453,548.869 C 184.743,547.135 185.321,544.373 186.149,540.588 C 186.267,540.377 187.043,538.591 188.476,535.225 C 189.185,533.543 190.079,532.255 191.144,531.36 C 192.221,530.467 193.287,529.231 194.364,527.667 L 195.075,526.877 C 195.443,526.247 196.152,525.353 197.217,524.196 L 197.585,523.723 L 197.94,523.249 C 198.413,522.619 199.847,521.304 202.225,519.307 C 204.013,518.255 205.853,518.097 207.76,518.833 C 210.139,519.675 211.335,521.357 211.335,523.868 C 211.335,524.709 211.099,525.392 210.612,525.919 C 210.02,526.747 209.127,528.008 207.944,529.691 L 207.944,529.691 L 205.801,531.899 C 204.249,533.372 203.291,534.528 202.935,535.369 L 202.225,536.632 C 201.989,537.473 201.384,538.577 200.437,539.944 C 199.36,540.68 198.887,541.784 199.005,543.256 L 199.005,543.888 C 199.005,544.203 198.952,544.676 198.833,545.307 C 198.716,545.939 198.465,547.2 198.111,549.093 C 198.716,548.041 199.189,547.305 199.544,546.884 C 200.253,546.043 201.265,544.519 202.58,542.311 L 202.58,542.152 C 202.935,541.416 203.592,540.364 204.539,538.997 C 205.025,538.472 205.499,537.945 205.972,537.42 L 205.972,537.42 C 208.232,535.527 210.612,533.581 213.123,531.584 C 215.265,530.007 217.343,528.008 219.367,525.589 C 220.089,524.748 221.509,523.855 223.652,522.908 C 227.109,522.592 229.015,523.224 229.369,524.801 L 229.553,524.959 C 230.855,526.011 231.512,527.009 231.512,527.956 C 231.512,528.271 231.46,528.587 231.328,528.903 C 232.997,529.008 234.128,529.376 234.733,530.007 C 235.561,530.953 235.981,532.215 235.981,533.792 C 235.981,534.844 235.088,536.211 233.3,537.893 L 232.761,538.524 C 231.092,540.312 230.264,541.311 230.264,541.521 L 225.44,546.727 C 223.769,548.515 222.351,549.935 221.155,550.985 C 220.681,551.407 220.208,552.248 219.721,553.509 L 219.367,554.613 C 216.632,562.185 214.844,566.603 214.016,567.864 C 214.253,568.495 215.384,569.599 217.408,571.176 L 219.196,570.388 C 218.236,568.6 217.697,567.444 217.579,566.917 L 217.408,566.444 C 217.381,566.024 217.381,565.761 217.408,565.656 C 217.408,565.235 217.527,564.867 217.763,564.552 C 219.064,562.659 220.471,561.501 221.956,561.081 C 223.441,560.66 225.321,560.292 227.583,559.977 C 229.133,559.767 230.921,560.345 232.945,561.712 C 234.615,560.976 235.627,560.345 235.981,559.819 C 236.809,558.663 238.479,557.4 240.977,556.033 C 243.237,554.772 245.263,555.087 247.049,556.98 C 249.075,559.188 249.14,560.976 247.233,562.343 C 246.629,563.184 245.447,564.447 243.659,566.129 L 240.621,568.337 C 241.213,568.968 241.581,569.441 241.7,569.757 L 242.409,570.703 C 243.12,571.86 244.197,573.175 245.631,574.647 C 248.364,575.593 250.323,576.697 251.519,577.96 C 251.756,578.169 253.36,579.695 256.343,582.533 C 264.323,589.895 268.608,593.944 269.199,594.68 C 269.553,594.995 270.421,595.811 271.788,597.125 C 273.156,598.439 274.917,600.359 277.06,602.883 C 277.888,604.144 278.9,605.984 280.096,608.403 C 280.688,609.98 282.173,611.189 284.552,612.031 C 285.276,612.347 285.512,612.767 285.276,613.293 Z M 245.801,560.924 C 246.511,560.292 246.34,559.399 245.263,558.241 C 244.671,557.611 243.776,557.4 242.58,557.611 C 241.752,557.716 240.201,558.768 237.94,560.765 C 237.349,561.501 236.271,562.291 234.733,563.132 C 236.271,564.393 237.769,565.656 239.189,566.917 C 239.425,566.707 239.793,566.444 240.267,566.129 L 242.409,564.552 C 243.001,563.711 244.132,562.501 245.801,560.924 Z "/>
	</g>
</svg>