<?xml version="1.0" encoding="UTF-8" standalone="no"?>
<svg version="1.1" xmlns="http://www.w3.org/2000/svg" xmlns:xlink="http://www.w3.org/1999/xlink" width="150" height="140">
	<g id="bsl-t" transform="matrix(1, 0, 0, 1, -290, -510)">
		<path fill="black" stroke="black" stroke-width="0.1" d="M 433.552,614.713 C 433.316,614.713 433.065,614.608 432.829,614.397 C 430.804,612.715 428.307,610.664 425.336,608.245 C 423.785,607.929 422.839,607.877 422.471,608.088 C 421.524,608.613 420.577,608.667 419.619,608.245 C 419.381,608.14 419.145,607.929 418.908,607.615 C 417.712,606.773 416.884,606.405 416.397,606.511 C 416.043,606.511 414.557,606.773 411.941,607.299 L 411.219,607.457 C 411.219,607.983 410.981,608.351 410.509,608.561 C 410.036,608.771 409.641,608.745 409.352,608.483 C 409.049,608.219 408.76,608.035 408.459,607.929 C 408.156,607.825 407.893,607.667 407.656,607.457 C 406.697,606.931 405.868,606.616 405.159,606.511 C 404.317,606.3 403.516,606.273 402.74,606.432 C 401.964,606.589 400.743,606.931 399.085,607.457 C 398.481,607.772 397.535,608.403 396.22,609.349 C 396.812,609.665 397.469,609.928 398.192,610.139 C 398.901,610.348 399.256,610.717 399.256,611.243 C 399.256,611.873 398.836,612.189 398.008,612.189 C 397.061,612.189 395.392,611.505 393,610.139 L 391.396,609.192 C 390.804,608.876 388.715,607.983 385.152,606.511 L 383.18,605.721 C 382.116,605.196 380.447,603.933 378.185,601.936 L 374.609,599.885 C 374.019,599.464 372.165,598.939 369.076,598.308 L 368.353,598.151 C 367.288,597.519 365.684,596.625 363.541,595.468 C 362.583,594.943 361.333,594.575 359.783,594.364 L 359.612,595.627 C 359.612,596.047 359.309,596.363 358.717,596.573 C 358.125,596.783 357.048,597.099 355.497,597.519 C 355.024,597.729 354.064,597.835 352.644,597.835 C 352.881,598.045 353.117,598.203 353.355,598.308 L 356.22,600.201 C 357.757,600.937 360.032,602.199 363.003,603.987 C 363.949,604.617 365.197,605.407 366.749,606.352 C 367.945,606.984 369.549,607.825 371.573,608.876 C 374.308,611.295 378.777,614.817 384.968,619.445 C 386.283,620.287 387.649,621.391 389.083,622.757 C 389.556,624.545 391.344,627.28 394.432,630.96 C 397.299,633.273 399.02,635.061 399.612,636.323 C 399.967,637.059 399.729,637.532 398.901,637.743 C 398.192,638.059 397.653,637.9 397.299,637.269 C 396.457,636.219 394.972,634.64 392.829,632.537 C 390.095,630.329 388.071,627.332 386.756,623.547 L 386.572,623.388 C 386.217,627.805 386.335,630.54 386.94,631.591 C 387.768,633.063 390.095,634.851 393.893,636.955 C 394.499,637.375 394.616,637.848 394.261,638.373 C 393.775,639.005 393.184,639.163 392.473,638.847 C 388.425,636.533 385.861,634.431 384.784,632.537 C 383.837,630.96 383.653,627.332 384.259,621.653 L 383.364,621.18 C 381.695,620.024 379.132,618.077 375.688,615.344 C 373.781,613.556 371.876,611.979 369.969,610.612 C 366.631,609.139 363.779,607.457 361.399,605.564 C 359.848,604.723 357.64,603.513 354.787,601.936 L 352.105,600.201 C 350.791,599.36 349.844,598.571 349.253,597.835 C 346.269,601.095 344.429,602.988 343.705,603.513 C 342.049,604.985 339.42,606.457 335.859,607.929 C 335.017,608.561 332.164,612.925 327.275,621.023 C 325.855,623.336 325.08,624.597 324.961,624.808 C 324.488,625.333 323.883,625.387 323.173,624.965 C 322.581,624.651 322.516,624.177 322.989,623.547 C 323.108,623.336 323.831,622.179 325.132,620.076 C 330.613,611.032 333.768,606.352 334.609,606.037 C 337.817,604.88 340.315,603.513 342.103,601.936 C 342.693,601.411 344.6,599.36 347.82,595.784 C 347.584,595.153 347.465,594.68 347.465,594.364 C 347.465,593.313 348.175,592.261 349.608,591.209 C 349.727,591.104 349.911,591.052 350.147,591.052 L 351.921,590.736 C 352.053,589.789 352.552,588.923 353.447,588.133 C 354.34,587.345 355.143,586.425 355.852,585.373 L 357.113,583.953 C 359.967,580.063 361.399,577.696 361.399,576.855 C 361.399,576.645 361.333,576.435 361.215,576.224 C 361.176,575.909 361.176,575.699 361.215,575.593 C 361.215,574.752 361.872,574.016 363.187,573.385 C 366.868,571.808 369.431,570.02 370.864,568.021 C 372.047,566.444 374.019,564.84 376.752,563.211 C 379.487,561.581 380.92,560.503 381.037,559.977 C 381.037,559.347 380.683,558.663 379.973,557.927 C 379.723,557.611 379.487,557.453 379.249,557.453 L 378.724,557.453 C 377.883,557.453 376.397,558.084 374.255,559.347 C 372.94,560.187 372.047,560.765 371.573,561.081 C 370.745,561.501 369.431,562.237 367.643,563.289 C 366.211,563.92 364.909,564.656 363.712,565.497 C 361.688,566.76 359.545,568.389 357.285,570.388 C 356.693,570.913 356.101,570.913 355.497,570.388 C 354.865,569.967 354.865,569.493 355.497,568.968 C 354.551,568.653 354.367,568.075 354.971,567.233 C 358.06,563.132 359.612,560.608 359.612,559.661 C 359.729,558.295 361.163,556.769 363.896,555.087 C 364.133,554.981 364.791,554.088 365.855,552.405 C 366.46,551.459 367.353,550.249 368.537,548.777 C 369.615,547.936 370.68,546.175 371.757,543.493 C 372.823,540.812 374.019,539.051 375.32,538.209 C 376.043,537.683 376.397,536.368 376.397,534.265 C 376.397,533.319 375.556,532.372 373.9,531.427 C 373.059,533.004 371.639,535.264 369.615,538.209 C 368.537,539.26 367.223,540.628 365.684,542.311 C 365.329,543.152 363.896,544.781 361.399,547.2 C 360.084,548.567 358.06,550.671 355.327,553.509 C 354.485,554.351 353.591,555.349 352.644,556.507 L 352.816,556.349 C 352.697,557.085 352.224,557.4 351.396,557.296 C 350.673,557.296 350.317,556.98 350.317,556.349 C 350.317,555.613 351.396,554.193 353.539,552.089 C 354.853,550.617 356.877,548.515 359.612,545.78 C 360.795,544.624 362.043,543.204 363.357,541.521 C 364.317,540.575 365.737,539.051 367.643,536.947 C 368.603,535.159 370.259,532.636 372.651,529.376 C 373.124,528.849 373.295,527.956 373.177,526.693 L 373.177,526.22 L 371.573,525.275 C 369.667,525.905 368.537,526.431 368.181,526.852 C 367.827,527.272 366.749,528.324 364.961,530.007 C 364.133,530.743 362.529,532.109 360.137,534.108 C 359.191,535.58 357.232,537.736 354.248,540.575 C 353.184,541.311 351.396,542.888 348.899,545.307 L 347.111,547.043 C 346.624,547.463 345.796,548.461 344.6,550.04 C 342.103,553.404 340.38,555.087 339.42,555.087 C 338.948,555.087 338.592,554.903 338.356,554.535 C 338.119,554.167 337.633,554.061 336.923,554.22 C 336.213,554.377 335.792,554.088 335.675,553.352 C 335.437,552.616 335.74,552.195 336.568,552.089 L 336.752,551.932 C 336.752,551.827 336.805,551.721 336.923,551.617 C 338.475,547.305 339.671,544.413 340.499,542.941 C 341.327,541.469 342.641,539.313 344.429,536.473 C 345.375,535.527 346.269,534.003 347.111,531.899 C 347.111,531.689 347.163,531.584 347.281,531.584 C 348.123,530.532 349.305,528.955 350.857,526.852 L 352.105,525.275 C 353.42,523.487 354.077,522.383 354.077,521.961 C 354.077,520.911 353.355,520.121 351.935,519.596 L 350.317,519.911 C 350.081,520.227 349.188,521.279 347.649,523.065 C 345.612,525.38 342.996,527.956 339.789,530.795 C 337.647,532.583 336.332,534.108 335.859,535.369 C 334.78,536.947 333.295,539.155 331.389,541.995 C 330.193,544.203 328.235,546.78 325.5,549.724 L 321.031,554.772 L 316.561,561.555 C 316.207,562.185 315.668,562.343 314.957,562.028 C 314.603,561.817 314.419,561.501 314.419,561.081 C 314.3,561.187 314.183,561.239 314.064,561.239 C 313.472,561.66 312.933,561.555 312.46,560.924 C 311.5,559.451 311.212,558.189 311.567,557.137 C 311.527,557.032 311.527,556.928 311.567,556.823 C 311.567,556.296 311.264,555.035 310.672,553.036 L 310.317,551.932 C 309.963,550.88 309.187,549.04 307.991,546.412 C 306.808,545.044 305.848,544.256 305.139,544.045 C 304.416,543.94 303.285,544.151 301.747,544.676 L 303.705,551.301 C 303.667,551.407 303.667,551.512 303.705,551.617 C 303.705,551.932 303.588,552.195 303.351,552.405 L 302.457,553.195 C 302.339,554.036 302.273,554.824 302.273,555.56 C 302.273,555.876 302.339,556.296 302.457,556.823 C 302.575,557.348 302.628,557.768 302.628,558.084 C 302.628,558.609 302.483,559.399 302.181,560.451 C 301.892,561.501 301.747,562.291 301.747,562.816 C 301.747,564.92 301.261,567.128 300.315,569.441 C 300.077,570.177 299.959,570.808 299.959,571.335 C 299.959,571.86 300.077,572.333 300.315,572.753 C 301.143,574.016 302.693,577.433 304.955,583.007 C 305.191,583.848 305.848,586.425 306.927,590.736 C 306.887,590.841 306.873,590.947 306.873,591.052 C 306.873,591.157 306.887,591.315 306.927,591.525 C 306.44,592.261 305.428,593.628 303.889,595.627 C 303.285,596.257 302.036,598.097 300.131,601.147 L 298.711,603.513 C 298.224,604.039 297.632,604.144 296.923,603.829 C 296.568,603.619 296.384,603.303 296.384,602.883 C 296.384,602.672 296.449,602.461 296.568,602.251 L 297.988,600.043 C 298.947,598.571 300.248,596.625 301.917,594.207 C 302.759,593.26 303.588,592.156 304.416,590.895 C 303.469,586.793 302.877,584.427 302.628,583.796 C 300.616,578.643 299.119,575.331 298.172,573.859 C 297.699,573.121 297.448,572.281 297.448,571.335 C 297.448,570.388 297.632,569.493 297.988,568.653 C 298.829,566.024 299.236,564.079 299.236,562.816 C 299.236,562.291 299.395,561.501 299.683,560.451 C 299.985,559.399 300.131,558.609 300.131,558.084 C 300.131,557.768 300.077,557.348 299.959,556.823 C 299.841,556.296 299.775,555.876 299.775,555.56 C 299.775,554.613 299.893,553.615 300.131,552.563 C 300.131,552.353 300.248,552.143 300.499,551.932 L 301.208,551.301 L 299.236,545.149 C 299.211,545.044 299.211,544.939 299.236,544.833 C 299.236,544.308 299.539,543.94 300.131,543.729 C 300.012,543.309 300.196,542.993 300.669,542.784 C 302.575,541.943 304.244,541.679 305.664,541.995 C 307.82,542.415 309.305,543.572 310.133,545.465 C 311.448,548.304 312.276,550.303 312.631,551.459 L 312.999,552.405 C 313.827,555.245 314.129,557.032 313.88,557.768 C 313.761,558.084 313.88,558.531 314.248,559.109 C 314.603,559.688 314.773,560.029 314.773,560.135 L 319.059,553.509 L 323.528,548.461 C 324.961,546.884 326.867,544.413 329.247,541.048 C 329.837,539.996 330.797,538.577 332.099,536.789 C 332.585,536.159 333.059,535.475 333.532,534.739 C 334.123,533.161 335.621,531.321 338.001,529.217 C 341.091,526.484 343.653,524.012 345.677,521.804 L 348.715,518.333 C 348.832,518.123 349.069,518.019 349.424,518.019 L 351.567,517.387 C 351.803,517.387 352.053,517.387 352.289,517.387 C 355.024,518.019 356.391,519.596 356.391,522.12 C 356.391,522.856 355.615,524.328 354.077,526.536 L 353,528.113 C 351.803,529.691 350.62,531.216 349.424,532.688 C 348.477,534.896 347.557,536.684 346.664,538.051 C 345.769,539.419 344.481,541.521 342.825,544.361 C 341.865,545.517 340.683,548.199 339.249,552.405 C 339.368,552.405 339.487,552.459 339.604,552.563 C 340.077,552.037 341.091,550.828 342.641,548.935 C 343.837,547.148 344.731,545.991 345.323,545.465 L 346.927,543.888 C 348.241,542.625 350.2,540.943 352.816,538.84 C 353.656,538.315 354.603,537.263 355.681,535.685 C 356.745,534.108 357.705,533.004 358.533,532.372 C 360.084,531.216 361.688,529.953 363.357,528.587 C 364.553,527.535 365.5,526.536 366.211,525.589 C 366.933,524.643 368.655,523.801 371.389,523.065 C 371.757,522.961 372.112,523.013 372.467,523.224 L 375.149,524.801 C 375.385,525.011 375.556,525.275 375.688,525.589 C 375.805,527.061 375.621,528.376 375.149,529.533 C 376.7,530.48 377.764,531.321 378.356,532.057 C 378.961,532.793 379.079,534.108 378.724,536 C 378.475,537.893 377.883,539.155 376.936,539.787 C 375.977,540.417 374.939,542.047 373.808,544.676 C 372.677,547.305 371.521,549.145 370.324,550.197 C 369.851,550.617 369.049,551.748 367.919,553.588 C 366.788,555.429 365.921,556.507 365.329,556.823 C 363.187,558.084 362.109,559.031 362.109,559.661 C 362.109,560.713 360.86,563.027 358.363,566.603 C 359.783,565.445 361.097,564.499 362.293,563.763 C 365.145,561.869 367.827,560.292 370.324,559.031 C 370.561,559.031 371.403,558.557 372.823,557.611 C 375.333,556.033 377.292,555.245 378.724,555.245 L 379.249,555.245 C 380.328,555.245 381.275,555.771 382.116,556.823 C 382.944,557.873 383.364,558.925 383.364,559.977 C 383.364,561.239 381.576,562.975 378.001,565.183 C 376.7,565.919 374.544,567.653 371.573,570.388 C 369.076,572.701 366.631,574.332 364.252,575.277 C 364.015,575.488 363.831,575.645 363.712,575.751 L 363.712,575.751 C 363.831,576.172 363.896,576.54 363.896,576.855 C 363.896,577.487 363.503,578.459 362.74,579.773 C 361.964,581.088 360.741,582.849 359.072,585.057 L 357.824,586.635 C 356.983,587.792 356.155,588.791 355.327,589.632 C 354.853,590.053 354.551,590.473 354.432,590.895 L 358.179,591.999 L 359.256,591.999 L 359.427,591.999 C 360.505,592.208 362.293,592.787 364.791,593.733 C 365.855,594.364 367.223,595.153 368.892,596.1 L 369.615,596.257 C 372.94,596.993 375.031,597.572 375.859,597.992 L 379.619,600.201 C 379.619,600.201 379.671,600.253 379.789,600.359 C 381.932,602.251 383.417,603.356 384.259,603.671 L 386.217,604.46 C 387.887,605.196 390.029,606.143 392.645,607.299 L 394.077,608.245 C 394.905,607.615 396.168,606.72 397.824,605.564 C 398.784,605.039 400.151,604.723 401.939,604.617 C 403.003,604.197 404.265,604.092 405.684,604.301 C 406.644,604.512 407.775,604.985 409.076,605.721 L 411.403,605.248 C 412.599,605.039 414.019,604.775 415.688,604.46 C 416.635,604.144 417.777,604.355 419.079,605.091 C 419.684,605.511 420.276,605.932 420.867,606.352 C 424.088,606.143 425.863,606.089 426.231,606.195 C 426.467,606.195 426.637,606.248 426.756,606.352 C 428.189,607.615 430.752,609.823 434.445,612.977 C 434.683,613.188 434.801,613.451 434.801,613.767 C 434.801,614.397 434.38,614.713 433.552,614.713 Z M 357.469,594.049 L 353,592.787 L 350.857,593.103 C 350.147,593.628 349.792,593.996 349.792,594.207 C 350.028,594.627 350.265,595.1 350.501,595.627 C 352.763,595.732 354.196,595.705 354.787,595.548 C 355.379,595.389 356.22,595.1 357.285,594.68 Z "/>
	</g>
</svg>