<?xml version="1.0" encoding="UTF-8" standalone="no"?>
<svg version="1.1" xmlns="http://www.w3.org/2000/svg" xmlns:xlink="http://www.w3.org/1999/xlink" width="185" height="130">
	<g id="bsl-u" transform="matrix(1, 0, 0, 1, -440, -510)">
		<path fill="black" stroke="black" stroke-width="0.1" d="M 618.373,604.301 C 618.847,605.039 618.663,605.564 617.835,605.88 C 617.112,606.195 616.585,606.037 616.231,605.407 C 614.797,603.092 613.011,600.305 610.868,597.045 C 609.553,596.415 608.607,596.152 608.015,596.257 C 606.464,596.677 605.295,596.257 604.532,594.995 C 603.756,593.733 603.152,593.076 602.744,593.024 C 602.323,592.971 600.68,592.84 597.828,592.629 L 596.933,592.629 C 596.816,592.944 596.632,593.155 596.395,593.26 C 595.804,593.681 595.028,593.313 594.081,592.156 C 593.845,592.051 593.661,591.893 593.543,591.683 C 592.715,590.841 591.992,590.263 591.4,589.948 C 590.453,589.527 589.585,589.291 588.811,589.237 C 588.035,589.185 586.76,589.159 584.972,589.159 C 584.249,589.369 583.065,589.789 581.396,590.421 C 581.396,590.525 581.817,590.841 582.645,591.367 C 583.487,591.893 583.895,592.367 583.895,592.787 C 583.895,593.733 583.355,594.049 582.291,593.733 C 581.212,593.523 579.727,592.367 577.821,590.263 L 576.572,589.001 C 576.099,588.476 574.377,587.003 571.393,584.584 L 569.605,583.165 C 568.659,582.428 567.411,580.747 565.859,578.117 L 563.007,574.963 C 562.52,574.436 560.851,573.437 557.999,571.965 L 557.288,571.649 C 556.447,570.808 555.199,569.493 553.529,567.707 C 552.701,566.971 551.571,566.235 550.137,565.497 L 549.612,566.76 C 549.363,567.18 549.007,567.391 548.533,567.391 C 547.705,567.496 546.457,567.548 544.788,567.548 C 544.183,567.548 543.171,567.391 541.751,567.075 C 541.869,567.285 542.04,567.548 542.277,567.864 L 544.604,570.388 C 545.919,571.544 547.705,573.385 549.967,575.909 C 550.676,576.751 551.636,577.907 552.819,579.379 C 553.897,580.325 555.199,581.64 556.749,583.323 C 558.773,586.372 562.047,591.052 566.569,597.361 C 568.593,599.885 569.553,601.411 569.435,601.936 C 569.435,605.827 570.328,609.035 572.116,611.557 C 574.127,614.608 575.205,616.868 575.324,618.341 C 575.441,619.077 575.087,619.497 574.259,619.603 C 573.417,619.708 572.944,619.392 572.825,618.656 C 572.708,617.92 571.696,615.923 569.789,612.663 C 567.884,609.823 566.924,606.352 566.924,602.251 L 566.924,602.093 L 566.753,601.779 C 564.847,606.195 564.019,608.981 564.256,610.139 C 564.611,611.927 566.332,614.345 569.435,617.395 C 569.908,617.92 569.855,618.445 569.251,618.972 C 568.659,619.497 568.068,619.445 567.463,618.815 C 564.137,615.449 562.231,612.715 561.757,610.612 C 561.389,608.719 562.468,604.985 564.965,599.412 L 564.427,598.781 C 563.125,597.099 561.219,594.469 558.708,590.895 C 557.407,588.58 556.04,586.477 554.607,584.584 C 551.505,581.851 549.244,579.379 547.824,577.171 C 546.628,575.909 544.84,574.068 542.461,571.649 L 540.319,569.284 C 539.004,567.707 538.241,566.419 537.992,565.419 C 537.755,564.42 537.637,563.5 537.637,562.659 C 537.519,561.396 538.596,560.345 540.857,559.504 C 541.093,559.504 541.331,559.504 541.567,559.504 L 544.604,559.977 C 544.84,559.977 545.024,560.029 545.143,560.135 L 549.428,562.816 L 550.321,563.132 L 550.492,563.132 C 551.571,563.552 553.175,564.552 555.317,566.129 C 556.159,567.18 557.288,568.389 558.708,569.757 L 559.431,570.072 C 562.401,571.649 564.256,572.807 564.965,573.543 L 567.817,576.697 C 567.949,576.803 568.001,576.855 568.001,576.855 C 569.435,579.273 570.565,580.851 571.393,581.588 L 573.009,582.849 C 574.429,584.007 576.217,585.531 578.36,587.424 L 579.609,588.685 C 580.687,588.265 582.224,587.739 584.249,587.108 C 585.327,586.793 586.76,586.845 588.548,587.267 C 589.849,587.056 591.216,587.267 592.648,587.897 C 593.477,588.423 594.436,589.212 595.501,590.263 L 598.012,590.421 C 600.745,590.631 602.231,590.736 602.468,590.736 C 603.545,590.631 604.611,591.157 605.688,592.313 C 606.161,592.944 606.635,593.523 607.121,594.049 C 607.121,594.049 607.173,594.049 607.292,594.049 C 608.725,593.733 610.447,594.153 612.471,595.311 C 612.589,595.416 612.708,595.573 612.827,595.784 C 613.904,597.361 615.744,600.201 618.373,604.301 Z M 536.927,562.028 C 536.927,563.5 534.955,565.34 531.037,567.548 C 529.724,568.389 527.633,570.099 524.781,572.675 C 521.928,575.252 519.3,577.105 516.92,578.261 C 516.565,578.367 516.329,578.472 516.211,578.577 L 516.211,578.735 C 516.329,579.156 516.381,579.471 516.381,579.681 C 516.381,580.628 515.619,582.257 514.068,584.571 C 513.357,585.623 512.464,586.885 511.387,588.357 C 510.795,589.619 509.717,591.301 508.165,593.405 C 507.456,594.141 506.864,594.929 506.391,595.771 C 506.26,595.876 506.207,595.981 506.207,596.087 L 501.921,600.819 C 498.465,604.604 496.269,606.865 495.309,607.601 C 493.523,609.284 490.723,610.861 486.924,612.32 C 486.2,613.056 483.229,617.631 477.985,626.044 C 476.552,628.463 475.789,629.777 475.671,629.987 C 475.185,630.619 474.593,630.724 473.884,630.303 C 473.528,629.987 473.344,629.672 473.344,629.356 C 473.344,629.041 473.397,628.804 473.528,628.647 C 473.647,628.489 474.409,627.253 475.843,624.94 C 481.56,615.58 484.899,610.704 485.845,610.283 C 489.184,609.021 491.735,607.601 493.523,606.024 C 494.364,605.288 496.507,603.08 499.951,599.399 L 504.064,594.667 C 504.656,593.825 505.313,592.879 506.023,591.828 C 506.747,590.776 507.811,589.199 509.244,587.095 C 512.332,583.099 513.884,580.641 513.884,579.695 C 513.884,579.589 513.831,579.392 513.713,579.129 C 513.595,578.867 513.529,578.629 513.529,578.42 C 513.529,577.579 514.239,576.855 515.672,576.224 C 519.484,574.541 522.165,572.649 523.716,570.545 C 525.017,568.863 527.108,567.18 529.96,565.497 C 532.812,563.816 534.245,562.659 534.245,562.028 C 534.245,561.396 533.943,560.713 533.352,559.977 C 532.996,559.661 532.695,559.504 532.457,559.504 L 531.932,559.504 C 530.972,559.399 529.421,560.083 527.279,561.555 C 525.845,562.396 524.899,562.975 524.427,563.289 C 523.467,563.816 522.192,564.499 520.588,565.34 C 518.971,566.181 517.512,567.023 516.211,567.864 C 514.187,569.231 511.925,570.967 509.415,573.069 C 508.941,573.491 508.416,573.543 507.811,573.227 C 507.811,573.227 507.719,573.148 507.548,572.991 C 507.364,572.833 507.285,572.596 507.285,572.281 C 507.285,572.071 507.364,571.833 507.548,571.571 C 507.719,571.308 508.533,569.863 509.953,567.233 C 511.149,565.445 512.753,562.711 514.777,559.031 C 515.251,558.084 515.789,557.4 516.381,556.98 C 516.749,556.875 517.459,555.928 518.524,554.14 C 519.128,553.195 520.075,551.932 521.389,550.355 C 522.336,549.513 523.348,547.779 524.427,545.149 C 525.728,542.1 527.108,540.101 528.527,539.155 C 529.96,538.209 530.669,536.579 530.669,534.265 C 530.644,534.055 530.644,533.949 530.669,533.949 C 530.315,533.424 529.132,532.845 527.108,532.215 C 526.148,533.792 524.597,536.159 522.455,539.313 C 521.271,540.364 519.904,541.784 518.353,543.572 C 517.999,544.413 516.447,546.148 513.713,548.777 C 512.399,550.249 510.308,552.459 507.456,555.403 C 506.628,556.244 505.733,557.243 504.775,558.4 L 504.775,558.4 C 504.656,559.136 504.183,559.451 503.355,559.347 C 502.513,559.347 502.093,559.031 502.093,558.4 C 502.093,557.664 503.289,556.139 505.668,553.825 C 506.983,552.353 509.06,550.144 511.925,547.2 C 513.108,546.043 514.475,544.571 516.027,542.784 C 516.985,541.837 518.405,540.26 520.312,538.051 C 521.389,536.159 523.112,533.477 525.491,530.007 C 525.977,529.48 526.213,528.587 526.213,527.325 L 526.213,526.852 L 524.427,525.748 C 522.52,526.379 521.363,526.931 520.943,527.404 C 520.521,527.877 519.417,529.008 517.631,530.795 C 516.801,531.531 515.08,532.951 512.451,535.055 C 511.741,535.58 510.847,536.657 509.783,538.288 C 508.704,539.917 507.575,541.101 506.391,541.837 C 505.195,542.573 503.289,544.203 500.673,546.727 L 498.885,548.62 C 498.412,549.04 497.519,550.092 496.204,551.775 C 493.588,555.245 491.8,556.98 490.853,556.98 C 490.249,556.98 489.828,556.796 489.592,556.428 C 489.355,556.06 488.881,555.955 488.172,556.112 C 487.449,556.271 486.976,555.981 486.74,555.245 C 486.621,554.404 486.949,553.931 487.725,553.825 L 487.725,553.825 C 487.725,553.72 487.791,553.615 487.909,553.509 C 489.473,548.988 490.801,545.991 491.892,544.519 C 492.615,542.836 493.943,540.523 495.875,537.577 C 496.848,536.527 497.808,534.896 498.78,532.688 C 498.78,532.583 498.845,532.477 498.964,532.372 C 499.805,531.321 501.08,529.691 502.763,527.483 L 504.039,525.748 C 505.365,523.855 506.023,522.751 506.023,522.435 C 506.023,521.279 505.313,520.437 503.88,519.911 L 502.277,520.227 C 502.04,520.541 501.08,521.647 499.424,523.539 C 497.281,525.852 494.481,528.535 491.024,531.584 C 489,533.477 487.685,535.107 487.095,536.473 C 485.911,538.051 484.36,540.364 482.455,543.415 C 481.14,545.623 479.063,548.304 476.197,551.459 L 471.557,556.664 L 466.917,563.763 C 466.799,564.079 466.561,564.236 466.207,564.236 C 466.207,564.656 466.023,564.972 465.668,565.183 C 464.945,565.603 464.353,565.497 463.88,564.867 C 461.975,562.133 461.199,560.187 461.553,559.031 C 461.527,559.031 461.527,558.977 461.553,558.873 C 461.553,558.347 461.251,557.032 460.66,554.929 L 460.305,553.668 C 459.937,552.616 459.096,550.723 457.781,547.989 C 456.585,546.516 455.572,545.675 454.731,545.465 C 454.127,545.36 452.996,545.623 451.313,546.253 L 453.167,553.983 C 453.128,554.088 453.128,554.14 453.167,554.14 C 453.167,554.667 452.865,555.035 452.273,555.245 L 452.089,555.403 C 451.971,556.139 451.905,556.823 451.905,557.453 C 451.905,557.768 451.971,558.216 452.089,558.793 C 452.208,559.372 452.273,559.819 452.273,560.135 C 452.273,560.66 452.089,561.476 451.735,562.58 C 451.379,563.684 451.195,564.552 451.195,565.183 C 451.195,567.391 450.775,569.652 449.947,571.965 C 449.592,572.807 449.408,573.491 449.408,574.016 C 449.408,574.647 449.525,575.12 449.776,575.436 C 450.723,576.908 452.325,580.536 454.587,586.32 C 454.941,587.056 455.664,589.737 456.729,594.364 C 456.848,594.469 456.913,594.523 456.913,594.523 C 456.795,594.732 456.729,594.943 456.729,595.153 C 456.256,595.889 455.192,597.309 453.521,599.412 C 452.931,600.043 451.616,601.988 449.592,605.248 L 448.159,607.615 C 447.685,608.245 447.095,608.403 446.371,608.088 C 445.897,607.877 445.661,607.509 445.661,606.984 C 445.78,606.773 445.845,606.616 445.845,606.511 L 447.449,604.144 C 448.396,602.567 449.776,600.516 451.551,597.992 C 452.509,597.045 453.404,595.836 454.232,594.364 C 453.167,590.171 452.509,587.7 452.273,586.964 C 450.131,581.6 448.58,578.183 447.62,576.711 C 447.147,575.975 446.909,575.08 446.909,574.029 C 446.909,573.083 447.095,572.136 447.449,571.189 C 448.277,568.456 448.697,566.457 448.697,565.196 C 448.697,564.564 448.843,563.697 449.144,562.593 C 449.447,561.489 449.592,560.673 449.592,560.148 C 449.552,559.832 449.552,559.412 449.592,558.885 C 449.473,558.268 449.408,557.795 449.408,557.48 C 449.408,556.533 449.473,555.533 449.592,554.483 C 449.592,554.061 449.828,553.747 450.301,553.536 L 448.697,546.437 C 448.659,546.437 448.659,546.385 448.697,546.28 C 448.697,545.755 449,545.387 449.592,545.176 C 449.592,544.649 449.828,544.281 450.301,544.072 C 452.325,543.231 454.061,542.968 455.48,543.283 C 457.623,543.808 459.175,545.017 460.121,546.911 C 461.553,549.843 462.448,551.945 462.803,553.207 L 463.157,554.312 C 463.999,557.137 464.301,558.977 464.051,559.819 C 464.051,560.135 464.419,560.924 465.129,562.185 L 469.599,555.403 L 474.239,550.027 C 475.671,548.449 477.629,545.872 480.128,542.297 C 480.732,541.14 481.731,539.616 483.164,537.723 C 483.637,537.197 484.176,536.513 484.768,535.672 C 485.372,533.989 486.857,532.096 489.237,529.993 C 492.576,527.036 495.257,524.407 497.281,522.093 L 500.489,518.465 C 500.725,518.255 500.963,518.149 501.199,518.149 L 503.525,517.519 C 503.763,517.519 503.999,517.519 504.236,517.519 C 507.219,518.149 508.704,519.78 508.704,522.408 C 508.704,523.249 507.876,524.775 506.207,526.983 L 504.959,528.732 C 503.763,530.413 502.513,532.044 501.199,533.621 C 500.252,535.935 499.175,537.723 497.992,538.984 C 497.281,540.561 496.02,542.823 494.245,545.78 C 493.404,547.043 492.155,549.829 490.485,554.14 C 490.723,554.245 490.907,554.299 491.024,554.299 C 491.497,553.772 492.484,552.563 493.969,550.671 C 495.468,548.777 496.44,547.516 496.913,546.884 L 498.701,545.307 C 500.016,544.045 502.04,542.311 504.775,540.101 C 505.733,539.471 506.772,538.34 507.903,536.711 C 509.033,535.08 510.019,533.949 510.847,533.319 C 512.517,532.057 514.187,530.689 515.856,529.217 C 517.039,528.061 518.024,527.009 518.8,526.063 C 519.576,525.116 521.389,524.223 524.243,523.381 C 524.597,523.276 524.965,523.329 525.32,523.539 L 528.172,525.275 C 528.409,525.484 528.593,525.748 528.711,526.063 C 528.948,527.535 528.829,528.903 528.356,530.164 C 531.564,531.321 533.18,532.688 533.18,534.265 C 533.18,537.42 532.103,539.681 529.96,541.048 C 529,541.679 527.963,543.361 526.832,546.096 C 525.701,548.831 524.479,550.776 523.177,551.932 C 522.691,552.353 521.863,553.457 520.667,555.245 C 519.365,557.348 518.405,558.557 517.815,558.873 C 517.341,559.819 516.617,560.976 515.672,562.343 C 515.316,562.764 514.304,564.499 512.635,567.548 C 514.777,565.971 516.92,564.656 519.063,563.605 C 519.904,563.079 521.271,562.291 523.177,561.239 C 523.413,561.133 524.308,560.608 525.845,559.661 C 528.475,557.979 530.499,557.137 531.932,557.137 L 532.457,557.137 C 533.653,557.243 534.692,557.821 535.587,558.873 C 536.48,559.924 536.927,560.976 536.927,562.028 Z M 547.824,564.552 L 543.893,562.185 L 541.567,561.869 C 540.739,562.185 540.265,562.448 540.148,562.659 C 540.148,563.184 540.265,563.763 540.503,564.393 C 542.645,565.025 544.012,565.34 544.604,565.34 C 545.327,565.34 546.273,565.288 547.469,565.183 Z "/>
	</g>
</svg>