<?xml version="1.0" encoding="UTF-8" standalone="no"?>
<svg version="1.1" xmlns="http://www.w3.org/2000/svg" xmlns:xlink="http://www.w3.org/1999/xlink" width="140" height="120">
	<g id="bsl-v" transform="matrix(1, 0, 0, 1, -625, -515)">
		<path fill="black" stroke="black" stroke-width="0.1" d="M 758.264,626.385 C 757.792,623.125 756.424,619.76 754.164,616.291 L 752.376,613.293 C 751.297,611.505 749.931,609.455 748.261,607.141 C 746.605,605.564 744.212,603.197 741.124,600.043 L 738.441,597.045 C 738.324,596.941 737.377,595.205 735.589,591.84 C 735.589,591.631 735.471,591.472 735.235,591.367 L 730.411,589.001 C 729.924,588.685 728.741,588.423 726.835,588.212 C 724.811,588.003 723.561,588.003 723.088,588.212 C 722.365,588.423 721.472,588.948 720.407,589.789 L 718.804,588.212 C 718.672,588.003 718.501,587.844 718.264,587.739 L 713.085,586.793 C 712.967,586.688 712.849,586.635 712.731,586.635 C 709.273,586.635 707.012,587.108 705.935,588.055 C 705.343,588.58 704.869,589.475 704.515,590.736 C 702.964,589.475 701.833,588.423 701.111,587.581 C 700.164,586.215 698.073,584.427 694.867,582.219 L 697.903,577.013 L 698.073,577.013 C 699.625,573.543 700.755,571.387 701.479,570.545 C 702.543,569.284 703.384,567.18 703.976,564.236 C 704.095,563.711 704.633,562.553 705.58,560.765 C 706.421,559.399 706.828,558.137 706.828,556.98 C 706.828,556.455 707.551,555.14 708.971,553.036 C 710.759,550.512 711.652,548.777 711.652,547.831 C 711.652,547.516 711.771,547.095 712.008,546.569 C 712.731,544.887 711.836,543.467 709.339,542.311 C 708.616,541.995 707.907,541.837 707.183,541.837 C 707.907,540.891 708.971,539.444 710.404,537.499 C 711.836,535.553 712.008,533.581 710.943,531.584 L 710.943,531.427 C 710.22,530.269 708.8,529.744 706.657,529.848 L 707.183,528.587 C 707.669,527.325 707.907,526.22 707.907,525.275 C 707.907,522.12 706.473,520.227 703.621,519.596 C 702.069,519.175 700.729,519.437 699.599,520.384 C 698.468,521.331 697.061,522.961 695.405,525.275 L 694.683,526.22 C 693.499,527.693 691.593,529.901 688.964,532.845 L 688.439,533.477 C 689.029,532.425 689.569,531.427 690.043,530.48 C 690.043,530.375 690.108,530.321 690.227,530.321 L 692.001,524.788 C 692.369,524.263 692.54,523.684 692.54,523.053 C 692.54,521.988 691.921,521.068 690.673,520.279 C 689.411,519.491 688.136,519.096 686.821,519.096 C 685.284,519.096 684.088,519.569 683.259,520.516 C 680.157,523.985 678.291,526.036 677.633,526.668 C 676.976,527.299 676.175,528.245 675.215,529.507 L 674.505,530.467 C 673.308,531.728 671.521,533.779 669.141,536.619 L 666.999,539.616 C 665.697,541.508 664.081,543.875 662.175,546.713 C 661.583,547.884 658.731,551.564 653.604,557.768 C 653.604,555.771 653.723,554.509 653.959,553.983 L 653.959,553.983 C 654.209,553.668 654.327,553.247 654.327,552.721 C 654.327,551.985 653.959,550.617 653.249,548.62 C 652.895,547.568 652.657,546.884 652.54,546.569 C 652.184,545.097 651.343,543.677 650.041,542.311 C 648.491,539.787 646.756,538.524 644.863,538.524 C 643.667,538.524 642.471,538.997 641.287,539.944 C 641.287,540.049 641.221,540.101 641.103,540.101 C 640.631,540.312 640.209,540.785 639.855,541.521 L 641.643,547.831 C 641.169,547.936 640.867,548.199 640.748,548.62 C 640.393,549.776 640.209,550.776 640.209,551.617 C 640.223,551.827 640.223,552.089 640.209,552.405 C 640.328,552.721 640.393,552.984 640.393,553.195 C 640.393,553.931 640.209,554.824 639.855,555.876 C 637.948,560.083 637.003,562.921 637.003,564.393 C 637.003,564.815 637.055,565.393 637.173,566.129 C 637.291,566.865 637.357,567.444 637.357,567.864 C 637.357,570.808 637.528,572.859 637.896,574.016 C 638.605,576.435 639.027,578.696 639.144,580.799 C 639.381,589.212 640.157,593.996 641.459,595.153 L 641.997,595.627 C 639.263,597.835 637.777,599.517 637.528,600.673 C 637.291,601.831 635.635,605.196 632.533,610.769 C 632.177,611.4 632.349,611.873 633.072,612.189 C 633.781,612.504 634.32,612.347 634.676,611.716 C 637.896,606.037 639.617,602.567 639.855,601.305 C 639.973,600.464 641.221,599.044 643.601,597.045 C 647.531,600.621 650.041,602.515 651.107,602.724 C 651.816,602.935 652.303,602.724 652.54,602.093 C 652.657,601.357 652.356,600.884 651.645,600.673 L 651.645,600.673 C 650.923,600.464 648.425,598.465 644.14,594.68 L 643.075,593.733 C 642.471,592.997 641.944,588.633 641.459,580.641 C 641.34,579.273 640.932,576.908 640.209,573.543 C 639.973,572.491 639.801,570.545 639.671,567.707 C 639.671,565.919 639.617,564.815 639.5,564.393 L 639.5,564.393 C 639.381,564.288 640.275,561.66 642.181,556.507 C 642.773,554.404 642.891,552.931 642.536,552.089 C 642.417,551.564 642.536,550.617 642.891,549.251 C 643.364,549.04 643.785,548.62 644.14,547.989 L 642.352,541.679 C 642.471,541.679 642.891,541.469 643.601,541.048 C 644.324,540.628 644.849,540.523 645.217,540.733 C 645.809,540.943 646.756,541.889 648.071,543.572 C 649.267,544.833 649.976,545.991 650.213,547.043 C 650.331,547.463 650.568,548.199 650.923,549.251 C 651.764,551.353 652.119,552.563 652,552.879 C 651.409,553.72 651.107,555.455 651.107,558.084 C 651.107,560.819 651.317,562.553 651.737,563.289 C 652.145,564.025 652.711,564.236 653.433,563.92 C 654.143,563.605 654.327,563.132 653.959,562.501 C 653.841,562.185 653.723,561.607 653.604,560.765 C 653.959,560.66 654.209,560.556 654.327,560.451 C 660.164,553.404 663.489,549.145 664.317,547.673 C 664.804,546.832 666.341,544.519 668.971,540.733 L 671.113,537.736 C 672.415,536.368 674.203,534.317 676.463,531.584 L 677.187,530.637 C 677.541,530.112 678.199,529.323 679.145,528.271 C 680.46,526.799 682.484,524.643 685.217,521.804 C 685.941,521.068 687.005,520.963 688.439,521.488 C 689.621,522.015 690.227,522.54 690.227,523.065 C 690.227,523.276 690.16,523.487 690.043,523.697 C 689.924,523.907 689.805,524.065 689.687,524.171 L 687.9,529.691 C 686.585,531.584 684.863,534.528 682.72,538.524 L 682.365,539.471 C 682.129,540.101 681.116,541.573 679.329,543.888 C 678.369,545.255 677.12,547.148 675.569,549.567 C 674.86,551.353 674.203,553.089 673.611,554.772 L 670.575,558.557 L 666.289,557.768 C 666.289,557.768 666.224,557.768 666.105,557.768 C 665.277,557.768 664.856,558.137 664.856,558.873 C 664.856,559.399 665.211,559.715 665.935,559.819 L 670.929,560.765 C 671.403,560.871 671.823,560.713 672.179,560.292 L 675.753,555.876 C 675.753,555.771 675.819,555.665 675.937,555.56 C 676.175,554.719 676.832,552.984 677.896,550.355 C 678.251,549.408 679.447,547.621 681.472,544.992 C 683.141,542.784 684.153,541.259 684.508,540.417 C 685.573,539.787 686.296,539.208 686.651,538.683 C 687.597,537.631 689.029,536.105 690.936,534.108 C 692.251,532.845 694.143,530.637 696.655,527.483 L 697.364,526.379 C 698.073,525.327 699.269,523.907 700.939,522.12 C 701.649,521.593 702.307,521.436 702.897,521.647 C 704.212,521.856 704.988,522.488 705.224,523.539 C 705.697,524.907 705.58,526.379 704.869,527.956 L 704.685,528.429 C 703.857,530.427 703.2,531.795 702.727,532.531 L 701.833,533.792 C 701.228,534.739 700.099,536.159 698.441,538.051 C 697.719,539.103 696.536,540.628 694.867,542.625 C 694.025,543.677 692.54,545.939 690.397,549.408 C 690.279,549.619 690.227,549.881 690.227,550.197 L 690.227,550.197 C 690.227,550.512 689.543,551.275 688.163,552.484 C 686.795,553.693 685.336,556.087 683.799,559.661 C 683.548,560.397 683.141,561.239 682.536,562.185 C 682.063,562.711 682.129,563.184 682.72,563.605 C 683.548,564.447 684.389,564.025 685.217,562.343 C 685.941,560.24 687.479,557.559 689.859,554.299 C 691.645,552.827 692.54,551.459 692.54,550.197 C 694.564,546.832 695.931,544.676 696.655,543.729 C 697.364,542.784 698.56,541.364 700.216,539.471 C 701.176,538.629 702.425,537.052 703.976,534.739 L 704.685,533.792 C 705.04,533.161 705.396,532.583 705.764,532.057 C 705.881,532.057 706,532.057 706.119,532.057 C 707.539,531.741 708.432,531.899 708.8,532.531 C 709.509,533.897 709.181,535.396 707.815,537.025 C 706.447,538.656 705.04,540.785 703.621,543.415 C 703.135,544.045 702.753,544.676 702.451,545.307 C 702.161,545.939 701.596,547.305 700.755,549.408 C 700.045,550.985 699.085,552.827 697.903,554.929 C 693.855,559.661 691.409,563.132 690.581,565.34 C 690.581,565.551 690.581,565.708 690.581,565.813 L 689.859,565.497 C 689.148,565.183 688.609,565.34 688.255,565.971 C 687.9,566.603 688.071,567.075 688.793,567.391 L 692.001,568.811 C 692.724,569.125 693.263,568.968 693.617,568.337 C 693.972,567.707 693.788,567.233 693.079,566.917 L 692.369,566.603 C 692.605,566.497 692.776,566.287 692.895,565.971 C 693.736,563.868 696.049,560.621 699.861,556.204 C 700.467,555.573 701.479,553.576 702.897,550.211 C 703.857,548.12 704.449,546.805 704.685,546.28 L 705.58,544.545 C 705.816,544.335 706.053,544.177 706.289,544.072 C 706.893,543.861 707.604,543.94 708.432,544.295 C 709.273,544.663 709.747,545.005 709.865,545.307 L 709.865,545.307 C 709.865,545.412 709.747,545.755 709.509,546.332 C 709.273,546.911 709.155,547.437 709.155,547.909 C 709.155,548.383 708.432,549.724 707.012,551.932 C 706.171,553.931 704.804,556.98 702.897,561.081 C 702.425,563.079 701.295,565.813 699.507,569.284 C 698.679,570.231 697.483,572.491 695.931,576.067 C 695.103,577.433 694.156,579.011 693.079,580.799 C 692.487,580.588 691.528,580.009 690.227,579.064 L 689.332,577.96 C 687.9,576.592 685.809,574.7 683.075,572.281 C 682.603,571.965 680.039,570.545 675.399,568.021 C 674.203,567.075 672.296,566.076 669.68,565.025 C 666.473,564.709 664.449,565.104 663.608,566.208 C 662.78,567.312 662.359,568.284 662.359,569.125 C 662.359,570.599 663.319,572.176 665.211,573.859 L 668.787,577.013 L 668.787,577.013 L 675.569,582.219 C 676.884,583.269 678.672,584.9 680.932,587.108 C 681.892,588.371 683.312,589.948 685.217,591.84 C 688.201,593.628 690.344,595.364 691.645,597.045 C 692.369,598.203 693.855,599.937 696.115,602.251 L 693.788,603.671 L 693.788,603.671 C 692.724,602.829 691.829,602.251 691.12,601.936 L 689.503,601.147 C 687.005,600.096 683.259,598.465 678.251,596.257 C 677.541,596.152 675.991,595.416 673.611,594.049 C 672.06,592.681 670.153,591.315 667.893,589.948 L 663.252,587.267 C 660.637,585.268 658.612,584.164 657.18,583.953 C 655.392,583.637 653.788,584.007 652.356,585.057 C 650.936,586.109 650.213,587.213 650.213,588.371 C 650.331,589.212 650.804,589.948 651.645,590.579 C 651.764,590.684 651.816,590.736 651.816,590.736 L 655.392,593.26 C 655.392,593.26 656.352,594.049 658.244,595.627 C 658.363,595.732 658.547,595.836 658.783,595.941 L 658.428,595.784 C 658.547,595.889 658.783,596.204 659.152,596.731 C 659.98,597.783 660.689,598.519 661.293,598.939 C 662.832,599.885 665.093,601.411 668.077,603.513 C 668.905,604.249 669.563,604.723 670.036,604.933 L 670.759,605.407 C 671.823,606.037 673.308,606.773 675.215,607.615 C 675.819,607.825 676.529,608.245 677.357,608.876 C 676.884,609.403 676.292,609.928 675.569,610.453 C 672.244,610.244 670.101,610.139 669.141,610.139 C 668.668,610.139 667.959,609.717 666.999,608.876 L 666.473,608.403 C 665.632,607.561 663.489,606.668 660.045,605.721 C 658.967,605.407 658.428,605.721 658.428,606.668 C 658.428,607.193 658.731,607.509 659.323,607.615 C 662.307,608.561 664.147,609.297 664.856,609.823 L 665.395,610.296 C 666.709,611.557 667.959,612.189 669.141,612.189 C 669.864,612.189 671.284,612.295 673.427,612.504 C 672.007,613.556 670.995,614.187 670.391,614.397 C 669.089,614.817 667.328,616.605 665.132,619.76 C 662.924,622.915 661.767,625.176 661.649,626.543 C 661.649,627.175 662.004,627.543 662.713,627.648 C 663.436,627.752 663.844,627.489 663.963,626.859 C 664.199,625.701 665.277,623.731 667.183,620.944 C 669.089,618.157 670.391,616.659 671.113,616.448 C 672.415,616.027 674.268,614.713 676.648,612.504 C 676.884,612.504 677.068,612.399 677.187,612.189 L 679.145,610.139 L 679.329,610.139 C 680.157,611.189 681.589,612.663 683.615,614.555 C 683.969,614.765 684.863,615.555 686.296,616.921 C 687.716,618.288 688.675,619.024 689.148,619.129 L 688.964,619.129 C 689.096,619.235 689.477,619.655 690.135,620.392 C 690.792,621.128 691.948,622.073 693.617,623.231 C 694.209,623.441 695.405,624.124 697.18,625.281 C 698.968,626.439 701.531,628.016 704.869,630.013 C 706.408,630.96 707.42,631.539 707.907,631.749 C 708.616,632.064 709.155,631.907 709.509,631.276 C 709.747,630.855 708.681,629.856 706.289,628.279 C 704.515,627.121 703.319,626.439 702.727,626.228 C 702.123,626.017 700.821,625.229 698.796,623.861 C 697.719,623.125 696.352,622.284 694.683,621.337 C 693.736,620.181 692.251,618.815 690.227,617.236 L 690.227,617.236 C 689.976,617.132 689.213,616.527 687.9,615.423 C 686.585,614.319 684.679,612.557 682.181,610.139 C 681.589,609.403 681.169,608.929 680.932,608.719 C 679.263,607.247 677.66,606.248 676.108,605.721 C 675.517,605.511 674.149,604.775 672.007,603.513 L 671.113,603.197 C 670.391,602.461 669.089,601.463 667.183,600.201 C 664.567,598.833 662.543,597.256 661.109,595.468 C 660.637,594.732 660.216,594.259 659.861,594.049 L 656.996,591.683 L 656.825,591.683 L 653.249,589.159 C 653.249,589.053 653.196,588.975 653.079,588.923 C 652.947,588.869 652.828,588.633 652.711,588.212 C 652.711,587.792 653.131,587.267 653.959,586.635 C 654.8,586.004 655.695,585.793 656.64,586.004 C 657.364,586.109 659.085,587.108 661.82,589.001 L 666.473,591.84 L 666.644,591.84 C 668.313,592.892 670.101,594.101 672.007,595.468 C 673.308,596.625 674.557,597.309 675.753,597.519 C 676.832,598.045 678.435,598.728 680.577,599.569 C 682.365,600.305 684.981,601.463 688.439,603.04 L 690.043,603.671 C 690.397,603.881 691.409,604.723 693.079,606.195 C 694.261,607.247 695.156,607.561 695.76,607.141 C 695.997,606.931 696.115,606.668 696.115,606.352 C 696.115,606.037 695.879,605.669 695.405,605.248 L 697.548,603.987 C 698.257,604.617 698.915,605.223 699.507,605.8 C 700.099,606.379 700.703,606.457 701.295,606.037 C 701.531,605.827 701.649,605.564 701.649,605.248 C 701.649,605.039 701.596,604.828 701.479,604.617 C 699.453,602.62 696.825,599.728 693.617,595.941 C 692.185,593.944 689.805,591.999 686.467,590.105 C 685.52,588.844 684.272,587.371 682.72,585.688 C 681.643,584.532 679.803,582.849 677.187,580.641 L 670.391,575.436 C 670.391,575.436 669.207,574.384 666.828,572.281 C 665.513,571.124 664.804,570.072 664.685,569.125 C 664.685,569.021 665.04,568.389 665.751,567.233 C 666.224,567.023 667.353,566.971 669.141,567.075 L 674.149,569.757 L 674.149,569.757 C 675.819,570.599 678.251,571.965 681.472,573.859 C 682.787,574.804 684.811,576.645 687.544,579.379 L 688.439,580.325 C 689.385,580.956 690.817,581.956 692.724,583.323 C 696.049,585.636 698.192,587.424 699.152,588.685 C 699.625,589.316 701.412,590.947 704.515,593.576 C 707.485,595.468 709.063,596.757 709.247,597.44 C 709.417,598.124 709.931,598.36 710.759,598.151 C 711.468,598.045 711.719,597.624 711.468,596.888 C 711.232,595.836 709.576,594.259 706.473,592.156 C 706.828,590.789 707.249,589.895 707.723,589.475 C 708.196,589.053 709.865,588.844 712.717,588.844 L 717.187,589.789 L 721.656,594.68 C 721.775,594.68 722.432,595.679 723.615,597.677 C 723.969,598.308 724.508,598.465 725.231,598.151 C 725.941,597.835 726.125,597.361 725.757,596.731 L 723.799,593.576 C 723.68,593.471 723.615,593.417 723.615,593.417 L 721.827,591.367 C 722.787,590.736 723.444,590.316 723.799,590.105 C 724.508,590 726.361,590.263 729.332,590.895 C 729.332,590.895 730.765,591.631 733.617,593.103 L 736.3,597.992 C 736.3,598.097 736.352,598.151 736.484,598.151 L 739.152,601.305 C 740.821,602.883 743.2,605.248 746.303,608.403 C 746.657,608.719 747.972,610.664 750.233,614.24 L 752.192,617.395 C 754.216,620.549 755.465,623.652 755.951,626.701 C 756.069,627.437 756.543,627.752 757.371,627.648 C 758.093,627.543 758.449,627.175 758.449,626.543 C 758.331,626.543 758.264,626.491 758.264,626.385 Z M 665.935,567.233 C 665.935,567.233 665.935,567.233 665.935,567.233 C 665.935,567.233 665.935,567.233 665.935,567.233 Z "/>
	</g>
</svg>