<?xml version="1.0" encoding="UTF-8" standalone="no"?>
<svg version="1.1" xmlns="http://www.w3.org/2000/svg" xmlns:xlink="http://www.w3.org/1999/xlink" width="180" height="130">
	<g id="bsl-w" transform="matrix(1, 0, 0, 1, -10, -670)">
		<path fill="black" stroke="black" stroke-width="0.1" d="M 127.731,685.38 C 127.02,687.063 123.8,688.167 118.081,688.693 C 117.727,688.797 117.372,688.745 117.017,688.535 L 113.625,686.169 C 112.903,685.748 112.784,685.223 113.257,684.592 C 113.863,683.96 114.52,683.908 115.229,684.433 L 117.017,685.539 L 117.017,685.539 L 118.265,686.484 C 122.551,685.959 124.931,685.275 125.404,684.433 L 125.404,684.433 C 125.772,683.803 126.297,683.592 127.02,683.803 C 127.848,684.119 128.085,684.644 127.731,685.38 Z M 122.721,680.017 C 123.208,680.859 123.208,681.7 122.721,682.541 C 122.248,683.383 121.592,683.645 120.763,683.329 C 120.291,683.12 120.053,682.751 120.053,682.225 C 120.053,682.12 120.105,681.936 120.224,681.673 C 120.343,681.411 120.408,681.227 120.408,681.121 C 120.395,681.121 120.395,681.121 120.408,681.121 C 120.291,680.911 119.988,680.753 119.515,680.648 C 114.875,681.173 109.091,681.963 102.189,683.015 L 87.0067,687.116 C 86.1787,687.431 85.5867,687.22 85.2187,686.484 C 84.9827,685.748 85.2853,685.223 86.1133,684.907 L 101.48,680.805 C 103.623,680.175 105.292,680.017 106.475,680.332 L 106.475,680.332 C 107.435,680.437 109.748,680.123 113.441,679.387 C 117.135,678.651 119.277,678.335 119.869,678.44 C 121.184,678.545 122.131,679.071 122.721,680.017 Z M 117.188,691.532 C 117.675,692.268 117.556,692.847 116.833,693.267 C 113.98,694.845 111.536,695.423 109.511,695.003 C 108.447,694.792 107.671,694.319 107.184,693.583 C 106.711,692.952 106.895,692.427 107.724,692.005 C 108.447,691.585 109.037,691.743 109.511,692.479 L 109.34,692.321 C 110.168,693.372 112.193,693.004 115.4,691.217 C 116.123,690.796 116.715,690.901 117.188,691.532 Z M 128.269,686.011 C 128.269,687.799 127.099,689.535 124.785,691.217 C 122.459,692.899 120.291,693.74 118.265,693.74 C 117.424,693.74 117.017,693.372 117.017,692.636 C 117.017,691.9 117.424,691.532 118.265,691.532 C 119.699,691.532 121.303,690.875 123.089,689.56 C 124.877,688.245 125.772,687.063 125.772,686.011 C 125.772,684.96 125.115,684.119 123.8,683.488 C 119.633,684.96 116.596,685.959 114.691,686.484 C 113.863,686.695 112.075,686.957 109.34,687.273 C 100.52,688.22 95.3147,689.061 93.7107,689.797 C 92.0933,690.533 88.492,692.321 82.9053,695.16 C 82.064,695.581 81.4733,695.423 81.1173,694.687 C 80.6453,694.056 80.7627,693.531 81.4733,693.109 C 87.072,690.271 90.792,688.456 92.6333,687.668 C 94.4867,686.879 99.928,685.959 108.972,684.907 C 111.601,684.592 113.257,684.329 113.98,684.119 C 115.887,683.697 119.041,682.699 123.445,681.121 C 123.8,681.016 124.155,681.016 124.509,681.121 C 127.02,682.279 128.269,683.908 128.269,686.011 Z M 178.272,761.569 C 177.8,762.2 177.208,762.357 176.485,762.041 C 174.343,760.477 171.897,758.848 169.163,757.179 C 167.731,756.652 166.008,754.247 163.984,749.961 L 163.275,748.081 C 162.683,746.925 159.935,743.717 155.059,738.433 C 150.168,733.149 146.804,729.784 144.963,728.312 C 143.123,726.853 140.888,724.447 138.272,721.095 C 137.668,720.372 136.813,719.321 135.683,717.967 C 134.552,716.6 133.093,715.772 131.305,715.456 C 129.517,715.14 128.032,714.299 126.836,712.945 C 125.64,711.579 124.509,710.277 123.445,709.028 C 117.845,704.112 114.335,701.444 112.903,701.023 L 113.087,701.023 C 112.245,700.904 111.837,700.419 111.837,699.577 C 111.956,698.736 112.364,698.315 113.087,698.315 C 114.637,698.315 118.739,701.26 125.404,707.148 C 126.363,708.305 127.375,709.515 128.44,710.776 C 129.517,712.039 130.701,712.775 132.016,712.985 C 133.803,713.3 135.104,713.852 135.945,714.641 C 136.773,715.429 137.615,716.245 138.443,717.087 C 139.995,719.295 142.728,722.396 146.659,726.393 C 148.683,727.971 152.14,731.388 157.017,736.645 C 162.144,742.219 164.996,745.689 165.588,747.056 L 166.481,748.949 C 167.323,750.843 168.505,752.84 170.057,754.944 C 171.727,756.205 174.289,757.888 177.733,759.991 C 178.456,760.307 178.628,760.832 178.272,761.569 Z M 120.579,711.88 C 121.184,712.512 121.119,713.037 120.408,713.459 C 119.699,713.984 119.093,713.931 118.62,713.3 L 116.123,710.619 C 115.164,709.988 113.915,709.147 112.364,708.095 C 111.536,707.569 109.629,706.149 106.659,703.836 C 106.291,703.625 106.12,703.363 106.12,703.047 C 106.12,702.521 106.356,702.153 106.829,701.943 C 107.435,701.733 107.908,701.785 108.263,702.101 C 111.233,704.415 113.087,705.833 113.796,706.36 C 115.465,707.307 116.78,708.095 117.727,708.725 C 117.845,708.831 117.964,708.936 118.081,709.041 Z M 93.08,683.96 C 93.5533,684.592 93.4347,685.117 92.7253,685.539 C 92.0147,685.959 91.384,685.853 90.8453,685.223 C 90.32,684.592 87.848,682.909 83.432,680.175 L 82.1827,679.86 C 82.064,679.86 79.1467,679.649 73.4413,679.228 C 72.6,679.123 72.1787,678.703 72.1787,677.967 L 72.1787,677.967 C 72.3107,677.112 72.784,676.731 73.612,676.836 L 82.5507,677.651 C 82.6693,677.651 82.7213,677.651 82.7213,677.651 L 84.3253,678.124 C 84.812,678.229 86.2973,679.097 88.7947,680.727 C 91.292,682.357 92.7253,683.435 93.08,683.96 Z M 74.8613,681.121 L 74.8347,680.964 C 75.4387,681.595 75.4387,682.173 74.8613,682.699 C 74.2693,683.224 73.6773,683.224 73.0733,682.699 C 72.1267,681.857 71.824,680.596 72.1787,678.913 C 72.4293,678.177 72.9547,677.861 73.796,677.967 C 74.624,678.177 74.9533,678.651 74.7693,679.387 C 74.5973,680.123 74.624,680.701 74.8613,681.121 Z M 91.1213,690.585 C 90.6347,691.217 90.044,691.321 89.3333,690.901 C 88.256,690.165 86.3493,688.851 83.616,686.957 C 82.064,685.907 80.04,684.855 77.5427,683.803 L 76.1093,684.119 C 75.8733,684.224 75.636,684.224 75.4,684.119 C 71.9427,682.961 69.4453,682.068 67.8947,681.437 C 67.184,682.279 66.8293,682.909 66.8293,683.329 C 66.8293,683.856 67,684.644 67.368,685.696 C 67.7227,686.748 67.8947,687.379 67.8947,687.588 C 67.8947,688.22 67.5387,688.588 66.8293,688.693 C 65.988,688.903 65.4627,688.64 65.2253,687.904 C 64.2667,685.169 64.0293,683.277 64.5027,682.225 C 64.7387,681.384 65.344,680.385 66.2907,679.228 C 66.8813,678.703 67.4867,678.597 68.0787,678.913 C 68.788,679.333 71.4173,680.28 75.9387,681.752 L 77.372,681.437 C 77.608,681.437 77.8453,681.489 78.0813,681.595 C 80.9333,682.647 83.3133,683.856 85.2187,685.223 C 86.7707,686.379 88.6107,687.641 90.7533,689.008 C 91.476,689.429 91.5947,689.955 91.1213,690.585 Z M 112.193,720.399 C 111.837,721.029 111.233,721.24 110.405,721.029 C 108.144,720.083 105.225,717.401 101.651,712.985 C 101.651,712.88 99.8107,711.249 96.116,708.095 C 95.88,707.78 95.7613,707.464 95.7613,707.148 C 95.7613,706.412 96.1827,706.044 97.0107,706.044 C 97.3653,706.044 97.668,706.149 97.904,706.36 L 103.623,711.408 C 103.623,711.408 103.675,711.46 103.793,711.565 C 107.132,715.772 109.695,718.191 111.483,718.821 C 112.193,719.136 112.429,719.663 112.193,720.399 Z M 118.804,690.271 C 118.804,694.267 118.029,696.737 116.477,697.684 C 114.927,699.261 112.481,701.155 109.156,703.363 C 107.013,704.099 103.201,705.729 97.72,708.252 L 90.3987,711.88 L 86.2973,716.771 C 84.2733,717.507 82.012,718.821 79.5013,720.715 C 79.1467,721.451 78.5547,721.66 77.7267,721.345 C 77.24,721.135 77.004,720.767 77.004,720.241 C 77.004,718.768 79.448,717.033 84.3253,715.036 L 88.6107,710.303 C 88.7427,710.199 88.86,710.093 88.9787,709.988 L 96.3,706.201 C 99.744,704.415 103.74,702.732 108.263,701.155 C 109.813,699.787 112.008,698.052 114.875,695.949 C 115.703,695.423 116.123,693.531 116.123,690.271 C 115.887,689.955 115.348,689.744 114.507,689.639 L 108.972,692.479 C 108.853,692.479 108.736,692.479 108.617,692.479 C 106.829,693.004 103.74,694.056 99.3373,695.633 C 98.496,695.844 97.128,696.264 95.2227,696.895 C 92.6067,697.841 89.6227,699.209 86.2973,700.996 C 84.7453,702.259 82.9053,703.993 80.7493,706.201 C 79.9213,707.675 77.3053,709.62 72.9027,712.039 C 71.588,712.669 69.748,714.036 67.3547,716.14 C 67.1187,716.349 66.8293,716.455 66.4747,716.455 C 65.6333,716.455 65.212,716.087 65.212,715.351 C 65.212,715.036 65.344,714.72 65.58,714.404 C 67.96,712.301 69.9187,710.829 71.4693,709.988 C 75.4,707.989 77.7267,706.36 78.436,705.097 C 79.988,702.259 82.84,699.84 87.0067,697.841 C 87.244,697.736 91.0027,696.264 98.2587,693.425 C 100.756,692.479 103.912,691.48 107.724,690.428 C 107.841,690.323 109.867,689.324 113.796,687.431 C 114.033,687.22 114.269,687.168 114.507,687.273 C 117.372,687.588 118.804,688.588 118.804,690.271 Z M 88.256,699.104 C 88.0187,699.84 87.48,700.103 86.652,699.892 C 84.3907,699.367 82.012,698.104 79.5013,696.107 C 77.4893,694.529 75.216,693.109 72.7187,691.848 L 71.2853,691.848 C 71.0493,691.848 70.812,691.795 70.576,691.689 L 62.36,687.431 C 61.6507,687.011 61.532,686.484 62.0053,685.853 C 62.36,685.223 62.952,685.117 63.7933,685.539 L 71.6533,689.481 L 73.0733,689.481 C 73.3093,689.481 73.5853,689.56 73.8747,689.719 C 74.1773,689.876 77.1213,691.795 82.7213,695.476 C 84.3907,696.527 85.9427,697.264 87.3613,697.684 C 88.2027,697.895 88.492,698.368 88.256,699.104 Z M 76.832,707.307 C 76.4773,708.043 75.8733,708.2 75.0453,707.78 C 74.204,707.464 73.2573,706.675 72.1787,705.413 C 71.1147,704.152 69.984,703.311 68.788,702.889 C 66.764,702.364 64.6213,700.313 62.36,696.737 C 61.4133,695.265 60.8093,694.476 60.572,694.372 C 59.744,693.74 59.324,693.004 59.324,692.163 C 59.324,691.217 59.8627,689.849 60.94,688.061 L 61.4667,687.116 C 61.8213,686.379 62.4253,686.221 63.2533,686.643 C 63.964,686.957 64.148,687.431 63.7933,688.061 L 63.2533,689.008 C 62.0573,691.007 61.6507,692.163 62.0053,692.479 C 62.596,692.795 63.3987,693.74 64.4107,695.317 C 65.4227,696.895 66.224,698 66.8293,698.631 C 67.776,699.787 68.6693,700.471 69.5107,700.681 C 71.1667,701.207 72.5733,702.127 73.704,703.441 C 74.8347,704.756 75.728,705.571 76.3853,705.887 C 77.0293,706.201 77.188,706.675 76.832,707.307 Z M 115.939,745.164 C 115.348,745.795 114.691,745.9 113.98,745.479 C 112.903,744.743 110.103,743.481 105.581,741.693 C 104.752,741.377 104.516,740.852 104.871,740.116 C 105.225,739.485 105.817,739.328 106.659,739.643 C 111.417,741.431 114.388,742.745 115.584,743.587 C 116.293,744.007 116.412,744.533 115.939,745.164 Z M 100.401,733.333 C 100.639,734.069 100.401,734.543 99.692,734.753 C 98.8507,735.068 98.2587,734.859 97.904,734.121 C 96.5893,731.072 95.3667,729.364 94.236,728.996 C 93.1067,728.628 92.0147,727.603 90.9373,725.92 C 90.228,724.657 89.452,723.396 88.6107,722.133 C 88.0187,721.503 87.1253,720.451 85.9427,718.979 C 84.1547,726.656 82.6027,731.072 81.2893,732.229 C 80.816,732.755 80.224,732.755 79.5013,732.229 C 78.896,731.703 78.8827,731.177 79.488,730.652 L 79.5013,730.652 C 79.988,730.021 80.8413,727.628 82.104,723.475 C 83.352,719.321 83.9707,716.823 83.9707,715.981 C 83.9707,715.456 84.2733,715.088 84.864,714.877 C 85.456,714.772 85.9427,714.931 86.2973,715.351 C 87.3613,716.613 88.7947,718.4 90.5827,720.715 C 90.9373,721.135 91.476,721.924 92.1867,723.08 C 92.9093,724.237 93.9213,725.499 95.2227,726.865 C 97.128,727.497 98.8507,729.652 100.401,733.333 Z M 160.592,787.911 C 161.184,788.543 161.132,789.068 160.408,789.489 C 159.817,790.015 159.225,790.015 158.621,789.489 C 156.005,786.755 152.916,784.493 149.34,782.705 C 147.316,781.023 144.635,779.131 141.309,777.027 C 138.443,776.081 131.831,774.451 121.473,772.137 C 118.857,771.507 116.176,769.297 113.441,765.512 C 110.471,762.673 108.263,761.148 106.829,760.937 C 104.096,760.623 101.887,759.308 100.231,756.995 C 99.744,756.363 97.2467,754.576 92.7253,751.631 C 92.3707,751.316 92.1867,751 92.1867,750.684 C 92.1867,750.159 92.4227,749.791 92.9093,749.58 C 93.3827,749.371 93.856,749.423 94.328,749.739 C 99.1,752.893 101.769,754.891 102.373,755.732 C 103.675,757.415 105.292,758.413 107.184,758.729 C 109.813,759.151 112.548,760.991 115.4,764.251 C 117.911,767.616 120.172,769.508 122.196,769.929 C 132.672,772.243 139.403,773.925 142.373,774.976 C 143.201,775.292 144.581,776.239 146.488,777.816 C 148.381,779.393 149.813,780.392 150.773,780.813 C 154.453,782.705 157.74,785.072 160.592,787.911 Z M 94.684,736.172 C 94.328,736.804 93.7373,736.961 92.896,736.645 L 88.256,734.753 C 87.072,734.332 86.3493,734.121 86.1133,734.121 C 80.7627,732.544 76.9773,732.649 74.7693,734.437 C 72.5733,736.225 71.1147,737.96 70.4053,739.643 L 70.4053,739.8 C 70.2733,740.221 70.2213,740.589 70.2213,740.905 C 70.208,741.009 70.208,741.115 70.2213,741.22 C 72.9547,740.379 75.0453,738.855 76.4773,736.645 C 76.596,736.436 76.7667,736.277 77.004,736.172 C 78.436,735.647 79.6853,735.7 80.7627,736.331 C 81.4733,736.856 81.5907,737.381 81.1173,737.908 C 80.6453,738.539 80.04,738.644 79.3307,738.223 C 79.0933,738.119 78.7907,738.119 78.436,738.223 C 76.412,741.063 73.7307,742.903 70.4053,743.744 C 69.3267,743.955 68.4987,743.481 67.8947,742.324 C 67.408,741.483 67.408,740.432 67.8947,739.169 L 68.0787,738.855 C 70.1027,733.596 74.0333,730.967 79.8693,730.967 C 82.6027,730.967 84.9827,731.283 87.0067,731.913 L 89.1493,732.703 L 89.3333,732.703 L 93.9733,734.595 C 94.8013,734.911 95.052,735.436 94.684,736.172 Z M 72.1787,703.073 L 67.8947,706.859 C 66.8293,707.175 65.3707,707.78 63.5173,708.673 C 61.676,709.567 60.2173,711.328 59.152,713.957 C 57.72,717.309 56.2347,719.465 54.6827,720.412 L 54.328,720.569 C 51.9493,722.147 50.1613,723.777 48.9653,725.46 L 46.468,729.088 C 43.1293,733.82 39.3827,739.708 35.216,746.741 C 34.5053,748.529 32.7187,749.948 29.852,751 C 25.9227,752.577 22.36,754.785 19.1387,757.625 C 18.548,758.151 17.956,758.151 17.352,757.625 C 17.1147,757.415 16.996,757.152 16.996,756.836 C 16.996,756.521 17.1147,756.205 17.352,755.891 C 20.808,752.84 24.6213,750.527 28.788,748.949 C 30.9307,748.108 32.232,747.161 32.7187,746.111 C 33.428,743.901 37.24,737.816 44.1413,727.825 L 46.6387,724.355 C 48.072,722.357 50.1613,720.517 52.896,718.835 L 53.08,718.519 C 54.2627,717.888 55.2227,716.625 55.932,714.733 C 57.128,712.223 57.8387,710.803 58.0747,710.487 C 59.152,708.805 60.4013,707.543 61.8213,706.701 C 62.78,706.176 64.2667,705.649 66.2907,705.124 L 70.4053,701.496 C 70.6413,701.18 70.9307,701.023 71.2853,701.023 C 71.6533,701.023 71.9427,701.18 72.1787,701.496 C 72.7707,702.021 72.7707,702.548 72.1787,703.073 Z M 112.732,736.804 C 112.719,736.909 112.719,736.961 112.732,736.961 C 112.613,737.277 112.429,737.54 112.193,737.749 L 101.835,744.375 L 101.835,744.848 C 101.835,745.375 101.597,745.743 101.124,745.952 C 100.047,746.373 98.3253,747.635 95.932,749.739 C 94.512,751.421 91.5293,753.735 87.0067,756.679 L 86.468,756.995 C 85.048,757.836 81.7093,759.623 76.4773,762.357 L 74.1507,763.461 C 72.9547,764.408 71.0493,765.723 68.4333,767.405 C 66.8813,768.141 61.8867,769.719 53.4347,772.137 L 50.9373,772.925 C 49.8587,773.136 47.0987,774.845 42.6293,778.052 C 38.16,781.26 35.268,783.389 33.9667,784.441 C 33.3747,785.072 32.7707,785.072 32.1787,784.441 C 31.824,784.231 31.64,783.968 31.64,783.652 C 31.64,783.337 31.824,783.073 32.1787,782.864 C 33.3747,781.707 36.1627,779.604 40.5787,776.555 C 45.5733,772.979 48.728,771.033 50.0427,770.717 L 52.7253,769.929 C 56.76,768.772 61.584,767.248 67.184,765.355 C 68.38,764.408 70.2867,763.147 72.9027,761.569 L 75.0453,760.307 C 77.6613,759.045 80.9333,757.309 84.864,755.101 L 85.4027,754.785 C 88.3733,752.157 92.9613,748.635 99.1533,744.217 L 99.1533,743.744 C 99.1533,743.324 99.3373,743.008 99.692,742.797 L 107.184,737.908 L 107.184,737.908 L 109.34,736.645 C 108.499,735.804 107.671,735.173 106.829,734.753 C 106.001,734.332 104.213,734.28 101.48,734.595 C 98.496,735.016 96.064,735.752 94.1573,736.804 C 92.252,737.855 90.3987,738.907 88.6107,739.959 C 86.1133,741.431 84.2733,742.167 83.076,742.167 C 82.4853,742.167 81.828,742.115 81.1173,742.009 C 80.6453,742.009 80.1587,742.219 79.6853,742.64 C 78.1333,743.901 74.8613,744.269 69.8653,743.744 C 69.024,743.639 68.6693,743.219 68.788,742.483 C 68.788,741.641 69.2747,741.273 70.2213,741.377 C 74.388,741.904 76.9773,741.72 77.9893,740.825 C 79.0013,739.932 80.1587,739.591 81.4733,739.8 C 82.064,739.8 82.6027,739.8 83.076,739.8 C 83.9173,739.8 85.7053,738.959 88.44,737.277 C 89.3867,736.645 90.884,735.752 92.9093,734.595 C 96.3533,732.912 100.231,732.072 104.516,732.072 C 107.368,732.072 109.984,733.385 112.364,736.015 C 112.613,736.225 112.732,736.488 112.732,736.804 Z "/>
	</g>
</svg>