<?xml version="1.0" encoding="UTF-8" standalone="no"?>
<svg version="1.1" xmlns="http://www.w3.org/2000/svg" xmlns:xlink="http://www.w3.org/1999/xlink" width="160" height="120">
	<g id="bsl-x
	" transform="matrix(1, 0, 0, 1, -185, -680)">
		<path fill="black" stroke="black" stroke-width="0.1" d="M 336.343,749.896 C 334.909,748.844 331.992,745.584 327.588,740.116 C 325.327,737.592 322.225,733.701 318.295,728.443 C 316.625,726.024 315.587,724.763 315.167,724.657 C 314.759,724.552 313.655,723.869 311.867,722.607 C 309.605,721.029 308.003,720.031 307.043,719.609 C 305.373,718.873 302.941,718.611 299.721,718.821 C 299.603,718.821 299.549,718.821 299.549,718.821 C 298.591,717.769 297.039,716.349 294.896,714.563 C 292.636,713.405 290.085,710.671 287.22,706.36 C 287.101,706.149 286.865,705.833 286.511,705.413 C 287.693,703.941 288.652,702.943 289.363,702.416 C 291.032,701.26 291.86,699.524 291.86,697.211 C 291.86,696.369 291.268,694.792 290.072,692.479 C 289.836,691.953 289.363,691.743 288.652,691.848 L 282.751,693.267 C 282.632,693.372 282.513,693.425 282.396,693.425 L 276.691,696.58 C 276.323,696.369 275.797,695.949 275.073,695.331 L 272.037,692.649 C 269.421,690.455 267.581,689.416 266.503,689.521 C 266.031,689.521 265.071,688.995 263.651,687.944 L 262.928,687.471 C 260.076,685.801 257.999,685.275 256.684,685.907 C 256.211,686.221 255.843,686.643 255.607,687.168 C 253.819,689.061 252.937,690.323 252.937,690.953 C 252.937,691.48 253.227,692.163 253.832,693.004 C 254.66,694.148 255.133,694.884 255.251,695.2 C 256.092,697.092 257.393,698.775 259.181,700.247 L 263.467,703.717 C 260.009,704.98 257.223,706.084 255.08,707.031 C 251.268,708.713 248.587,710.5 247.036,712.38 C 245.129,714.693 241.265,717.743 235.428,721.529 C 233.759,722.58 231.735,723.107 229.356,723.107 C 228.041,723.107 226.201,723.895 223.821,725.472 C 223.229,725.893 218.288,730.244 208.993,738.552 C 204.353,742.864 199.227,747.477 193.64,752.42 C 193.036,752.84 192.984,753.313 193.456,753.84 C 193.929,754.365 194.469,754.417 195.06,753.997 C 196.02,753.261 201.252,748.635 210.781,740.116 C 215.304,735.909 220.128,731.599 225.241,727.181 C 227.147,725.92 228.528,725.288 229.356,725.288 C 232.208,725.288 234.719,724.605 236.861,723.237 C 242.935,719.347 246.983,716.14 249.008,713.616 C 250.309,712.039 252.688,710.513 256.145,709.041 C 258.524,707.884 261.627,706.623 265.439,705.256 C 266.031,705.571 266.621,705.887 267.213,706.201 C 267.817,706.517 269.487,708.516 272.221,712.196 L 272.76,712.669 C 267.633,715.929 264.308,717.717 262.757,718.032 C 260.851,718.559 259.063,719.663 257.393,721.345 C 254.187,724.815 251.86,727.549 250.427,729.548 C 250.072,729.548 249.769,729.652 249.533,729.863 L 243.999,736.331 C 243.171,737.381 242.751,739.591 242.751,742.956 C 242.751,743.797 242.868,744.428 243.105,744.848 L 243.289,745.164 C 245.787,748.635 247.627,750.369 248.823,750.369 C 249.533,750.369 251.321,750.684 254.187,751.316 C 254.896,751.525 255.369,751.316 255.607,750.684 L 256.329,748.476 L 256.855,746.741 C 256.855,747.372 257.157,747.74 257.749,747.845 C 259.181,748.056 260.141,748.161 260.615,748.161 C 260.851,749.948 260.969,751.631 260.969,753.208 C 260.969,754.996 260.785,756.205 260.431,756.836 C 260.076,757.468 257.393,759.887 252.399,764.092 C 247.877,767.879 244.723,770.403 242.935,771.664 C 242.093,772.295 238.111,773.425 230.959,775.056 C 223.821,776.685 219.589,777.5 218.288,777.5 C 216.381,777.5 214.292,777.764 212.031,778.289 C 211.912,778.289 211.86,778.341 211.86,778.447 C 205.655,780.76 201.199,782.811 198.452,784.599 C 198.097,784.809 197.925,785.072 197.925,785.388 C 197.925,785.808 198.163,786.124 198.636,786.333 C 198.991,786.544 199.411,786.544 199.884,786.333 C 202.264,784.756 206.496,782.759 212.569,780.34 C 214.712,779.919 216.592,779.709 218.196,779.709 C 219.799,779.709 224.295,778.841 231.683,777.107 C 239.056,775.371 243.289,774.136 244.355,773.399 C 246.024,772.243 249.06,769.824 253.464,766.143 C 258.945,761.516 261.955,758.729 262.481,757.783 C 263.02,756.836 263.296,755.259 263.296,753.051 C 263.296,751.368 263.164,749.475 262.928,747.372 C 262.915,747.267 262.915,747.161 262.928,747.056 C 262.928,746.636 262.691,746.268 262.219,745.952 C 261.863,745.847 261.508,745.9 261.14,746.111 C 260.667,746.005 259.603,745.847 257.933,745.637 L 258.288,744.691 C 260.431,740.905 261.508,738.696 261.508,738.065 L 261.679,737.277 C 261.797,736.331 261.863,735.752 261.863,735.541 C 261.863,734.491 261.469,733.623 260.693,732.939 C 259.931,732.256 257.104,731.545 252.215,730.809 C 253.648,728.916 256.027,726.235 259.365,722.765 C 259.957,722.028 261.324,721.135 263.467,720.083 C 265.255,719.663 268.764,717.823 274.009,714.563 C 277.689,719.609 279.899,722.449 280.608,723.08 C 281.331,724.552 282.225,726.34 283.289,728.443 L 276.861,731.743 C 276.271,732.072 275.429,733.071 274.364,734.74 C 273.287,736.423 272.76,737.527 272.76,738.052 L 272.76,738.999 C 272.643,741.312 272.695,742.943 272.931,743.889 C 270.552,743.889 269.001,745.099 268.291,747.517 C 267.936,749.199 268.357,751.513 269.54,754.457 C 270.972,757.928 272.879,760.293 275.257,761.556 L 277.4,762.817 C 288.955,769.127 296.277,772.373 299.365,772.584 L 302.403,772.741 C 305.741,772.952 309.789,773.32 314.548,773.847 C 316.217,774.372 322.699,779.104 334.016,788.043 C 334.608,788.464 335.147,788.411 335.62,787.885 C 336.211,787.359 336.211,786.885 335.62,786.465 C 324.079,777.211 317.283,772.335 315.259,771.809 C 313.72,771.493 309.488,771.072 302.587,770.547 L 299.549,770.389 C 296.921,770.179 289.955,767.024 278.649,760.924 L 276.507,759.82 C 274.6,758.769 273.049,756.719 271.867,753.681 C 270.788,751.157 270.368,749.265 270.617,748.003 C 270.972,747.056 271.445,746.425 272.037,746.111 C 272.76,745.9 273.825,746.057 275.257,746.584 C 276.087,747.004 277.4,747.635 279.188,748.476 L 280.083,748.949 C 283.289,750.527 285.196,751.316 285.787,751.316 C 286.983,751.316 288.941,749.633 291.689,746.268 C 291.808,746.057 291.86,745.847 291.86,745.637 L 291.86,743.113 C 291.86,742.061 291.059,739.537 289.455,735.541 C 287.851,731.545 286.681,729.075 285.971,728.128 C 285.261,726.34 284.065,724.184 282.396,721.66 C 281.685,721.029 279.241,717.823 275.073,712.039 L 274.18,711.092 C 272.273,708.463 270.552,706.465 269.001,705.097 C 266.976,703.52 265.017,701.996 263.112,700.524 L 260.785,698.631 C 259.484,697.473 258.432,696.159 257.669,694.687 C 256.895,693.215 256.264,692.163 255.791,691.532 C 255.553,691.321 255.435,691.112 255.435,690.901 C 255.435,690.585 255.843,690.06 256.684,689.324 C 257.512,688.588 257.933,688.061 257.933,687.747 C 258.643,687.641 259.892,688.115 261.679,689.167 C 261.679,689.167 261.863,689.271 262.219,689.481 C 264.005,690.953 265.491,691.637 266.688,691.532 C 266.924,691.532 268.107,692.427 270.249,694.213 L 273.471,696.895 C 280.74,703.1 284.656,706.623 285.261,707.464 C 288.351,712.091 291.151,715.088 293.648,716.455 C 295.08,717.927 297.289,719.925 300.26,722.449 C 302.284,723.501 304.847,725.288 307.936,727.812 C 308.291,728.443 308.777,728.601 309.369,728.285 C 310.079,727.971 310.263,727.497 309.908,726.865 C 309.304,725.604 308.12,724.5 306.333,723.553 C 303.599,721.976 302.1,721.083 301.864,720.872 C 303.769,720.872 305.136,721.056 305.977,721.424 C 306.805,721.792 308.239,722.685 310.263,724.105 C 312.288,725.525 313.471,726.34 313.839,726.551 C 314.193,726.761 314.969,727.76 316.152,729.548 C 316.507,730.073 319.661,734.017 325.616,741.377 C 330.152,747.056 333.24,750.421 334.909,751.473 C 335.501,751.893 336.04,751.841 336.513,751.316 C 336.987,750.789 336.935,750.316 336.343,749.896 Z M 259.181,734.595 C 259.3,734.805 259.365,735.121 259.365,735.541 C 259.352,735.647 259.352,736.12 259.365,736.961 L 259.181,738.065 C 259.063,738.487 258.051,740.379 256.145,743.744 C 254.949,746.057 254.239,747.425 254.003,747.845 L 253.648,748.949 C 251.387,748.424 249.901,748.108 249.179,748.003 C 248.468,747.897 247.153,746.531 245.248,743.901 L 245.077,743.744 C 245.064,743.533 245.064,743.324 245.077,743.113 C 245.077,741.851 245.367,740.011 245.971,737.592 L 250.072,732.703 C 250.191,732.703 250.256,732.703 250.256,732.703 C 255.369,733.333 258.353,733.964 259.181,734.595 Z M 289.363,745.321 C 287.693,747.425 286.511,748.739 285.8,749.265 C 285.196,749.055 283.408,748.161 280.437,746.584 C 279.359,746.163 277.94,745.479 276.152,744.533 C 276.152,744.533 276.087,744.533 275.968,744.533 C 275.849,744.323 275.731,744.165 275.613,744.06 C 275.14,743.639 274.956,742.009 275.073,739.169 L 275.073,738.065 C 275.073,737.435 276.152,735.963 278.295,733.649 L 284.723,730.179 C 286.155,732.703 287.693,737.067 289.363,743.271 Z M 278.465,698.157 L 283.473,695.317 C 283.592,695.317 285.196,694.949 288.297,694.213 C 289.008,695.791 289.363,696.791 289.363,697.211 C 289.363,698.893 288.916,700.051 288.021,700.681 C 287.128,701.312 286.089,702.364 284.907,703.836 C 283.355,702.364 281.212,700.471 278.465,698.157 Z "/>
	</g>
</svg>