<?xml version="1.0" encoding="UTF-8" standalone="no"?>
<svg version="1.1" xmlns="http://www.w3.org/2000/svg" xmlns:xlink="http://www.w3.org/1999/xlink" width="130" height="130">
	<g id="bsl-y
	" transform="matrix(1, 0, 0, 1, -350, -670)">
		<path fill="black" stroke="black" stroke-width="0.1" d="M 473.067,787.753 C 473.067,788.384 472.711,788.7 472.001,788.7 C 471.279,788.805 470.857,788.543 470.752,787.911 C 469.556,778.973 467.229,772.453 463.785,768.352 C 463.417,767.825 463.011,766.616 462.524,764.724 C 462.051,762.831 461.629,761.673 461.275,761.253 C 460.92,760.832 459.199,759.939 456.096,758.572 L 454.492,759.045 C 454.729,759.781 455.268,760.832 456.096,762.2 C 456.464,762.725 456.332,763.199 455.741,763.62 C 455.149,764.04 454.676,764.04 454.308,763.62 C 453.953,763.199 453.48,762.2 452.888,760.623 C 452.652,760.201 452.047,759.151 451.101,757.468 L 450.207,756.048 C 449.852,755.523 449.248,754.313 448.419,752.42 L 443.949,751.789 L 442.347,752.104 C 442.937,753.156 443.24,753.944 443.24,754.471 C 443.24,756.468 443.424,757.677 443.779,758.099 C 444.252,758.624 444.2,759.097 443.595,759.519 C 443.004,759.833 442.464,759.728 441.991,759.203 C 441.519,758.677 441.189,757.599 441.005,755.969 C 440.835,754.339 440.505,753.156 440.033,752.42 C 439.664,752.209 439.493,751.947 439.493,751.631 C 439.008,750.789 438.719,750.212 438.6,749.896 C 437.877,748.424 436.576,747.056 434.669,745.795 C 434.433,745.584 433.237,745.479 431.095,745.479 L 429.845,745.479 C 429.609,745.479 429.307,745.479 428.952,745.479 C 428.833,745.584 428.663,745.795 428.412,746.111 L 428.057,746.425 C 427.584,746.847 427.348,747.635 427.348,748.792 C 427.348,748.792 427.4,749.212 427.519,750.053 C 427.519,750.264 427.467,750.421 427.348,750.527 C 427.821,751.263 428.241,752.263 428.596,753.524 L 428.768,754.155 C 429.017,754.785 428.768,755.207 428.057,755.417 C 427.348,755.627 426.861,755.417 426.625,754.785 L 426.453,753.997 C 426.217,753.261 425.612,752.209 424.667,750.843 C 424.193,750.001 423.233,748.687 421.813,746.899 C 420.855,746.057 420.079,744.743 419.487,742.956 C 418.659,740.641 418.055,739.223 417.7,738.696 C 416.871,737.224 416.029,735.489 415.201,733.491 L 414.663,732.387 C 413.716,730.809 412.336,728.443 410.561,725.288 L 410.193,724.5 C 409.72,723.448 408.945,722.476 407.88,721.581 C 406.803,720.688 405.856,720.293 405.015,720.399 C 404.423,720.293 403.713,720.399 402.872,720.715 C 402.399,722.081 402.161,723.08 402.161,723.711 C 402.161,724.237 402.425,725.025 402.964,726.077 C 403.503,727.129 403.765,727.917 403.765,728.443 C 403.765,732.965 404.252,736.277 405.199,738.381 C 405.317,738.696 405.856,739.696 406.803,741.377 C 408.353,744.007 409.221,745.559 409.392,746.031 C 409.576,746.504 410.325,747.793 411.627,749.896 C 412.468,751.053 413.296,752.735 414.124,754.944 C 414.243,755.049 414.308,755.207 414.308,755.417 C 414.308,755.627 414.243,755.837 414.124,756.048 L 414.124,756.679 C 414.124,759.623 414.308,761.359 414.663,761.884 C 415.136,762.725 415.385,763.988 415.385,765.669 C 415.385,766.091 415.385,766.827 415.385,767.879 L 415.201,768.825 C 415.201,769.351 415.623,771.612 416.451,775.608 L 424.127,788.227 C 424.245,788.332 424.311,788.489 424.311,788.7 C 424.311,789.12 424.075,789.384 423.588,789.489 C 422.997,789.804 422.524,789.699 422.168,789.173 L 414.492,776.396 C 414.36,776.291 414.308,776.185 414.308,776.081 C 413.48,771.875 413.059,769.456 413.059,768.825 L 413.059,767.879 C 413.177,765.144 413.033,763.461 412.612,762.831 C 412.192,762.2 411.981,761.096 411.981,759.519 C 411.153,760.78 410.615,761.621 410.377,762.041 C 409.431,763.409 407.932,765.355 405.908,767.879 C 405.789,768.193 405.383,769.667 404.66,772.295 C 402.872,780.183 401.387,784.915 400.204,786.492 C 399.717,787.017 399.191,787.071 398.587,786.649 C 397.995,786.333 397.929,785.913 398.416,785.388 C 399.48,784.02 400.848,779.551 402.517,771.98 C 403.24,768.929 403.713,767.195 403.949,766.775 C 405.133,765.617 406.631,763.829 408.419,761.411 C 408.892,760.36 410.023,758.361 411.811,755.417 C 411.811,754.996 411.811,754.733 411.811,754.628 C 411.692,754.417 410.943,753.183 409.576,750.921 C 408.208,748.66 407.433,747.293 407.249,746.82 C 407.079,746.347 406.276,744.796 404.844,742.167 C 404.371,741.325 403.765,740.327 403.056,739.169 C 401.977,736.856 401.452,733.281 401.452,728.443 C 401.452,728.128 401.241,727.497 400.821,726.551 C 400.4,725.604 400.137,724.973 400.019,724.657 C 399.901,723.816 399.953,722.869 400.204,721.819 C 396.155,718.979 394.012,717.139 393.763,716.297 C 393.644,716.087 393.408,715.667 393.052,715.036 L 392.343,713.931 C 392.107,713.511 391.685,712.353 391.093,710.461 C 390.135,706.885 389.307,704.52 388.583,703.363 C 387.164,701.049 386.085,698.683 385.376,696.264 C 384.653,693.845 383.943,691.585 383.233,689.481 C 382.76,688.325 382.103,686.695 381.261,684.592 C 380.907,683.224 380.223,681.884 379.211,680.569 C 378.199,679.255 376.74,678.808 374.833,679.228 C 374.36,679.123 373.769,679.492 373.045,680.332 C 372.691,681.173 372.993,682.173 373.94,683.329 C 374.057,684.801 374.544,686.8 375.372,689.324 C 376.083,690.06 376.805,691.637 377.515,694.056 C 378.225,696.475 378.593,698.157 378.593,699.104 C 378.593,702.889 378.883,705.124 379.473,705.808 C 380.079,706.491 380.972,708.831 382.155,712.827 C 382.76,714.931 383.168,716.349 383.404,717.087 C 384.127,718.768 384.416,720.345 384.297,721.819 L 384.297,722.292 C 384.297,723.028 383.891,723.396 383.049,723.396 C 382.339,723.291 381.984,722.975 381.984,722.449 L 381.984,722.292 L 381.984,721.66 C 382.103,721.24 382.155,721.029 382.155,721.029 C 382.155,720.083 381.867,718.979 381.261,717.717 C 381.025,716.981 380.617,715.508 380.012,713.3 C 378.948,709.62 378.172,707.516 377.699,706.991 C 376.857,705.939 376.437,703.311 376.437,699.104 C 376.437,698.368 376.083,696.869 375.372,694.608 C 374.663,692.347 374.057,690.953 373.585,690.428 C 372.756,689.481 372.217,687.431 371.981,684.276 C 371.021,683.224 370.548,682.12 370.548,680.964 C 370.548,680.753 370.613,680.596 370.732,680.491 C 369.181,679.755 367.815,679.228 366.617,678.913 C 365.908,678.703 365.199,678.913 364.475,679.544 C 364.593,681.227 364.948,683.697 365.553,686.957 C 366.263,689.271 366.617,690.848 366.617,691.689 C 366.617,692.531 366.828,693.425 367.249,694.372 C 367.656,695.317 368.103,697.211 368.589,700.051 L 368.944,701.628 C 369.063,702.364 369.3,703.468 369.655,704.94 L 370.009,705.887 C 370.128,706.201 370.613,706.991 371.443,708.252 C 372.756,710.145 373.532,712.196 373.769,714.404 C 374.124,717.033 374.479,718.664 374.833,719.295 C 375.912,721.608 376.437,723.501 376.437,724.973 C 376.437,725.393 376.2,725.709 375.728,725.92 C 375.017,726.129 374.544,725.92 374.308,725.288 C 374.057,724.132 373.532,722.396 372.691,720.083 C 372.217,719.032 371.863,717.244 371.627,714.72 C 371.259,712.721 370.548,710.881 369.484,709.199 C 368.524,707.832 367.985,706.885 367.867,706.36 L 367.512,705.413 C 367.393,704.783 367.091,703.625 366.617,701.943 L 366.447,700.208 C 366.197,698.945 365.789,697.264 365.199,695.16 C 364.712,694.004 364.475,692.795 364.475,691.532 C 364.475,690.901 364.12,689.587 363.411,687.588 C 363.292,687.168 363.161,686.748 363.043,686.327 L 360.729,686.327 L 359.48,687.431 C 359.361,687.957 359.296,688.588 359.296,689.324 C 359.296,688.272 359.651,690.48 360.375,695.949 C 360.492,697.316 361.084,699.84 362.148,703.52 C 363.227,706.78 363.765,709.252 363.765,710.935 C 363.765,711.249 363.673,711.512 363.489,711.723 C 363.319,711.933 363.227,712.039 363.227,712.039 C 363.227,712.459 363.7,713.195 364.659,714.247 C 365.843,715.613 366.5,716.403 366.617,716.613 C 366.855,717.139 367.341,718.768 368.051,721.503 C 368.405,722.869 368.879,724.395 369.484,726.077 C 369.839,726.603 369.72,727.076 369.116,727.497 C 368.524,727.812 368.051,727.733 367.696,727.26 C 367.341,726.787 366.855,725.393 366.263,723.08 L 365.908,721.819 C 365.553,720.556 365.067,719.136 364.475,717.559 C 364.357,717.244 363.647,716.349 362.332,714.877 C 361.504,713.931 361.084,712.985 361.084,712.039 C 361.084,711.512 361.203,711.092 361.439,710.776 C 361.439,710.356 361.203,709.461 360.729,708.095 C 360.005,705.887 359.361,703.257 358.757,700.208 L 358.587,699.104 C 357.995,699.104 357.575,699.156 357.337,699.261 C 357.337,701.155 357.456,702.627 357.692,703.679 C 357.692,703.888 358.165,705.413 359.125,708.252 C 359.599,710.145 359.835,711.776 359.835,713.143 C 359.835,713.459 360.847,715.613 362.872,719.609 C 363.7,721.083 364.541,722.607 365.369,724.184 C 366.447,726.077 366.973,727.549 366.973,728.601 C 366.973,733.333 367.985,738.065 370.009,742.797 C 372.52,749.107 374.544,756.153 376.083,763.935 L 376.083,764.092 C 376.2,765.775 373.401,773.189 367.696,786.333 C 367.459,786.86 366.973,787.017 366.263,786.807 C 365.789,786.701 365.553,786.387 365.553,785.861 C 365.553,785.229 366.947,781.839 369.747,775.687 C 372.547,769.535 373.887,765.723 373.769,764.251 L 373.769,764.251 C 372.336,756.468 370.364,749.58 367.867,743.587 C 365.843,738.644 364.831,733.649 364.831,728.601 C 364.831,727.865 364.304,726.551 363.227,724.657 C 362.399,723.185 361.557,721.765 360.729,720.399 C 358.704,716.192 357.692,713.773 357.692,713.143 C 357.692,711.985 357.391,710.461 356.799,708.568 C 355.971,705.833 355.484,704.309 355.365,703.993 C 355.129,702.837 355.011,701.101 355.011,698.788 C 355.011,697.736 356.089,697.159 358.232,697.053 L 358.048,696.264 C 357.337,690.901 356.983,688.588 356.983,689.324 C 356.983,688.272 357.101,687.379 357.337,686.643 C 357.456,686.432 357.575,686.275 357.692,686.169 L 359.48,684.592 C 359.717,684.381 360.005,684.276 360.375,684.276 L 362.516,684.276 C 362.516,683.224 362.399,681.581 362.161,679.373 C 362.044,678.743 362.477,678.151 363.489,677.625 C 364.501,677.099 365.369,676.836 366.092,676.836 C 367.157,676.836 368.944,677.428 371.443,678.597 C 372.152,677.428 373.164,676.901 374.479,677.033 C 374.952,676.901 375.439,676.836 375.912,676.836 C 379.724,676.836 382.273,679.111 383.588,683.672 C 383.707,684.525 384.297,686.169 385.376,688.601 L 385.376,688.759 C 386.204,690.875 386.953,693.136 387.611,695.515 C 388.255,697.908 389.24,700.103 390.555,702.113 C 391.383,703.495 392.343,706.097 393.408,709.909 C 393.644,710.763 393.947,711.763 394.301,712.932 L 395.024,714.036 C 395.143,714.365 395.379,714.839 395.735,715.469 C 396.089,716.113 397.811,717.547 400.913,719.768 C 401.505,718.716 402.819,718.243 404.844,718.348 C 406.631,718.137 408.589,719.032 410.732,721.029 C 412.284,721.135 413.532,720.715 414.492,719.768 C 418.055,715.981 421.275,713.037 424.127,710.935 C 426.507,709.147 429.253,708.252 432.343,708.252 C 433.539,708.252 435.024,708.62 436.812,709.357 C 438.6,710.093 439.428,710.935 439.309,711.88 C 440.151,711.88 440.559,712.196 440.559,712.827 C 440.559,713.248 440.388,713.563 440.033,713.773 L 433.776,716.928 L 432.881,717.559 C 432.645,718.296 432.408,718.927 432.172,719.452 C 431.095,721.345 429.543,723.764 427.519,726.708 L 426.099,728.759 C 425.021,730.336 422.76,733.123 419.303,737.119 L 419.841,737.749 C 420.447,739.853 421.577,742.429 423.233,745.479 C 424.193,746.216 424.851,747.004 425.205,747.845 C 425.324,746.688 425.679,745.795 426.269,745.164 L 426.625,744.848 C 427.467,744.007 428.531,743.587 429.845,743.587 L 430.923,743.587 C 433.657,743.481 435.38,743.692 436.103,744.217 C 438.245,745.689 439.783,747.372 440.743,749.265 C 440.743,749.475 440.913,749.844 441.281,750.369 L 443.595,749.739 C 443.713,749.739 443.897,749.739 444.133,749.739 L 449.313,750.684 C 449.787,750.684 450.088,750.843 450.207,751.157 C 450.561,752.104 451.219,753.419 452.165,755.101 L 453.428,757.152 L 455.741,756.521 C 456.096,756.521 456.399,756.573 456.635,756.679 C 460.684,758.361 462.944,759.519 463.417,760.149 C 463.904,760.78 464.259,761.937 464.496,763.62 C 464.732,765.301 465.153,766.459 465.744,767.089 C 470.029,772.243 472.475,779.131 473.067,787.753 Z M 437.707,712.512 C 437.469,712.407 437.285,712.196 437.167,711.88 C 437.049,711.565 435.8,711.04 433.421,710.303 C 431.041,709.672 428.452,710.383 425.652,712.433 C 422.852,714.483 419.724,717.349 416.267,721.029 C 415.201,722.081 413.769,722.712 411.981,722.923 L 412.704,724.657 C 413.769,726.129 415.136,728.443 416.805,731.599 L 417.344,732.86 C 417.581,733.281 417.884,734.017 418.239,735.068 C 421.328,731.493 423.299,729.075 424.127,727.812 L 425.731,725.604 C 426.572,724.343 428.057,722.028 430.2,718.664 C 430.437,718.137 430.621,717.559 430.739,716.928 C 430.857,716.717 430.976,716.508 431.095,716.297 L 432.172,715.351 C 432.291,715.245 432.408,715.193 432.527,715.193 Z "/>
	</g>
</svg>