<?xml version="1.0" encoding="UTF-8" standalone="no"?>
<svg version="1.1" xmlns="http://www.w3.org/2000/svg" xmlns:xlink="http://www.w3.org/1999/xlink" width="145" height="130">
	<g id="bsl-z
	" transform="matrix(1, 0, 0, 1, -475, -670)">
		<path id="dp_path033" fill="black" stroke="black" stroke-width="0.1" d="M 614.075,727.812 C 613.601,728.443 613.063,728.496 612.471,727.971 C 610.565,726.708 607.765,724.815 604.072,722.292 C 602.769,721.451 600.615,720.556 597.644,719.609 C 593.121,718.137 590.86,717.401 590.86,717.401 L 586.036,715.508 C 584.012,714.772 581.515,713.773 578.531,712.512 L 578.005,712.353 C 574.193,710.671 571.683,709.988 570.499,710.303 C 569.54,710.829 567.883,711.408 565.491,712.039 C 560.732,713.405 557.525,714.195 555.856,714.404 C 552.161,714.825 547.929,715.613 543.171,716.771 L 541.212,717.244 C 538.82,717.769 537.308,717.927 536.651,717.717 C 535.993,717.507 533.824,717.717 530.131,718.348 C 527.988,718.768 523.703,718.927 517.275,718.821 L 517.275,718.821 C 517.156,719.557 517.209,720.504 517.459,721.66 C 519.839,723.975 521.744,725.025 523.164,724.815 C 526.976,724.5 531.38,724.657 536.388,725.288 C 538.649,725.709 540.555,725.815 542.105,725.604 C 543.88,725.393 545.852,725.393 547.995,725.604 L 549.06,725.604 C 549.545,725.604 549.901,725.761 550.137,726.077 L 550.847,725.761 C 552.044,725.131 554.961,724.027 559.601,722.449 L 561.389,721.976 C 564.36,721.451 568.475,720.609 573.707,719.452 C 573.707,719.032 573.891,718.716 574.245,718.505 C 575.441,717.98 576.033,718.348 576.033,719.609 C 576.033,720.556 575.323,721.187 573.891,721.503 C 571.275,721.819 567.344,722.607 562.1,723.869 L 560.312,724.343 C 558.169,725.079 555.369,726.129 551.925,727.497 C 550.729,728.339 548.823,729.6 546.207,731.283 C 546.325,731.493 546.391,731.651 546.391,731.756 C 546.391,731.967 546.273,732.176 546.023,732.387 L 542.277,735.7 C 542.159,735.804 542.105,735.909 542.105,736.015 C 542.105,736.12 542.159,736.225 542.277,736.331 L 543,737.119 C 543.828,738.065 544.892,738.223 546.207,737.592 C 548.704,737.172 551.807,736.225 555.5,734.753 C 557.157,733.071 559.247,732.176 561.744,732.072 C 562.1,732.072 562.336,732.124 562.455,732.229 C 563.296,732.335 564.611,732.387 566.384,732.387 C 567.225,732.387 567.791,732.281 568.08,732.072 C 568.383,731.861 568.645,731.756 568.895,731.756 C 569.368,731.545 569.841,731.703 570.315,732.229 C 570.801,732.755 572.287,733.753 574.784,735.227 C 575.731,735.857 578.057,737.749 581.751,740.905 C 584.131,743.113 586.812,744.585 589.783,745.321 C 594.791,746.584 598.183,747.635 599.971,748.476 C 600.088,748.371 600.207,748.319 600.325,748.319 C 601.627,747.793 602.284,748.265 602.284,749.739 C 602.284,749.948 602.165,750.212 601.929,750.527 C 602.047,751.157 602.231,751.893 602.468,752.735 L 603.177,756.048 C 606.28,769.403 607.831,777.973 607.831,781.76 C 607.831,784.809 607.173,786.019 605.859,785.388 C 605.385,785.283 605.149,785.02 605.149,784.599 C 605.149,784.283 605.201,783.836 605.32,783.257 C 605.439,782.68 605.504,782.232 605.504,781.917 C 605.504,778.236 603.953,769.771 600.864,756.521 L 600.141,753.208 C 599.904,752.263 599.72,751.421 599.603,750.684 L 599.247,750.527 C 598.301,750.001 594.909,748.897 589.073,747.215 C 585.735,746.373 582.881,744.901 580.503,742.797 C 576.927,739.537 574.548,737.592 573.352,736.961 C 571.445,735.7 570.025,734.7 569.067,733.964 C 568.475,734.28 567.581,734.437 566.384,734.437 C 563.532,734.437 561.811,734.332 561.205,734.121 C 559.668,734.332 558.379,734.963 557.367,736.015 C 556.355,737.067 554.725,737.749 552.464,738.065 C 549.835,738.487 548.087,738.933 547.193,739.407 C 546.299,739.88 545.379,740.116 544.42,740.116 C 543.355,740.116 542.277,739.537 541.212,738.381 L 540.673,737.749 C 540.081,737.224 539.779,736.699 539.779,736.172 C 539.779,735.436 540.081,734.805 540.673,734.28 L 543.88,731.44 C 543.763,731.335 543.709,731.231 543.709,731.125 C 543.709,730.704 544.485,729.916 546.023,728.759 C 546.747,728.233 547.337,727.865 547.811,727.655 C 545.787,727.444 543.947,727.444 542.277,727.655 C 540.489,727.865 538.347,727.707 535.849,727.181 C 529.539,726.761 525.491,726.656 523.703,726.865 C 521.915,727.076 519.891,726.34 517.629,724.657 C 517.629,725.184 517.459,725.945 517.091,726.945 C 516.736,727.944 516.565,728.864 516.565,729.705 C 516.565,730.547 516.5,731.177 516.381,731.599 C 516.5,732.019 517.039,733.649 517.985,736.488 C 519.536,740.589 520.429,743.441 520.667,745.019 L 521.021,747.069 C 521.981,752.539 522.271,756.167 521.915,757.953 C 521.441,759.636 520.483,762.265 519.063,765.841 C 517.393,769.837 516.236,772.177 515.579,772.86 C 514.921,773.544 514.028,776.081 512.897,780.445 C 511.767,784.809 511.201,787.385 511.201,788.175 C 511.201,788.963 510.781,789.357 509.953,789.357 C 509.243,789.357 508.875,788.989 508.875,788.253 C 508.875,787.307 509.415,784.625 510.492,780.208 C 511.793,775.265 512.805,772.479 513.528,771.835 C 514.239,771.204 515.303,769.101 516.736,765.525 C 518.169,761.949 519.115,759.268 519.601,757.48 C 519.956,755.903 519.655,752.539 518.708,747.385 L 518.34,745.335 C 518.103,743.863 517.275,741.128 515.843,737.132 C 514.541,733.544 514.001,731.493 514.239,730.967 C 514.12,730.021 514.409,728.285 515.132,725.761 C 515.369,725.131 515.369,724.027 515.119,722.449 C 514.883,722.133 514.883,721.765 515.132,721.345 C 514.896,720.083 514.829,718.873 514.948,717.717 C 515.067,715.929 514.541,714.772 513.344,714.247 C 512.753,714.247 512.332,713.984 512.096,713.459 C 511.623,713.248 510.611,713.405 509.059,713.931 C 508.468,714.668 507.863,715.824 507.272,717.401 C 505.72,721.503 504.945,724.815 504.945,727.339 C 504.945,727.549 504.945,727.917 504.945,728.443 C 505.076,728.969 505.129,729.337 505.129,729.548 C 505.129,730.284 504.945,731.335 504.589,732.703 L 504.235,733.964 C 503.171,737.645 502.276,740.8 501.553,743.428 C 501.317,744.06 500.844,744.323 500.133,744.217 C 499.292,744.007 499.004,743.587 499.24,742.956 C 500.777,737.803 501.672,734.648 501.908,733.491 L 502.276,732.229 C 502.749,730.652 502.868,729.389 502.632,728.443 C 502.276,725.92 503.039,722.028 504.945,716.771 C 505.787,714.563 506.707,713.011 507.719,712.117 C 508.731,711.224 510.308,711.04 512.451,711.565 C 512.569,710.513 512.635,709.304 512.635,707.937 C 512.516,707.201 512.451,706.465 512.451,705.729 C 512.451,705.308 512.516,704.704 512.635,703.915 C 512.753,703.127 512.805,702.573 512.805,702.259 C 512.924,700.155 513.279,698.315 513.884,696.737 C 514.12,696.001 514.239,695.265 514.239,694.529 C 514.239,693.899 514.093,692.979 513.792,691.769 C 513.489,690.56 513.344,689.639 513.344,689.008 C 513.344,687.325 512.872,685.169 511.912,682.541 C 511.675,681.911 510.847,681.489 509.415,681.279 L 508.336,687.747 C 508.336,688.061 508.165,688.325 507.811,688.535 L 506.732,689.008 C 506.732,689.324 506.141,692.636 504.945,698.945 L 504.589,701.155 C 504.353,702.416 504.235,703.415 504.235,704.152 C 504.235,705.203 503.933,706.044 503.341,706.675 C 502.749,707.307 502.159,708.989 501.553,711.723 L 500.66,715.193 C 500.068,718.137 499.292,721.029 498.347,723.869 C 498.347,723.975 498.28,724.079 498.163,724.184 L 497.268,725.288 C 497.149,725.604 496.913,725.815 496.559,725.92 L 493.877,730.179 C 494.823,733.649 495.309,736.068 495.309,737.435 C 495.309,738.171 495.244,739.353 495.125,740.984 C 495.007,742.613 494.955,743.771 494.955,744.453 C 494.955,745.137 494.652,747.951 494.061,752.893 C 493.456,758.781 493.167,762.2 493.167,763.147 C 493.167,764.513 492.036,767.72 489.763,772.768 C 487.988,776.764 486.608,779.604 485.661,781.287 C 485.307,781.917 484.767,782.075 484.057,781.76 C 483.453,781.444 483.281,780.971 483.519,780.34 C 484.479,778.657 485.845,775.817 487.633,771.821 C 489.776,767.089 490.84,764.224 490.84,763.225 C 490.84,762.225 491.195,758.677 491.905,752.577 C 492.392,747.845 492.628,745.137 492.628,744.453 C 492.628,743.771 492.72,742.613 492.891,740.984 C 493.075,739.353 493.167,738.171 493.167,737.435 C 493.167,736.172 492.628,733.753 491.551,730.179 C 491.551,729.968 491.616,729.705 491.735,729.389 L 494.955,724.657 L 495.125,724.343 C 495.125,724.132 495.125,723.948 495.125,723.789 C 495.125,723.632 495.125,723.317 495.125,722.844 C 495.125,722.371 495.125,721.976 495.125,721.66 C 495.125,720.609 495.244,719.663 495.48,718.821 C 495.967,714.195 496.979,707.253 498.517,698 C 498.753,696.527 499.056,695.607 499.411,695.239 C 499.765,694.871 500.252,693.477 500.844,691.059 L 501.908,686.011 C 501.908,685.907 501.975,685.801 502.092,685.696 L 505.484,680.964 C 505.957,680.332 506.496,680.228 507.088,680.648 L 507.272,680.648 L 507.272,680.017 C 507.389,679.387 507.745,679.071 508.349,679.071 C 509.415,679.176 510.308,679.333 511.017,679.544 C 512.687,679.964 513.7,680.753 514.055,681.911 C 514.541,683.803 515.185,686.905 516.027,691.217 C 516.617,693.636 516.617,695.685 516.027,697.368 C 515.908,698.945 515.553,701.312 514.948,704.467 C 514.829,704.888 514.829,706.044 514.948,707.937 L 514.777,710.619 C 514.764,711.46 514.764,712.091 514.777,712.512 C 515.843,713.143 516.565,714.089 516.92,715.351 C 523.584,713.984 527.804,713.3 529.592,713.3 C 532.221,713.3 536.085,712.775 541.212,711.723 L 543.709,711.092 C 546.799,710.461 549.783,710.303 552.635,710.619 C 554.777,710.935 557.643,710.829 561.205,710.303 C 562.993,709.988 564.189,709.883 564.781,709.988 C 564.899,709.988 565.017,709.988 565.136,709.988 L 565.32,709.988 C 565.439,709.988 565.609,709.988 565.859,709.988 C 566.332,709.883 567.133,709.541 568.264,708.963 C 569.395,708.384 570.381,708.095 571.209,708.095 C 572.879,708.095 575.495,708.884 579.069,710.461 L 579.608,710.776 C 580.2,711.092 582.645,712.039 586.931,713.616 L 591.755,715.508 C 595.199,716.56 599.787,718.296 605.504,720.715 C 607.292,721.765 610.092,723.659 613.891,726.393 C 614.495,726.813 614.548,727.287 614.075,727.812 Z M 552.989,712.669 L 552.464,712.669 C 549.717,712.353 547.035,712.512 544.42,713.143 L 541.737,713.616 C 536.507,714.772 532.457,715.351 529.592,715.351 C 528.291,715.351 525.188,715.824 520.312,716.771 C 525.675,716.665 528.829,716.56 529.776,716.455 C 533.707,715.719 536.204,715.508 537.281,715.824 C 537.519,715.929 538.583,715.719 540.489,715.193 L 542.632,714.72 C 545.497,714.089 548.941,713.405 552.989,712.669 Z M 506.916,682.856 L 504.064,686.643 L 502.987,691.532 C 502.276,695.003 501.619,696.895 501.015,697.211 C 500.777,698.157 500.252,701.628 499.411,707.621 C 498.937,711.197 498.583,713.773 498.347,715.351 L 498.517,714.877 L 499.24,711.249 C 499.476,710.408 499.884,709.093 500.489,707.307 C 500.725,706.571 501.08,705.939 501.553,705.413 C 501.672,704.256 501.908,702.732 502.276,700.839 L 502.632,698.631 L 504.589,688.061 C 504.708,687.747 504.945,687.536 505.313,687.431 L 506.193,686.957 Z M 516.381,731.599 L 516.381,731.44 Z "/>
	</g>
</svg>