<svg width="20.971mm" height="38.202mm" version="1.1" viewBox="0 0 20.971 38.202" xmlns="http://www.w3.org/2000/svg">
 <g transform="translate(-115 -37.077)">
  <path d="m119.25 71.579-0.036-3.8365-3.947-9.4741-0.17862-3.6087-0.17861-3.6087 1.2935-1.1323c0.71141-0.62279 1.5316-1.6209 1.8226-2.218 0.42193-0.86565 0.75716-1.1612 1.6542-1.4582 0.8648-0.28637 1.1606-0.5357 1.2789-1.0779 0.28155-1.2908 0.35565-1.3778 1.6254-1.9071 0.71124-0.29652 1.6946-1.0154 2.2524-1.6467 0.94935-1.0743 1.0526-1.1202 2.5135-1.1168 0.83794 0.0019 1.7142 0.09716 1.9472 0.21164 0.32302 0.15869 0.73152-0.20064 1.7198-1.5128 1.2233-1.6242 1.3576-1.7216 2.3902-1.733 0.87194-0.0096 1.1789 0.11748 1.5122 0.62605 0.37913 0.57863 0.38034 0.85454 0.013 2.9592-0.38213 2.1893-0.37159 2.6084 0.18581 7.3831l0.59094 5.0621-2.1858 8.7504c-2.1424 8.5763-2.1797 8.7813-1.8782 10.301 0.16922 0.8529 0.36702 1.7591 0.43957 2.0138 0.10737 0.37693-0.0377 0.46302-0.78006 0.46302h-0.91196l-0.19131-3.5719c-0.10522-1.9645-0.26841-3.5737-0.36264-3.5759-0.0942-0.0021-0.34993-0.12044-0.56821-0.2627-0.32453-0.2115-0.14294-0.48808 0.99617-1.5173l1.393-1.2587 2.7248-12.137-0.44294-2.795c-0.27851-1.7574-0.44197-4.3421-0.44031-6.9622 3e-3 -3.9829-0.0206-4.1672-0.52321-4.1672-0.38677 0-0.77727 0.49928-1.4766 1.8879l-0.95073 1.8879 0.18974 5.8876 0.18975 5.8876-0.64037 0.41958c-0.38854 0.25459-0.8398 1.0063-1.1476 1.9117-0.53054 1.5608-0.73076 1.7268-2.6732 2.2157l-1.0816 0.27228 0.34833 2.3164c0.4772 3.1734 0.47146 3.2425-0.26953 3.2425-0.55176 0-0.67986-0.20373-1.0397-1.6536-0.2809-1.1318-0.34401-2.0085-0.19998-2.7781 0.18645-0.99631 0.15417-1.1245-0.2832-1.1245-0.2715 0-0.49364 0.17859-0.49364 0.39688 0 0.29854-0.31979 0.39688-1.2906 0.39688h-1.2906l-2.2151-2.63c-1.2183-1.4465-2.2905-2.6371-2.3827-2.6458-0.68566-0.06498-0.2484 1.6556 1.6853 6.6313l2.1466 5.5237h3.6117v0.75606c0 0.73042-0.0546 0.76176-1.61 0.92434-0.8855 0.09255-1.7189 0.2356-1.8521 0.31789-0.13314 0.08229-0.25105 0.58907-0.26202 1.1262-0.011 0.53712-0.17393 1.9886-0.36213 3.2255l-0.3422 2.249zm3.4061-13.402c0-0.06214-0.26446-0.47068-0.58769-0.90787-0.5184-0.70117-0.6098-0.7389-0.77516-0.32002-0.1031 0.26118-0.19583 0.72215-0.20606 1.0244-0.0157 0.46283 0.10658 0.53112 0.77516 0.43299 0.43656-0.06407 0.79375-0.16734 0.79375-0.22947zm2.0151-1.2976c-0.21913-0.57102-1.2213-0.48296-1.2213 0.10731 0 0.62376 1.1482 1.2078 1.2792 0.65062 0.0487-0.20708 0.0227-0.54816-0.0578-0.75794zm1.6705-1.6382c0.0113-0.36104-0.13759-0.59531-0.37828-0.59531-0.44869 0-0.46709 0.11196-0.22076 1.3436 0.14914 0.74568 0.20709 0.80141 0.37828 0.3638 0.11119-0.28423 0.21053-0.78467 0.22076-1.1121zm-6.4795-0.18548c0.16294-1.0866 0.087-1.3112-0.98196-2.9047l-1.1586-1.727-0.87056 0.8982c-0.79829 0.82363-0.83883 0.94351-0.48824 1.4441 0.54652 0.78027 2.9539 3.4046 3.1543 3.4386 0.0926 0.0157 0.24787-0.50141 0.345-1.1491zm3.1145-0.40984c-0.0419-0.21828-0.62376-1.9149-1.2929-3.7703-0.9663-2.6792-1.3181-3.3734-1.7097-3.3734-0.43054 0-0.49299 0.2186-0.49299 1.7257 0 1.4891 0.14663 2.0173 1.0696 3.8529 0.97786 1.9449 1.131 2.1202 1.7859 2.0446 0.46834-0.05403 0.68996-0.22005 0.6401-0.47951zm4.7065-0.21318c0-0.26277-0.28524-0.86439-0.63387-1.3369-0.41211-0.55858-0.97837-2.2427-1.6186-4.8139l-0.98471-3.9547-0.82882 4e-3c-1.2565 0.0061-1.4482 0.25833-1.6432 2.1616-0.17352 1.6936-0.14639 1.809 0.78711 3.3457 0.92738 1.5266 0.99895 1.5824 1.7538 1.3659 0.43285-0.12414 0.78699-0.12469 0.78699-0.0012 0 0.54152-0.353 1.0615-0.72062 1.0615-0.2851 0-0.35376 0.17039-0.23989 0.59531 0.0877 0.32742 0.16116 0.68461 0.16315 0.79375 2e-3 0.10914 0.47885 0.19844 1.0597 0.19844 0.76955 0 1.1458 0.14358 1.3866 0.52917 0.41097 0.65807 0.73235 0.68063 0.73235 0.0514zm1.8521-1.3318c0-0.26768-0.29765-0.62232-0.66145-0.78808-0.60173-0.27416-0.66146-0.24614-0.66146 0.31031 0 0.73838 0.1964 0.96447 0.83784 0.96447 0.29458 0 0.48507-0.19114 0.48507-0.4867zm0.41647-3.019c-0.0752-0.47294-0.27568-2.3834-0.44556-4.2455-0.30234-3.3139-0.32463-3.3938-1.0528-3.7703-0.96165-0.49729-1.094-0.48798-2.181 0.15332l-0.91187 0.53802 0.51528 2.0417c1.1047 4.3771 0.98125 4.0915 1.6919 3.9132 0.52373-0.13145 0.64467-0.06159 0.64467 0.37241 0 0.29381-0.17157 0.53421-0.38126 0.53421-0.55826 0-0.7707 0.49443-0.40287 0.93763 0.19175 0.23105 0.7882 0.38528 1.49 0.38528h1.1702zm-5.1254 20.902c0.06-1.2585 0.1736-1.6536 0.47564-1.6536 0.30205 0 0.4157 0.39514 0.47565 1.6536 0.0728 1.5274 0.0365 1.6536-0.47565 1.6536-0.5121 0-0.5484-0.12622-0.47564-1.6536z" stroke-width=".26458"/>
 </g>
</svg>
