<svg width="15.559mm" height="39.423mm" version="1.1" viewBox="0 0 15.559 39.423" xmlns="http://www.w3.org/2000/svg">
 <g transform="translate(-87.608 -38.1)">
  <path d="m89.097 75.53c0-1.5658-0.13392-2.2608-0.62454-3.2411-0.576-1.151-0.63882-1.6901-0.80829-6.9365-0.11067-3.4262-0.05676-8.5296 0.13555-12.832l0.31929-7.1438 1.2827-1.2285c1.1086-1.0617 1.2827-1.3699 1.2827-2.2699 0-0.98932 0.06548-1.072 1.3108-1.6553 0.92546-0.43346 1.3881-0.83568 1.5737-1.3681 0.25554-0.73304 0.31522-0.75419 2.1288-0.75419 1.797 0 1.8658 0.0236 1.8658 0.63982 0 1.0755 0.28178 1.4768 1.0369 1.4768 0.7599 0 1.6404 0.93989 2.1594 2.3051 0.15165 0.39887 0.7868 4.9547 1.4114 10.124 1.1352 9.3945 1.1356 9.4006 0.80011 13.079-0.40866 4.481-0.7332 5.7483-1.8789 7.3369-0.58747 0.81459-0.94016 1.6601-1.0485 2.5135-0.15087 1.1889-0.6357 1.9475-1.2446 1.9475-0.14852 0-0.1794-0.60447-0.07587-1.4854 0.1732-1.4737 0.16952-1.4841-0.46816-1.324-0.3535 0.08873-0.83239 0.23409-1.0642 0.32304-0.29929 0.11485-0.42146 0.0078-0.42146-0.36936 0-0.41591 0.27641-0.59739 1.2746-0.83686 0.95831-0.2299 1.3895-0.50034 1.7377-1.0898 0.62947-1.0656 1.8096-6.0092 1.669-6.9916-0.0625-0.43656 0.0497-2.0413 0.24927-3.566l0.36288-2.7723-2.4431-2.4533c-2.015-2.0234-2.5843-2.4533-3.2493-2.4533-0.92432 0-1.9823 0.64347-1.9823 1.2056 0 0.2625-0.29962 0.38187-0.95844 0.38187-0.78006 0-0.90262 0.06725-0.65855 0.36134 0.22137 0.26673 0.77661 0.32723 2.1207 0.23106l1.8208-0.13028 0.1817 0.82727c0.14249 0.64875 0.3199 0.82727 0.82214 0.82727 0.46405 0 0.64044 0.14574 0.64044 0.52917 0 0.29104-0.12953 0.52917-0.28784 0.52917-0.18996 0-0.22776 0.38237-0.11114 1.1245l0.1767 1.1245-0.95242-1.3864c-1.1568-1.6839-1.7399-2.0739-3.4555-2.311-0.888-0.12273-1.5621-0.40938-2.0505-0.87193-0.9035-0.85567-0.90762-1.1317-0.03007-2.0092 0.63831-0.63831 0.6529-0.69754 0.17188-0.69754-0.4904 0-0.54783-0.29722-0.85634-4.4318-0.18188-2.4375-0.37315-4.4762-0.42506-4.5306-0.31534-0.33026-0.87946 0.35558-1.1384 1.3841-0.42227 1.677-0.42124 24.489 0.0011 25.416 0.19301 0.42361 0.6967 0.7959 1.3891 1.0267 1.26 0.41999 1.3927 0.95774 0.35864 1.4533-0.64865 0.31089-0.7276 0.49071-0.7276 1.6572 0 1.2193-0.04507 1.3085-0.66146 1.3085-0.64702 0-0.66146-0.04351-0.66146-1.9932zm12.172-19.107c6.2e-4 -0.10914-0.31181-3.0559-0.69429-6.5484-0.68309-6.2373-1.1033-8.0698-1.8505-8.0698-0.30225 0-0.36673 1.1011-0.36673 6.2631v6.2631l1.1953 1.1453c1.124 1.077 1.7137 1.4023 1.7163 0.94683zm-7.3722-2.4474c0.29677 0 0.44912-0.11977 0.35208-0.27679-0.09409-0.15223-0.32564-2.9564-0.51456-6.2316-0.18892-3.2751-0.42234-6.0336-0.5187-6.13-0.45243-0.45243-1.0786 0.49649-1.3712 2.078-0.2632 1.4225-0.23288 2.3812 0.18751 5.9302 0.2758 2.3283 0.50219 4.3949 0.50309 4.5924 9.79e-4 0.21846 0.16549 0.29616 0.42014 0.19844 0.23018-0.08833 0.65393-0.1606 0.94166-0.1606zm3.3412-6.6815c0.06634-5.6155 0.03486-6.0911-0.4684-7.0776-0.44426-0.87082-0.67659-1.0575-1.3159-1.0575-0.6873 0-0.79768 0.11354-0.96202 0.98951-0.11051 0.58906 0.04749 2.8109 0.3904 5.4901 0.31682 2.4753 0.57355 5.2523 0.57052 6.171l-0.0055 1.6704 1.7198-0.16582zm-3.1034 21.961c0.01579-0.50084 0.96876-4.9713 1.0816-5.074 0.05421-0.04934 0.48552-0.17261 0.95847-0.27393 0.74065-0.15867 0.8599-0.1122 0.8599 0.33511 0 0.28907-0.22457 0.57806-0.5065 0.65178-0.70646 0.18474-1.363 1.58-1.5371 3.2663-0.0984 0.95339-0.26629 1.4254-0.50698 1.4254-0.19792 0-0.35517-0.14883-0.34943-0.33073z" stroke-width=".26458"/>
 </g>
</svg>
