<svg version="1.1" viewBox="0 0 109.3 127.24" xmlns="http://www.w3.org/2000/svg">
 <g transform="translate(8.6357)">
  <path d="m6.9183 123.31c0.2086-2.0944 0.59472-7.408 0.85804-11.808l0.47876-8-6.1261-11.5c-5.1043-9.5819-6.506-13.335-8.4037-22.5-1.3978-6.7507-2.2937-14.659-2.3193-20.471l-0.041681-9.471 8.5473-14.279c7.6928-12.852 8.8228-14.279 11.304-14.279 1.8561 0 3.8823-1.1719 6.2027-3.5876 6.4229-6.6866 8.9879-7.4124 26.196-7.4124h15.329l5.6726 4.1643c4.4304 3.2523 6.0088 5.1509 7.2077 8.6696 0.84431 2.4779 1.4239 4.5703 1.288 4.6497-0.1359 0.07939-1.5453 1.1281-3.1319 2.3304-2.2147 1.6783-4.263 2.1861-8.8174 2.1861-5.1747 0-5.8684 0.22356-5.4304 1.75 0.27618 0.9625 1.4961 9.4 2.711 18.75s2.2911 17.109 2.3916 17.243c0.10055 0.13368 2.8892-0.67092 6.1971-1.788 3.7643-1.2712 7.2696-3.3262 9.3698-5.4931 3.2534-3.3566 3.5854-3.4609 10.909-3.426 6.4345 0.03063 7.9835 0.38729 10.454 2.4069l2.8997 2.371-2.8722 6.5931c-2.7005 6.1987-3.0683 6.5931-6.1497 6.5931-1.8026 0-3.2775 0.45-3.2775 1s-0.66742 1-1.4832 1-2.5819 2.1375-3.9248 4.75c-1.3623 2.6502-6.7082 8.9495-12.093 14.25-12.991 12.787-15.499 17.656-15.499 30.093v9.1505l-2.25-1.4985c-2.1009-1.3992-2.2515-2.2191-2.2725-12.372-0.01235-5.9804-0.37464-11.78-0.80509-12.888-0.67077-1.7267 7e-3 -2.4019 4.7422-4.7243 4.6133-2.2626 7.5977-5.1475 18.088-17.485 9.0518-10.646 13.667-15.273 16.511-16.555 2.171-0.97864 4.4291-2.6795 5.0179-3.7797 0.93868-1.7539 0.62706-2.1856-2.5297-3.5046-3.4168-1.4276-3.9057-1.3672-9.5929 1.185-3.2959 1.4791-7.061 3.959-8.3668 5.5109-1.6015 1.9033-3.9475 3.1571-7.2082 3.8523-2.6587 0.56687-5.8026 1.2498-6.9864 1.5176-1.9729 0.44632-2.2115-0.03401-2.8605-5.7576-0.3894-3.4345-1.3338-7.7632-2.0987-9.6193-1.4666-3.5591-1.8085-3.6149-9.2393-1.5063-1.9369 0.54961-2.2876 0.33373-1.9914-1.2259 0.23058-1.2145 1.3607-2.0082 3.1528-2.2144 3.4228-0.39386 4.6895-3.2489 4.6895-10.569 0-4.2059-0.46404-5.6965-2.3145-7.4349-1.2729-1.1959-3.0729-2.1743-4-2.1743-1.0189 0-1.6855-0.79104-1.6855-2 0-1.5833 0.66667-2 3.2-2 2.288 0 2.8927-0.30727 2.1218-1.0782-0.593-0.593-2.3705-0.9305-3.95-0.75-2.2525 0.2574-2.9375 0.89493-3.1765 2.9562-0.25185 2.1726-0.94511 2.7339-4 3.239-6.0527 1.0007-6.4736 0.86866-5.9506-1.867 0.4197-2.1955 0.12944-2.5-2.3834-2.5-2.6715 0-2.8613 0.2653-2.8613 4v4h-4c-3.7985 0-5.1797 1.1529-2.9973 2.5017 1.5764 0.97426-0.77334 4.4983-2.9993 4.4983-1.4289 0-2.2072 1.0974-3.0142 4.25-1.7108 6.6832-1.7598 6.75-4.9578 6.75-3.4532 0-3.3689 0.31813-2.0048-7.5663 1.7122-9.8965 1.9106-10.434 3.8538-10.434 1.4166 0 1.7339-0.56694 1.3732-2.4539-0.50699-2.6522 0.67779-3.2303 7.7382-3.7762 2.3967-0.18528 3.5958-0.8188 3.8233-2.0199 0.28812-1.5209-0.51788-1.75-6.1579-1.75h-6.4894l-5.5411 6.1231c-6.899 7.6237-7.2161 9.358-5.6788 31.062 1.5767 22.262 3.7872 30.13 10.507 37.401l5.0451 5.4587 5.5-0.92144c3.025-0.50679 5.6314-0.79789 5.7921-0.6469 0.16063 0.151-2.6239 1.304-6.1879 2.5621l-6.4799 2.2876-0.57615 6.087c-0.31688 3.3479-0.68235 8.562-0.81214 11.587-0.22065 5.1425-0.40906 5.52-2.8986 5.808-2.5259 0.29217-2.6431 0.11241-2.2833-3.5zm34.23-108.42c0.42863-2.2344-10.503-4.4329-15.086-3.034-1.7591 0.53696-4.9983 1.2632-7.1983 1.6138-5.9557 0.94923-7.5938 1.5701-6.9388 2.6299 0.3434 0.55564 6.5124 0.83916 14.752 0.678 12.086-0.2364 14.207-0.51306 14.471-1.8877zm14.716 1.1107c0.3678-0.59512-0.82295-1-2.941-1-4.0103 0-3.9871 0.03363-2.394-3.4628 1.0094-2.2153 0.85248-2.8896-1.1743-5.0471-2.0979-2.2331-3.1298-2.4901-9.9984-2.4901-4.2125 0-7.9649 0.30586-8.3387 0.67968s2.3637 1.62 6.0833 2.7693c5.9804 1.8478 6.9751 2.5214 8.5954 5.8203 1.6436 3.3464 2.2298 3.7307 5.691 3.7307 2.1222 0 4.1367-0.45 4.4767-1zm11.32-1.75c0.17575-1.2375-0.1055-2.25-0.625-2.25s-2.3508-0.28125-4.0696-0.625c-2.822-0.56441-3.125-0.38667-3.125 1.8333 0 3.2677 0.84109 3.944 4.4641 3.5891 2.2742-0.22278 3.1161-0.8619 3.3555-2.5474zm-9.8196-7.75c0-0.825-0.7301-1.5-1.6224-1.5-1.3288 0-1.3971 0.27149-0.37756 1.5 0.68469 0.825 1.4148 1.5 1.6224 1.5 0.20766 0 0.37756-0.675 0.37756-1.5zm-20.548 87.407c-0.87968-1.7011-1.4387-3.2537-1.2422-3.4502 0.74249-0.74249 5.1341 2.1341 6.5542 4.2931 1.4047 2.1356 1.348 2.25-1.1163 2.25-1.8907 0-3.031-0.84057-4.1957-3.0929zm-12.078-4.1746c1.3471-1.7779 2.7614-5.345 3.1428-7.9269 0.61304-4.15 0.31711-5.3522-2.5519-10.367l-3.2454-5.6723-9.2197 1.2411 6.947-6.4735c3.8208-3.5604 7.0406-6.3747 7.1549-6.2538 0.6419 0.67813 0.60897 3.4593-0.05908 4.9903-0.49877 1.143 0.30456 4.4153 2.2665 9.2324 2.7562 6.7673 2.9856 8.1699 2.4638 15.069-0.31642 4.1838-1.0698 7.7528-1.6742 7.931-0.6044 0.17826-2.5783 0.58017-4.3865 0.89314l-3.2876 0.56904 2.4493-3.2325zm9.6258-12.675c0-2.7683 5.5254-15.268 7.1283-16.126 2.322-1.2427 2.3193-1.1362-0.1063 4.2094-1.0879 2.3976-1.9879 6.2717-2 8.6092-0.01995 3.8608-0.2509 4.25-2.522 4.25-1.375 0-2.5-0.42426-2.5-0.94279z"/>
 </g>
</svg>
