<?xml version="1.0" encoding="UTF-8" standalone="no"?>
<svg
   xmlns:dc="http://purl.org/dc/elements/1.1/"
   xmlns:cc="http://creativecommons.org/ns#"
   xmlns:rdf="http://www.w3.org/1999/02/22-rdf-syntax-ns#"
   xmlns:svg="http://www.w3.org/2000/svg"
   xmlns="http://www.w3.org/2000/svg"
   xmlns:sodipodi="http://sodipodi.sourceforge.net/DTD/sodipodi-0.dtd"
   xmlns:inkscape="http://www.inkscape.org/namespaces/inkscape"
   inkscape:version="1.0 (4035a4f, 2020-05-01)"
   sodipodi:docname="d.svg"
   viewBox="0 0 60.124123 136"
   height="136"
   width="60.124123"
   id="svg2908"
   version="1.1">
  <metadata
     id="metadata2914">
    <rdf:RDF>
      <cc:Work
         rdf:about="">
        <dc:format>image/svg+xml</dc:format>
        <dc:type
           rdf:resource="http://purl.org/dc/dcmitype/StillImage" />
        <dc:title></dc:title>
      </cc:Work>
    </rdf:RDF>
  </metadata>
  <defs
     id="defs2912" />
  <sodipodi:namedview
     inkscape:current-layer="g2916"
     inkscape:window-maximized="1"
     inkscape:window-y="25"
     inkscape:window-x="0"
     inkscape:cy="72.429535"
     inkscape:cx="61.326435"
     inkscape:zoom="4.3032258"
     showgrid="false"
     id="namedview2910"
     inkscape:window-height="847"
     inkscape:window-width="1440"
     inkscape:pageshadow="2"
     inkscape:pageopacity="0"
     guidetolerance="10"
     gridtolerance="10"
     objecttolerance="10"
     borderopacity="1"
     bordercolor="#666666"
     pagecolor="#ffffff" />
  <g
     transform="translate(26.326435,-5.0704648)"
     id="g2916"
     inkscape:label="Image"
     inkscape:groupmode="layer">
    <path
       id="path2920"
       d="m -19.448176,128.6681 c -0.534012,-9.98907 -1.13113,-13.44293 -3.068696,-17.75 -2.190995,-4.87043 -2.468311,-7.18979 -3.107617,-25.990913 l -0.701946,-20.643277 3.655213,-10.969556 c 3.574382,-10.726978 3.74285,-11.003981 7.61824,-12.526277 3.1248,-1.227457 3.963027,-2.07819 3.963027,-4.022157 0,-5.664963 10.47550398,-7.415724 15.594847,-2.606351 L 6.6222,36.148677 7.25743,30.859571 c 0.349377,-2.909008 0.639142,-8.569828 0.643923,-12.579599 0.0071,-5.922204 0.419349,-7.845936 2.19675,-10.2499997 1.946888,-2.6333063 2.773549,-2.9595075 7.5,-2.9595075 h 5.311942 l 0.03729,3.25 c 0.02051,1.7875002 1.094403,17.4250002 2.386432,34.7500002 2.28377,30.623382 2.434229,31.686956 5.406532,38.218001 l 3.057387,6.718 -2.519054,13.167124 c -1.729103,9.03804 -3.268267,14.30071 -4.908201,16.782 -1.928323,2.91762 -2.520929,5.49548 -3.072365,13.36487 -0.578458,8.25501 -0.944722,9.75 -2.388694,9.75 -1.449882,0 -1.791888,-1.44838 -2.282067,-9.66449 l -0.576592,-9.66449 2.872392,-2.68322 c 3.149405,-2.94198 3.004506,-2.48251 6.051114,-19.187915 l 2.133778,-11.700113 -4.781496,-8.948459 c -3.354701,-6.278246 -5.208179,-8.784726 -6.211405,-8.399752 -1.134768,0.435451 -1.287101,-0.1015 -0.738026,-2.601424 0.662143,-3.014713 0.556089,-3.150132 -2.467025,-3.150132 -2.957875,0 -3.118793,-0.182652 -2.528541,-2.870054 0.530554,-2.415598 0.266034,-2.967641 -1.670545,-3.486346 -3.723101,-0.997218 -3.929378,-0.792701 -2.326594,2.30674 1.831548,3.541824 1.966733,4.890713 0.32568,3.24966 -2.007447,-2.007447 -2.8,-1.36638 -2.8,2.264816 0,2.271682 0.602625,3.791569 1.75,4.413692 2.771927,1.50298 6.580905,12.544077 5.787141,16.775205 -0.366359,1.95286 -0.888548,3.328213 -1.160421,3.05634 C 12.014892,90.508645 10.337692,86.525162 8.559654,81.928334 5.55558,74.161785 5.011426,73.414194 0.86845198,71.361685 -2.46987,69.707816 -5.474179,69.134559 -11.089955,69.079881 c -6.145501,-0.05984 -7.208852,-0.29473 -5.887883,-1.300639 1.139744,-0.867908 1.470136,-2.250405 1.127564,-4.718197 l -0.484552,-3.49058 3.08628,2.902452 c 2.640929,2.483627 3.317064,2.710916 4.685623,1.575113 1.457411,-1.209543 1.458753,-1.406016 0.01512,-2.213912 -0.871322,-0.487615 -1.360368,-1.248776 -1.08677,-1.691467 0.748503,-1.211102 -2.594777,-3.746612 -5.663139,-4.294868 -2.538071,-0.453503 -2.835732,-0.104857 -4.75,5.563601 -1.753021,5.190991 -2.042243,8.565589 -2.042243,23.828632 v 17.781204 l 5,9.3578 c 2.75,5.14679 5,9.65787 5,10.02462 0,0.36675 -0.675,0.66682 -1.5,0.66682 -1.222222,0 -1.5,1.66667 -1.5,9 0,8.08587 -0.18766,9 -1.847597,9 -1.661843,0 -1.914257,-1.24692 -2.510624,-12.40236 z M 2.26787,61.769742 c 0.760813,-4.16439 1.359009,-5.02433 4.67009,-6.713518 4.368904,-2.228848 4.439631,-4.686227 0.230178,-7.997383 -1.841631,-1.448627 -2.368753,-2.629162 -2.010575,-4.502852 0.625978,-3.274592 -3.603832,-6.485524 -8.54348,-6.485524 -2.963826,0 -3.590033,0.409633 -4.17222,2.729252 -0.592009,2.358749 -0.09765,3.237087 3.641591,6.470158 2.379625,2.057499 4.66409098,3.754335 5.076591,3.770748 0.877263,0.03491 1.035101,6.029842 0.158756,6.029842 -0.32518302,0 -3.566279,-2.469402 -7.202435,-5.48756 -6.018637,-4.995715 -6.794713,-5.366472 -8.658757,-4.136569 -1.12616,0.743045 -2.189954,2.537446 -2.363986,3.98756 -0.287449,2.395147 -0.0042,2.636569 3.093463,2.636569 2.856543,0 4.084391,0.799924 7.566422,4.929406 2.584353,3.064889 4.156537,5.929452 4.156537,7.573324 0,1.975474 0.440575,2.559071 1.74262098,2.30832 C 0.85828398,66.649334 1.66418,65.074101 2.26787,61.769742 Z M 22.392247,49.320465 C 21.473103,27.056215 19.020149,9.7153498 16.727443,9.2738148 c -1.112889,-0.2143223 -2.149721,1.0999592 -3.35266,4.2498112 -1.595033,4.176533 -1.637918,6.00389 -0.509857,21.725413 1.189333,16.575471 1.356257,17.417137 4.857673,24.493374 1.994309,4.030429 4.025709,7.328052 4.514222,7.328052 0.51177,0 0.577642,-7.522733 0.155426,-17.75 z M -9.089955,122.57046 c 0,-1 1,-1.5 3,-1.5 2,0 3,0.5 3,1.5 0,1 -1,1.5 -3,1.5 -2,0 -3,-0.5 -3,-1.5 z m 22.75,-0.18933 c -0.966259,-0.25251 -1.75,-1.39825 -1.75,-2.55831 0,-2.06861 0.03852,-2.0648 2.5,0.24764 3.372195,3.16801 3.3064,3.37072 -0.75,2.31067 z m -11.75,-7.31067 c 0,-1.50615 0.522151,-2.04609 1.75,-1.80963 0.9625,0.18536 1.75,0.99969 1.75,1.80963 0,0.80994 -0.7875,1.62427 -1.75,1.80963 -1.227849,0.23646 -1.75,-0.30348 -1.75,-1.80963 z M 0.16004498,106.92895 C -2.244972,104.5076 -1.277066,98.097251 2.518288,91.310523 5.760501,85.512906 6.28208,85.013929 7.659887,86.391736 c 1.377807,1.377806 1.226632,1.92114 -1.490244,5.356042 -2.237501,2.828836 -3.249268,5.462816 -3.891598,10.131172 -0.695328,5.05354 -1.116664,6.05814 -2.11800002,5.05 z"
       style="fill:#000000" />
  </g>
</svg>
