<svg version="1.1" viewBox="0 0 81.896 145" xmlns="http://www.w3.org/2000/svg">
 <g transform="translate(4.8268 -.23838)">
  <path d="m4.069 129.58c0-14.604-0.15846-15.938-2.3462-19.75-2.1879-3.812-2.4611-6.1122-4.0479-34.088-0.93591-16.5-1.9481-33.375-2.2494-37.5-0.53511-7.3274-0.47156-7.5978 2.7619-11.75 2.0989-2.6952 4.1095-4.25 5.4963-4.25 1.6935 0 2.3822-0.82664 3.0534-3.6651 0.78844-3.3339 1.881-4.2704 12.089-10.363 12.038-7.1845 14.789-7.9722 27.835-7.9722 10.726 0 11.405 0.51824 16.17 12.334 5.0182 12.445 14.238 52.413 14.238 61.723 0 5.1586-1.123 9.2446-6.75 24.559-4.9505 13.473-7.182 18.373-8.3704 18.378-1.3275 6e-3 -1.8328 2.0404-2.7953 11.257-1.7044 16.32-1.824 16.75-4.6637 16.75-2.4124 0-2.4205-0.0367-2.4205-10.878 0-8.449-0.3349-11.155-1.5-12.122-2.3141-1.9205-1.8225-2.7254 2.25-3.684 3.7163-0.8748 3.8106-1.0229 10.507-16.498 6.5034-15.03 6.7905-16.038 7.665-26.918 0.87618-10.9 0.82191-11.473-1.5234-16.102-1.3375-2.6395-3.069-4.7991-3.8477-4.7991-0.77867 0-1.6785-0.82795-1.9997-1.8399-0.32118-1.0119-1.68-2.4265-3.0195-3.1434-1.3396-0.71692-2.8721-2.5556-3.4056-4.0861s-2.1506-3.5561-3.5936-4.5016c-2.3435-1.5355-3.0724-1.5715-6.8278-0.33683-2.3124 0.7602-5.8338 2.8504-7.8255 4.645-2.4604 2.2169-4.6241 3.2628-6.75 3.2628-3.4378 0-3.6053 0.2412-2.1087 3.0376 0.93094 1.7395 1.8427 1.8521 10.428 1.2882l9.4075-0.61796-0.82232 3.6461c-0.7994 3.5444-0.74163 3.6461 2.0724 3.6461 2.687 0 2.8947 0.27364 2.8947 3.8148 0 3.3601-0.40867 4.0097-3.429 5.45l-3.429 1.6352 0.55985-3.45c0.52221-3.218 0.37874-3.45-2.1338-3.45-2.2173 0-2.6384-0.3967-2.3808-2.2429 0.28801-2.0648-0.30756-2.3518-7.4988-3.6146-7.3791-1.2957-7.954-1.5868-10.383-5.2571l-2.5712-3.8854h-7.5227c-6.4835 0-7.9755-0.34535-10.8-2.5-1.8027-1.375-3.4348-2.5-3.6268-2.5-0.46212 0 0.99395 18.112 1.4965 18.614 0.21421 0.21421 2.6012-0.28146 5.3043-1.1015 2.7032-0.82003 5.0274-1.4958 5.1649-1.5018 0.1375-6e-3 0.25 0.84103 0.25 1.8822 0 2.0611-1.8514 3.107-5.5 3.107-5.3175 0-5.5002 0.41068-5.4968 12.357 0.00176 6.1287 0.70074 15.193 1.5533 20.143 1.3074 7.5907 2.2464 10.055 5.9968 15.738 4.9354 7.4785 5.0461 7.762 3.032 7.762-1.0366 0-1.6051 2.0712-2.1271 7.75-0.46033 5.0078-1.558 9.4307-3.1022 12.5-1.3144 2.6125-2.6072 4.75-2.8729 4.75s-0.48315-7.048-0.48315-15.662zm60.429-94.946-2.7791-8.8922-2.8066 12.425 6.6572 11.171 0.85388-2.9058c0.63993-2.1777 0.15753-5.1339-1.9253-11.798zm-47.13 7.5751c0.36988-1.4144-0.20299-2.514-1.8834-3.615-1.3282-0.87028-2.4149-2.4306-2.4149-3.4673 0-1.2261-0.70785-1.885-2.025-1.885-1.45 0-2.1954-0.85185-2.625-3-0.68616-3.4308-0.60097-3.4003-5.029-1.7991-3.026 1.0942-3.321 1.565-3.321 5.3007 0 3.8685 0.25391 4.2232 4.5 6.2861 4.4233 2.149 4.5 2.1524 4.5 0.19927 0-3.3515 3.7256-2.5128 4.5 1.013 0.75179 3.4229 3.006 3.9969 3.7983 0.96731zm9.4739-0.81699c2.144-0.61363 2.1829-0.77745 0.69083-2.9038-1.2784-1.8218-1.9531-2.0545-3.5222-1.2148-2.1348 1.1425-2.6861 5.0278-0.69083 4.8687 0.6875-0.05482 2.2725-0.39232 3.5222-0.75zm9.9239-2.304 4.5817-1.1537-0.63883-9c-0.35136-4.95-0.63884-12.325-0.63884-16.388v-7.3884l-15.339 0.58413-1.3489 4.056c-1.2457 3.7456-1.1276 4.7787 1.543 13.5l2.8919 9.444 5.3768 0.587c2.9572 0.32285 4.9268 0.67864 4.3768 0.79064-1.7187 0.34998-7.9933 6.1224-6.655 6.1224 0.69817 0 3.3312-0.51915 5.8511-1.1537zm-4.696-16.646c0-1.2462 2.2591-3.2 3.7-3.2 0.715 0 1.3 0.9 1.3 2 0 1.4667-0.66667 2-2.5 2-1.375 0-2.5-0.36-2.5-0.8zm-8.393 11.218c-0.33384-0.86998-0.60699-1.995-0.60699-2.5 0-0.50502-1.35-0.91821-3-0.91821-3.5697 0-3.7101-0.61528-0.83784-3.6726 1.9643-2.0909 2.0526-2.6672 0.96475-6.2981-1.5176-5.0654-4.4992-6.9073-7.2101-4.454-2.8403 2.5704-2.386 7.428 1.2939 13.835 2.9058 5.0591 3.5332 5.59 6.607 5.59 2.6861 0 3.2694-0.33075 2.7893-1.5818zm32.388-3.6682c-0.0028-2.8875-0.29572-9.6375-0.65082-15l-0.64565-9.75h-9.4134l-0.64246 6.1467c-0.35335 3.3807-0.64246 8.7807-0.64246 12v5.8533h3.5c2.8333 0 3.5 0.38095 3.5 2 0 1.4667-0.66667 2-2.5 2-1.375 0-2.5 0.45-2.5 1s2.25 1 5 1h5l-0.0052-5.25zm-9.8182-9.4171c0.47272-2.4374 1.9951-2.5421 4.8233-0.33142l2.5 1.9541-3.8233 0.02224c-3.0381 0.01767-3.7569-0.32017-3.5-1.6449zm-28.177 97.667c0-1.6667 0.66667-2 4-2 2.8889 0 4-0.41667 4-1.5 0-0.8498 0.89646-1.5 2.0681-1.5h2.0681l-2.0437 2.8701c-1.197 1.6811-3.3484 3.1311-5.1931 3.5-4.5884 0.91769-4.8994 0.83073-4.8994-1.3701zm20.248-0.25c-1.1551-1.2375-2.3941-3.6-2.7533-5.25l-0.65309-3 1.972 2.434c5.1222 6.322 6.2769 11.004 1.4344 5.816zm-7.866-19.5c0.28448-0.9625 0.82295-5.0125 1.1966-9 0.63441-6.7703 0.83624-7.25 3.0502-7.25 1.8339 0 2.3708 0.54191 2.3708 2.393 0 1.3162-0.675 2.652-1.5 2.9686-1.0469 0.40174-1.5 2.0349-1.5 5.407 0 4.5085-1.2303 7.2314-3.2674 7.2314-0.47706 0-0.63463-0.7875-0.35015-1.75zm-5.1966-19.747c-2.6364-2.2184-4.9533-7.0689-3.8861-8.136 0.21839-0.21839 2.0449 2.0847 4.0589 5.118 2.014 3.0333 3.4667 5.5151 3.2283 5.5151s-1.7689-1.1237-3.4011-2.4971z"/>
 </g>
</svg>
