<svg version="1.1" viewBox="0 0 103.63 145" xmlns="http://www.w3.org/2000/svg">
 <g transform="translate(-94.27 -11.636)">
  <path d="m98.274 155.95c2e-3 -0.44995 2.0098-7.9941 4.4615-16.765l4.4577-15.947-12.923-58.016v-33.5l3.369-0.63203c6.6317-1.2441 7.7526-0.52397 10.807 6.9434 1.5529 3.7961 2.8372 8.7461 2.8539 11 0.0442 5.9609 1.0147 3.5148 6.5767-16.576 4.7464-17.145 4.9912-17.722 8.1768-19.25 1.8062-0.86653 4.6126-1.5755 6.2366-1.5755 2.4372 0 3.2116 0.61977 4.4361 3.5505 1.3831 3.3103 1.2595 4.6139-1.8283 19.271-2.4944 11.841-3.0632 16.278-2.3047 17.978 1.6082 3.6042 2.9842 2.1114 6.0031-6.5125 2.6356-7.5291 3.4136-8.6404 11.503-16.431 4.7721-4.5957 10.25-9.7058 12.173-11.356 3.94-3.3804 10.712-6.7939 11.955-6.0258 0.45146 0.27902 1.029 2.199 1.2834 4.2666 0.38717 3.1461-0.64554 5.9809-6.3314 17.38-3.7367 7.4914-7.4952 13.89-8.3521 14.219-1.079 0.41403-1.5581 1.9299-1.5581 4.9293 0 2.3823-0.5325 4.8639-1.1833 5.5147-1.3582 1.3582-1.1126 1.7243 1.7446 2.5999 1.6386 0.50218 2.3856-0.04844 3.6431-2.6854 1.1697-2.453 2.6169-3.6273 5.5548-4.5075 5.4996-1.6477 5.4827-1.6532 8.148 2.6594 1.3086 2.1173 3.7773 4.6043 5.4861 5.5267 1.7088 0.92234 4.1328 3.465 5.3867 5.6503 1.2539 2.1853 2.9108 3.9733 3.6819 3.9733 1.8575 0 5.1202 4.7174 5.9662 8.6263 0.92781 4.2869-1.3204 6.3737-6.8666 6.3737h-4.2958l-5.7904 14.25c-5.3538 13.176-6.2874 14.763-12.383 21.055-3.6258 3.7426-8.0638 7.5106-9.8621 8.3733-4.7023 2.2557-7.0258 6.1102-9.3606 15.528-1.8486 7.4569-3.7221 10.793-6.0609 10.793-1.7264 0-0.66871-6.2302 2.38-14.019 2.6077-6.6619 2.9747-8.4896 2.014-10.028-1.0469-1.6763-0.75205-2.008 2.7058-3.044 2.1344-0.63947 7.1906-3.7058 11.236-6.814l7.3553-5.6513 6.1691-14.972c3.393-8.2346 6.2055-15.247 6.25-15.584 0.0752-0.56925-9.864-2.8881-12.379-2.8881-0.6196 0-2.457 2.2411-4.0832 4.9802-1.6262 2.7391-3.2417 4.9891-3.5901 5-0.34839 0.01091-0.88702-1.2177-1.197-2.7302-0.41383-2.0194-0.0463-3.1145 1.3834-4.122 2.9997-2.1138 2.5294-5.1251-0.80303-5.1417-4.282-0.02126-7.25-1.0869-7.25-2.603 0-2.5527 14.517-1.8159 22 1.1166 4.2049 1.6479 8.3597 2.5 12.19 2.5 5.5311 0 5.8104-0.12018 5.8104-2.5 0-1.893-0.52304-2.5-2.1543-2.5-1.1849 0-7.8-2.9468-14.7-6.5484-9.8031-5.1169-13.322-6.4832-16.096-6.25-3.0607 0.25731-3.5942 0.68554-3.872 3.1079-0.22616 1.9723-0.81025 2.7154-1.9602 2.494-2.7907-0.53744-3.2076-6.2941-1.0166-14.036 1.641-5.7988 1.7539-7.1864 0.64436-7.9173-1.0708-0.7054-0.9485-1.119 0.5995-2.0267 4.7769-2.8011 8.53-9.3475 8.5496-14.912 3e-3 -0.87422 1.1306-2.1021 2.5056-2.7286s2.5-1.7756 2.5-2.5535c0-0.77795 0.675-1.6735 1.5-1.9901 2.0784-0.79755 2.0129-7.2276-0.0818-8.0314-2.739-1.0511-3.0178-0.8207-11.367 9.3911-4.4962 5.4989-8.9461 10.411-9.8886 10.915-1.0209 0.54636-3.1174 5.2604-5.186 11.66-2.2299 6.8994-4.0415 10.892-5.0633 11.159-0.87508 0.22884-2.5184 2.295-3.6517 4.5915-2.3377 4.7367-2.3595 4.7065-4.7532-6.5746-1.2237-5.7672-2.0553-7.75-3.2505-7.75-1.3111 0-1.2068-0.42506 0.56821-2.3145 1.6608-1.7678 2.1743-3.5509 2.1743-7.5497 0-2.8794 0.61767-6.4504 1.3726-7.9355 0.75493-1.4852 1.6805-5.233 2.0567-8.3285l0.68413-5.6282-5.8854-0.86379-5.7134 17.832c-5.453 17.019-5.6814 18.15-5.0108 24.828 0.5655 5.631 0.38525 7.4806-0.92373 9.4784-1.9751 3.0144-3.5802 3.2083-3.5802 0.43245 0-2.7573-2.6018-7.6281-4.7027-8.8039-1.3876-0.77653-1.4722-1.2308-0.45696-2.454 1.4757-1.7781 0.52747-6.6924-1.2913-6.6924-0.8777 0-1.0421-1.0831-0.56924-3.75 0.50853-2.868 0.11474-4.8672-1.6743-8.5-2.3844-4.8419-2.9139-5.2212-5.7617-4.1284-1.4277 0.54785-1.5483 2.2971-1.0172 14.75 0.51988 12.19 1.0021 15.226 3.5154 22.128 2.3229 6.3797 9.958 45.076 9.958 50.47 0 0.56646 0.52973 1.0299 1.1772 1.0299 0.64745 0 2.335 1.2903 3.75 2.8672 2.5282 2.8175 2.7029 2.8552 10.073 2.1752 4.125-0.38063 7.56-0.65839 7.6334-0.61725 0.0734 0.0412-0.26145 1.1193-0.74409 2.3959-0.84123 2.2251-1.2396 2.3064-9.6334 1.9648-4.8158-0.196-9.4668-0.69677-10.336-1.1128-1.305-0.62487-2.1616 1.1739-4.9245 10.341-2.714 9.0051-3.8775 11.477-6.1702 13.11-1.554 1.1066-2.8237 1.6438-2.8216 1.1938zm77.478-94.752c-3.1973-4.1919-7.8534-5.1097-7.3018-1.4393 0.21992 1.4634 1.7225 2.6772 4.8196 3.8932 2.475 0.97178 4.6579 1.6195 4.851 1.4393 0.19304-0.18015-0.87287-1.9321-2.3687-3.8932z"/>
 </g>
</svg>
