<svg version="1.1" viewBox="0 0 114.57 138.91" xmlns="http://www.w3.org/2000/svg">
 <g transform="translate(49.327 -19.845)">
  <path d="m28.069 148.25c0-10.586-0.08621-11.026-2.3252-11.877-1.2789-0.48623-3.0944-2.0579-4.0344-3.4926l-1.7092-2.6085 4.1133 0.65774c3.5481 0.56737 5.1214 0.1249 11.45-3.2201 6.0514-3.1983 7.6943-4.6128 9.3747-8.0716 1.4069-2.8958 3.9088-5.4646 8.0839-8.2998l6.0464-4.106v-16.016l-3.75 0.67665c-5.0931 0.919-5.25 1.0639-5.25 4.848 0 5.3758-1.1498 9.566-2.625 9.566-0.75625 0-1.375-0.74474-1.375-1.655 0-1.54-0.12708-1.54-1.8287 0-1.0058 0.91024-2.642 1.655-3.6359 1.655-1.5534 0-1.7246-0.60233-1.2193-4.2894 0.48756-3.5571 0.25468-4.4975-1.3641-5.5085-1.0736-0.67048-1.952-2.2851-1.952-3.5881s-0.675-2.9293-1.5-3.614c-1.0673-0.88575-1.5-3.229-1.5-8.1224v-6.8776h-4c-2.8889 0-4-0.41667-4-1.5 0-0.93333 0.94444-1.5 2.5-1.5 2.1111 0 2.5-0.46667 2.5-3 0-2.3174 0.44793-3 1.9686-3 1.3602 0 1.7863 0.47507 1.3787 1.5372-0.88683 2.311 2.2802 5.2566 5.077 4.722 2.0218-0.38648 2.4788 0.04287 3.0801 2.8935 0.38834 1.841 1.869 5.2131 3.2903 7.4936 2.3139 3.7125 3.0997 4.2147 7.5115 4.7999 5.4147 0.71828 7.2444-0.05456 4.2935-1.8135-3.3113-1.9738-8.5998-7.0733-8.5998-8.2925 0-0.64548 0.50857-1.3431 1.1302-1.5503 1.631-0.54366-11.078-16.753-13.553-17.286-3.8327-0.82572-5.0626-0.83345-7.8616-0.04943-2.9387 0.82313-5.9966 5.4115-5.5033 8.2577 0.36027 2.079-6.2511 3.8223-7.4353 1.9605-1.1708-1.8406-0.92477-2.4907 1.1976-3.1643 2.8898-0.9172 6.0291-5.7804 5.3666-8.3138-0.42122-1.6107 0.06333-2.4214 1.9654-3.288 2.4949-1.1368 3.6538-3.4809 3.6803-7.4447 0.0078-1.1714 1.8685-3.5887 4.3753-5.6841 3.4556-2.8885 4.5012-4.5182 5.0332-7.8453 0.77605-4.8531 0.91555-4.5654-2.6469-5.4595-2.0203-0.50707-2.748-0.31778-2.748 0.71489 0 0.77252-3.0929 4.1738-6.8732 7.5583-3.7802 3.3845-9.7228 10.001-13.206 14.704-3.4829 4.7026-6.846 8.5501-7.4735 8.5501-0.74143 0-1.1071 2.1536-1.0443 6.1499 0.11038 7.0187-1.8583 9.2718-2.9618 3.3897-0.37768-2.0132-1.9395-4.7839-3.5574-6.311-3.5242-3.3263-3.5691-3.9594-0.38409-5.4106 2.1654-0.9866 2.5-1.7869 2.5-5.9786 0-4.1728-0.27551-4.8395-2-4.8395-2.4829 0-2.7715-3.7044-0.32543-4.1767 1.7484-0.33759 4.5789-9.9994 3.6434-12.437-0.47116-1.2278-6.2943-3.7433-7.0096-3.028-0.202 0.202-2.1469 6.8415-4.3219 14.755-3.5642 12.967-3.9562 15.556-3.9706 26.227-0.01484 11.045-0.16686 11.966-2.2659 13.717-2.9479 2.4593-4.465 2.4168-5.279-0.14773-0.36506-1.1502-2.1954-2.7312-4.0674-3.5134-3.1316-1.3085-3.4036-1.7697-3.4036-5.77 0-4.1579-0.11515-4.3259-2.6349-3.8442-2.6178 0.50042-2.6303 0.47323-1.9319-4.1845 0.602-4.0144 0.32295-5.3368-1.9416-9.201-3.4385-5.8674-5.8638-5.6634-6.3073 0.53044-0.46642 6.514 3.8943 19.259 12.4 36.243 5.6411 11.263 8.1449 17.672 10.567 27.046 2.8438 11.007 3.5948 12.727 7.2195 16.535l4.0455 4.25h-7.6904l1.3947 19h-5.1769l0.66749-11.811c0.65744-11.633 0.62742-11.871-1.9932-15.831-1.882-2.8438-3.0963-6.7138-4.149-13.223-1.2356-7.6396-2.5649-11.361-7.8284-21.919-4.226-8.4763-7.9129-17.946-11.057-28.4-4.4857-14.914-4.6376-15.805-3.0977-18.155 3.9687-6.0571 12.653-3.3594 16.019 4.9763 1.1026 2.7305 2.7902 6.1631 3.75 7.628 0.95985 1.4649 1.7452 4.4678 1.7452 6.673 0 3.4436 0.42343 4.2285 3 5.5609l3 1.5514-0.0035-7.7757c-0.0024-5.471 1.2326-13.333 4.1669-26.526 4.7006-21.134 3.7295-19.894 13.76-17.578l5.0763 1.1717 0.013 27.157 3.9929-4.6582c2.1961-2.562 6.8273-6.8857 10.292-9.6082 3.6472-2.8662 7.9535-7.5057 10.23-11.021 3.6519-5.6401 4.1453-6.0311 6.9519-5.5096 1.6616 0.30879 3.4056 0.90905 3.8757 1.3339s1.077 4.5279 1.3487 9.1178l0.49385 8.3453-4.0987 5.7944c-2.2543 3.1869-4.0987 5.9994-4.0987 6.25 0 0.25058 1.2375 0.46044 2.75 0.46636 2.1386 0.0084 4.0603 1.509 8.6438 6.75 3.2416 3.7066 6.7679 6.9671 7.8363 7.2457 1.2765 0.33281 4.1576 4.8279 8.4036 13.111 7.0275 13.71 7.567 16.31 5.4405 26.221-1.1201 5.2203-1.613 5.9888-4.6561 7.2604-1.8922 0.7906-4.5758 3.1936-6.0437 5.4117-1.4521 2.1943-3.2554 3.9896-4.0073 3.9896-0.75191 0-1.3671 0.63463-1.3671 1.4103 0 0.77566-3.825 4.2432-8.5 7.7057l-8.5 6.2954v10.687c0 8.5773-0.29614 10.801-1.5 11.263-1.2773 0.49013-1.5-1.0567-1.5-10.418zm18-54.362c0-0.78002 0.24458-2.0556 0.54351-2.8346 0.55919-1.4572-6.7061-9.7472-8.5424-9.7472-1.6214 0-1.1512 3.7854 0.99186 7.9862 2.5406 4.9799 7.007 7.9093 7.007 4.5956zm-36.457 60.168c-0.21668-0.6875-0.68013-3.3875-1.0299-6-0.61528-4.5958-0.55279-4.75 1.9254-4.75 2.4638 0 2.5613 0.22839 2.5613 6 0 4.7213-0.32636 6-1.5314 6-0.84226 0-1.7087-0.5625-1.9254-1.25zm-1.3827-45.753c-4.6546-10.161-5.0025-11.997-2.2729-11.997 1.4276 0 2.7019 2.0105 5.2289 8.25 1.8377 4.5375 3.2007 8.925 3.0288 9.75-0.78629 3.774-2.1177 2.4385-5.9848-6.0033z"/>
 </g>
</svg>
