<svg version="1.1" viewBox="0 0 66.044 141.47" xmlns="http://www.w3.org/2000/svg">
 <g transform="translate(9.9811 -16.422)">
  <path d="m42.313 156.31c-2.0451-1.4364-2.25-2.3871-2.25-10.44v-8.86l-8.5-3.0088 4.7243-0.0789c4.2799-0.0715 4.8846-0.38469 6.4284-3.329 0.93726-1.7875 2.4646-7.7006 3.3941-13.14 2.0874-12.216 1.3146-15.934-6.5869-31.69-4.749-9.4692-5.6478-10.684-7.5394-10.189-1.9524 0.51055-2.039 0.3587-0.9531-1.6703 0.65698-1.2276 1.0455-2.3787 0.86348-2.5581-0.54312-0.53512-11.301-2.3552-11.685-1.9769-0.19462 0.19181 1.7179 6.565 4.25 14.163 2.5321 7.5977 4.6039 14.151 4.6039 14.563 0 0.41185-0.84752 0.74882-1.8834 0.74882-2.1161 0-3.0823-2.565-3.103-8.2383-0.01018-2.7859-1.4415-6.0357-5.6179-12.755-6.0852-9.791-7.3958-11.22-7.3958-8.0653 0 1.1325 0.45 2.059 1 2.059 1.614 0 1.1459 2.73-0.58179 3.393-4.2341 1.6248-5.4182 0.778-5.4182-3.8749 0-3.0907-1.196-7.0706-3.853-12.822-2.7648-5.9843-3.7212-9.2375-3.3865-11.518 0.42261-2.8794 0.22065-3.1784-2.147-3.1784h-2.6135v9.3434c0 6.6422 0.56077 10.973 1.9396 14.981 1.3217 3.8415 2.7618 14.301 4.5201 32.828 1.4193 14.955 3.0765 27.788 3.6828 28.519 0.60928 0.73414 3.0603 1.3282 5.4799 1.3282 3.7109 0 4.3776 0.30458 4.3776 2 0 1.619-0.66667 2-3.5 2h-3.5v10.5c0 10.368-0.25921 11.105-3.4693 9.8734-1.4165-0.54355-1.5437-1.8411-0.95998-9.7929 0.62344-8.4932 0.49033-9.5303-1.8127-14.123-2.2364-4.4603-2.5576-6.661-3.2045-21.957-0.54002-12.769-1.652-22.227-4.4675-38-2.466-13.815-3.4973-22.026-3.0143-24 0.40378-1.65 1.0085-4.2261 1.3439-5.7247 0.34866-1.558 1.7767-3.3361 3.335-4.1526 4.1209-2.1592 7.843 0.1025 9.2721 5.634 2.1849 8.4569 1.7657 7.9475 4.7895 5.8207 1.4782-1.0397 4.4867-2.1988 6.6854-2.5757 2.1987-0.37689 4.3109-1.1921 4.6938-1.8115 0.38284-0.61944 2.9529-1.6345 5.7112-2.2558 4.7988-1.0808 5.1193-1.0174 7.4274 1.468 1.3267 1.4287 2.7038 3.8351 3.0601 5.3476 1.3653 5.7953 2.3663 2.252 3.0596-10.831 0.39584-7.4694 1.3267-15.034 2.0687-16.809 1.8573-4.4453 5.4979-5.985 10.563-4.4674l3.9185 1.174-0.0013 22.592c-0.0016 28.786-3.5972 66.809-7.621 80.592-2.0119 6.8911-2.7741 12.228-3.2527 22.774l-0.62504 13.774zm8.694-84.83c1.1308-12.544 2.056-28.836 2.056-36.204v-13.396l-2.5732-0.64584c-1.4153-0.35521-2.9718-0.24722-3.459 0.23998s-1.7689 10.958-2.8481 23.269c-1.3612 15.527-2.3612 22.63-3.2646 23.188-1.649 1.0191-2.5595-0.44084-3.473-5.5691-0.65564-3.6807-0.77812-3.8092-1.4494-1.5205-1.1942 4.0712-1.0252 8.2015 0.38407 9.3898 0.72419 0.61063 3.2724 5.8352 5.6627 11.61 4.115 9.942 5.9233 13.431 6.6071 12.747 0.16583-0.16583 1.2267-10.565 2.3575-23.109zm-24.944-7.1373c0-0.95201-0.95805-1.5-2.6224-1.5-2.2177 0-2.4303 0.23152-1.3776 1.5 0.68469 0.825 1.8648 1.5 2.6224 1.5 0.75766 0 1.3776-0.675 1.3776-1.5zm-7.9012-2.6058c1.5957-1.7082 2.9012-4.1134 2.9012-5.345 0-3.1502-3.242-5.7657-6.6616-5.3742-2.3374 0.2676-2.8907 0.85762-3.1345 3.3427-0.28325 2.8874 2.1862 10.482 3.4082 10.482 0.32195 0 1.8909-1.3976 3.4866-3.1058zm-5.0988-7.5109c0-1.1885 0.59587-1.4569 2.25-1.0137 1.2375 0.33164 2.7 0.64075 3.25 0.68692 1.249 0.10484-2.5457 1.7773-4.25 1.8731-0.6875 0.03866-1.25-0.6572-1.25-1.5463zm19 9.6166c0-0.55-0.45-1-1-1s-1 0.45-1 1 0.45 1 1 1 1-0.45 1-1zm1.2715-10.284c-0.67284-5.9694-2.6937-7.8464-7.5919-7.0515-2.8129 0.45647-3.613 1.0018-3.2574 2.2203 0.2592 0.88834 0.76244 3.2605 1.1183 5.2715 0.56362 3.185 1.0861 3.7387 4.0533 4.2953 1.8735 0.35146 3.4063 1.1008 3.4063 1.6651 0 0.56436 0.62858 0.39754 1.3968-0.37073 0.96958-0.96958 1.2371-2.814 0.87463-6.0299zm-9.2715 88.815c0-2.6724 0.34434-3.3365 1.5-2.893 0.85503 0.32811 1.5 1.8195 1.5 3.4686 0 1.9049-0.51233 2.893-1.5 2.893-1.045 0-1.5-1.0521-1.5-3.4686zm-3.901-23.469c-1.1947-0.73965-1.2022-1.9856-0.05098-8.465 0.9404-5.2926 1.7839-7.5977 2.7801-7.5977 1.1501 0 1.3025 1.128 0.77833 5.7613-0.99454 8.7906-1.8569 11.323-3.5075 10.301zm17.901-20.563c0-1.03 0.6554-1.5204 1.75-1.3096 2.1078 0.40593 1.9749 2.1807-0.19718 2.633-0.90598 0.18864-1.5528-0.3626-1.5528-1.3233z"/>
 </g>
</svg>
