<svg version="1.1" viewBox="0 0 78.745 140.9" xmlns="http://www.w3.org/2000/svg">
 <g transform="translate(58.913 -39.904)">
  <path d="m-42.987 180.4c-0.26645-0.26645-0.13682-5.5358 0.28807-11.71l0.77253-11.225-8.9938-15.341-0.02354-24.912-0.02354-24.912-4.3181-23.246c-4.2894-23.091-4.3058-23.266-2.4597-26.302 1.7372-2.8566 2.1958-3.0362 7.0311-2.7542l5.1727 0.30168 1.8299 8.5c2.5571 11.877 2.3342 11.505 5.4233 9.0747 1.4507-1.1411 3.9177-2.0747 5.4824-2.0747 2.3179 0 3.2274-0.74993 4.9103-4.0487 2.3242-4.5559 2.3412-4.5649 10.154-5.3681 5.4578-0.56114 5.8227-0.44782 9.3899 2.9165 3.5875 3.3835 3.9716 3.5003 11.504 3.5003 6.9913 0 7.86 0.21196 8.4469 2.061 0.35977 1.1335 1.7401 2.5558 3.0674 3.1605 1.9623 0.89406 2.4232 1.8638 2.4664 5.189 0.02925 2.2492 0.64857 15.339 1.3763 29.089l1.3231 25-5.8525 22c-5.7384 21.571-5.8376 22.169-5.0907 30.687 0.74288 8.4717 0.70391 8.7136-1.5708 9.75-1.2829 0.58454-2.4678 1.0628-2.6331 1.0628-0.1653 0-0.6051-5.6968-0.97732-12.66-0.63274-11.836-0.54532-12.8 1.3434-14.81 1.4691-1.5638 2.9762-6.8861 5.5244-19.51 1.9273-9.5476 3.5242-18.296 3.5487-19.44 0.02448-1.1444-1.438-6.9424-3.25-12.884l-3.2945-10.804-4.25 0.61502c-3.8244 0.55343-4.25 0.40859-4.25-1.4462 0-1.532 0.6419-2.0613 2.5-2.0613 1.375 0 2.5-0.43963 2.5-0.97695 0-1.8331-5.2358-4.4127-8.7541-4.313-1.9309 0.05473-4.9136-0.75595-6.6283-1.8015-1.7147-1.0456-3.4106-1.9027-3.7687-1.9048-0.35811-0.0021 1.5043 5.1578 4.1386 11.466 3.5139 8.4149 4.4818 11.726 3.6335 12.43-0.81962 0.68022-2.8351-1.7823-6.9239-8.4598-4.479-7.3148-6.3743-9.552-8.4824-10.013-1.4931-0.32654-3.1999-0.73735-3.7929-0.9129-0.99891-0.2957-9.4218-13.65-9.4218-14.939 0-0.31634 0.7875-0.55482 1.75-0.52996 1.0284 0.02657 3.2833 2.5008 5.4682 6 2.045 3.2751 4.4075 5.9548 5.25 5.9548 2.2881 0 1.8689-1.5464-1.4411-5.3164l-2.9729-3.3859 2.4729-2.3232c1.3601-1.2777 2.4729-2.8304 2.4729-3.4504 0-0.61997-2.2165-2.0636-4.9255-3.2082l-4.9255-2.081-2.6999 2.8181c-2.6809 2.7982-2.6912 2.8644-1.4584 9.3978 0.70157 3.7182 1.8929 6.9442 2.7393 7.4179 1.0063 0.56314 1.2699 1.5563 0.80323 3.0265-0.53622 1.6895-1.189 2.0365-2.8639 1.5223-1.1931-0.36631-2.3484-0.82665-2.5672-1.023-0.31986-0.28699-6.3728-23.085-9.4635-35.645-0.51167-2.0792-1.2819-2.75-3.1577-2.75h-2.4809v11.583c0 8.1376 0.57492 13.864 1.9327 19.25 1.618 6.4185 6.0688 55.023 6.0676 66.262-1.48e-4 1.4272 1.7483 5.3004 3.8855 8.6071 3.7178 5.7521 4.0962 6.0359 8.75 6.5621 3.0956 0.34998 6.0903 0.0383 8.2363-0.85708 4.3048-1.7962 4.1279-1.8444 4.1279 1.1244 0 2.9126-0.0944 2.9562-9.7123 4.488l-7.2123 1.1486-0.28771 8.666c-0.26064 7.8506-0.47977 8.6935-2.3289 8.9582-1.1226 0.1607-2.2592 0.0742-2.5256-0.19227zm55.067-99.6c0-3.3-0.37469-6-0.83264-6-0.45795 0-2.2497 1.7634-3.9817 3.9186l-3.1491 3.9186 3.2317 1.9985c1.7774 1.0992 3.5692 2.0358 3.9817 2.0814 0.4125 0.04557 0.75-2.6172 0.75-5.9172zm-18.777-1.5559c0.30575-0.30575 0.08025-2.1057-0.50111-4-0.723-2.3558-1.6611-3.4441-2.9687-3.4441-1.6331 0-1.8101 0.47363-1.2146 3.25 0.38338 1.7875 0.89569 3.5875 1.1385 4 0.51591 0.87657 2.7417 0.9984 3.546 0.19409zm7.9071-4.5135c1.4381-0.76965 2.3806-0.75204 3.3624 0.06283 1.0314 0.85595 2.1256 0.7385 4.4845-0.48131 3.0003-1.5515 3.1088-1.83 2.8218-7.2441-0.2848-5.3742-0.45497-5.6942-3.7371-7.0292-3.1143-1.2667-3.315-1.2496-2.1276 0.18126 1.1336 1.3659 0.98308 1.5799-1.1113 1.5799-1.3323 0-2.9174-0.495-3.5224-1.1-0.8-0.8-1.6727-0.52727-3.2 1-2.8551 2.8551-2.705 3.1 1.9 3.1 3.655 0 4 0.22735 4 2.6359 0 2.5488-0.14879 2.6155-4.5 2.0191-4.2685-0.58506-4.5-0.49172-4.5 1.8144 0 1.3371 0.7875 2.8899 1.75 3.4505 2.1996 1.2812 2.0067 1.2807 4.3797 0.0107zm-18.13-2.8954c0-0.53065-0.95723-1.4771-2.1272-2.1032-1.6592-0.88797-2.3158-0.84071-2.9847 0.21482-1.4414 2.2747-1.0132 2.8532 2.1119 2.8532 1.65 0 3-0.43417 3-0.96482zm10-4.9539c0-0.53352-1.5457-0.70466-3.5-0.38752-3.7092 0.60192-4.2478-0.12588-2.143-2.8958 0.83034-1.0927 2.072-1.4985 3.4682-1.1334 3.549 0.92809 2.9094-4.3114-1.0214-8.3669-2.7191-2.8054-3.895-3.2976-7.8776-3.2976-7.3669 0-7.8521 1.5919-2.9832 9.7875l4.0973 6.8967 4.9798 0.17626c2.7389 0.09694 4.9798-0.25372 4.9798-0.77924zm-10-10.081c0-1.5556 0.66667-2 3-2s3 0.44444 3 2-0.66667 2-3 2-3-0.44444-3-2zm-2.3333 86.333c-1.691-1.691-0.55004-10.527 2.0417-15.811 1.4896-3.0372 3.0095-5.5222 3.3776-5.5222 0.36808 0 1.2656 0.71855 1.9944 1.5968 1.1129 1.3409 1.0716 1.7387-0.25784 2.4827-1.1505 0.64386-1.7769 3.2131-2.2925 9.4032-0.59658 7.1618-0.98697 8.5173-2.4531 8.5173-0.95896 0-2.0436-0.3-2.4102-0.66667zm12.333-34.802c0-3.5613 0.30458-4.3517 1.5-3.893 1.5925 0.61111 1.8531 2.4422 0.86971 6.1116-1.0129 3.7796-2.3697 2.5093-2.3697-2.2186z"/>
 </g>
</svg>
