<?xml version="1.0" encoding="UTF-8" standalone="no"?>
<svg
   xmlns:dc="http://purl.org/dc/elements/1.1/"
   xmlns:cc="http://creativecommons.org/ns#"
   xmlns:rdf="http://www.w3.org/1999/02/22-rdf-syntax-ns#"
   xmlns:svg="http://www.w3.org/2000/svg"
   xmlns="http://www.w3.org/2000/svg"
   xmlns:sodipodi="http://sodipodi.sourceforge.net/DTD/sodipodi-0.dtd"
   xmlns:inkscape="http://www.inkscape.org/namespaces/inkscape"
   inkscape:version="1.0 (4035a4f, 2020-05-01)"
   sodipodi:docname="j.svg"
   viewBox="0 0 186.51369 141.98012"
   height="141.98012"
   width="186.51369"
   id="svg3524"
   version="1.1">
  <metadata
     id="metadata3530">
    <rdf:RDF>
      <cc:Work
         rdf:about="">
        <dc:format>image/svg+xml</dc:format>
        <dc:type
           rdf:resource="http://purl.org/dc/dcmitype/StillImage" />
        <dc:title></dc:title>
      </cc:Work>
    </rdf:RDF>
  </metadata>
  <defs
     id="defs3528" />
  <sodipodi:namedview
     inkscape:current-layer="g3532"
     inkscape:window-maximized="1"
     inkscape:window-y="25"
     inkscape:window-x="0"
     inkscape:cy="38.537529"
     inkscape:cx="126.93319"
     inkscape:zoom="3.9702381"
     showgrid="false"
     id="namedview3526"
     inkscape:window-height="847"
     inkscape:window-width="1440"
     inkscape:pageshadow="2"
     inkscape:pageopacity="0"
     guidetolerance="10"
     gridtolerance="10"
     objecttolerance="10"
     borderopacity="1"
     bordercolor="#666666"
     pagecolor="#ffffff" />
  <g
     transform="translate(16.433191,-45.462471)"
     id="g3532"
     inkscape:label="Image"
     inkscape:groupmode="layer">
    <path
       id="path3536"
       d="m 110.28636,181.9239 c 0,-4.73244 -0.83538,-7.18186 -5.88484,-17.2549 l -5.884853,-11.73953 -15.44971,-14.48544 -15.449701,-14.48545 -21.41545,-6.09917 -21.415449,-6.09918 -1.34041,-4.14615 c -1.23395,-3.81685 -1.167905,-4.42528 0.831559,-7.660479 l 2.17197,-3.514321 h 17.330543 17.330542 l 0.653966,-4.25 c 1.652387,-10.738541 1.518165,-10.444599 5.612281,-12.290788 3.645257,-1.643781 3.909549,-2.046759 3.909549,-5.961048 0,-10.945097 14.07227,-19.24502 25.31482,-14.930852 1.12629,0.432198 1.75415,-0.661666 2.57398,-4.484401 1.658973,-7.735534 3.578443,-9.087583 12.861203,-9.05929 l 7.75,0.02362 9,15.214832 c 5.97626,10.103092 14.12355,21.692107 24.25,34.494115 l 15.25,19.279282 v 6.8782 6.8782 l -4.75,4.01373 -4.75,4.01373 5.84616,17.66084 c 3.21539,9.71346 5.6604,17.8466 5.43336,18.07365 -0.22705,0.22704 -4.41,-8.01718 -9.29546,-18.32051 -4.88545,-10.30332 -8.96363,-18.86649 -9.06263,-19.02926 -0.099,-0.16277 -12.59192,-2.61257 -27.76206,-5.444 L 96.363647,124.05128 81.075007,112.786 65.786357,101.52072 48.511606,101.48 l -17.274751,-0.0407 -0.975249,2.5651 c -0.536387,1.4108 -0.975249,2.75166 -0.975249,2.97968 0,1.36065 8.993574,4.60294 15.204625,5.48145 4.012456,0.56753 11.230826,1.7506 16.040822,2.62905 6.567112,1.19934 9.085936,1.31459 10.11242,0.46268 1.097213,-0.91061 2.616773,0.76089 7.700203,8.4701 4.47489,6.78635 8.75196,11.72492 14.5763,16.83069 7.732263,6.77832 8.737183,7.33896 16.216843,9.04727 7.62412,1.7413 8.16399,1.74428 12.31129,0.0678 2.38562,-0.96433 4.9397,-1.99232 5.67571,-2.28443 0.8377,-0.33247 0.38685,1.34631 -1.20539,4.48845 l -2.5436,5.01956 -6.54461,0.70087 c -3.59954,0.38553 -6.54461,0.96306 -6.54461,1.28347 0,0.3204 1.10199,2.46295 2.44887,4.76122 1.64014,2.79869 2.796,6.9471 3.5,12.56162 1.43422,11.43815 1.5468,10.93542 -2.44887,10.93542 h -3.5 z m 52.51717,-57.56279 c 1.12154,-5.10636 -0.27586,-9.50278 -4.08295,-12.84544 -1.9271,-1.69201 -4.39853,-3.07639 -5.49207,-3.07639 -1.89096,0 -1.90809,0.12234 -0.35019,2.5 0.90093,1.375 1.47381,2.53869 1.27305,2.58598 -0.20076,0.0473 -4.85296,0.60979 -10.33823,1.25 l -9.97322,1.16402 -0.85343,4.34002 c -0.46939,2.38701 -0.70644,4.48234 -0.52678,4.6563 0.26107,0.25278 14.56366,1.47843 27.49719,2.35635 1.66117,0.11275 2.32921,-0.57505 2.84663,-2.93084 z m -36.01717,-3.92183 c 0,-2.35248 -0.37562,-2.5295 -6.36572,-3 -6.32136,-0.49651 -6.35114,-0.51313 -4.27282,-2.38434 1.98525,-1.78741 2.00904,-2.0263 0.46259,-4.64423 -1.23929,-2.09796 -4.11123,-3.73962 -11.97433,-6.84479 C 93.342437,99.106018 77.404977,88.380951 77.328367,85.18928 c -0.03243,-1.350975 -0.90488,-1.75 -3.82631,-1.75 -3.586086,0 -3.874016,0.242065 -5.497152,4.621509 l -1.712852,4.621508 2.901149,3.94495 c 1.595632,2.169723 7.444975,7.092703 12.998535,10.939943 9.89279,6.85326 10.11535,6.94816 10.9836,4.68354 0.48741,-1.2713 1.61416,-3.88645 2.5039,-5.81145 1.22474,-2.64981 1.51239,-2.89272 1.18417,-1 -0.23844,1.375 -0.72689,4.53731 -1.08544,7.02735 l -0.65192,4.52735 7.330153,2.35551 c 4.03159,1.29553 7.89266,2.56886 8.58016,2.82964 0.75451,0.28619 1.25,-0.36107 1.25,-1.63286 0,-3.21437 4.69073,-2.87986 6.20449,0.44246 0.97642,2.14303 1.73024,2.50172 4.72856,2.25 3.05823,-0.25674 3.56695,-0.656 3.56695,-2.79945 z m 10.5,-11.5 c 0,-0.825 -0.88417,-1.5 -1.96482,-1.5 -1.08065,0 -2.44648,-0.9 -3.03518,-2 -0.7542,-1.40923 -2.09382,-2 -4.53518,-2 -3.96265,0 -3.99662,0.0709 -1.93914,4.04966 1.37928,2.66724 2.003,2.95034 6.5,2.95034 3.75495,0 4.97432,-0.3677 4.97432,-1.5 z m 8.96536,-4.18937 c 0.25594,-0.2244 -4.56202,-10.474575 -10.70659,-22.778153 -7.51779,-15.053247 -11.80499,-22.571066 -13.10739,-22.984429 -1.06449,-0.337858 -2.16099,-1.476783 -2.43666,-2.530945 -0.60467,-2.312277 -6.37155,-6.008173 -9.38293,-6.013365 -4.6916,-0.0081 -5.3329,0.879797 -5.31109,7.353251 l 0.0207,6.143011 7.72931,8.804461 7.7293,8.804461 1.25287,-3.054461 c 0.9597,-2.339764 1.88305,-3.054461 3.94615,-3.054461 h 2.6933 l -3.3239,3.429395 -3.3239,3.429396 2.37774,2.959184 c 1.30775,1.627551 5.41523,6.322696 9.12773,10.433655 3.7125,4.110959 6.75,8.21967 6.75,9.13047 0,1.29982 0.59149,1.5141 2.75,0.99628 1.5125,-0.36285 2.95941,-0.84334 3.21536,-1.06775 z m -26.44399,-3.17709 6.7193,-2.866455 L 110.32552,81.572823 94.124007,64.43928 h -5.73173 c -5.06025,0 -6.06767,0.350638 -8.59924,2.993025 l -2.8675,2.993024 6.80172,9.927684 6.80171,9.927683 8.98406,3.829292 c 6.758033,2.880487 9.515453,4.631496 11.128703,7.066912 1.17955,1.78069 2.2126,3.24319 2.29567,3.25 0.0831,0.007 3.17472,-1.27753 6.87033,-2.85408 z m 20.20721,64.86646 c -4.22864,-8.89196 -5.22868,-12 -3.86107,-12 3.05883,0 6.2878,2.3841 8.13626,6.0074 1.93144,3.78592 1.98231,4.43543 0.68852,8.79029 l -1.39702,4.70231 z m -122.728583,-6.5036 c -7.3587842,-0.83244 -10.9086952,-1.8016 -15.7500002,-4.29992 -3.4375,-1.7739 -6.25,-3.87616 -6.25,-4.67169 0,-0.79554 -1.359465,-13.26397 -3.021033,-27.70763 -1.941161,-16.87409 -3.4603288,-26.514815 -4.2499998,-26.970712 -4.942394,-2.853375 -5.007946,-3.041182 -3.793502,-10.86846 0.63097,-4.066703 1.241115,-7.461053 1.355877,-7.543 0.114762,-0.08195 2.925431,-1.051508 6.2459318,-2.15458 5.166034,-1.716159 6.933833,-1.861198 12.25,-1.005054 L 10.286357,75.715164 10.1793,86.827222 C 10.12042,92.938854 9.7829178,105.5218 9.4292998,114.78933 l -0.642943,16.85005 2.8325432,4.89995 2.832543,4.89995 8.167457,-0.0269 8.167457,-0.0269 -3.259015,-2.7231 c -1.917009,-1.60177 -3.255303,-3.64961 -3.25,-4.9731 0.0089,-2.23207 0.127532,-2.25 14.881176,-2.25 h 14.872161 l -2.434155,11.25 c -1.338786,6.1875 -2.763407,12.82262 -3.165825,14.74471 -0.902443,4.3104 -3.741884,5.1903 -6.206242,1.92323 l -1.729419,-2.29274 -6.85434,1.97293 c -6.119581,1.76144 -7.872707,1.85773 -16.354341,0.89827 z m 115.069793,-17.86242 -4.43021,-2.3585 5.93021,-0.67766 c 3.26161,-0.37271 7.84271,-0.93579 10.18021,-1.25128 4.0222,-0.54288 4.25,-0.43927 4.25,1.93293 0,2.81115 -0.8618,3.31166 -7.12215,4.13632 -3.4375,0.45282 -5.32945,0.0701 -8.80806,-1.78181 z"
       style="fill:#000000" />
  </g>
</svg>
