<svg version="1.1" viewBox="0 0 80.021 139.49" xmlns="http://www.w3.org/2000/svg">
 <g transform="translate(11.472 -11.443)">
  <path d="m44.092 143.69c-1.0748-11.226-1.2968-11.75-4.9726-11.75-2.9302 0-5.5916-1.4542-5.5916-3.0554 0-0.36046 3.0181-0.93723 6.707-1.2817 6.3454-0.59254 6.9057-0.85644 10.393-4.8946 3.9847-4.6139 4.1608-5.3988 5.539-24.685 0.60842-8.5142 0.51418-9.356-0.98315-8.7814-1.871 0.71799-2.3657-2.1921-0.66223-3.8956 1.5446-1.5446-2.1202-13.276-5.8332-18.673-3.2114-4.6676-3.2428-4.684-7.7911-4.0605-3.3598 0.46051-4.8009 0.25607-5.4528-0.7735-0.62436-0.98612-0.89059-0.46844-0.90138 1.7527-0.01268 2.6094 0.50121 3.3322 2.9847 4.198l3 1.0458v10.052c0 8.2685-0.26615 10.052-1.5 10.052-1.0496 0-1.5-1.0583-1.5-3.525 0-2.0188-1.4538-6.4119-3.4024-10.281-3.112-6.1795-3.3577-7.313-2.8789-13.278 0.42042-5.2376 0.13308-7.2983-1.4597-10.469-1.336-2.6592-2.1968-7.0478-2.6379-13.447-1.2985-18.841-1.6588-20.774-3.9905-21.41-1.4682-0.40005-2.7159 0.11741-4.0138 1.6646-1.7556 2.093-1.8461 3.6911-1.3349 23.582l0.54834 21.337-3.3829 1.4135c-4.3715 1.8265-4.4472 1.8129-4.4472-0.8029 0-3.0851-15.087-34.921-16.349-34.501-0.56538 0.18846-1.5662 2.7326-2.2241 5.6536-1.1064 4.9124-1.0547 5.3479 0.68856 5.8038 1.5481 0.40483 1.8847 1.4423 1.8847 5.8088 0 4.4998 0.31821 5.417 2.0726 5.9738 1.7932 0.56914 1.9841 1.1819 1.4159 4.5449-0.50528 2.9907-0.20695 4.5264 1.2936 6.6596 1.6795 2.3875 2.1848 6.3136 3.6388 28.272 0.92865 14.025 1.8774 26.4 2.1083 27.5 0.52095 2.4818 6.3109 6.5 9.366 6.5 1.3753 0 2.1051 0.49314 1.8499 1.25-0.23187 0.6875-1.6887 1.2677-3.2375 1.2894-4.2025 0.0587-5.9228 3.4652-6.5076 12.886-0.41211 6.6393-0.80762 8.1138-2.25 8.3882-1.6021 0.30479-1.75-0.90402-1.75-14.306 0-8.0515-0.45938-15.497-1.0208-16.547-0.56147-1.0491-1.6775-11.482-2.48-23.184-1.4129-20.602-1.6018-21.721-5.9588-35.277-4.0607-12.634-4.5017-14.956-4.52-23.801l-0.02031-9.801 3.4953-1.4604c5.2242-2.1828 6.8398-0.57827 12.143 12.06 2.5393 6.0516 4.8715 11.438 5.1825 11.97 1.0827 1.851 3.1409-9.0186 3.1601-16.688 0.02286-9.1516 3.3464-18.201 7.2163-19.65 6.4858-2.4272 6.4593-2.4339 8.3531 2.0919 1.3483 3.2221 1.729 6.4408 1.5411 13.029-0.19659 6.8912 0.04337 8.75 1.1296 8.75 0.75856 0 1.89-0.51078 2.5143-1.1351 1.4619-1.4619 10.139 0.58057 11.734 2.762 0.86332 1.1807 1.8393-1.3221 4.5246-11.603l3.4239-13.108 11.791 0.58459 3.8124 10-3.4424 22c-2.5483 16.285-3.5899 26.676-4.0103 40-0.31232 9.9-1.0854 21.6-1.718 26-1.0915 7.5922-1.3973 8.2565-6.0003 13.031l-4.8502 5.0314v10.219c0 9.3166-0.16512 10.219-1.8708 10.219-1.5919 0-1.9743-1.081-2.565-7.25zm14.859-80.5c2.4435-9.9026 2.6299-12.129 2.3645-28.25-0.28089-17.059-0.34255-17.508-2.445-17.807-2.397-0.34157-2.2099-0.96422-8.312 27.659l-3.0595 14.351 4.0842 7.3987c2.2463 4.0693 4.2262 7.3987 4.3997 7.3987s1.5092-4.8375 2.9681-10.75zm-17.695-5.8542c-0.33229-0.33229-1.1948-0.36782-1.9167-0.07895-0.79773 0.31923-0.56078 0.55618 0.60417 0.60417 1.0542 0.04342 1.6448-0.19293 1.3125-0.52522zm3.2708-5.8958c0-2.1261-0.46111-2.5-3.0833-2.5-3.5266 0-3.5826-1.9149-0.10197-3.4871 4.292-1.9387 1.3428-5.5129-4.549-5.5129-4.4129 0-5.207 1.4142-3.8335 6.8268 1.0155 4.0016 1.6804 4.8447 4.6268 5.8668 5.4631 1.895 6.9409 1.6408 6.9409-1.1936zm-18 55.126c0-4.3329 5.3717-15.626 7.4326-15.626 0.7721 0 2.1372-0.28142 3.0335-0.62538 1.3549-0.51992 1.2508 0.15456-0.61748 4-1.236 2.544-2.8272 4.6254-3.5361 4.6254-0.72797 0-1.5641 1.7208-1.9212 3.954-0.34775 2.1747-1.4781 4.7194-2.5118 5.655-1.8071 1.6354-1.8795 1.5589-1.8795-1.9825zm-0.97776-49.47 0.02224-3.6564 1.9555 2.5c2.4661 3.1528 2.4661 3.6448 0 4.2897-1.7333 0.45326-1.997 0.03538-1.9778-3.1334z"/>
 </g>
</svg>
