<svg version="1.1" viewBox="0 0 80.016 141.05" xmlns="http://www.w3.org/2000/svg">
 <g transform="translate(-15.292 3.8176)">
  <path d="m22.501 125.2c0-11.512-0.13537-12.296-3.1525-18.25-3.0789-6.0762-3.1668-6.6302-3.7631-23.721-0.60469-17.332-0.57484-17.68 3.101-36.181 2.0414-10.275 4.2648-19.567 4.9409-20.65s2.7243-2.6814 4.5515-3.5527c2.7227-1.2984 3.3222-2.1516 3.3222-4.7288 0-2.4997 1.3448-4.5702 6.558-10.096 3.6069-3.8235 7.0541-8.0407 7.6605-9.3716 1.5239-3.3445 6.2788-3.2756 9.8467 0.1427 1.4711 1.4094 4.1952 3.3219 6.0536 4.25 1.8584 0.92813 3.9026 2.8125 4.5426 4.1875s2.1111 11.5 3.2691 22.5 2.3679 21.723 2.6887 23.829l0.58332 3.8292 2.3528-2.2104c1.6701-1.569 4.7395-2.5925 10.578-3.5274 4.5239-0.72435 8.5945-1.0888 9.0459-0.8098 1.9951 1.233-0.13296 6.3075-15.679 37.389l-16.5 32.988v7.0059c0 7.0509-0.32134 7.7214-2.9141 6.0802-1.1933-0.75536-1.2273-2.2302-0.21777-9.4466 0.9465-6.7659 0.93646-8.9676-0.04807-10.544-0.68441-1.0959-1.0364-2.1255-0.78223-2.288s1.7625-0.97048 3.3517-1.7955c2.4298-1.2613 4.4133-4.9469 12.465-23.161 7.6675-17.345 10.131-21.99 12.366-23.31 2.6634-1.5733 5.78-6.1785 5.78-8.5407 0-0.75656-1.5152-0.88842-4.75-0.41336-7.0623 1.0371-8.7784 1.9259-11.16 5.7796-1.1899 1.9252-6.7235 7.4705-12.297 12.323-5.8003 5.0498-11.624 11.151-13.619 14.268-3.2803 5.125-3.5356 5.3094-4.34 3.1348-1.2184-3.2936 2.0803-8.1749 8.1613-12.077 2.8786-1.8472 6.9739-5.9499 9.8184-9.836l4.8799-6.667-3.1012-26.789c-3.005-25.958-3.6231-28.615-6.6746-28.695-0.32022-0.0084-1.0945 1.6538-1.7206 3.6938-0.87483 2.8505-0.85773 3.8826 0.07386 4.4584 0.94592 0.58461 0.93946 1.022-0.02941 1.9908-0.6829 0.6829-1.2416 3.3529-1.2416 5.9332 0 4.1704 0.27774 4.7613 2.5 5.3191 3.217 0.80742 3.3184 3.5894 0.13084 3.5894-1.9608 0-2.476 0.64631-2.989 3.75-1.273 7.7019-0.90492 9.2474 2.3582 9.9 1.65 0.33 3 0.93865 3 1.3526 0 1.8043-3.5912 3.2123-18.083 7.0897-8.4795 2.2688-16.88 5.0129-18.667 6.098-3.1303 1.9003-3.25 1.9043-3.25 0.1106 0-1.1302 1.1231-2.2862 2.8569-2.9407 3.1043-1.1717 2.9956-0.64972 4.7086-22.61l0.56555-7.25-2.3858 2.5968c-1.9888 2.1646-2.835 5.3268-5.0844 19-2.198 13.361-2.6951 19.58-2.6797 33.531 0.01715 15.596 0.23285 17.698 2.4112 23.5l2.3924 6.3717 8.1076 0.29044c7.2863 0.26102 8.1076 0.48894 8.1076 2.25 0 1.7244-0.70721 1.9596-5.893 1.9596-6.7598 0-6.6111-0.18636-7.641 9.5757-0.81921 7.7649-1.9215 11.424-3.4412 11.424-0.64287 0-1.0248-4.4825-1.0248-12.029zm15.621-74.737c1.2584-0.82471 2.4895-10.197 2.7235-20.735 0.15312-6.8947 0.11816-6.9958-2.3233-6.7213-3.5333 0.39732-4.2413 1.4562-4.7896 7.1624-0.44405 4.6213-0.30514 5.0589 1.606 5.0589 1.1506 0 2.5737 0.9 3.1624 2 0.93642 1.7497 0.76049 2-1.4058 2-3.0487 0-3.1962 0.24437-4.0737 6.75-0.6804 5.0441-0.61625 5.2494 1.6357 5.2347 1.2891-0.0084 2.8483-0.34592 3.4649-0.75zm13.845-5.4847c0.22176-0.6875 0.5697-6.7625 0.77321-13.5l0.37001-12.25h-3.6796c-3.3211 0-3.7405 0.30442-4.3046 3.125-1.3002 6.5011-0.88586 7.875 2.375 7.875 3.7774 0 3.7931 0.96476 0.05673 3.4681-3.1433 2.1059-4.0214 4.1219-4.0431 9.2819-0.01316 3.1315 0.13337 3.25 4.0177 3.25 2.3434 0 4.2002-0.52339 4.4346-1.25zm-10.658-31.922c-0.41592-5.6434-1.9828-5.7746-3.9406-0.33007l-1.619 4.5023h2.9336c2.8252 0 2.9222-0.1542 2.6261-4.1723zm11.976 1.9223c0.56587-0.6875 1.3318-3.2854 1.702-5.7731 0.56234-3.7788 0.3445-4.8204-1.3239-6.3304-1.0984-0.99402-3.0164-1.6586-4.2622-1.4769-2.4107 0.35158-3.0895 1.9412-4.313 10.1l-0.70936 4.7303h3.9388c2.1664 0 4.4018-0.5625 4.9677-1.25zm-6.784 95.656c0-0.87649-0.9-1.829-2-2.1166-1.4102-0.36879-2-1.364-2-3.375 0-2.1242 0.38275-2.7051 1.5-2.2764 0.825 0.31659 1.5 1.5979 1.5 2.8473 0 1.5813 0.91174 2.6494 3 3.5143 3.6495 1.5117 3.8975 3 0.5 3-1.6208 0-2.5-0.56043-2.5-1.5936z"/>
 </g>
</svg>
