<svg version="1.1" viewBox="0 0 154.74 143.57" xmlns="http://www.w3.org/2000/svg">
 <g transform="translate(-31.242 -36.994)">
  <path d="m136.3 176.72c-1.7128-3.3573-2.8876-4.1825-9.2703-6.5115l-7.309-2.667-4.6707-8.3485c-3.9955-7.1417-5.0641-10.32-7.3923-21.989l-2.7216-13.64-10.632-9.0831-4.0019 2.0416c-3.4429 1.7565-5.8838 2.0416-17.474 2.0416-12.544 0-13.516-0.13636-14.1-1.9777-0.61827-1.948-3.609-3.1118-11.744-4.5702-3.0416-0.54526-4.8568-1.9899-9.75-7.7601-5.9185-6.9792-6.0122-7.1848-5.9894-13.141 0.023-6.0151 0.06201-6.0953 6.5942-13.551 3.6141-4.125 7.8638-10.045 9.4438-13.156 4.5013-8.8625 9.1225-11.932 29.065-19.307 14.472-5.3518 19.097-6.6109 27.692-7.5387 14.732-1.5903 18.36-0.31758 27.714 9.7232l7.0326 7.5484 18.967-1.7733c20.124-1.8814 26.528-1.386 27.888 2.1573 0.92604 2.4132 0.26624 2.6093-5.5927 1.6616-3.7125-0.60048-9.3647-0.35549-18.641 0.808-7.3223 0.91838-13.536 1.8922-13.808 2.164-0.2718 0.2718 2.9805 5.5539 7.2273 11.738l7.7214 11.244 5.5163 64.23-2.6644 10.867c-2.3105 9.4236-2.9906 10.991-5.1202 11.801-1.3507 0.51354-4.5913 3.161-7.2013 5.8831-4.4576 4.6492-5.051 4.9494-9.7815 4.9494-4.8347 0-5.1145-0.15373-6.9974-3.8445zm11.921-10.152c0-1.0983-1.8217-16.007-4.0483-33.13-2.2266-17.123-3.9141-31.827-3.75-32.676 0.20821-1.0769 1.1016-0.48958 2.9577 1.9444 2.5149 3.2978 2.7558 4.6327 4.4343 24.572l1.775 21.085 3.5657 0.58993c7.7168 1.2767 7.0657 3.726 7.0657-26.579 0-26.926-0.0267-27.273-2.75-35.727l-2.75-8.5363-16.316-17.227c-8.9736-9.4747-17.074-17.436-18-17.692-0.92642-0.25622-7.135-0.76296-13.797-1.1261-10.512-0.57299-12.193-0.45151-12.719 0.91928-0.39817 1.0376-1.8504 1.5795-4.2329 1.5795-2.7726 0-7.3361 2.1786-19.376 9.25l-15.749 9.25-18.261 29.217 1.6441 4.1855c1.403 3.5716 2.9342 4.9835 10.44 9.6265l8.7961 5.441 13.688 1.039c13.433 1.0196 13.75 0.99664 17.031-1.235 2.8184-1.9172 3.1082-2.4482 1.8469-3.3842-0.82284-0.61064-1.4961-1.8239-1.4961-2.6961 0-1.4107-0.60751-1.3769-5.5 0.30638l-5.5 1.8923v-2.3634c0-1.8798 0.92077-2.7151 4.5-4.082l4.5-1.7186 0.04519-13.614c0.04124-12.426 0.25549-14.007 2.4548-18.114l2.4096-4.5 0.11806 14c0.0705 8.356 0.80755 17.789 1.8284 23.397 1.543 8.4785 2.0248 9.64 4.9271 11.878l3.2168 2.4808v-6.1282c0-6.5374 0.0894-6.6859 3.0657-5.093 1.6351 0.87507 1.9343 2.1395 1.9343 8.1747 0 5.8702 0.90268 9.9086 5.0774 22.715 5.3466 16.401 7.2802 19.599 12.478 20.637l3.0556 0.61034-3.2298-24.836c-1.7764-13.66-3.4942-26.524-3.8174-28.586-0.54754-3.494-0.41619-3.75 1.9242-3.75 1.3815 0 2.5152 0.3375 2.5194 0.75 8e-3 0.76456 7.4948 49.117 8.5106 54.962 0.4817 2.7719 1.0666 3.3031 4.27 3.8782 6.1654 1.1069 6.9881 2.103 2.3798 2.8816-3.9386 0.66543-4.1679 0.89187-4.1679 4.1163v3.4121h6.5c5.83 0 6.5-0.20585 6.5-1.9969zm-18-3.3865c0-0.76085-0.9-1.6187-2-1.9064-1.4835-0.38794-2-0.0307-2 1.3834 0 1.2397 0.69941 1.9064 2 1.9064 1.1 0 2-0.62252 2-1.3834zm28-7.2772c0-0.82164-1.1598-1.3395-3-1.3395-3.0367 0-3.4723 0.60559-2.4159 3.3585 0.47039 1.2258 1.0543 1.3078 3 0.42127 1.3288-0.60542 2.4159-1.7035 2.4159-2.4403z"/>
 </g>
</svg>
