<svg version="1.1" viewBox="0 0 150.71 139" xmlns="http://www.w3.org/2000/svg">
 <g transform="translate(12.069 -15.931)">
  <path d="m92.625 154.18c-0.23334-0.4125-2.7566-7.725-5.6073-16.25l-5.183-15.5-26.403-27.555-48.796-6.7794-18.704-18.626v-5.1967c0-5.0216 0.16329-5.3255 4.8468-9.0198 2.9719-2.3442 7.5691-7.9118 11.884-14.393l7.0374-10.57 25.086-7.1803c23.655-6.7709 25.66-7.1803 35.156-7.1803 11.378 0 16.202 1.6914 20.883 7.3223 1.4338 1.7246 3.7409 4.4206 5.1269 5.991l2.5199 2.8553 18.376-2.6566c15.011-2.17 18.53-2.4144 19.214-1.3343 0.46057 0.72723 0.69493 1.7716 0.5208 2.3208s-7.2112 1.7599-15.638 2.6903c-9.9744 1.1014-15.604 2.1488-16.132 3.0014-0.54073 0.87375 0.65013 2.8074 3.5779 5.8097l4.3884 4.5 3.628 19.951c3.8771 21.322 4.0189 26.124 1.899 64.322l-0.57013 10.273-5.8854 1.6363c-6.0797 1.6903-6.2502 1.8883-7.377 8.5677l-0.63264 3.75h-6.3957c-3.5176 0-6.5866-0.3375-6.8199-0.75zm7.3062-7.25c0-1.4667-0.66667-2-2.5-2-2.353 0-3.3514 1.8153-1.8333 3.3333 1.492 1.492 4.3333 0.6178 4.3333-1.3333zm4.6129-6.75c-4.1845-14.031-6.5445-27.116-7.079-39.25-0.32705-7.425-0.82147-15.637-1.0987-18.25-0.47566-4.4822-0.36934-4.75 1.8857-4.75 2.3293 0 2.4251 0.33534 3.7844 13.25l1.3946 13.25 3.75 0.31037c2.9378 0.24314 3.75 0.73048 3.75 2.25 0 1.5591-0.70389 1.9396-3.5879 1.9396-3.5744 0-3.5859 0.0141-3.053 3.75 0.2942 2.0625 0.81133 5.8875 1.1492 8.5l0.61425 4.75h4.4387c3.5317 0 4.4543 0.3576 4.5148 1.75 0.0418 0.9625 0.61382 0.26609 1.2711-1.5476 0.96769-2.6704 0.68257-10.032-1.499-38.704l-2.694-35.406-6.6349-8.2962c-4.5149-5.6454-9.7318-10.603-16.327-15.514l-9.6921-7.2182-27.528-0.0635-17.236 6.5961c-9.4797 3.6278-17.762 6.8903-18.406 7.25-0.64344 0.35966-6.1645 7.609-12.269 16.11l-11.099 15.456 6.7691 6.8486c10.952 11.081 9.4628 10.554 37.552 13.285l5.7824 0.56212-0.65756-2.8033c-0.36166-1.5418-1.5511-3.5179-2.6433-4.3912-1.9677-1.5735-1.9447-1.7854 2.5218-23.313 2.4792-11.949 4.7146-21.933 4.9677-22.186 0.8428-0.8428 3.7464 0.78144 3.7464 2.0957 0 0.71213-1.5354 9.3397-3.4121 19.172-4.0928 21.444-3.8231 25.445 2.1257 31.538 2.0308 2.0797 4.501 3.7812 5.4893 3.7812 1.5451 0 1.7971-0.91136 1.7971-6.5 0-3.575 0.25458-6.5 0.56574-6.5 0.31116 0 1.4362 0.46583 2.5 1.0352 1.5455 0.82714 1.9343 2.1198 1.9343 6.4319 0 4.7998 0.31724 5.6226 2.8679 7.4389 1.5774 1.1232 3.432 3.4038 4.1213 5.0681 1.387 3.3485 1.7158 3.4688 5.524 2.0209 2.193-0.83376 2.5553-1.4728 2.126-3.75-0.28462-1.5097-0.80569-5.7825-1.1579-9.495-0.63225-6.6635-0.60921-6.75 1.7988-6.75 2.4371 0 2.4399 0.01234 3.1589 14.178 0.80026 15.765 2.5289 22.325 5.6668 21.505 2.2252-0.5819 2.4258 0.0462 4.0031 12.53 0.67492 5.342 1.5414 10.221 1.9256 10.843s3.1211 1.4822 6.082 1.9125c2.9609 0.43025 5.7513 0.83842 6.2009 0.90703 0.44956 0.0686 0.58253-0.66274 0.29548-1.6252zm5.3871-6.75c0-1.925-0.45-3.5-1-3.5s-1 1.575-1 3.5 0.45 3.5 1 3.5 1-1.575 1-3.5z"/>
 </g>
</svg>
