<svg version="1.1" viewBox="0 0 113.87 149" xmlns="http://www.w3.org/2000/svg">
 <g transform="translate(-1.1068 -28.499)">
  <path d="m71.106 163v-14.5h-3c-2.3052 0-3-0.45053-3-1.9452 0-1.6044 0.81479-1.9986 4.6502-2.25l4.6502-0.30479 14.5-23c16.151-25.618 18.18-30.398 18.192-42.848l8e-3 -7.8477-5.473-7.7663c-3.0102-4.2715-5.9241-8.9525-6.4753-10.402-0.55121-1.4498-1.6883-2.636-2.527-2.636-1.164 0-1.5248 1.1887-1.5248 5.0248 0 4.4396-0.29113 5.1354-2.5 5.9752-1.375 0.52277-2.5 1.6275-2.5 2.455 0 3.5844 3.2647 9.2061 6.7045 11.545l3.6767 2.5-3.8957 0.5c-3.6505 0.46853-3.9894 0.80267-5.3845 5.3089-1.3423 4.3358-1.3268 5.2458 0.15724 9.25 1.8339 4.9481 1.7197 5.128-1.7943 2.8255-2.3179-1.5187-2.8851-1.4601-9.4648 0.97879-3.8495 1.4269-6.9992 2.3631-6.9992 2.0804s0.71477-1.6049 1.5884-2.9382c2.3108-3.5268 1.0272-8.3949-2.5417-9.639-2.7013-0.94168-2.7381-1.0621-1.8376-6.0164 1.02-5.6117 1.0931-5.3557-1.7838-6.2376-1.559-0.47791-2.4089-0.01167-3.419 1.8758-1.3069 2.4419-1.6417 2.5118-12.034 2.5118h-10.69l-4.8908 4.1896c-9.1542 7.8417-8.423 7.511-7.2552 3.2814 1.0594-3.837 0.2234-5.4176-2.8856-5.4557-0.6875-0.0084-1.25-1.1403-1.25-2.5153 0-2.4476 0.15944-2.5 7.6084-2.5h7.6084l-0.6898-2.75-0.6898-2.75 2.3958 2.25c2.1049 1.9767 3.4507 2.25 11.081 2.25 4.7771 0 8.6855-0.36 8.6855-0.8 0-1.4132-2.3452-3.2-4.2-3.2-2.3116 0-2.3513-1.7451-0.05-2.1971 0.9625-0.18907-4.005-1.8546-11.039-3.7012-7.0339-1.8466-12.939-3.1874-13.123-2.9796-0.1837 0.20782-1.0711 1.8274-1.9719 3.599-1.4274 2.807-1.9437 3.1049-4.0159 2.3171-1.9138-0.72764-2.8145-0.43938-4.6148 1.477-1.2303 1.3096-3.5182 2.6625-5.0843 3.0064-2.9984 0.65857-7.9015 5.6475-7.9015 8.0398 0 2.0484 5.9825 52.572 6.5053 54.939 0.243 1.1 2.2537 3.0259 4.4683 4.2799s4.0265 2.935 4.0265 3.7358c0 1.5866-3.7651 26.572-4.5593 30.256-0.41304 1.9159-0.79946 2.1063-2.4652 1.2148-1.8355-0.98232-1.9754-2.1443-1.9754-16.405v-15.347l-11-31.026v-17.237c0-15.337 0.21465-17.584 1.9477-20.388 1.4028-2.2697 2.1194-5.8002 2.5612-12.618 0.84434-13.028 0.88184-13.138 5.7134-16.759 3.2404-2.4279 4.8594-4.6822 6.6156-9.2113l2.3253-5.9967h19.892c19.845 0 19.911 0.0073 27.668 3.0686 5.2836 2.085 9.2184 4.4659 12.276 7.4279 3.2403 3.139 5.6198 4.5326 8.5 4.9783 2.2 0.34045 5.4625 0.84329 7.25 1.1174 2.1205 0.32519 3.25 1.0601 3.25 2.1146 0 0.88891 2.7529 5.1748 6.1176 9.5243 4.9211 6.3614 6.4735 9.2917 7.9374 14.983l1.8198 7.0748-2.566 11.106c-2.5173 10.895-2.8247 11.53-16.187 33.453-8.3631 13.721-14.439 22.667-15.74 23.175-1.9794 0.77349-2.166 1.8163-2.8453 15.903l-0.72694 15.075h-5.8098zm9.0147-78.75c0.0081-1.2375 0.66546-3.375 1.4608-4.75 0.79532-1.375 1.7245-3.0305 2.0649-3.6788 0.34039-0.64835-0.37725-3.9108-1.5948-7.25-1.6292-4.4683-2.7063-6.0712-4.0797-6.0712-1.1993 0-1.866 0.71454-1.866 2 0 1.1-0.94892 2.9489-2.1087 4.1087-1.9729 1.9729-2.0336 2.5043-0.943 8.25 1.7537 9.2389 1.9465 9.6413 4.6191 9.6413 1.8517 0 2.4361-0.53733 2.4474-2.25zm-41.787-26.757 12.272-0.0068 9.3489 4.2318c9.1592 4.1459 9.3784 4.1917 10.804 2.2568 1.3696-1.8584 1.2212-2.0266-2.5148-2.8494-2.5742-0.56689-4.1428-1.5339-4.4608-2.75-0.26977-1.0316-1.1991-1.8757-2.0651-1.8757-0.86601 0-1.8536-1.1116-2.1946-2.4703-0.52269-2.0826-1.9217-2.8673-8.9137-5-6.7033-2.0446-10.385-2.5297-19.199-2.5297-5.998 0-11.344-0.43901-11.881-0.97558-0.63411-0.63411-2.0462-0.32449-4.0344 0.88459-2.6984 1.641-3.1961 2.6917-4.2244 8.9182-1.8225 11.036-2.1845 10.707 6.8122 6.1839l7.9778-4.0112zm35.772-2.8383c0-0.46476-0.9763-1.7023-2.1696-2.75-2.0496-1.7996-2.1325-1.8037-1.5-0.0732 0.36826 1.0075 0.66956 2.245 0.66956 2.75 0 0.50502 0.675 0.91821 1.5 0.91821s1.5-0.38026 1.5-0.84501zm13-0.09828c0-1.503-4.2318-4.0567-6.7225-4.0567-1.7627 0-2.2775 0.56513-2.2775 2.5 0 2.2963 0.36667 2.5 4.5 2.5 2.475 0 4.5-0.42448 4.5-0.9433zm-20.56-7.6747c0.36139-1.4399 0.52268-2.7108 0.35841-2.8242s-3.9672-2.7603-8.4509-5.882l-8.1523-5.6758h-25.794l-1.2927 3.5749c-0.71098 1.9662-1.1361 3.7315-0.94468 3.9229 0.19141 0.19141 7.0952 1.1119 15.342 2.0455 12.439 1.4083 15.931 2.1799 20.494 4.529 6.8558 3.5295 7.6251 3.5577 8.4403 0.30972zm11.368-1.2422c0.84845-0.5381 1.0747-1.7589 0.64411-3.4747-0.51723-2.0608-1.5793-2.8814-4.808-3.7147-2.2793-0.58825-4.9316-1.2981-5.8941-1.5774-2.4462-0.70991-2.216 0.0774 1.5 5.1299 3.1852 4.3308 5.7471 5.4195 8.558 3.6368zm-35.093 99.147c-1.6177-1.6177-1.5694-1.828 0.86566-3.7696l2.5789-2.0564-5.1486-13.737c-2.8317-7.5556-5.0052-14.663-4.83-15.795 0.2962-1.9129 0.70183-1.7892 5.7654 1.7571l5.4468 3.8147 3.3208 21-2.5655 5.25c-1.411 2.8875-2.8254 5.25-3.1429 5.25s-1.3484-0.77097-2.2907-1.7133z"/>
 </g>
</svg>
