<svg version="1.1" viewBox="0 0 61.098 140.9" xmlns="http://www.w3.org/2000/svg">
 <g transform="translate(16.417 -16.837)">
  <path d="m-13.742 156.64c-0.7894-0.7894-1.2-5.0036-1.2-12.316 0-6.114-0.4684-13.65-1.0409-16.747-0.833-4.5061-0.5373-10.682 1.4806-30.919 2.7611-27.692 3.0875-28.772 9.69-32.061l3.5005-1.744 1.7498-11.756c2.2509-15.122 5.4511-22.715 10.239-24.295 2.5074-0.82752 3.3805-1.6963 3.3805-3.3638 0-3.6037 3.9901-6.5968 8.7941-6.5968 3.8537 0 4.3181 0.2996 6.209 4.0062 1.1241 2.2034 3.576 5.0106 5.4487 6.2381 5.9355 3.8908 6.5793 6.5659 8.7262 36.256 1.8772 25.96 1.8866 27.655 0.24384 44-1.8935 18.84-4.6032 28.481-9.0237 32.105-2.2644 1.8565-2.6336 3.0691-3.1272 10.272-0.52983 7.7301-0.67228 8.132-2.6654 7.5207-1.1581-0.35519-2.2203-0.74206-2.3604-0.85971-0.14014-0.11766 0.19736-2.5982 0.75-5.5123 1.598-8.4263 1.4908-8.7675-2.9952-9.5254-5.0717-0.85686-5.5415-3.5-0.62212-3.5 1.8578 0 4.9401-0.65273 6.8495-1.4505 3.2683-1.3656 3.6219-1.995 6.0386-10.75 1.4119-5.1147 3.0785-13.124 3.7036-17.799 0.62513-4.675 1.3382-9.1936 1.5846-10.041 0.25926-0.89187-2.5289-5.1053-6.6175-10-10.174-12.18-11.185-12.959-16.838-12.959-3.4524 0-5.2742-0.53583-6.5265-1.9197-1.6635-1.8381-1.6382-1.9385 0.59501-2.3638 2.1927-0.41757 2.175-0.4523-0.29527-0.58033-1.4452-0.0749-3.2234-0.85418-3.9517-1.7317-1.3912-1.6763-4.5433-1.5138-12.143 0.62606-5.4971 1.5479-5.9782 4.4837-6.1404 37.469l-0.13762 28 5.9654 0.30633c5.6864 0.29201 8.5346 1.3987 8.5346 3.3161 0 0.48266-2.025 0.87756-4.5 0.87756-2.475 0-4.5 0.45-4.5 1s-1.0688 1-2.375 1c-2.7479 0-3.625 2.8128-3.625 11.625 0 5.435-0.6182 6.3568-2.8 4.175zm55.066-67.05c0.96776-2.5224-1.5806-29.934-2.8274-30.412-0.90633-0.34779-0.94874-1.1745-0.16655-3.2468 0.80983-2.1455 0.5241-5.4532-1.2515-14.489-2.267-11.536-2.3394-11.704-4.9106-11.405l-2.6096 0.30288-0.57728 18c-0.42755 13.331-0.24452 18.973 0.70564 21.75 0.82101 2.3998 0.91313 3.75 0.25586 3.75-0.56489 0-0.43243 0.60412 0.29436 1.3425 0.72679 0.73837 3.1214 4.5623 5.3214 8.4976 4.0655 7.2723 4.9106 8.1385 5.7656 5.9099zm-15.266-31.316c0-8.515-0.44852-15.404-1.0797-16.583-0.83457-1.5594-0.72105-2.4138 0.5-3.763 2.5684-2.8381 2.1041-11.367-0.80279-14.746-2.0823-2.4208-2.6899-2.6297-4.822-1.6583-2.4231 1.104-2.447 1.2575-3.572 22.916-1.2307 23.695-1.3206 23.136 4.2765 26.559 5.4207 3.3142 5.5 3.1307 5.5-12.724zm-15-5.4343c0-7.3333 0.38889-12 1-12 0.55 0 1-2.25 1-5 0-4.3748-0.25646-5-2.051-5-2.8428 0-4.4942 4.4851-5.8913 16-0.63394 5.225-1.3934 10.744-1.6876 12.264-0.46293 2.3915-0.08626 2.9585 2.7975 4.2109 1.8328 0.79599 3.6699 1.4649 4.0824 1.4864 0.4125 0.02153 0.75-5.3609 0.75-11.961zm-2.3125 77.354c-0.37812-0.37813-0.6875-4.1735-0.6875-8.4342 0-7.1514 0.29756-8.2721 3.872-14.583 2.6114-4.6107 4.5649-6.9407 6-7.1562 2.7762-0.4169 2.9739 3.3651 0.21365 4.0869-3.288 0.85984-5.292 6.4388-5.9613 16.596-0.56934 8.6406-1.5578 11.37-3.4369 9.4912zm11.313-35.901c0-0.85098-1.9125-3.4844-4.25-5.8521-3.4764-3.5212-5.1601-4.4358-9.25-5.0245-2.75-0.39583-6.0334-0.96642-7.2964-1.268-2.1432-0.5117-2.1877-0.66833-0.66771-2.3479 1.5216-1.6814 1.476-1.8213-0.69343-2.13-3.372-0.4797-3.6147-3.5984-0.34387-4.4193 2.0587-0.5167 3.2704-0.04841 5.5664 2.1514l2.9349 2.8118 0.0196-7.8742 2.3477 5.0416c2.508 5.3859 6.697 8.9364 9.6366 8.1677 1.4592-0.3816 2.1019 0.60683 3.3979 5.2257 1.9557 6.9702 1.957 7.0651 0.09823 7.0651-0.825 0-1.5-0.69625-1.5-1.5472z"/>
 </g>
</svg>
