<svg version="1.1" viewBox="0 0 85.848 144" xmlns="http://www.w3.org/2000/svg">
 <g transform="translate(13.997 -12)">
  <path d="m57.045 148.5v-7.5h-6c-3.3 0-5.9931-0.3375-5.9847-0.75 0.03927-1.9232 1.8876-3.1968 6.2244-4.2888 4.9902-1.2566 9.466-4.8902 10.307-8.3678 0.27848-1.1514 1.09-5.4978 1.8034-9.6588l1.2971-7.5654-6.2942-5.7354c-5.8914-5.3684-6.5268-5.6918-9.929-5.0535-3.5147 0.65936-3.5956 0.60867-2.4485-1.5348 0.65249-1.2192 1.0009-2.4021 0.77432-2.6287-0.76068-0.76068-12.75-1.7099-12.75-1.0095 0 1.8563 3.1903 6.5184 4.813 7.0334 3.341 1.0604 7.3622 6.1895 7.5288 9.6033 0.19778 4.0524-1.9168 4.9828-3.4879 1.5346-0.64618-1.4182-1.5042-2.5786-1.9066-2.5786s-1.5189 3.2121-2.481 7.1381l-1.7493 7.1381-1.7676-2.3434c-1.6978-2.2508-1.6863-2.5625 0.29019-7.8881 1.1318-3.0496 2.4778-5.8191 2.9911-6.1544 0.51331-0.33531-0.6331-1.9103-2.5476-3.5s-4.9267-5.8153-6.6938-9.3903c-1.9505-3.9459-4.4221-7.2859-6.2902-8.5-1.6925-1.1-4.1378-4.1366-5.4341-6.7481-1.3427-2.705-3.5674-5.3741-5.17-6.2028-1.5473-0.80012-3.4041-2.8813-4.1263-4.6249-0.81579-1.9695-2.5416-3.6834-4.5566-4.5254-2.2947-0.95878-3.4346-2.2254-3.8969-4.33-1.03-4.6894-4.311-8.2641-6.8656-7.48-1.1822 0.36284-2.2432 0.73503-2.3578 0.82707-0.11454 0.09204 0.36964 2.6236 1.0759 5.6258 0.9921 4.2169 3.917 9.2666 12.859 22.201 11.051 15.985 11.603 17.026 12.199 23 0.34308 3.4414 1.8311 10.844 3.3066 16.451l2.6829 10.193 4.2924 1.6393c2.9021 1.1083 4.2924 2.2338 4.2924 3.4748 0 3.3327-1.1821 4.9991-3.5464 4.9991-2.1563 0-2.3848 0.53074-3.0247 7.0256-0.64652 6.5611-0.83232 6.9826-2.8106 6.3758-1.165-0.35739-2.2219-0.735-2.3485-0.83912-0.12662-0.10413 0.29236-4.095 0.93106-8.8686 1.0966-8.1955 1.0482-8.8051-0.86699-10.936-1.3522-1.5048-2.9049-6.4236-4.6585-14.757-1.4466-6.875-3.1199-14.826-3.7183-17.669-0.85034-4.0396-3.7002-8.9555-13.044-22.5l-11.956-17.331 0.54245-13 5.2054-0.30071c5.0549-0.29202 5.2761-0.19079 7.6499 3.5 1.3445 2.0904 4.9059 6.2024 7.9143 9.1379 5.3469 5.2173 5.4837 5.2818 6.0886 2.8716 0.48186-1.9199 1.6379-2.7222 5.2234-3.625 2.5325-0.63769 5.3781-0.91392 6.3236-0.61385 1.6186 0.51372 1.6113-0.43353-0.12483-16.212-1.0141-9.2168-1.6175-18.965-1.3409-21.663 0.64992-6.338 3.5418-9.5951 8.5192-9.5951 5.3681 0 6.8137 3.3407 11.182 25.842 2.0714 10.669 4.0121 19.645 4.3126 19.945 1.1672 1.1672 1.7454-1.0978 4.1931-16.427 2.0177-12.636 3.0731-16.723 5.1928-20.108 2.255-3.6007 3.1634-4.2485 5.9601-4.25 1.8148-9.83e-4 4.6619 0.70265 6.3268 1.5636 2.7438 1.4189 2.9742 1.9104 2.461 5.25-0.31142 2.0265-1.7458 13.36-3.1876 25.185-2.7705 22.723-2.7864 25.793-0.28587 55l1.2414 14.5-4.6212 12.211c-4.651 12.29-4.7213 12.784-3.2103 22.539 0.36774 2.374 0.08758 2.75-2.049 2.75-2.4133 0-2.475-0.18687-2.475-7.5zm5.9606-52.75c-0.02168-3.4375-0.86946-10.222-1.8839-15.076-1.5444-7.3897-1.6193-8.9123-0.46058-9.357 1.0098-0.3875 1.3839-2.5759 1.3839-8.0953 0-4.901 0.47501-8.1201 1.3491-9.143 1.3087-1.5315 4.6546-22.266 4.6521-28.829-0.001143-3.0067-0.24708-3.25-3.2856-3.25-3.9216 0-6.728 3.8375-6.6946 9.1543 0.01153 1.8401-2.1045 11.558-4.7022 21.596-3.8763 14.978-5.0392 18.25-6.4858 18.25-2.5046 0-3.833-3.0794-3.833-8.885 0-6.3551-7.7977-43.365-9.344-44.349-1.9342-1.2308-4.6854-0.85336-5.2914 0.72596-0.9103 2.3722 5.4583 54.442 7.3838 60.369 2.0671 6.3635 6.8766 11.138 11.219 11.138 1.9942 0 3.0907 0.6077 3.5164 1.9488 0.3402 1.0719 1.4955 2.2272 2.5674 2.5674 1.0719 0.3402 1.9488 1.219 1.9488 1.953 0 1.2409 5.5687 5.4762 7.25 5.514 0.4125 9e-3 0.73226-2.7956 0.71058-6.2332zm-26.461-6.75c-0.33992-0.55-1.2665-1-2.059-1s-1.441 0.45-1.441 1 0.92656 1 2.059 1 1.7809-0.45 1.441-1zm-7.9106-6.5c-0.47254-1.8827-0.23428-2.5 0.96498-2.5 1.2728 0 0.97553-1.0783-1.4809-5.3717-1.6904-2.9544-3.0734-6.1141-3.0734-7.0214 0-2.4812-4.2349-4.0867-6.9487-2.6343-1.9239 1.0297-2.1142 1.696-1.5083 5.2824 0.86073 5.0946 6.2564 12.954 9.5187 13.865 1.341 0.37445 2.5995 0.72568 2.7966 0.7805 0.19712 0.05482 0.07605-1.0253-0.26905-2.4003zm11.411 64.934c0-1.3838 2.0806-4.2512 3.4722-4.7852 1.1589-0.44472 1.5278 0.13044 1.5278 2.3824 0 2.4999-0.39476 2.9686-2.5 2.9686-1.375 0-2.5-0.25458-2.5-0.56574zm-3.5239-14.51c-0.7595-2.393-0.72338-2.4465 2.2739-3.3678 1.9946-0.61312 2.25-0.34348 2.25 2.3758 0 2.3651-0.4425 3.0674-1.9326 3.0674-1.0777 0-2.224-0.91801-2.5913-2.0754z"/>
 </g>
</svg>
