<svg version="1.1" viewBox="0 0 56.738 139.88" xmlns="http://www.w3.org/2000/svg">
 <g transform="translate(1.6429 -10.281)">
  <path d="m40.685 143.62-0.29714-6.7845-8.2191-3.4764c-4.5205-1.912-8.1019-3.5936-7.9587-3.7368 0.14322-0.14322 4.1988 0.37714 9.0124 1.1564 11.041 1.7873 13.185 1.0428 13.984-4.856 0.30891-2.2797 1.1194-9.7964 1.801-16.704l1.2394-12.559-2.9729-4.4411c-1.6351-2.4426-3.5257-5.7214-4.2014-7.2862-0.68633-1.5894-2.5222-3.3334-4.1597-3.9515-2.0248-0.76427-3.0229-1.8944-3.2281-3.6549-0.26101-2.2398-0.8723-2.6146-5.047-3.0945-2.6125-0.30028-4.75-0.41506-4.75-0.25507s2.0799 5.4883 4.6219 11.841c2.5421 6.3524 4.3615 11.81 4.0431 12.129-1.4087 1.4087-3.3363-0.89226-5.5009-6.5666-1.2847-3.3677-3.1972-6.5842-4.25-7.1476-1.0528-0.56344-1.9142-1.8264-1.9142-2.8066 0-2.1661-8.5598-5.1474-14.779-5.1474-4.2229 0-6.2068-1.4143-4.4493-3.1719 1.2468-1.2468 10.842-1.577 14.332-0.49311 2.5432 0.78966 2.5901 0.7221 2-2.8815-0.53894-3.2913-1.1237-3.8941-5.4098-5.5769-6.3655-2.4993-8.9761-1.7069-11.778 3.5751-2.2191 4.1831-2.2443 4.5683-1.0871 16.665 0.67174 7.0222 0.912 17.145 0.55496 23.383-0.81792 14.29 0.28005 18.588 5.6581 22.147 4.0783 2.6989 5.0004 4.7393 2.5643 5.6741-0.85762 0.3291-1.6644 2.8696-2.0982 6.607-0.64398 5.5486-0.91189 6.0723-3.1066 6.0723-2.327 0-2.4018-0.23888-2.4018-7.6713 0-5.9034-0.40329-8.1164-1.75-9.6029-1.561-1.7231-1.8056-5.2408-2.2652-32.579l-0.51522-30.647 3.2652-6.725c1.7959-3.6988 3.2652-7.5665 3.2652-8.595 0-3.4891 3.2083-5.18 9.8287-5.18h6.1713v-12.851c0-13.817 1.1022-19.149 3.9583-19.149 0.96945 0 3.4204-1.125 5.4466-2.5s4.7571-2.5 6.0686-2.5c2.6031 0 2.4641-0.44615 6.0386 19.38 0.88055 4.8839 4.0972 17.481 7.1481 27.995l5.5471 19.115-1.2503 21.868c-1.1081 19.382-1.6665 23.532-4.9118 36.505-3.2069 12.82-3.9279 14.676-5.8063 14.951-1.9894 0.29068-2.1662-0.17801-2.4419-6.4712zm6.9944-78.304c-2.2624-6.6427-5.3855-19.359-7.3607-29.971-1.887-10.138-3.4308-18.575-3.4308-18.75 0-0.1747-0.90758-0.31763-2.0168-0.31763-1.9535 0-1.9373 0.15692 0.51685 5l2.5337 5h-2.5168c-1.9596 0-2.5168-0.50923-2.5168-2.3 0-2.9196-1.7671-4.7-4.6648-4.7-4.9864 0-5.3207 7.1456-0.67082 14.339 1.3648 2.1113 2.2298 4.4947 1.9221 5.2965s1.6855 7.3283 4.4292 14.503c2.7437 7.1751 4.7118 13.493 4.3736 14.041-0.33823 0.54726-1.5129 0.76021-2.6103 0.47322-1.4457-0.37805-1.0371 0.35555 1.4829 2.6629 1.9131 1.7516 5.2101 6.3287 7.3267 10.171l3.8484 6.9868 3.2844-10.897zm-19.292 2.9616c-0.33992-0.55-1.293-1-2.118-1s-1.2219 0.45-0.88197 1 1.293 1 2.118 1 1.2219-0.45 0.88197-1zm3.664-2.75c-0.4985-0.9625-1.9736-6.2232-3.2779-11.69-2.2413-9.3943-2.4063-9.7263-3.0049-6.0438-0.45202 2.7809-0.0729 5.1976 1.3241 8.4404 1.0766 2.4991 2.5729 6.0063 3.3251 7.7938s1.6314 3.25 1.9538 3.25 0.17835-0.7875-0.32015-1.75zm-4.164-2.691c0-0.24254-0.45-0.7191-1-1.059s-1-0.14148-1 0.44098 0.45 1.059 1 1.059 1-0.19844 1-0.44098zm-5.0399-4.011c2.5372-3.0571 0.80562-4.9041-5.8631-6.2538-7.3288-1.4833-9.097-0.74934-9.097 3.776 0 2.695 0.24214 2.8422 5.25 3.1926 2.8875 0.202 5.9824 0.45052 6.8776 0.55226 0.89516 0.10174 2.1698-0.4684 2.8326-1.267zm-1.5857 52.202c0.53209-6.6312 1.0509-8.5192 2.6438-9.622 1.09-0.75459 1.9818-1.9921 1.9818-2.75s0.675-1.378 1.5-1.378c2.0009 0 1.9194 0.71808-1 8.8114-1.375 3.8118-2.5 8.3386-2.5 10.06 0 2.2363-0.46896 3.129-1.6438 3.129-1.4457 0-1.564-0.99414-0.98179-8.25zm-2.807-22c0.69633-2.2313 2.1766-3.7052 3.7507-3.7347 0.44995-0.0084-0.14319 1.3347-1.3181 2.9847-2.5423 3.5704-3.3948 3.8332-2.4326 0.75z"/>
 </g>
</svg>
