<svg version="1.1" viewBox="0 0 100.18 142.79" xmlns="http://www.w3.org/2000/svg">
 <g transform="translate(7.122 -11.686)">
  <path d="m11.44 150.19c-0.29127-2.3375-0.81093-8.6387-1.1548-14.003-0.48509-7.5668-0.99425-9.9592-2.2717-10.674-1.1258-0.63001-3.8762-9.2667-8.6964-27.308-6.8725-25.722-7.022-26.536-5.9401-32.326 0.61042-3.2669 2.9966-9.6537 5.3027-14.193l4.1929-8.2531 29.839-14.926c33.02-16.517 40.544-19.104 44.386-15.261 1.0886 1.0886 2.7685 5.4243 3.8053 9.8214 1.5731 6.6713 1.7069 9.2254 0.87709 16.74l-0.97927 8.8678 12.261 20.977-0.69468 7.6436c-0.4854 5.341-3.3788 16.271-9.6045 36.284-6.1922 19.904-8.7583 29.589-8.4128 31.75 1.6251 10.169 2.0406 9.1101-3.5733 9.1101h-5.0203l0.56148-3.25c0.30881-1.7875 1.1528-7.3889 1.8754-12.448 1.2356-8.6489 1.2019-9.3097-0.56463-11.076-1.8381-1.8381-1.7591-1.958 3.6699-5.5626 3.0517-2.0262 5.5485-3.8863 5.5485-4.1336s2.2743-10.36 5.054-22.473l5.054-22.023-11.97-27.534-4.8851-0.86004c-6.7168-1.1825-14.619 0.98849-15.072 4.1411-0.2468 1.715-0.81723 2.1067-2.5 1.7166-11.783-2.7318-15.68-3.2077-15.68-1.9144 0 0.73642 1.0125 2.2947 2.25 3.4628 4.2663 4.027 8.0499 5.3087 17 5.7587l8.75 0.43999v3.3777c0 2.2829-0.46966 3.3777-1.449 3.3777-1.2653 0-1.2653 0.4396 0 3.4679 0.79694 1.9073 1.449 3.7073 1.449 4 0 0.29267-1.9716 0.53212-4.3813 0.53212-3.8593 0-4.7101 0.43109-7.1409 3.618-6.3241 8.2913-8.2817 19.25-5.5449 31.04l1.4294 6.1582-3.5203 7.8418c-3.4115 7.5993-3.6524 7.8701-7.795 8.7578-3.4711 0.74389-4.9202 0.56843-7.7089-0.93336-3.7753-2.0331-3.2405-2.7959 2.7069-3.8614 3.0834-0.55239 3.8973-1.3532 6.25-6.1504 2.5295-5.1576 2.705-6.3813 2.705-18.867 0-9.1315 0.46013-14.656 1.4556-17.478l1.4556-4.1257h-27.562l-4.6745-7.3792c-3.3467-5.2831-4.6745-8.4077-4.6745-11 0-1.9914 0.24083-3.6208 0.53518-3.6208 1.7064 0 5.4648 3.5179 5.4648 5.115 0 1.2183 0.70734 1.885 2 1.885 1.6667 0 2 0.66667 2 4 0 3.9277 0.06526 4 3.6084 4 3.3496 0 3.5634-0.17929 2.9809-2.5-0.51411-2.0484-0.26272-2.5 1.3916-2.5 2.6383 0 2.7119-3.5588 0.10258-4.9553-1.0541-0.56412-2.6563-3.2532-3.5606-5.9757-1.3537-4.0758-2.44-5.4164-6.1504-7.5909-2.4784-1.4525-5.0387-2.4358-5.6894-2.1853-0.65073 0.25055-2.8945 2.9423-4.9863 5.9817-2.8186 4.0956-4.2123 7.5581-5.3837 13.376l-1.5806 7.8497 13.301 45.722 5.4833 6.0593c3.0158 3.3326 5.4833 6.4326 5.4833 6.8889 0 0.45628-1.575 0.82959-3.5 0.82959h-3.5v9.893c0 8.0986-0.2869 10.003-1.5818 10.5-0.86998 0.33385-1.7424 0.60699-1.9387 0.60699-0.19632 0-0.59525-1.9125-0.88652-4.25zm31.407-79.8c0-2.2273 0.69948-5.4023 1.5544-7.0555l1.5544-3.0059-3.3044 0.57034c-3.0049 0.51865-3.599 0.17492-6.5544-3.7923-2.5815-3.4653-3.25-5.3247-3.25-9.0396 0-4.0883 0.31969-4.7984 2.5402-5.6427 2.781-1.0573 2.4102-2.9546-1.1976-6.1276-3.7948-3.3374-5.7583-3.1134-11.15 1.2722l-5.1198 4.1648 2.1742 3.103c1.1958 1.7066 5.0519 7.1026 8.5691 11.991 5.8738 8.1637 6.3455 9.1976 5.7876 12.687-0.58978 3.6883-0.51309 3.8102 2.6443 4.2019 1.7884 0.2219 3.8142 0.47546 4.5017 0.56348 0.82057 0.10506 1.25-1.2312 1.25-3.8896zm12-2.9852c0-1.9447-1.3284-3.9652-2.607-3.9652-0.87115 0-1.393 1.0888-1.393 2.9064 0 2.4141 0.33879 2.8178 2 2.3834 1.1-0.28766 2-0.88372 2-1.3246zm2.3113-25.881c1.5738-0.07332 1.7305-0.70708 1.1954-4.8344-0.33873-2.6125-0.80594-5.6871-1.0382-6.8323-0.91843-4.5279-15.468-5.9194-15.468-1.4793 0 1.0162-0.6603 2.1011-1.4673 2.4108-1.2787 0.49067-1.2634 1.0508 0.11885 4.357 0.8724 2.0867 1.9396 4.7224 2.3716 5.8572 0.71706 1.8837 1.294 1.9998 6.6311 1.3344 3.2152-0.40087 6.6608-0.76682 7.657-0.81323zm18.464-8.8344c-0.81938-6.2636-1.2368-7.1068-5.7933-11.702l-4.9103-4.9523-6.8708 3.2764 5.0472 20.128h13.41z"/>
 </g>
</svg>
