<svg version="1.1" viewBox="0 0 78.3 148.01" xmlns="http://www.w3.org/2000/svg">
 <g transform="translate(6.141 -8.9138)">
  <path d="m4.9339 153.95c-0.36785-1.6748-0.09456-7.7438 0.60732-13.487 1.2411-10.155 1.2179-10.504-0.84507-12.705-1.4943-1.5944-3.4092-7.5917-6.4792-20.292l-4.358-18.029 1.7614-11.971c2.6772-18.195 2.7036-18.299 4.8635-18.984 3.5649-1.1315 8.1584-5.7847 10.037-10.168 1.4439-3.3685 2.852-4.7971 6.4525-6.5464 4.3243-2.1009 4.5693-2.431 4.0114-5.4047-0.53824-2.869-0.09913-3.6002 4.6651-7.7678 4.2556-3.7227 5.9782-4.6007 9.0264-4.6007 3.4239 0 3.7743-0.25057 3.8458-2.75 0.04323-1.5125 1.3084-4.775 2.8115-7.25l2.7329-4.5 13.149-0.58618 4.7144 5.5182c7.0757 8.2822 9.1289 17.588 9.943 45.068 0.58843 19.862 0.46473 22.033-2.2819 40.065-1.5972 10.486-3.6414 20.49-4.5425 22.233s-2.9809 3.8626-4.6216 4.7111l-2.9831 1.5426v12.974c0 10.686-0.25652 12.974-1.4547 12.974-1.7982 0-2.2866-3.0147-2.9555-18.243l-0.5158-11.743 2.8145-1.4554c4.6116-2.3848 6.1167-5.908 8.0584-18.864 1.0052-6.7068 2.6044-17.369 3.5539-23.694l1.7263-11.5-5.1135-8.6512c-2.8124-4.7582-5.1135-9.8207-5.1135-11.25 0-2.2209-0.43626-2.5988-3-2.5988-2.3333 0-3-0.44444-3-2 0-1.3436 0.66667-2 2.0314-2 3.2056 0 3.5254-2.8081 0.66157-5.8097-2.0766-2.1765-2.3629-3.0522-1.4992-4.5851 0.99674-1.7689 0.75679-1.8597-3.6125-1.3673-2.5741 0.29014-4.8112 0.69279-4.9714 0.89479-0.81565 1.0286 1.4487 19.084 2.7002 21.531 1.1484 2.2453 1.286 4.7912 0.66046 12.221-0.81662 9.6998-1.5101 11.07-5.6171 11.099-3.2058 0.02287-8.0786 6.2624-9.9725 12.77-1.6204 5.5673-1.596 6.1721 0.78413 19.496 1.351 7.5625 2.1775 13.75 1.8367 13.75-3.3751 0-9.8228-22.465-8.6152-30.017l0.601-3.7585-6.7438-0.40669c-8.7423-0.52721-11.771-2.191-15.325-8.4174-2.836-4.9695-2.8621-5.1424-1.0283-6.8021 1.7962-1.6255 1.9841-1.5373 4.134 1.9414l2.2523 3.6443 3.1114-3.1216c2.1513-2.1583 2.7452-3.3502 1.9245-3.8623-0.65284-0.40735-2.0993-2.8691-3.2145-5.4706-1.987-4.6356-3.9192-5.7678-6.759-3.9609-0.63827 0.40611-2.1005 3.2117-3.2495 6.2347-1.7121 4.5045-2.0903 7.7519-2.0964 17.996-0.0098 16.466 2.7108 29.204 7.872 36.856l3.6124 5.3557 6.761-0.66621c6.2595-0.6168 6.761-0.52191 6.761 1.2793 0 2.96-4.2657 5.1756-9.9648 5.1756h-5.0352v10.893c0 9.0105-0.27336 10.998-1.5818 11.5-2.7015 1.0367-3.2381 0.70362-3.9281-2.4381zm14.51-73.455c0-1.8333-0.53333-2.5-2-2.5s-2 0.66667-2 2.5 0.53333 2.5 2 2.5 2-0.66667 2-2.5zm11-1.5c0-3.7881-0.1608-4-3.0352-4-2.7105 0-2.9223-0.21088-1.9803-1.9711 0.80756-1.5089 1.7252-1.837 3.9139-1.3993 2.927 0.58541 5.1744-1.004 2.7403-1.9381-2.3216-0.89086-7.6387-11.422-7.6387-15.129 0-8.9276-4.9006-11.333-9.3601-4.5943l-2.6259 3.9679 2.9339 4.9759c1.6136 2.7367 3.9081 8.2473 5.0989 12.246 3.4967 11.741 3.556 11.843 6.9284 11.843 2.8622 0 3.0248-0.21495 3.0248-4zm11.35-11c0.3728-1.864 1.2185-3 2.2334-3 1.1896 0 1.4845-0.61138 1.0855-2.25-0.30134-1.2375-1.3438-8.9206-2.3165-17.074l-1.7687-14.824-3.4404-1.4375c-2.7963-1.1684-4.0678-1.2106-6.7919-0.22557l-3.3515 1.2119 0.0076 9.5491c0.0095 11.905 2.3988 20.398 7.4845 26.605 4.2668 5.207 6.031 5.5786 6.8579 1.4443zm24.996-15.459c0.916-2.387-2.3675-27.917-3.7767-29.365-1.0595-1.0885-1.4881-0.55514-2.4111 3-0.92806 3.575-0.7488 6.359 1.035 16.074 2.0362 11.089 3.627 14.266 5.1527 10.291zm-14.999-29.541c1.3884-1.65 3.4534-3 4.5889-3 2.4709 0 2.5809-0.81785 0.50786-3.7775-0.88639-1.2655-2.6088-2.2225-4-2.2225-1.9395 0-2.4433 0.51547-2.4433 2.5 0 2.1905-0.43333 2.5-3.5 2.5-3.76 0-4.0304 0.47485-2.5248 4.4349 1.3118 3.4504 4.2478 3.2772 7.3713-0.4349zm-19.347 115.96c0-11.391 0.09884-11.982 1.8461-11.047 1.5399 0.82411 1.9497 2.6891 2.4709 11.244 0.63085 10.355 0.26061 11.782-3.067 11.823-0.93161 0.0114-1.25-3.0502-1.25-12.02zm11.011-11.846c-3.9152-0.69397-5.7027-4.1184-2.1498-4.1184 3.1249 0 6.8039 1.6859 7.4707 3.4234 0.6409 1.6702 0.37606 1.7047-5.3209 0.69496z"/>
 </g>
</svg>
