<svg version="1.1" viewBox="0 0 59.027 139.87" xmlns="http://www.w3.org/2000/svg">
 <g transform="translate(12.302 -19.991)">
  <path d="m35.657 153.62c0-3.5894-0.54469-7.7217-1.2104-9.1829-1.0347-2.2709-0.95151-2.8459 0.57294-3.9606 3.0562-2.2348 7.6386-19.586 7.6298-28.89-0.0068-7.1261-0.39306-8.8494-3.25-14.501-3.9172-7.749-6.4046-9.7133-14.242-11.247-3.3-0.64576-6.3306-1.6612-6.7347-2.2566-0.47818-0.70453-0.74003-0.59031-0.75 0.32713-0.0084 0.77527 2.4597 4.0044 5.4847 7.1758 4.9948 5.2365 5.5 6.1788 5.5 10.259 0 2.4708 0.27314 5.2042 0.60699 6.0742 0.4201 1.0948 0.03139 1.5818-1.2625 1.5818-1.4361 0-2.2854-1.4522-3.6634-6.2641-2.5416-8.8748-4.4257-9.8081-18.223-9.0268l-10.572 0.59871 1.8072-3.8153c1.3654-2.8825 1.5016-3.9185 0.55722-4.2372-1.6616-0.56085-1.6095-3.2553 0.062909-3.2553 0.7221 0 2.5963 1.3396 4.1649 2.9769 3.1091 3.2452 8.7812 5.5991 10.674 4.4295 0.80868-0.49979 0.51518-0.98561-0.91508-1.5147-1.1581-0.4284-2.6236-1.7469-3.2568-2.9299-1.0363-1.9363-0.9422-2.0847 0.94205-1.4867l2.0933 0.66437-2.1526-3.6484c-1.5008-2.5436-2.6882-3.5084-3.9212-3.1859-1.1473 0.30002-1.9453-0.21332-2.2716-1.4613-1.0864-4.1545-10.669 1.4067-10.669 6.1916 0 1.0582-0.68105 3.6261-1.5134 5.7065-1.3821 3.4541-1.3106 5.5931 0.82277 24.64l2.3362 20.858 4.7933 4.1583c3.3719 2.9252 4.6734 4.7431 4.3889 6.1303-0.22892 1.1163-1.1471 1.9117-2.1161 1.8331-1.3941-0.11312-1.7117 0.73948-1.7117 4.595 0 4.3605-1.9822 8.0439-4.3287 8.0439-0.36919 0-0.67126-3.9021-0.67126-8.6713 0-5.7519-0.44731-9.2028-1.3286-10.25-0.73075-0.86831-2.3058-4.2063-3.5-7.4177-1.983-5.3324-2.1673-7.6748-2.1248-27 0.04321-19.62 0.21108-21.561 2.3057-26.661 1.5205-3.7018 3.14-5.9265 4.9534-6.8046 1.9948-0.96587 2.6943-2.048 2.6943-4.1682 0-4.2798 0.89584-5.8843 4.7461-8.5007 2.8935-1.9662 3.9039-2.1876 5.8782-1.288 1.3113 0.59746 2.655 0.81543 2.9861 0.48437s1.9077-8.5398 3.5036-18.242c1.7087-10.387 3.4858-18.224 4.3224-19.061 2.9993-2.9993 12.198-0.91768 12.762 2.8879 0.18416 1.2424 1.4697 2.4105 3.3016 2.9999 3.8789 1.248 3.3828 0.46055 5.5172 8.7582 1.3948 5.4224 2.1632 14.315 3.0523 35.322 0.81677 19.299 1.5891 28.706 2.4707 30.093 1.0782 1.6966 0.65538 5.6837-2.6528 25.018-2.1645 12.65-4.0371 25.244-4.1614 27.987-0.17421 3.8447-0.62692 5.0643-1.976 5.3233-1.5222 0.29222-1.75-0.51351-1.75-6.1903zm3.5328-100.62c-1.1469-16.92-2.2091-21-5.4664-21-1.7236 0-1.927 1.4425-2.7148 19.25l-0.85162 19.25-0.5-21.648c-0.44972-19.471-0.69154-21.859-2.405-23.75-2.0091-2.2171-3.3396-2.5522-5.267-1.3262-0.72626 0.46197-1.8247 8.2207-2.8883 20.401l-1.7164 19.656 2.1383 2.7185c1.1761 1.4952 2.1383 3.5274 2.1383 4.5162 0 0.98876 0.8516 2.068 1.8925 2.3984 1.0408 0.33035 2.4439 1.932 3.118 3.5593 0.69877 1.687 3.6463 4.6149 6.8575 6.8119l5.632 3.8532 0.57565-9.0951c0.3166-5.0023 0.072331-16.52-0.54283-25.595zm-11.533 21.559c0-2.3911 1.8272-2.7504 2.985-0.58702 0.9251 1.7286 0.78485 2.028-0.94983 2.028-1.1194 0-2.0352-0.64844-2.0352-1.441zm-3.6087 6.0183c-0.68275-1.7792-3.1418-2.7901-3.8803-1.5951-0.30418 0.49218 0.24391 1.3588 1.218 1.9259 2.468 1.4368 3.3009 1.3333 2.6623-0.33081zm-7.8965-4.163c2.7201-2.7201 2.6843-6.4143-0.062135-6.4143-0.78794 0-1.4326-0.86734-1.4326-1.9274 0-2.3732-4.5169-6.078-7.3849-6.0573-3.3016 0.0239-4.3158 1.159-5.0705 5.6752l-0.70031 4.1905 4.1293 1.1119c2.2711 0.61155 4.4108 1.8758 4.7549 2.8095 0.51669 1.4021 2.1216 3.1183 2.976 3.1823 0.1125 0.0084 1.3681-1.1482 2.7902-2.5703zm1.2553 79.157c-2.9491-2.1762-1.8327-11.571 1.375-11.571 1.521 0 1.8527 0.70793 1.7567 3.75-0.06507 2.0625-0.40257 4.9565-0.75 6.4311-0.55388 2.3509-0.84724 2.522-2.3817 1.3898zm-2.9456-31.821c-0.30395-3.0649 0.16992-4.0411 6.4061-13.197 0.44532-0.65382 1.2455-0.31155 2.1438 0.91701 1.2996 1.7773 1.1217 2.3242-1.9068 5.8624-1.8371 2.1462-3.6251 5.1994-3.9733 6.7849-0.84644 3.8538-2.2707 3.6579-2.6698-0.36726z"/>
 </g>
</svg>
