<svg version="1.1" viewBox="0 0 63.731 141.84" xmlns="http://www.w3.org/2000/svg">
 <g transform="translate(-7.6628 -19.327)">
  <path d="m56.987 160.28c-0.71837-0.45562-1.5478-3.4862-1.8431-6.7347-0.45586-5.0142-1.0081-6.3217-3.6561-8.6563l-3.1191-2.75h3.1307c2.9568 0 3.2437-0.34725 5.1641-6.25 1.5734-4.8361 2.1009-9.4976 2.3315-20.606l0.29811-14.356-3.25-2.7171c-1.7875-1.4944-3.25-3.2979-3.25-4.0077 0-1.3227-3.6967-1.1178-7.25 0.40188-1.4021 0.59962-1.75 0.24669-1.75-1.7752 0-1.388 0.5625-2.7197 1.25-2.9593 0.6875-0.2396-0.71818-0.77606-3.1237-1.1921-5.8796-1.017-7.2698 0.98195-2.8081 4.0375 2.29 1.5683 3.9178 4.1051 5.8078 9.0513 2.571 6.7282 2.5838 6.8794 0.61309 7.2098-2.4077 0.40368-3.4279-1.0358-4.2711-6.0266-0.62722-3.7125-0.65776-3.7331-6.5067-4.3948-3.8302-0.43334-6.4676-1.318-7.5739-2.5405-1.1767-1.3003-3.066-1.8756-6.159-1.8756-4.2077 0-4.4347-0.14082-3.9885-2.4749 0.30668-1.6043-0.17994-3.0658-1.3834-4.155-1.4196-1.2847-1.8565-1.358-1.8565-0.31129 0 1.9712 6.0074 46.226 6.4548 47.551 0.20615 0.61041 2.5447 1.6562 5.1967 2.324 2.652 0.6678 5.1585 1.7434 5.5699 2.3902 1.6642 2.6165 0.73576 3.676-3.2214 3.676-3.9759 0-4 0.0233-4 3.8604 0 2.1232-0.28617 5.9482-0.63592 8.5-0.54618 3.9848-0.95934 4.6396-2.9277 4.6396-2.18 0-2.268-0.28066-1.8038-5.75 0.26839-3.1625 0.65849-6.5939 0.86689-7.6253 0.2084-1.0314-1.4183-6.8814-3.6149-13-3.8933-10.844-4.0076-11.54-4.541-27.625-0.30395-9.1661-1.1975-19.121-2.0104-22.396l-1.4633-5.8958 3.8948-4.1042c3.3212-3.4998 3.799-4.5461 3.2443-7.1042-0.94572-4.361 1.2563-6.5 6.6915-6.5h4.3903l-0.54278-3.25c-0.29853-1.7875-1.203-8.5096-2.0098-14.938-1.2993-10.351-1.2951-12.267 0.03621-16.75 1.25-4.2093 1.8968-5.062 3.8395-5.062 1.2849 0 3.7008-0.2729 5.3685-0.60644 2.4655-0.49311 3.3136-0.16607 4.5382 1.75 0.8283 1.296 3.2003 12.155 5.2712 24.13 2.1819 12.618 4.1884 21.633 4.7717 21.438 0.55359-0.18453 3.2861-8.63 6.0723-18.768l5.0657-18.432 5.8545-0.81762c3.2199-0.44969 6.0973-0.57482 6.394-0.27806 1.7302 1.7302 0.87071 13.669-3.0296 42.084-4.0106 29.218-4.341 33.173-3.8015 45.5 0.47276 10.8 0.2468 15-1.1297 21-0.94638 4.125-1.7361 11.212-1.7549 15.75-0.0345 8.3342-0.60917 9.4403-3.8403 7.391zm6.328-94.254c1.9047-15.063 3.4665-28.369 3.4706-29.57 0.0072-2.0871-3.4209-4.2223-4.7097-2.9335-0.31157 0.31157-2.2901 8.2389-4.3967 17.616-2.1066 9.3773-4.6303 18.149-5.6081 19.493-1.3183 1.8119-2.7291 2.4518-5.457 2.4751-4.2439 0.03625-3.3672 2.7566-8.8522-27.469-4.0729-22.444-3.7918-21.5-6.4042-21.5-1.9397 0-2.3683 0.81194-3.4083 6.4561-1.5725 8.5345 0.08762 20.214 3.2323 22.74 1.6901 1.3575 1.8621 1.9463 0.8616 2.95-2.3761 2.3837-1.3354 7.0496 3.1826 14.27 3.6457 5.8263 5.8204 8.0167 12.25 12.338 4.2996 2.8899 8.7045 6.5777 9.7887 8.1953 1.0843 1.6176 2.11 2.8024 2.2794 2.633 0.16941-0.16941 1.8664-12.632 3.7711-27.695zm-36.522 21.724c0-0.76389 0.7875-1.3264 1.75-1.25 1.237 0.09818 1.75-0.59392 1.75-2.3611 0-2.2169-0.47044-2.5343-4.1549-2.8028-3.4533-0.25171-4.2586-0.71608-4.7691-2.75-0.50445-2.0099-1.2362-2.4472-4.0951-2.4472h-3.4809v4.7143c0 4.3903 0.11394 4.6003 1.6582 3.0561 1.4619-1.4619 1.9795-1.492 4.3729-0.25433 1.4931 0.77211 2.9548 2.3219 3.2482 3.4439 0.59564 2.2777 3.7207 2.8247 3.7207 0.65116zm12.554-5.524c-0.82619-1.3368-4.5539-1.4488-4.5539-0.13682 0 1.4377 3.379 3.0444 4.3629 2.0745 0.47458-0.46782 0.56052-1.3398 0.19098-1.9377zm-7.7988-6.3371c-0.22641-0.6875-1.3547-1.3893-2.5074-1.5596-1.977-0.29205-2.0166-0.49908-0.69904-3.6524l1.3967-3.3428-3.9929-1.5976c-2.1961-0.8787-4.2088-1.5976-4.4726-1.5976s-0.47976 1.6547-0.47976 3.6772c0 2.9112 0.67696 4.2567 3.25 6.4594 3.3356 2.8555 8.2629 3.9148 7.505 1.6135zm6.245 76.25c0-5.5556 0.30952-7 1.5-7s1.5 1.4444 1.5 7-0.30952 7-1.5 7-1.5-1.4444-1.5-7zm-3.8417-20.866c-1.6602-5.5414-1.5043-6.9098 1.5794-13.857 2.4118-5.4336 3.1112-6.2265 5.5123-6.25 3.6071-0.0353 3.6746 2.7637 0.14586 6.0488-2.4773 2.3062-2.5732 2.7717-1.9691 9.5554 0.53607 6.0196 0.38368 7.2276-0.97765 7.75-2.7127 1.041-3.0921 0.75384-4.2909-3.2472z"/>
 </g>
</svg>
