<svg version="1.1" viewBox="0 0 68.187 157.96" xmlns="http://www.w3.org/2000/svg">
 <g transform="translate(-2.0743 -15.558)">
  <path d="m13.261 165.1c0-7.8529-0.37879-9.3936-5.5933-22.75l-5.5933-14.327 0.70662-26.25c0.59425-22.076 0.93976-26.25 2.1727-26.25 1.071 0 1.3124-0.74112 0.89571-2.75-3.1448-15.162-3.7296-22.991-2.5002-33.471 0.69171-5.8965 1.5173-11.114 1.8347-11.595s2.2195-1.1335 4.227-1.45c5.3427-0.84244 7.194 1.7185 10.313 14.266 1.4356 5.775 2.915 11.175 3.2877 12 0.37269 0.825 0.94604-5.475 1.2741-14 0.54684-14.21 0.79955-15.809 3.0358-19.208 2.3361-3.5509 2.6819-3.7095 8.1759-3.75 5.6561-0.04173 5.7577 0.0082 7.242 3.5607 0.89787 2.1489 2.0864 11.067 2.9451 22.098 2.0007 25.704 2.394 25.767 6.4013 1.0255 1.5713-9.7012 3.4336-18.333 4.1384-19.183 0.91029-1.0968 3.129-1.5442 7.6591-1.5442h6.3776v9.6086c0 5.2847-1.6005 24.747-3.5566 43.25-3.1272 29.58-3.5196 36.176-3.25 54.641 0.24591 16.846-0.06534 23.325-1.5733 32.75-1.7575 10.985-2.0272 11.75-4.143 11.75-2.7278 0-3.4728-1.6713-3.4908-7.8318-0.02206-7.5417-0.66497-8.869-4.055-8.3714-2.6037 0.38214-2.9313 0.13817-2.9313-2.1833 0-2.3033 0.4018-2.6135 3.385-2.6135 5.8924 0 6.9099-2.8624 7.8203-22l0.78494-16.5-5.3609-5.0395c-2.9485-2.7718-5.6696-6.0119-6.0468-7.2004-1.112-3.5035-6.6234-6.2601-12.516-6.2601-2.8587 0-6.1067-0.48646-7.2176-1.081-4.3165-2.3101-2.953 0.4262 3.4179 6.8594 5.2281 5.2792 7.3172 8.3277 9.7349 14.206 2.8494 6.9277 2.9521 7.5766 1.3808 8.7255-1.3959 1.0207-1.9304 0.93463-3.0081-0.48426-1.2389-1.6311-1.3123-1.6298-1.3423 0.0245-0.01749 0.9625-0.63462 1.75-1.3714 1.75-0.86609 0-1.8065 2.4743-2.6604 7-1.0663 5.6512-1.6753 7-3.1604 7-1.5869-2e-5 -1.8396-0.8456-1.8396-6.1556 0-5.058 0.45484-6.7519 2.5509-9.5 1.403-1.8394 3.2333-3.3444 4.0674-3.3444 1.1071 0 1.3333-0.60746 0.83788-2.25-1.6974-5.6278-3.8523-8.5989-8.2089-11.318-2.5837-1.6126-7.6338-5.407-11.222-8.432-3.5887-3.025-7.3227-6.1262-8.298-6.8917-1.6893-1.3259-1.7416-0.45143-1.1062 18.5l0.66692 19.892 4.1288 9.5c3.8958 8.9638 4.311 9.5177 7.3562 9.8134 4.011 0.38944 4.3769 3.2034 0.72742 5.5947-2.3161 1.5176-2.5 2.2169-2.5 9.508 0 7.8207-0.56762 9.0839-4.0818 9.0839-0.50502 0-0.91821-3.7905-0.91821-8.4234zm46.517-79.827c1.007-9.4875 1.8779-19.05 1.9352-21.25 0.05736-2.2 0.59345-4.9 1.1913-6s1.9071-8.1994 2.9095-15.776c1.6592-12.542 1.6812-13.918 0.24608-15.353-2.0549-2.0549-5.6363-0.94585-6.2832 1.9458-0.26867 1.2008-1.5793 9.6596-2.9126 18.797-1.6163 11.078-3.1368 18.011-4.5632 20.807-1.328 2.6031-1.8873 4.9865-1.4749 6.2856 0.61661 1.9428 0.38745 2.0469-3.2007 1.4541-2.1257-0.35116-4.6523-0.64342-5.6148-0.64948-1.0797-0.0068-1.75-0.7771-1.75-2.011 0-1.171 0.66667-2 1.6084-2 1.1603 0 1.4589-0.62683 1.0718-2.25-0.29516-1.2375-0.85369-4.4453-1.2412-7.1283-0.52026-3.6023-1.2034-5.0088-2.6117-5.3771-1.7968-0.46988-1.8095-0.60673-0.21794-2.3653 1.4934-1.6502 1.6077-3.5147 0.98542-16.086-0.38922-7.8635-1.1999-14.817-1.8137-15.557-0.61041-0.7355-2.27-1.202-3.6881-1.0367-3.672 0.42807-5.165 4.3207-5.8112 15.151-0.45188 7.5741-0.23824 9.8329 1.1915 12.598 1.5006 2.9019 1.569 3.8934 0.49294 7.1538-0.76511 2.3183-1.043 6.3537-0.71703 10.414 0.48964 6.0999 0.36124 6.6954-1.6086 7.46-3.4615 1.3436-5.6792-1.7237-6.597-9.1239-0.44775-3.6104-1.9933-8.7928-3.522-11.809-2.1432-4.2294-2.5924-6.199-2.1068-9.2364 0.44692-2.7949 0.02679-5.2334-1.522-8.8336-2.406-5.593-4.8828-6.4854-6.7325-2.4259-2.0812 4.5677-1.0252 14.453 1.5439 14.453 1.0574 0 1.2997 0.75066 0.88758 2.75-1.0192 4.9442-0.92436 9.6527 0.31092 15.441l1.2145 5.6914 5.5459 1.2411c4.1398 0.92644 5.8136 1.8287 6.6018 3.5586 0.81756 1.7944 1.8661 2.319 4.6454 2.3243 2.9693 0.0057 3.9961 0.60401 5.943 3.463 1.2944 1.9009 4.7378 4.8018 7.652 6.4464s7.4534 5.4863 10.087 8.537c2.6338 3.0507 5.0823 5.5468 5.4412 5.5468 0.35884 0 1.4764-7.7625 2.4834-17.25zm-39.728-3.6058c-0.49565-2.5737-3.1227-2.3463-5.1428 0.44515-1.8267 2.5243-1.8195 2.5976 0.49712 5.0635l2.3506 2.5021 1.3036-3.1948c0.71699-1.7571 1.1631-3.9243 0.9914-4.816zm10.195 6.6058c-0.02183-1.7819-1.2181-3.2977-3.1701-4.0168-2.0858-0.76839-2.8666 1.171-1.4158 3.5168 1.2403 2.0055 4.6089 2.3728 4.5859 0.5zm-17.971-4c0.0075-0.6875 0.28499-2.2625 0.61663-3.5 0.95227-3.5534-3.1917-2.9989-5.095 0.68171-1.6261 3.1446-1.8339 2.9246 3.7147 3.9321 0.4125 0.0749 0.75614-0.42632 0.76366-1.1138zm24.736 79.588c-4.7678-1.4595-5.5389-2.5534-3.7623-5.3378 0.79006-1.2382 1.7011-0.75823 5.22 2.75 2.3446 2.3375 4.0445 4.2032 3.7776 4.1459-0.26691-0.0573-2.6228-0.75842-5.2353-1.5581z"/>
 </g>
</svg>
