<svg version="1.1" viewBox="0 0 120.08 140" xmlns="http://www.w3.org/2000/svg">
 <g transform="translate(-.27392 -25)">
  <path d="m78.198 161.25c-2.5555-2.0625-5.3334-5.159-6.1731-6.8812-2.1549-4.4197-8.4023-6.3604-20.6-6.3993-9.1884-0.0293-10.013-0.22149-20.572-4.7977l-11-4.7672-2.4475-8.139c-1.7872-5.9432-3.0626-8.4682-4.7276-9.3593-2.2235-1.19-2.2869-1.6563-2.5525-18.786l-0.27244-17.565-9-3.3169-0.2892-8.0423-0.2892-8.0423 5.2892-0.52473c2.9091-0.2886 11.139-1.0275 18.289-1.642l13-1.1173 15 5.5539c14.066 5.2079 15.561 5.5546 24 5.565 11.465 0.01408 20.516 2.912 24.241 7.7615 1.373 1.7875 3.3009 3.25 4.2841 3.25 1.1709 0 1.6654 0.60383 1.4334 1.75-0.19485 0.9625-0.63029 3.8875-0.96765 6.5-0.40652 3.1481-1.0922 4.75-2.0331 4.75-0.78082 0-1.6908 1.2375-2.0222 2.75s-0.7491 3.2428-0.92819 3.845c-0.17909 0.60225 0.48071 2.896 1.4662 5.0972 1.3332 2.9778 3.9975 5.5945 10.409 10.223 8.009 5.7818 8.6173 6.4691 8.6173 9.7361 0 1.9334-0.38767 3.3652-0.86148 3.1819-4.1299-1.598-19.208-12.909-21.483-16.116l-2.8447-4.0097-1.7714 3.9567c-1.1217 2.5054-2.9585 4.5316-5.0077 5.524-1.8022 0.87285-2.7671 1.8573-2.1775 2.2218 0.58233 0.3599 0.89102 1.2024 0.68598 1.8723-0.20504 0.66988-0.64396 2.4555-0.97538 3.968s-1.2532 2.75-2.0483 2.75-1.9274 0.9-2.5161 2c-1.2805 2.3926-0.42066 2.4915 4.3458 0.5 4.7259-1.9746 4.8395-1.9445 4.4707 1.1844-0.25149 2.1336-1.8241 3.5971-7.6638 7.1321l-7.3473 4.4476 2.5201 2.3367c1.386 1.2852 2.8102 3.2508 3.1647 4.3679 0.41522 1.3083 1.5105 2.0312 3.0773 2.0312 1.3379 0 2.4326 0.53055 2.4326 1.179 0 1.7179-2.3059 7.821-2.955 7.821-0.30427 0-2.6441-1.6875-5.1996-3.75zm0.15462-21.359c0-2.0932-2.4863-1.8594-4.7969 0.45107l-2.5889 2.5889 3.6929-1.1334c2.0311-0.62335 3.6929-1.4813 3.6929-1.9066zm-35.353-1.0033c-0.11289-2.3827 0.37991-3.3127 2.1026-3.9678 2.0991-0.79827 2.25-0.58949 2.25 3.1121 0 4.2919 0.64371 4.6392 5.6008 3.0218 1.5946-0.5203 6.1439-1.884 10.11-3.0306 6.9133-1.9987 7.2376-2.2294 7.87-5.6006 0.36279-1.9338 0.41063-3.765 0.10632-4.0694-0.30432-0.30432-6.454 0.43507-13.666 1.6431-12.627 2.115-13.365 2.1346-19.915 0.52935-6.154-1.5081-6.9638-2.0054-8.4953-5.2168l-1.6928-3.5498 5.2912 0.67537c9.692 1.2371 9.2621 1.3234 9.6297-1.9346 0.18617-1.65 0.79935-3.5572 1.3626-4.2382 1.3455-1.6267 0.56095-1.8468-11.951-3.3521l-10.25-1.2332v-2.8383c0-1.608 0.54183-2.835 1.25-2.8308 1.1822 7e-3 10.387 1.3415 17.5 2.5369l3.25 0.54618v-4.5453c0-4.8526 0.0068-4.8637 2.4182-3.9383 1.0751 0.41254 1.5818 1.8796 1.5818 4.5794 0 3.7918 0.12506 3.949 2.75 3.4574 1.5125-0.28332 5-0.78611 7.75-1.1173 10.966-1.3208 10.5-0.98895 10.5-7.47v-5.7846l-4.25-0.55822c-15.258-2.004-40.844-3.9477-44-3.3423l-3.75 0.71934v24.85l2.8848 2.1328c2.2826 1.6876 3.0262 3.1984 3.5619 7.237 0.57523 4.3363 1.2927 5.6372 4.7693 8.6471 4.889 4.2327 6.203 5.0487 10.784 6.6963 4.817 1.7325 4.8132 1.7339 4.6474-1.7655zm22.775-15.925c6.4193-2.9106 6.6859-3.1715 6.3883-6.25-0.20731-2.1445-0.80928-3.1592-1.8106-3.0519-0.825 0.0884-6.5625 0.71093-12.75 1.3835l-11.25 1.2229v4.3031c0 4.1054 0.14933 4.3217 3.25 4.7064 7.413 0.91995 9.79 0.57984 16.172-2.314zm20.643-8.9978c1.0638-0.56935 1.9274-1.5818 1.919-2.25-0.0107-0.84636-0.27611-0.80323-0.87516 0.14219-1.3184 2.0808-4.5966 0.51364-6.5432-3.128-1.1124-2.0811-1.6087-4.8287-1.3962-7.729l0.3298-4.5 16.206-0.57614 1.231-4.1086c1.1912-3.976 1.1309-4.2088-1.8696-7.2119-2.7749-2.7773-4.2281-3.275-13.834-4.7374-5.9034-0.89877-11.071-1.4347-11.484-1.191-0.4125 0.24373-0.75 1.6187-0.75 3.0554 0 1.4367-0.73625 3.4258-1.6361 4.4201-2.7992 3.093 0.91516 3.4796 3.9805 0.4143 2.368-2.368 5.6556-3.4682 5.6556-1.8926 0 0.36964-0.68705 4.3386-1.5268 8.82l-1.5268 8.1479 3.7128 6.68c3.7519 6.7503 4.9002 7.5213 8.4065 5.6448zm3.864-9.2148c0.03866-0.4125-1.0547-0.75-2.4297-0.75-2.9462 0-3.1089 0.66972-0.78597 3.2365 1.6437 1.8162 1.7434 1.8195 2.4297 0.0787 0.39363-0.99838 0.74732-2.1527 0.78597-2.5652zm-32.93-19.25c0-0.825 0.73789-1.5 1.6398-1.5 3.621 0 6.0165-7.4272 2.7943-8.6637-0.97629-0.37464-2.8333 0.62752-4.9319 2.6615l-3.366 3.2624-0.63625-7.7013-8-2.2493c-4.4-1.2371-8.1125-2.2629-8.25-2.2795-0.1375-0.01661-0.25 2.8948-0.25 6.4698 0 5.8333-0.20513 6.5-2 6.5-1.8207 0-2-0.66667-2-7.4371v-7.4371l-3.25 0.39717c-1.7875 0.21844-7.4992 0.6414-12.693 0.9399-5.9194 0.34022-9.7382 1.0081-10.235 1.79-1.4975 2.3582-0.81814 5.4028 1.7454 7.8229 2.2998 2.1711 4.9374 2.7523 25.25 5.5645 12.475 1.7271 23.019 3.1896 23.432 3.25 0.4125 0.06039 0.75-0.56521 0.75-1.3902zm6.5-33.053c-9.9-1.2872-18.562-2.3644-19.25-2.3938-2.1172-0.09037-1.4387-4.1913 0.78998-4.7741 1.928-0.50419 1.947-0.63625 0.34501-2.4064-1.3725-1.5166-3.1398-1.8736-9.29-1.8767-9.8119-0.0048-14.095-2.2379-14.095-7.3487 0-2.8346 0.64381-3.8079 3.9786-6.0147 2.8089-1.8588 5.2941-2.6329 8.4532-2.6329 4.3247 0 4.5397 0.14701 6.4154 4.3875 1.5212 3.4388 2.7188 4.6442 5.5391 5.575 1.9791 0.65315 4.0004 1.9061 4.4919 2.7843 0.81209 1.4511 1.384 1.4573 6.2693 0.06755l5.3757-1.5292 10.488 7.2699c6.5689 4.5532 10.488 7.9255 10.488 9.0241 0 0.9648-0.45 1.8564-1 1.9813-0.55 0.12491-9.1-0.82608-19-2.1133z"/>
 </g>
</svg>
