<svg version="1.1" viewBox="0 0 131.73 135.85" xmlns="http://www.w3.org/2000/svg">
 <g transform="translate(-5.8328 -23.228)">
  <path d="m42.327 158.55c-1.4134-1.0546-1.84-3.634-2.3629-14.287l-0.63816-13-8.483-9-2.8824-22.995c-2.8174-22.476-2.9558-23.091-6.1378-27.259-1.7905-2.3456-6.1206-11.411-9.6226-20.145l-6.3672-15.881 2.8905-5.0065c3.3011-5.7178 4.3282-6.6957 7.934-7.5544 2.3489-0.55936 2.8112-0.13155 4.9836 4.6121 1.317 2.8758 5.1667 8.1537 8.5549 11.729s6.3205 7.2179 6.5164 8.0952c0.30445 1.3641 3.7191 0.70209 23.565-4.5685l23.209-6.1638 5.9431 6.0685c3.2687 3.3377 7.1699 8.5298 8.6693 11.538l2.7262 5.4694 3.8406-7.6331c3.2191-6.3977 4.3263-7.7397 6.8416-8.2922 1.6505-0.36252 3.8374-1.8074 4.8597-3.2108 1.4436-1.9817 3.4049-2.8508 8.7804-3.8905 9.4002-1.8182 9.0038-1.9137 10.812 2.6058l1.6077 4.0181-5.4816 13.379c-4.1519 10.134-5.7012 15.342-6.3871 21.472-0.75427 6.7418-1.3834 8.6425-3.7676 11.382-1.5741 1.8087-6.8693 11.004-11.767 20.434-5.7108 10.995-9.5667 17.318-10.75 17.628-1.5851 0.41452-1.8451 1.5319-1.8451 7.9294 0 4.0958-0.28911 10.213-0.64246 13.594l-0.64245 6.1467h-6.7151v-19.962l-2.75-0.60257c-5.4144-1.1864-5.3673-1.1216-3.5638-4.9038 1.513-3.1728 2.0973-3.5359 5.749-3.5727l4.0648-0.041 9.4526-16.208c5.1989-8.9142 10.073-18.008 10.831-20.209 0.75797-2.2008 2.1505-4.7214 3.0945-5.6014 1.023-0.95356 2.6026-5.8235 3.91-12.054 1.2065-5.7498 3.7728-14.477 5.7029-19.393 1.9301-4.9164 3.5093-9.2795 3.5093-9.6958s-1.4762-0.75688-3.2804-0.75688c-2.845 0-4.0895 0.96226-9.3764 7.25-6.0694 7.2183-9.3432 14.093-9.3432 19.621 0 3.9015-11.318 14.449-20.854 19.434-5.0705 2.6506-7.8947 4.8497-9.3109 7.25l-2.0328 3.4454h-21.739l-14.76-18.5-2.2225-11.345c-1.2224-6.2399-2.0027-11.918-1.734-12.618s-1.7631-3.4697-4.515-6.1546c-3.0043-2.9311-6.5721-7.9784-8.9292-12.632-2.1592-4.2625-4.5589-7.75-5.3328-7.75-3.3797 0-4.5704 1.2694-4.556 4.857 0.01115 2.7679 2.2744 7.538 9.4216 19.857l9.407 16.214 2.6505 21.286c1.848 14.841 3.2609 22.572 4.6663 25.533 2.4091 5.0761 9.2813 11.253 12.52 11.253 1.9078 0 2.32 0.52961 2.32 2.981 0 2.3156-0.53765 3.1159-2.4089 3.5855-2.1875 0.54903-2.5173 1.4008-3.5886 9.269-1.8225 13.384-2.1842 14.488-4.244 12.951zm13.241-73.312c0-0.28873-1.575-3.6525-3.5-7.475-3.1142-6.1839-3.5-7.8171-3.5-14.815 0-7.5214-0.11469-7.9167-2.6292-9.0624-3.1146-1.4191-2.9977-1.503-4.6801 3.3563-1.2608 3.6417-1.1021 4.433 3.2418 16.164 4.5566 12.306 4.5752 12.335 7.8175 12.346 1.7875 0.0059 3.25-0.22547 3.25-0.5142zm15.978-0.72504c-0.01208-0.6875-0.89008-3.1625-1.9511-5.5-1.7112-3.7699-2.3074-4.25-5.278-4.25-4.9819 0-5.8357 1.3891-4.0588 6.6039 1.4971 4.3939 1.5004 4.3961 6.4039 4.3961 3.2698 0 4.8987-0.41688 4.884-1.25zm8.022 0.25c0-0.55-0.45-1-1-1s-1 0.45-1 1 0.45 1 1 1 1-0.45 1-1zm2.6149-19.57-0.68843-14.57 5.5735 0.63994 1.5 13.175c0.825 7.2463 1.8347 13.506 2.2439 13.911 0.96436 0.95346 4.5711-2.3272 6.3585-5.7836 1.8494-3.5764 1.7706-7.2476-0.19062-8.8753-0.87353-0.72497-3.5607-5.2456-5.9716-10.046-2.4108-4.8003-4.8278-9.0024-5.371-9.3381-0.54321-0.33572-3.8815-0.88064-7.4184-1.2109-5.7195-0.5341-6.4961-0.39211-7.0215 1.2838-1.2049 3.8431-0.89391 13.146 0.73166 21.884 2.7251 14.65 2.1451 13.5 6.8098 13.5h4.1326zm-16.865 3.5808c0.1375-6e-3 0.25-4.5108 0.25-10.011v-10h-4.9769c-4.1586 0-5.2371 0.3971-6.5594 2.4151-1.5815 2.4136-1.4254 4.8586 1.1338 17.768l0.53186 2.6827 4.6853-1.4219c2.5769-0.78203 4.7978-1.4268 4.9353-1.4327zm-2.75 45.989v-13h3.5c4.0019 0 4.031 0.12306 2.0345 8.5885-1.2508 5.3037-1.2489 6.7099 0.01478 10.909 1.952 6.4859 1.9467 6.5025-2.0493 6.5025h-3.5z"/>
 </g>
</svg>
