<svg version="1.1" viewBox="0 0 83.356 146.92" xmlns="http://www.w3.org/2000/svg">
 <g transform="translate(-2.0593 -20.426)">
  <path d="m72.89 166.76c-0.6875-0.27741-1.25-2.094-1.25-4.0368s-0.78432-5.7408-1.7429-8.4398c-1.4051-3.9562-2.3809-5.138-5.0345-6.0976-5.4384-1.9666-5.4256-5.2363 0.03977-10.161 4.085-3.6808 4.6114-4.6608 5.1194-9.5311 0.34668-3.3233-0.20119-10.212-1.4128-17.765-1.9595-12.214-2.0408-12.43-8.224-21.798-5.3312-8.0772-6.644-9.465-8.9719-9.4853-1.7906-0.01554-3.2659 0.79886-4.2966 2.3719-0.86329 1.3176-2.4154 2.6167-3.4491 2.887-2.4622 0.64389-4.8289 8.0468-3.2 10.009 0.81133 0.9776 0.82134 1.6592 0.03591 2.4446-0.59899 0.59899-0.76581 1.6121-0.37071 2.2514 1.4357 2.323 5.5074-2.9863 5.5074-7.1814 0-3.6928 0.1087-3.8178 2.75-3.1634 6.9171 1.7138 7.7696 2.1022 8.0733 3.6787 0.24603 1.2769-0.41142 1.6781-2.75 1.6781-2.6115 0-3.0733 0.37563-3.0733 2.5 0 1.8333 0.53333 2.5 2 2.5 1.1809 0 2 0.66666 2 1.6278 0 1.3434-0.71026 1.5142-4.0645 0.97786-3.1911-0.51028-4.6748-0.21542-6.9044 1.3722-3.6768 2.6181-8.8501 2.5699-14.416-0.13425-4.0148-1.9505-4.4784-2.5472-4.8567-6.25-0.22999-2.2515-0.76785-4.8811-1.1952-5.8436-0.6092-1.3719-0.30166-1.75 1.4235-1.75 1.312 0 2.3989-0.75838 2.6917-1.8781 0.27012-1.033 1.578-2.3733 2.9064-2.9786s2.4152-1.7851 2.4152-2.6219c0-0.83679 0.62254-1.5214 1.3834-1.5214 1.1704 0 3.006-4.924 2.1575-5.7874-0.15536-0.15809-1.4523 0.24557-2.8821 0.89702-2.0155 0.9183-2.9283 0.91168-4.0623-0.02946-1.1637-0.96582-1.9873-0.87017-4.0296 0.46799-2.6011 1.7043-3.3944 3.4519-1.5669 3.4519 0.55 0 1 1.1731 1 2.607 0 1.9741-0.38673 2.4586-1.5929 1.9957-0.8761-0.33619-2.6337-0.87247-3.9057-1.1917-2.6444-0.6637-2.4011-1.2245-5.4626 12.589l-2.1056 9.5 3.9492 13.704c5.0402 17.49 7.5771 21.929 13.343 23.349l4.2745 1.0525 0.02777 7.9475c0.01527 4.3711 0.40902 9.41 0.875 11.198 0.81711 3.1344 0.74022 3.25-2.1625 3.25-2.9148 0-3.0323-0.18151-3.7226-5.75-0.977-7.8815-2.5807-11.284-7.2171-15.311-3.8584-3.3513-4.0923-3.9407-9.146-23.044l-5.1863-19.605 1.3266-8.9616c1.3051-8.816 1.2645-9.3098-2.5008-30.395-3.1004-17.362-3.7131-22.81-3.2254-28.683l0.602-7.25h5.4861c3.6233 0 6.0127 0.52662 7.0371 1.551 0.85303 0.85303 2.8702 6.8155 4.4825 13.25 5.3597 21.389 3.777 18.751 12.075 20.128 10.938 1.8147 16.09 5.0479 27.204 17.071 5.3381 5.775 10.307 11.928 11.042 13.673 0.7349 1.745 2.5193 11.131 3.9654 20.858l2.6292 17.686-5.2243 13.316 2.5662 11.368c1.4114 6.2525 2.5662 11.533 2.5662 11.734 0 0.49718-2.2174 0.32176-3.75-0.29667zm-39.25-76.529c0-1.4314-1.766-0.86097-2.393 0.77292-1.0932 2.8489-0.57406 3.9588 0.92481 1.9771 0.80751-1.0676 1.4682-2.3051 1.4682-2.75zm11.686-12.983c2.9707-2.7909 2.9235-4.2271-0.18555-5.6437-1.9964-0.90961-2.5-0.8664-2.5 0.21448 0 0.74446-0.28125 2.7598-0.625 4.4786-0.73596 3.6798 0.1383 3.9309 3.3105 0.95069zm-29.235-2.0757c0.26896-1.2375 0.9094-5.9963 1.4232-10.575 0.87402-7.7888 0.73103-9.0703-2.22-19.895-1.9512-7.1574-3.8033-11.978-4.8562-12.64-0.93612-0.58822-1.9234-0.84811-2.194-0.57752s0.59851 10.38 1.9313 22.465c1.3328 12.085 2.4326 22.31 2.444 22.723 0.05016 1.8161 3.0308 0.52822 3.4716-1.5zm18.389-5.2971c0.63828-1.4009 1.1455-2.8634 1.1272-3.25-0.04773-1.0086-3.9667 3.8402-3.9667 4.9078 0 1.8106 1.7156 0.80892 2.8395-1.6578zm-7.0556-1.2982c1.5327-0.9725 0.54931-4.1547-1.2839-4.1547-1.2203 0-2.5 2.0895-2.5 4.0818 0 1.1306 2.0546 1.1702 3.7839 0.07295zm18.216 64.75c0-11.29-0.89509-13.736-6.5519-17.904-3.9907-2.9404-4.7719-6.5171-1.1981-5.485 6.5543 1.8929 11.003 8.3221 12.829 18.54 1.1524 6.4487 1.1168 6.6915-1.583 10.771-1.5191 2.2955-2.9272 4.1737-3.1291 4.1737-0.20191 0-0.36711-4.5431-0.36711-10.096zm24.5-75.904c-0.59965-1.8893-1.513-2-16.507-2h-15.872l1.5333-4.5c0.89902-2.6385 2.1507-4.5 3.0259-4.5 0.8209 0 4.4256-2.8125 8.0104-6.25l6.5178-6.25-5.3544-0.6511c-10.737-1.3056-15.412-0.99557-17.354 1.1511-1.1711 1.294-3.079 1.9996-5.405 1.999-3.2696-9.24e-4 -3.8477-0.45086-6.386-4.9703-2.6647-4.7444-2.7201-5.1065-1.2243-7.999 1.3404-2.5921 2.1335-3.0297 5.4913-3.0297 2.4384 0 4.2406 0.56467 4.7591 1.4911 0.68195 1.2186 4.8866 1.613 23.003 2.1577 18.95 0.56984 22.258 0.89776 22.783 2.2589 0.36897 0.95664-0.08 1.9914-1.1247 2.5923-2.1758 1.2513-16.416 13.598-18.269 15.84-1.255 1.5183-0.80383 1.6604 5.2714 1.6604 6.0771 0 6.7389-0.20863 7.7583-2.4458l1.1144-2.4458 5.6642 2.8593c3.5747 1.8045 6.1207 3.8612 6.9016 5.5751 0.68056 1.4937 1.0811 2.872 0.89013 3.063-0.4715 0.4715-13.567 6.3943-14.138 6.3943-0.25001 0-0.74022-0.9-1.0893-2z"/>
 </g>
</svg>
